M48
; DRILL file KiCad 10.0.5 date 2026-08-21T05:45:32
; FORMAT={-:-/ absolute / inch / decimal}
; #@! TF.CreationDate,2026-08-21T05:45:32-06:00
; #@! TF.GenerationSoftware,Kicad,Pcbnew,10.0.5
; #@! TF.FileFunction,NonPlated,1,4,NPTH
FMAT,2
INCH
; #@! TA.AperFunction,NonPlated,NPTH,ComponentDrill
T1C0.0256
; #@! TA.AperFunction,NonPlated,NPTH,ComponentDrill
T2C0.0354
; #@! TA.AperFunction,NonPlated,NPTH,ComponentDrill
T3C0.0454
; #@! TA.AperFunction,NonPlated,NPTH,ComponentDrill
T4C0.0866
%
G90
G05
T1
X1.0359Y-2.325
X1.0359Y-2.7187
X1.0359Y-3.6563
X1.0359Y-4.05
X1.2041Y-4.48
X1.2041Y-4.7075
X1.6675Y-1.2041
X1.895Y-1.2041
X2.2501Y-1.0359
X2.2501Y-5.3391
X2.6438Y-1.0359
X2.6438Y-5.3391
X2.9812Y-1.0359
X2.9812Y-5.3391
X3.3749Y-1.0359
X3.3749Y-5.3391
X4.5891Y-3.6563
X4.5891Y-4.05
X4.5891Y-2.325
X4.5891Y-2.7187
T2
X1.0199Y-2.9071
X1.0199Y-3.0745
X1.0202Y-3.3031
X1.0202Y-3.4704
T3
X1.0078Y-5.3672
X4.6172Y-1.0078
X4.6172Y-5.3672
T4
X1.0312Y-1.6875
X1.0312Y-3.1875
X1.6875Y-5.3438
X2.4375Y-4.6875
X3.1875Y-1.6875
X3.1875Y-4.6875
X3.9375Y-1.0312
X3.9375Y-5.3438
X4.5937Y-3.1875
X4.5938Y-1.6875
X4.5938Y-4.6875
M30
