M48
; DRILL file KiCad 10.0.5 date 2026-08-21T05:45:32
; FORMAT={-:-/ absolute / inch / decimal}
; #@! TF.CreationDate,2026-08-21T05:45:32-06:00
; #@! TF.GenerationSoftware,Kicad,Pcbnew,10.0.5
; #@! TF.FileFunction,Plated,1,4,PTH
FMAT,2
INCH
; #@! TA.AperFunction,Plated,PTH,ComponentDrill
T1C0.0079
; #@! TA.AperFunction,Plated,PTH,ViaDrill
T2C0.0118
; #@! TA.AperFunction,Plated,PTH,ComponentDrill
T3C0.0118
; #@! TA.AperFunction,Plated,PTH,ViaDrill
T4C0.0157
; #@! TA.AperFunction,Plated,PTH,ComponentDrill
T5C0.0236
; #@! TA.AperFunction,Plated,PTH,ComponentDrill
T6C0.0630
; #@! TA.AperFunction,Plated,PTH,ComponentDrill
T7C0.0866
%
G90
G05
T1
X2.8571Y-1.8696
X2.8571Y-1.9129
T2
X1.0094Y-1.0074
X1.0212Y-3.8834
X1.0212Y-3.9227
X1.0212Y-3.9818
X1.0212Y-4.0212
X1.0221Y-2.3545
X1.0221Y-2.3939
X1.0221Y-2.4529
X1.0221Y-2.4923
X1.0221Y-2.2554
X1.0221Y-2.2948
X1.0221Y-2.7485
X1.0221Y-2.7879
X1.0221Y-3.5871
X1.0221Y-3.6265
X1.0221Y-4.0792
X1.0221Y-4.1186
X1.0264Y-2.9908
X1.0546Y-2.2758
X1.0546Y-2.7689
X1.0546Y-3.6075
X1.0546Y-4.0996
X1.0556Y-3.9024
X1.0556Y-4.0008
X1.0566Y-2.3735
X1.0566Y-2.4719
X1.0625Y-4.219
X1.0842Y-4.3755
X1.0842Y-5.2928
X1.0881Y-3.8834
X1.0881Y-3.9227
X1.0881Y-3.9818
X1.0881Y-4.0212
X1.0891Y-2.3545
X1.0891Y-2.3939
X1.0891Y-2.4529
X1.0891Y-2.4923
X1.0891Y-2.2554
X1.0891Y-2.2948
X1.0891Y-2.7485
X1.0891Y-2.7879
X1.0891Y-3.5871
X1.0891Y-3.6265
X1.0891Y-4.0792
X1.0891Y-4.1186
X1.1117Y-5.1078
X1.1176Y-1.5428
X1.1393Y-1.8735
X1.1471Y-2.1786
X1.159Y-1.0782
X1.1629Y-5.1176
X1.1806Y-1.3617
X1.1983Y-4.2908
X1.2003Y-1.1747
X1.2049Y-4.5144
X1.2049Y-4.6731
X1.2141Y-1.4314
X1.216Y-5.0507
X1.229Y-3.5656
X1.2302Y-2.1845
X1.2308Y-5.1678
X1.2377Y-5.2219
X1.2397Y-3.0231
X1.2397Y-3.7456
X1.2436Y-3.596
X1.2485Y-3.1581
X1.2489Y-1.4314
X1.2495Y-4.9031
X1.2594Y-2.9542
X1.2653Y-1.281
X1.2653Y-1.3125
X1.2653Y-4.281
X1.2653Y-4.3125
X1.2653Y-4.344
X1.2692Y-3.1944
X1.2731Y-3.0471
X1.279Y-2.3676
X1.2869Y-1.1432
X1.2879Y-5.1639
X1.2889Y-2.9286
X1.2928Y-2.031
X1.2928Y-2.0625
X1.2928Y-2.094
X1.2928Y-2.781
X1.2928Y-2.8125
X1.2928Y-2.844
X1.2974Y-4.993
X1.2987Y-3.2243
X1.3023Y-3.0589
X1.3094Y-2.5952
X1.3095Y-3.4267
X1.3105Y-1.4582
X1.3105Y-2.2338
X1.3302Y-4.281
X1.3379Y-3.3654
X1.346Y-5.0054
X1.3521Y-4.6115
X1.3558Y-3.1905
X1.3597Y-1.281
X1.3597Y-1.3125
X1.3597Y-2.031
X1.3597Y-2.0625
X1.3597Y-2.094
X1.3597Y-2.781
X1.3597Y-2.8125
X1.3597Y-2.844
X1.3597Y-4.344
X1.3647Y-3.4061
X1.3674Y-4.3134
X1.3735Y-3.5625
X1.3814Y-5.2279
X1.3873Y-3.7338
X1.3891Y-3.426
X1.3991Y-3.596
X1.4247Y-5.0645
X1.4296Y-3.0723
X1.4306Y-3.1393
X1.4326Y-3.5034
X1.4345Y-3.2712
X1.4503Y-3.8991
X1.4542Y-1.5625
X1.4562Y-2.3578
X1.4562Y-2.8302
X1.4641Y-2.9405
X1.4646Y-3.5714
X1.4719Y-2.657
X1.4766Y-2.584
X1.4818Y-4.5566
X1.4857Y-4.6314
X1.4877Y-2.031
X1.4911Y-4.7023
X1.4936Y-2.3164
X1.5015Y-5.0527
X1.5034Y-1.7908
X1.5091Y-1.6203
X1.5097Y-3.1603
X1.5172Y-3.279
X1.5251Y-4.6865
X1.5251Y-4.718
X1.5314Y-1.6426
X1.536Y-3.7425
X1.5369Y-3.4434
X1.5369Y-3.4749
X1.5458Y-4.5172
X1.5527Y-4.6314
X1.5566Y-4.6865
X1.5566Y-4.718
X1.5586Y-5.2377
X1.5842Y-4.7534
X1.5891Y-2.2992
X1.6019Y-1.5733
X1.6038Y-1.6983
X1.6038Y-4.4975
X1.6054Y-1.4322
X1.6127Y-3.3635
X1.6284Y-1.5347
X1.6373Y-1.6137
X1.6373Y-3.5625
X1.6403Y-2.9865
X1.6403Y-3.018
X1.6412Y-2.8342
X1.6442Y-3.4434
X1.6442Y-3.4749
X1.6531Y-3.3066
X1.6668Y-1.5448
X1.6668Y-2.5782
X1.6767Y-3.6964
X1.6865Y-5.1038
X1.7023Y-4.5196
X1.7042Y-3.9621
X1.7065Y-1.5385
X1.7082Y-3.7672
X1.7105Y-1.1938
X1.716Y-2.874
X1.718Y-1.4621
X1.7219Y-3.8243
X1.7219Y-3.9011
X1.7402Y-2.825
X1.7696Y-1.3529
X1.7731Y-1.5212
X1.7751Y-1.5527
X1.7845Y-3.2502
X1.7889Y-5.3115
X1.8017Y-3.5891
X1.8046Y-1.5212
X1.8046Y-1.5527
X1.8046Y-3.4168
X1.8078Y-3.2737
X1.8084Y-1.407
X1.8132Y-3.322
X1.8164Y-2.7101
X1.8174Y-3.6117
X1.8204Y-3.1944
X1.8223Y-2.8477
X1.8262Y-3.4552
X1.8263Y-3.0074
X1.8282Y-3.3716
X1.8312Y-3.6374
X1.8322Y-2.6491
X1.8326Y-3.2968
X1.8332Y-2.1275
X1.8401Y-2.7416
X1.845Y-5.3174
X1.846Y-3.4744
X1.8469Y-5.3506
X1.8519Y-1.1934
X1.8558Y-2.5448
X1.8597Y-5.094
X1.8637Y-2.2928
X1.8696Y-4.5901
X1.8775Y-4.9306
X1.8814Y-4.7042
X1.8834Y-1.4011
X1.9149Y-1.5448
X1.9444Y-1.5487
X1.9444Y-1.6086
X1.9444Y-1.5793
X1.9464Y-2.1078
X1.9503Y-2.0743
X1.9562Y-4.9954
X1.9601Y-5.2721
X1.9621Y-5.3814
X1.9906Y-4.5625
X2.0044Y-2.2299
X2.0044Y-2.2712
X2.0153Y-4.281
X2.0153Y-4.344
X2.0153Y-5.031
X2.0153Y-5.094
X2.0172Y-2.781
X2.0172Y-2.8588
X2.0172Y-3.531
X2.0264Y-2.4156
X2.0273Y-3.7969
X2.029Y-2.8125
X2.031Y-1.0428
X2.0389Y-5.2613
X2.0428Y-1.281
X2.0428Y-1.3125
X2.0428Y-1.344
X2.0428Y-3.5625
X2.0468Y-2.031
X2.0468Y-2.094
X2.0479Y-1.4804
X2.0486Y-2.4378
X2.0492Y-4.0967
X2.0527Y-2.8164
X2.0571Y-2.2594
X2.0576Y-4.9641
X2.0596Y-2.3293
X2.0599Y-5.2379
X2.0605Y-2.5645
X2.0622Y-1.0376
X2.069Y-1.5492
X2.0701Y-2.8588
X2.0718Y-2.7783
X2.0738Y-4.0721
X2.0793Y-2.2817
X2.0802Y-2.3893
X2.0822Y-3.531
X2.0898Y-2.3117
X2.0985Y-4.1127
X2.1043Y-2.4133
X2.1078Y-1.5468
X2.1078Y-4.655
X2.1078Y-5.0625
X2.1097Y-1.281
X2.1097Y-1.3125
X2.1097Y-1.344
X2.1097Y-2.0326
X2.1097Y-4.281
X2.1097Y-4.3125
X2.1097Y-4.344
X2.1097Y-5.031
X2.1117Y-2.0625
X2.1117Y-2.094
X2.1137Y-3.0408
X2.1137Y-4.8893
X2.1176Y-1.1806
X2.1176Y-1.9755
X2.1181Y-2.2978
X2.1252Y-2.2636
X2.1255Y-3.3656
X2.1291Y-2.4339
X2.1294Y-3.4129
X2.1353Y-2.9828
X2.1373Y-5.0802
X2.1419Y-3.8145
X2.1432Y-3.7554
X2.1471Y-2.3656
X2.1478Y-2.2873
X2.1491Y-2.8656
X2.1491Y-3.1097
X2.1499Y-3.4313
X2.1504Y-4.5293
X2.1629Y-3.0271
X2.1633Y-1.8932
X2.1668Y-4.9641
X2.1668Y-5.031
X2.1668Y-5.2279
X2.1692Y-1.844
X2.1705Y-3.4497
X2.1767Y-3.8145
X2.1786Y-2.0704
X2.1806Y-1.0221
X2.1806Y-1.0891
X2.1816Y-5.2849
X2.1816Y-5.3519
X2.1845Y-1.2534
X2.1845Y-1.3007
X2.1944Y-2.5468
X2.1944Y-3.4975
X2.1964Y-1.6708
X2.2006Y-5.3174
X2.201Y-1.0566
X2.2121Y-2.0605
X2.2141Y-2.2534
X2.22Y-1.0221
X2.22Y-1.0891
X2.22Y-3.7633
X2.221Y-5.2849
X2.221Y-5.3519
X2.2239Y-2.6727
X2.2239Y-5.0369
X2.2258Y-3.4936
X2.2357Y-2.029
X2.2377Y-2.7121
X2.2412Y-2.2042
X2.2412Y-2.3649
X2.2469Y-2.2643
X2.2515Y-1.2475
X2.2519Y-4.6298
X2.2534Y-1.1412
X2.2534Y-1.6747
X2.2639Y-1.7215
X2.2751Y-2.6314
X2.2781Y-1.5162
X2.2797Y-1.0221
X2.2797Y-1.0891
X2.2797Y-5.2859
X2.2797Y-5.3529
X2.2869Y-2.529
X2.2871Y-2.4052
X2.2899Y-2.5655
X2.2908Y-3.5389
X2.2987Y-1.0546
X2.2987Y-3.1471
X2.2987Y-5.3184
X2.3007Y-1.9168
X2.3046Y-1.3322
X2.3086Y-2.7062
X2.3105Y-2.1941
X2.3168Y-1.868
X2.3174Y-2.1093
X2.3191Y-1.0221
X2.3191Y-1.0891
X2.3191Y-5.2859
X2.3191Y-5.3529
X2.3213Y-2.5667
X2.3305Y-2.0807
X2.3342Y-1.7495
X2.3374Y-2.5397
X2.342Y-2.1649
X2.3445Y-2.1335
X2.3656Y-1.4031
X2.3656Y-3.7724
X2.3716Y-2.7004
X2.3716Y-2.781
X2.3755Y-5.2141
X2.3775Y-1.3342
X2.3781Y-1.0221
X2.3781Y-1.0891
X2.3781Y-5.2859
X2.3781Y-5.3529
X2.3844Y-1.4818
X2.3844Y-1.5192
X2.3844Y-1.5566
X2.3848Y-4.4648
X2.3857Y-2.5955
X2.3901Y-2.6551
X2.3912Y-3.1058
X2.3912Y-4.5802
X2.3971Y-1.0546
X2.3971Y-5.3184
X2.4021Y-5.0556
X2.407Y-2.7082
X2.4087Y-2.7761
X2.409Y-1.3597
X2.4161Y-2.83
X2.4175Y-1.0221
X2.4175Y-1.0891
X2.4175Y-5.2859
X2.4175Y-5.3529
X2.4188Y-5.0034
X2.4227Y-3.1038
X2.4244Y-2.358
X2.4286Y-3.7318
X2.4326Y-2.6899
X2.4446Y-1.862
X2.4473Y-5.0408
X2.4582Y-4.3187
X2.4582Y-3.1038
X2.4582Y-3.322
X2.4621Y-4.7692
X2.4707Y-1.9407
X2.4717Y-1.9721
X2.4857Y-1.5196
X2.4887Y-3.8608
X2.4936Y-1.405
X2.4975Y-3.1038
X2.4975Y-3.2968
X2.5015Y-4.6038
X2.5042Y-1.7692
X2.5054Y-3.4995
X2.5103Y-1.9483
X2.5369Y-1.7834
X2.5369Y-3.1038
X2.5369Y-3.2731
X2.5396Y-2.6224
X2.5426Y-2.4564
X2.5497Y-1.9493
X2.5527Y-3.4365
X2.5582Y-3.406
X2.5704Y-4.8401
X2.5762Y-3.4574
X2.5763Y-3.1038
X2.5763Y-3.2495
X2.5765Y-3.3844
X2.578Y-2.0824
X2.578Y-2.106
X2.578Y-2.2792
X2.5802Y-4.5251
X2.5802Y-4.6964
X2.5843Y-1.7829
X2.596Y-2.4719
X2.596Y-3.3627
X2.6016Y-2.358
X2.6057Y-3.1882
X2.6086Y-4.6582
X2.6133Y-4.4355
X2.6174Y-2.9485
X2.6222Y-2.6625
X2.6255Y-2.8282
X2.6275Y-2.8597
X2.6278Y-2.7988
X2.6428Y-1.7786
X2.6459Y-2.6416
X2.6471Y-2.7672
X2.6546Y-3.0865
X2.6616Y-3.5081
X2.6628Y-3.4766
X2.6649Y-3.7515
X2.666Y-2.7097
X2.6668Y-3.7141
X2.6725Y-2.0922
X2.6737Y-1.0221
X2.6737Y-1.0891
X2.6737Y-5.3529
X2.6778Y-2.6302
X2.6857Y-2.5595
X2.6875Y-3.0949
X2.6927Y-5.3184
X2.6941Y-1.0566
X2.6983Y-3.7141
X2.7Y-2.1572
X2.7003Y-3.4386
X2.7003Y-3.4701
X2.7019Y-3.1245
X2.7032Y-3.8725
X2.7071Y-2.6418
X2.7111Y-3.0204
X2.7121Y-1.7082
X2.7121Y-4.1097
X2.7131Y-1.0221
X2.7131Y-1.0891
X2.7131Y-5.3529
X2.7239Y-1.9739
X2.7298Y-3.7141
X2.7384Y-2.4131
X2.7388Y-2.646
X2.7416Y-5.0833
X2.7418Y-2.4617
X2.7451Y-3.0196
X2.7588Y-2.4882
X2.7594Y-1.4267
X2.7611Y-2.4349
X2.7613Y-3.7495
X2.7633Y-2.1609
X2.7653Y-1.281
X2.7653Y-1.3125
X2.7653Y-1.344
X2.7653Y-2.781
X2.7653Y-2.8125
X2.7653Y-5.031
X2.7653Y-5.0625
X2.7701Y-2.3545
X2.7771Y-3.5034
X2.7775Y-2.5135
X2.779Y-4.2416
X2.7869Y-1.655
X2.7897Y-4.415
X2.7897Y-4.7141
X2.7908Y-1.5743
X2.792Y-4.5109
X2.7928Y-2.031
X2.7928Y-2.0625
X2.7928Y-2.094
X2.7938Y-3.8499
X2.7945Y-3.7512
X2.7948Y-4.6412
X2.7972Y-2.7534
X2.7987Y-3.9306
X2.8046Y-1.471
X2.8046Y-3.7908
X2.8056Y-1.845
X2.8065Y-3.039
X2.8086Y-2.72
X2.8125Y-3.1097
X2.8125Y-3.2101
X2.8204Y-4.2487
X2.8212Y-4.4141
X2.8288Y-3.0613
X2.8314Y-4.1322
X2.8322Y-3.5034
X2.8342Y-2.7515
X2.8342Y-4.9503
X2.8361Y-1.5251
X2.8385Y-2.4539
X2.8401Y-3.4149
X2.842Y-3.7692
X2.8519Y-2.2393
X2.8519Y-2.8952
X2.8564Y-3.2156
X2.8575Y-2.1769
X2.8597Y-1.281
X2.8597Y-1.3125
X2.8597Y-1.344
X2.8597Y-2.031
X2.8597Y-2.0625
X2.8597Y-2.094
X2.8597Y-5.031
X2.8597Y-5.0625
X2.8617Y-4.2487
X2.8681Y-2.7361
X2.8755Y-2.8125
X2.8755Y-3.5625
X2.8804Y-2.9808
X2.8814Y-4.4828
X2.8843Y-4.5742
X2.8844Y-5.2318
X2.8859Y-5.0833
X2.8873Y-4.8499
X2.8922Y-2.7564
X2.8978Y-1.7981
X2.8991Y-1.659
X2.8991Y-4.7318
X2.905Y-4.5979
X2.9119Y-1.0221
X2.9119Y-1.0891
X2.9119Y-5.3538
X2.9168Y-4.0487
X2.9227Y-2.5703
X2.9267Y-4.0901
X2.9306Y-2.0605
X2.9309Y-5.3194
X2.9323Y-1.0566
X2.9328Y-2.7425
X2.9405Y-1.8086
X2.9405Y-3.8656
X2.9503Y-1.531
X2.9513Y-1.0221
X2.9513Y-1.0891
X2.9513Y-5.3538
X2.9562Y-4.6944
X2.9592Y-2.5687
X2.9611Y-1.6983
X2.9621Y-3.216
X2.9623Y-2.68
X2.9642Y-2.7114
X2.966Y-3.4857
X2.968Y-2.3578
X2.97Y-3.4129
X2.97Y-3.5723
X2.9707Y-2.5152
X2.9739Y-2.8322
X2.9739Y-3.0763
X2.9779Y-4.1412
X2.9798Y-1.3479
X2.9897Y-1.5566
X2.9915Y-2.4915
X2.9936Y-2.0597
X2.9936Y-2.3932
X2.9936Y-2.4365
X3.0034Y-1.6176
X3.0066Y-1.6639
X3.0153Y-5.0034
X3.0212Y-2.4523
X3.0216Y-2.5663
X3.0251Y-2.744
X3.0271Y-2.5993
X3.031Y-1.4424
X3.032Y-4.7244
X3.0408Y-4.4345
X3.0463Y-3.7381
X3.0556Y-4.908
X3.0645Y-4.6176
X3.0704Y-1.9365
X3.0764Y-2.2131
X3.0764Y-2.5439
X3.0842Y-3.0842
X3.0901Y-4.9149
X3.0901Y-4.9936
X3.1002Y-2.3158
X3.1006Y-2.2821
X3.1009Y-2.138
X3.1009Y-2.2486
X3.1009Y-2.3527
X3.1137Y-4.4227
X3.1206Y-2.1676
X3.1265Y-1.4002
X3.1275Y-3.4149
X3.1275Y-3.4621
X3.1275Y-4.9995
X3.1314Y-4.1216
X3.1373Y-3.0999
X3.157Y-4.5212
X3.159Y-1.5408
X3.1668Y-3.8223
X3.1845Y-2.9956
X3.2069Y-1.0221
X3.2069Y-1.0891
X3.2082Y-3.5566
X3.2082Y-5.2859
X3.2082Y-5.3529
X3.2121Y-4.8342
X3.2151Y-1.5556
X3.218Y-1.3164
X3.218Y-4.4286
X3.2238Y-1.848
X3.2259Y-1.0546
X3.2272Y-5.3184
X3.2298Y-1.3844
X3.2416Y-1.2889
X3.2462Y-1.0221
X3.2462Y-1.0891
X3.2475Y-3.8696
X3.2475Y-5.2859
X3.2475Y-5.3529
X3.2625Y-1.2643
X3.281Y-4.1452
X3.3046Y-3.2495
X3.3053Y-1.0221
X3.3053Y-1.0891
X3.3064Y-1.8082
X3.3066Y-5.2859
X3.3066Y-5.3529
X3.3184Y-1.4375
X3.3204Y-3.3538
X3.3243Y-1.0546
X3.3255Y-3.2731
X3.3256Y-5.3184
X3.337Y-1.3127
X3.3378Y-1.8111
X3.3381Y-5.0802
X3.3447Y-1.0221
X3.3447Y-1.0891
X3.346Y-5.2859
X3.346Y-5.3529
X3.3479Y-3.2968
X3.3519Y-3.594
X3.3538Y-4.6471
X3.3578Y-4.6019
X3.3597Y-1.2881
X3.3601Y-2.6606
X3.3637Y-2.7869
X3.3693Y-3.3263
X3.3696Y-4.9149
X3.3696Y-4.9936
X3.3716Y-4.844
X3.3765Y-3.8223
X3.3814Y-3.9916
X3.3873Y-2.346
X3.3873Y-3.6255
X3.4011Y-2.8893
X3.404Y-1.0221
X3.404Y-1.0891
X3.4043Y-5.2852
X3.4043Y-5.3521
X3.409Y-3.6806
X3.4208Y-5.0251
X3.4233Y-5.3176
X3.4234Y-1.6223
X3.4244Y-1.0566
X3.4267Y-3.4641
X3.4267Y-3.779
X3.4276Y-3.7466
X3.4286Y-3.8145
X3.4299Y-3.1113
X3.4434Y-1.0221
X3.4434Y-1.0891
X3.4437Y-5.2852
X3.4437Y-5.3521
X3.448Y-1.5977
X3.4641Y-4.4188
X3.4641Y-4.6471
X3.468Y-1.4759
X3.4739Y-4.6905
X3.4779Y-1.3742
X3.4788Y-1.6826
X3.4806Y-2.422
X3.4897Y-2.97
X3.4995Y-1.4762
X3.4996Y-2.5823
X3.5034Y-1.8381
X3.5079Y-1.6708
X3.5153Y-1.8775
X3.5153Y-2.031
X3.5153Y-2.094
X3.5153Y-2.781
X3.5153Y-2.844
X3.5153Y-4.344
X3.5153Y-5.031
X3.5153Y-5.0625
X3.5153Y-5.094
X3.531Y-1.8125
X3.531Y-3.3853
X3.5428Y-1.281
X3.5428Y-1.4375
X3.5428Y-4.3125
X3.5448Y-2.2357
X3.5455Y-1.3439
X3.5507Y-3.4365
X3.5625Y-3.6235
X3.5705Y-2.6217
X3.5705Y-2.6453
X3.5705Y-2.6689
X3.5743Y-1.8775
X3.5743Y-1.9011
X3.5743Y-1.9247
X3.5798Y-4.2534
X3.5802Y-1.344
X3.592Y-5.3775
X3.5941Y-2.4839
X3.5941Y-2.5075
X3.596Y-3.031
X3.5979Y-1.7397
X3.5979Y-1.7633
X3.6093Y-1.7103
X3.6097Y-1.281
X3.6097Y-1.3125
X3.6097Y-2.031
X3.6097Y-2.0625
X3.6097Y-2.094
X3.6097Y-2.781
X3.6097Y-2.8125
X3.6097Y-2.844
X3.6097Y-3.531
X3.6097Y-3.5625
X3.6097Y-3.594
X3.6097Y-4.281
X3.6097Y-4.3125
X3.6097Y-4.344
X3.6097Y-5.031
X3.6097Y-5.0625
X3.6097Y-5.094
X3.6156Y-1.1176
X3.6177Y-2.4839
X3.6177Y-2.5075
X3.6216Y-1.7397
X3.6216Y-1.7633
X3.6235Y-1.0664
X3.6264Y-1.7946
X3.6284Y-2.9818
X3.6284Y-4.4828
X3.6314Y-1.4828
X3.6314Y-5.2328
X3.6353Y-3.4897
X3.6412Y-2.2466
X3.6412Y-2.7436
X3.6491Y-4.8125
X3.6571Y-2.5272
X3.6609Y-1.783
X3.6629Y-4.3716
X3.6649Y-4.6294
X3.6668Y-2.1097
X3.6845Y-3.033
X3.6885Y-2.2692
X3.6886Y-2.5902
X3.6897Y-3.884
X3.6924Y-1.846
X3.6944Y-1.1176
X3.6964Y-2.6806
X3.7004Y-2.728
X3.7004Y-2.7516
X3.7004Y-2.7752
X3.7042Y-1.9838
X3.7042Y-2.0074
X3.7042Y-2.031
X3.7141Y-3.2121
X3.7161Y-2.5902
X3.72Y-1.846
X3.7279Y-1.3361
X3.7357Y-4.7475
X3.7377Y-3.2495
X3.7437Y-2.5902
X3.7475Y-1.846
X3.7633Y-3.4464
X3.7692Y-2.8243
X3.7751Y-5.0408
X3.7889Y-2.4503
X3.7988Y-2.3263
X3.8007Y-2.096
X3.8027Y-1.5822
X3.8046Y-3.9188
X3.8066Y-1.9227
X3.8066Y-2.3027
X3.8105Y-1.5586
X3.8223Y-1.0468
X3.8223Y-2.5251
X3.8302Y-2.2949
X3.8303Y-2.3264
X3.8303Y-2.35
X3.8342Y-1.5507
X3.8342Y-1.5822
X3.8342Y-1.6058
X3.8342Y-5.3725
X3.8361Y-1.783
X3.8479Y-3.7672
X3.8519Y-4.657
X3.8538Y-2.2949
X3.8539Y-2.3264
X3.8539Y-2.35
X3.8578Y-1.5507
X3.8578Y-1.5822
X3.8578Y-1.6058
X3.8617Y-5.2357
X3.8755Y-4.905
X3.8775Y-2.3027
X3.8814Y-1.5586
X3.8814Y-5.0369
X3.8854Y-2.3264
X3.8893Y-1.5823
X3.8971Y-4.5881
X3.905Y-1.779
X3.907Y-3.592
X3.9168Y-3.9936
X3.9405Y-2.0842
X3.9562Y-4.657
X3.9601Y-1.533
X3.9617Y-2.0261
X3.97Y-4.4857
X3.9956Y-3.6531
X4.0034Y-5.0389
X4.0074Y-3.2259
X4.0212Y-3.5349
X4.033Y-1.0251
X4.033Y-4.7554
X4.0625Y-4.8086
X4.0822Y-4.6314
X4.094Y-4.1019
X4.1334Y-4.8086
X4.1501Y-1.4591
X4.155Y-4.0192
X4.158Y-1.4178
X4.1708Y-4.5015
X4.1747Y-3.7928
X4.1747Y-5.0113
X4.185Y-1.4016
X4.1983Y-2.4956
X4.1983Y-4.3342
X4.2042Y-4.8302
X4.2101Y-2.3105
X4.2239Y-1.8952
X4.2397Y-2.4582
X4.2436Y-1.22
X4.246Y-2.242
X4.2495Y-4.1747
X4.2653Y-1.3125
X4.2653Y-1.344
X4.2653Y-1.6806
X4.2653Y-2.031
X4.2653Y-2.0625
X4.2653Y-2.094
X4.2653Y-2.781
X4.2653Y-2.8125
X4.2653Y-2.844
X4.2653Y-3.5625
X4.2653Y-3.594
X4.2653Y-4.281
X4.2653Y-4.3125
X4.2653Y-4.344
X4.2653Y-5.031
X4.2653Y-5.0625
X4.2653Y-5.094
X4.2672Y-3.8912
X4.2672Y-4.5527
X4.2731Y-3.966
X4.2771Y-1.8834
X4.2899Y-4.5763
X4.2908Y-1.5172
X4.2928Y-3.531
X4.3129Y-2.1865
X4.3129Y-2.5861
X4.3196Y-4.5659
X4.3322Y-1.2042
X4.3479Y-2.3066
X4.3499Y-1.6156
X4.3597Y-1.3125
X4.3597Y-1.3617
X4.3597Y-2.031
X4.3597Y-2.0625
X4.3597Y-2.094
X4.3597Y-2.781
X4.3597Y-2.8125
X4.3597Y-2.844
X4.3597Y-3.531
X4.3597Y-3.5625
X4.3597Y-3.594
X4.3597Y-4.281
X4.3597Y-4.3125
X4.3597Y-4.344
X4.3597Y-5.031
X4.3597Y-5.0625
X4.3597Y-5.094
X4.3637Y-2.5487
X4.3755Y-2.2318
X4.3775Y-4.4818
X4.3784Y-1.4847
X4.3794Y-5.2328
X4.3824Y-2.9828
X4.4148Y-1.9858
X4.4444Y-1.5743
X4.4464Y-4.1393
X4.4483Y-2.4542
X4.4542Y-1.6196
X4.4582Y-3.1786
X4.4601Y-1.3342
X4.4739Y-1.2653
X4.4739Y-2.0566
X4.4779Y-3.7288
X4.4889Y-5.2955
X4.529Y-1.6156
X4.529Y-4.909
X4.5349Y-2.7475
X4.5349Y-2.7869
X4.5359Y-2.3545
X4.5359Y-2.3939
X4.5359Y-2.4529
X4.5359Y-2.4923
X4.5359Y-3.8821
X4.5359Y-3.9214
X4.5359Y-3.9805
X4.5359Y-4.0199
X4.5359Y-3.5871
X4.5359Y-3.6265
X4.5359Y-4.0792
X4.5359Y-4.1186
X4.5625Y-3.3893
X4.5694Y-2.7666
X4.5703Y-1.8516
X4.5703Y-1.8809
X4.5704Y-2.3735
X4.5704Y-2.4719
X4.5704Y-3.9011
X4.5704Y-3.9995
X4.5704Y-3.6061
X4.5704Y-4.0982
X4.5723Y-4.1895
X4.594Y-1.5979
X4.6019Y-2.7475
X4.6019Y-2.7869
X4.6029Y-2.3545
X4.6029Y-2.3939
X4.6029Y-2.4529
X4.6029Y-2.4923
X4.6029Y-3.8821
X4.6029Y-3.9214
X4.6029Y-3.9805
X4.6029Y-4.0199
X4.6029Y-3.5871
X4.6029Y-3.6265
X4.6029Y-4.0792
X4.6029Y-4.1186
X4.6038Y-2.968
X4.6196Y-3.7062
X4.6294Y-1.8007
X4.6294Y-2.0408
T3
X2.4664Y-2.3212
X2.4664Y-2.3658
X2.4664Y-2.4105
X2.5111Y-2.3212
X2.5111Y-2.3658
X2.5111Y-2.4105
X2.5557Y-2.3212
X2.5557Y-2.3658
X2.5557Y-2.4105
T4
X1.1708Y-2.6073
X1.2731Y-3.9897
X1.2731Y-4.029
X1.2731Y-4.0684
X1.2731Y-4.1078
X1.2731Y-4.1471
X1.3007Y-4.6983
X1.3007Y-4.7377
X1.3007Y-4.7771
X1.3007Y-4.8164
X1.3007Y-4.8558
X1.3046Y-4.4975
X1.3204Y-4.47
X1.3361Y-3.9779
X1.3361Y-4.0172
X1.3361Y-4.096
X1.3361Y-4.1353
X1.3361Y-4.4975
X1.3361Y-4.0566
X1.3401Y-4.6983
X1.3401Y-4.7377
X1.3401Y-4.7771
X1.3401Y-4.8164
X1.3401Y-4.8558
X1.3647Y-3.6324
X1.3794Y-4.8164
X1.3794Y-4.8558
X1.3873Y-4.7574
X1.3971Y-2.8401
X1.4188Y-4.8164
X1.4188Y-4.8558
X1.468Y-3.3302
X1.4739Y-4.096
X1.4739Y-4.1353
X1.592Y-4.8676
X1.592Y-4.907
X1.592Y-4.9464
X1.592Y-4.9857
X1.592Y-5.0251
X1.592Y-5.0645
X1.6314Y-4.8676
X1.6314Y-4.907
X1.6314Y-4.9464
X1.6314Y-4.9857
X1.6314Y-5.0251
X1.6314Y-5.0645
X1.6532Y-1.3138
X1.655Y-1.8716
X1.655Y-1.9109
X1.659Y-2.0605
X1.659Y-2.0999
X1.659Y-2.1393
X1.6708Y-5.0251
X1.6708Y-5.0645
X1.6808Y-1.3295
X1.6808Y-1.298
X1.6944Y-1.8716
X1.6944Y-1.9109
X1.6983Y-2.0605
X1.6983Y-2.0999
X1.6983Y-2.1393
X1.7101Y-5.0251
X1.7101Y-5.0645
X1.7298Y-1.6747
X1.7298Y-1.7141
X1.7338Y-1.8716
X1.7338Y-1.9109
X1.7377Y-2.0605
X1.7377Y-2.0999
X1.7495Y-5.0251
X1.7495Y-5.0645
X1.7692Y-1.6747
X1.7692Y-1.7141
X1.7731Y-1.8716
X1.7731Y-1.9109
X1.7771Y-2.0605
X1.7889Y-4.7889
X1.7889Y-4.8282
X1.7889Y-4.8676
X1.7889Y-4.907
X1.7889Y-4.9464
X1.7889Y-4.9857
X1.7889Y-5.0251
X1.7889Y-5.0645
X1.8086Y-1.6747
X1.8086Y-1.7141
X1.8125Y-1.8716
X1.8125Y-1.9109
X1.8282Y-4.7495
X1.8282Y-4.7889
X1.8282Y-4.8282
X1.8282Y-4.8676
X1.8282Y-4.907
X1.8282Y-4.9464
X1.8282Y-4.9857
X1.8282Y-5.0251
X1.8479Y-1.6747
X1.8479Y-1.7141
X1.8519Y-1.8716
X1.8519Y-1.9109
X1.8776Y-1.302
X1.8776Y-1.3335
X1.8873Y-1.6747
X1.8873Y-1.7141
X1.9052Y-1.3177
X1.9267Y-1.6747
X1.9601Y-4.8912
X1.9601Y-4.9267
X1.966Y-1.8062
X1.966Y-2.0349
X2.0251Y-1.1019
X2.0428Y-5.2062
X2.0487Y-3.8834
X2.0487Y-3.9227
X2.0487Y-3.9621
X2.0487Y-4.0015
X2.0487Y-4.0408
X2.0881Y-3.8834
X2.1275Y-3.8834
X2.1668Y-3.8834
X2.1944Y-3.1058
X2.2042Y-3.8834
X2.2042Y-3.9227
X2.2042Y-3.9621
X2.2042Y-4.0015
X2.2042Y-4.0408
X2.2613Y-4.1196
X2.2633Y-3.8834
X2.2633Y-3.9227
X2.2633Y-3.9621
X2.2633Y-4.0015
X2.2633Y-4.0408
X2.2633Y-4.0802
X2.3007Y-3.8834
X2.3007Y-4.1196
X2.3401Y-3.8834
X2.3401Y-4.1196
X2.3794Y-3.8834
X2.3794Y-4.1196
X2.4031Y-2.8834
X2.4188Y-3.8834
X2.4188Y-3.9227
X2.4188Y-3.9621
X2.4188Y-4.0015
X2.4188Y-4.0408
X2.4188Y-4.0802
X2.4188Y-4.1196
X2.466Y-5.1266
X2.4956Y-1.2013
X2.5172Y-5.0448
X2.5212Y-5.2377
X2.5566Y-5.0448
X2.5605Y-5.2377
X2.596Y-5.0448
X2.5999Y-5.2377
X2.6353Y-5.0448
X2.6393Y-5.2377
X2.655Y-1.3066
X2.6747Y-5.0448
X2.6786Y-5.2377
X2.6983Y-4.907
X2.7741Y-1.8489
X2.8479Y-4.1964
X2.8597Y-3.1688
X2.8873Y-3.9109
X2.8873Y-3.9503
X2.9129Y-3.5743
X2.9267Y-3.9109
X2.9267Y-3.9503
X2.9267Y-3.9897
X2.966Y-3.9109
X2.966Y-3.9503
X2.966Y-3.9897
X2.966Y-4.029
X3.0054Y-3.9503
X3.0054Y-4.029
X3.0054Y-4.0684
X3.0133Y-1.9306
X3.033Y-1.9916
X3.0684Y-3.9109
X3.1078Y-3.9109
X3.1078Y-3.9897
X3.1294Y-1.2013
X3.1294Y-5.1255
X3.1471Y-3.9109
X3.1471Y-3.9503
X3.1471Y-3.9897
X3.1865Y-3.9109
X3.1865Y-3.9503
X3.1865Y-3.9897
X3.1865Y-4.029
X3.221Y-2.17
X3.2259Y-3.9503
X3.2259Y-3.9897
X3.2259Y-4.029
X3.2259Y-4.0684
X3.2515Y-1.8046
X3.281Y-1.7653
X3.283Y-4.4818
X3.283Y-4.5212
X3.2849Y-4.1944
X3.2869Y-4.2369
X3.3086Y-2.0349
X3.3223Y-1.345
X3.3243Y-4.1944
X3.3263Y-4.2357
X3.3263Y-4.4818
X3.3263Y-4.5212
X3.3361Y-2.0625
X3.3971Y-2.2574
X3.3971Y-2.2968
X3.4247Y-2.7416
X3.4247Y-2.7724
X3.4286Y-3.5172
X3.4365Y-2.2574
X3.4365Y-2.2968
X3.4995Y-1.3125
X3.5408Y-1.6353
X3.5802Y-1.6353
X3.6196Y-1.6353
X3.659Y-1.6353
X3.6983Y-1.6353
X3.7475Y-1.2239
X3.7751Y-1.2574
X3.8105Y-1.3027
X3.8538Y-4.279
X3.8607Y-1.2298
X3.8645Y-2.2424
X3.8725Y-1.2928
X3.8725Y-1.4306
X3.8755Y-3.3007
X3.8755Y-3.3401
X3.9001Y-1.2298
X3.9119Y-1.2928
X3.9119Y-1.4306
X3.9395Y-1.2298
X3.9513Y-1.2928
X3.9788Y-1.2298
X3.9906Y-1.2928
X3.9916Y-4.7338
X4.0074Y-2.7219
X4.0133Y-3.3794
X4.0133Y-3.3007
X4.0133Y-3.3401
X4.0133Y-3.4188
X4.0133Y-3.4582
X4.0182Y-1.2298
X4.03Y-1.2928
X4.0605Y-2.8637
X4.092Y-4.4227
X4.094Y-4.1531
X4.2062Y-2.0664
X4.2298Y-3.2908
X4.2298Y-3.3302
X4.2298Y-3.3696
X4.2298Y-3.409
X4.2298Y-3.4483
X4.2771Y-1.7889
X4.2889Y-3.0625
X4.2928Y-1.7534
X4.405Y-3.9975
X4.4267Y-3.8499
X4.4444Y-3.9975
X4.466Y-3.8499
X4.5202Y-1.1471
X4.5694Y-2.5711
T6
X1.0078Y-1.1125
X1.0078Y-1.2125
X1.0078Y-1.3125
X1.0078Y-1.4125
X1.0078Y-1.5125
X1.0078Y-4.8625
X1.0078Y-4.9625
X1.0078Y-5.0625
X1.0078Y-5.1625
X1.0078Y-5.2625
X1.1125Y-1.0078
X1.1125Y-5.3672
X1.2125Y-1.0078
X1.2125Y-5.3672
X1.3125Y-1.0078
X1.3125Y-5.3672
X1.4125Y-1.0078
X1.4125Y-5.3672
X1.5125Y-1.0078
X1.5125Y-5.3672
X4.1125Y-1.0078
X4.1125Y-5.3672
X4.2125Y-1.0078
X4.2125Y-5.3672
X4.3125Y-1.0078
X4.3125Y-5.3672
X4.4125Y-1.0078
X4.4125Y-5.3672
X4.5125Y-1.0078
X4.5125Y-5.3672
X4.6172Y-1.1125
X4.6172Y-1.2125
X4.6172Y-1.3125
X4.6172Y-1.4125
X4.6172Y-1.5125
X4.6172Y-4.8625
X4.6172Y-4.9625
X4.6172Y-5.0625
X4.6172Y-5.1625
X4.6172Y-5.2625
T7
X2.4375Y-1.6641
T5
G00X1.0711Y-4.4237
M15
G01X1.0474Y-4.4237
M16
G05
G00X1.0711Y-4.7638
M15
G01X1.0474Y-4.7638
M16
G05
G00X1.2455Y-4.4237
M15
G01X1.2022Y-4.4237
M16
G05
G00X1.2455Y-4.7638
M15
G01X1.2022Y-4.7638
M16
G05
G00X1.6112Y-1.0711
M15
G01X1.6112Y-1.0474
M16
G05
G00X1.6112Y-1.2455
M15
G01X1.6112Y-1.2022
M16
G05
G00X1.9513Y-1.0711
M15
G01X1.9513Y-1.0474
M16
G05
G00X1.9513Y-1.2455
M15
G01X1.9513Y-1.2022
M16
G05
M30
