%TF.GenerationSoftware,KiCad,Pcbnew,10.0.5-1-g226df246f3*%
%TF.CreationDate,2026-09-03T13:57:45-06:00*%
%TF.ProjectId,Voided-Oblivion,566f6964-6564-42d4-9f62-6c6976696f6e,rev?*%
%TF.SameCoordinates,Original*%
%TF.FileFunction,Legend,Top*%
%TF.FilePolarity,Positive*%
%FSLAX46Y46*%
G04 Gerber Fmt 4.6, Leading zero omitted, Abs format (unit mm)*
G04 Created by KiCad (PCBNEW 10.0.5-1-g226df246f3) date 2026-09-03 13:57:45*
%MOMM*%
%LPD*%
G01*
G04 APERTURE LIST*
G04 Aperture macros list*
%AMRoundRect*
0 Rectangle with rounded corners*
0 $1 Rounding radius*
0 $2 $3 $4 $5 $6 $7 $8 $9 X,Y pos of 4 corners*
0 Add a 4 corners polygon primitive as box body*
4,1,4,$2,$3,$4,$5,$6,$7,$8,$9,$2,$3,0*
0 Add four circle primitives for the rounded corners*
1,1,$1+$1,$2,$3*
1,1,$1+$1,$4,$5*
1,1,$1+$1,$6,$7*
1,1,$1+$1,$8,$9*
0 Add four rect primitives between the rounded corners*
20,1,$1+$1,$2,$3,$4,$5,0*
20,1,$1+$1,$4,$5,$6,$7,0*
20,1,$1+$1,$6,$7,$8,$9,0*
20,1,$1+$1,$8,$9,$2,$3,0*%
G04 Aperture macros list end*
%ADD10C,0.150000*%
%ADD11C,0.120000*%
%ADD12C,0.152000*%
%ADD13C,0.140000*%
%ADD14C,0.125000*%
%ADD15C,0.191421*%
%ADD16RoundRect,0.135000X-0.185000X0.135000X-0.185000X-0.135000X0.185000X-0.135000X0.185000X0.135000X0*%
%ADD17RoundRect,0.140000X-0.170000X0.140000X-0.170000X-0.140000X0.170000X-0.140000X0.170000X0.140000X0*%
%ADD18RoundRect,0.135000X-0.135000X-0.185000X0.135000X-0.185000X0.135000X0.185000X-0.135000X0.185000X0*%
%ADD19RoundRect,0.150000X0.587500X0.150000X-0.587500X0.150000X-0.587500X-0.150000X0.587500X-0.150000X0*%
%ADD20R,1.145000X0.400000*%
%ADD21RoundRect,0.135000X0.185000X-0.135000X0.185000X0.135000X-0.185000X0.135000X-0.185000X-0.135000X0*%
%ADD22RoundRect,0.250000X0.600000X-0.400000X0.600000X0.400000X-0.600000X0.400000X-0.600000X-0.400000X0*%
%ADD23RoundRect,0.062500X-0.275000X-0.062500X0.275000X-0.062500X0.275000X0.062500X-0.275000X0.062500X0*%
%ADD24RoundRect,0.062500X-0.062500X-0.275000X0.062500X-0.275000X0.062500X0.275000X-0.062500X0.275000X0*%
%ADD25R,1.450000X1.450000*%
%ADD26C,2.200000*%
%ADD27RoundRect,0.150000X-0.512500X-0.150000X0.512500X-0.150000X0.512500X0.150000X-0.512500X0.150000X0*%
%ADD28RoundRect,0.140000X-0.140000X-0.170000X0.140000X-0.170000X0.140000X0.170000X-0.140000X0.170000X0*%
%ADD29RoundRect,0.140000X0.170000X-0.140000X0.170000X0.140000X-0.170000X0.140000X-0.170000X-0.140000X0*%
%ADD30C,1.300000*%
%ADD31RoundRect,0.135000X0.135000X0.185000X-0.135000X0.185000X-0.135000X-0.185000X0.135000X-0.185000X0*%
%ADD32RoundRect,0.140000X0.140000X0.170000X-0.140000X0.170000X-0.140000X-0.170000X0.140000X-0.170000X0*%
%ADD33C,0.650000*%
%ADD34RoundRect,0.150000X-0.500000X0.150000X-0.500000X-0.150000X0.500000X-0.150000X0.500000X0.150000X0*%
%ADD35RoundRect,0.075000X-0.575000X0.075000X-0.575000X-0.075000X0.575000X-0.075000X0.575000X0.075000X0*%
%ADD36O,2.100000X1.000000*%
%ADD37O,1.600000X1.000000*%
%ADD38R,0.700000X1.700000*%
%ADD39RoundRect,0.150000X0.150000X-0.587500X0.150000X0.587500X-0.150000X0.587500X-0.150000X-0.587500X0*%
%ADD40RoundRect,0.150000X-0.150000X0.587500X-0.150000X-0.587500X0.150000X-0.587500X0.150000X0.587500X0*%
%ADD41RoundRect,0.162500X-0.650000X-0.162500X0.650000X-0.162500X0.650000X0.162500X-0.650000X0.162500X0*%
%ADD42R,0.470000X0.530000*%
%ADD43RoundRect,0.087500X-0.087500X0.250000X-0.087500X-0.250000X0.087500X-0.250000X0.087500X0.250000X0*%
%ADD44RoundRect,0.162500X-0.162500X0.825000X-0.162500X-0.825000X0.162500X-0.825000X0.162500X0.825000X0*%
%ADD45RoundRect,0.150000X0.512500X0.150000X-0.512500X0.150000X-0.512500X-0.150000X0.512500X-0.150000X0*%
%ADD46RoundRect,0.162500X0.162500X-0.825000X0.162500X0.825000X-0.162500X0.825000X-0.162500X-0.825000X0*%
%ADD47R,1.700000X2.400000*%
%ADD48RoundRect,0.162500X0.825000X0.162500X-0.825000X0.162500X-0.825000X-0.162500X0.825000X-0.162500X0*%
%ADD49RoundRect,0.162500X-0.825000X-0.162500X0.825000X-0.162500X0.825000X0.162500X-0.825000X0.162500X0*%
%ADD50RoundRect,0.250000X0.325000X0.650000X-0.325000X0.650000X-0.325000X-0.650000X0.325000X-0.650000X0*%
%ADD51RoundRect,0.162500X0.162500X-0.650000X0.162500X0.650000X-0.162500X0.650000X-0.162500X-0.650000X0*%
%ADD52C,3.000000*%
%ADD53R,2.400000X1.700000*%
%ADD54RoundRect,0.135000X-0.035355X0.226274X-0.226274X0.035355X0.035355X-0.226274X0.226274X-0.035355X0*%
%ADD55RoundRect,0.250000X-0.325000X-0.650000X0.325000X-0.650000X0.325000X0.650000X-0.325000X0.650000X0*%
%ADD56RoundRect,0.087500X-0.425000X-0.087500X0.425000X-0.087500X0.425000X0.087500X-0.425000X0.087500X0*%
%ADD57RoundRect,0.250000X-0.650000X0.325000X-0.650000X-0.325000X0.650000X-0.325000X0.650000X0.325000X0*%
%ADD58RoundRect,0.100000X-0.850000X-0.100000X0.850000X-0.100000X0.850000X0.100000X-0.850000X0.100000X0*%
%ADD59RoundRect,0.137500X-0.612500X-0.137500X0.612500X-0.137500X0.612500X0.137500X-0.612500X0.137500X0*%
%ADD60C,3.800000*%
%ADD61RoundRect,0.062500X0.062500X-0.275000X0.062500X0.275000X-0.062500X0.275000X-0.062500X-0.275000X0*%
%ADD62RoundRect,0.062500X0.275000X-0.062500X0.275000X0.062500X-0.275000X0.062500X-0.275000X-0.062500X0*%
%ADD63RoundRect,0.250000X-1.500000X0.925000X-1.500000X-0.925000X1.500000X-0.925000X1.500000X0.925000X0*%
%ADD64RoundRect,0.050000X0.437500X0.050000X-0.437500X0.050000X-0.437500X-0.050000X0.437500X-0.050000X0*%
%ADD65RoundRect,0.050000X0.337500X0.050000X-0.337500X0.050000X-0.337500X-0.050000X0.337500X-0.050000X0*%
%ADD66RoundRect,0.050000X0.050000X0.337500X-0.050000X0.337500X-0.050000X-0.337500X0.050000X-0.337500X0*%
%ADD67RoundRect,0.125000X-0.125000X0.537500X-0.125000X-0.537500X0.125000X-0.537500X0.125000X0.537500X0*%
%ADD68RoundRect,0.087500X-0.250000X-0.087500X0.250000X-0.087500X0.250000X0.087500X-0.250000X0.087500X0*%
%ADD69RoundRect,0.150000X-0.587500X-0.150000X0.587500X-0.150000X0.587500X0.150000X-0.587500X0.150000X0*%
%ADD70C,0.700000*%
%ADD71RoundRect,0.250000X-0.275000X0.450000X-0.275000X-0.450000X0.275000X-0.450000X0.275000X0.450000X0*%
%ADD72RoundRect,0.250000X-0.450000X-0.350000X0.450000X-0.350000X0.450000X0.350000X-0.450000X0.350000X0*%
%ADD73RoundRect,0.150000X0.150000X0.625000X-0.150000X0.625000X-0.150000X-0.625000X0.150000X-0.625000X0*%
%ADD74RoundRect,0.250000X0.350000X0.650000X-0.350000X0.650000X-0.350000X-0.650000X0.350000X-0.650000X0*%
%ADD75RoundRect,0.087500X0.537500X0.087500X-0.537500X0.087500X-0.537500X-0.087500X0.537500X-0.087500X0*%
%ADD76RoundRect,0.150000X0.150000X0.500000X-0.150000X0.500000X-0.150000X-0.500000X0.150000X-0.500000X0*%
%ADD77RoundRect,0.075000X0.075000X0.575000X-0.075000X0.575000X-0.075000X-0.575000X0.075000X-0.575000X0*%
%ADD78O,1.000000X2.100000*%
%ADD79O,1.000000X1.600000*%
%ADD80RoundRect,0.125000X0.537500X0.125000X-0.537500X0.125000X-0.537500X-0.125000X0.537500X-0.125000X0*%
%ADD81RoundRect,0.055000X0.335000X-0.055000X0.335000X0.055000X-0.335000X0.055000X-0.335000X-0.055000X0*%
%ADD82RoundRect,0.055000X-0.055000X-0.335000X0.055000X-0.335000X0.055000X0.335000X-0.055000X0.335000X0*%
%ADD83C,0.600000*%
%ADD84R,1.133333X1.133333*%
%ADD85RoundRect,0.093750X-0.093750X-0.106250X0.093750X-0.106250X0.093750X0.106250X-0.093750X0.106250X0*%
%ADD86R,1.000000X1.600000*%
G04 APERTURE END LIST*
D10*
X28111564Y-27738726D02*
X28111564Y-26938726D01*
X28492516Y-27738726D02*
X28492516Y-26938726D01*
X28492516Y-26938726D02*
X28682992Y-26938726D01*
X28682992Y-26938726D02*
X28797278Y-26976821D01*
X28797278Y-26976821D02*
X28873468Y-27053011D01*
X28873468Y-27053011D02*
X28911563Y-27129202D01*
X28911563Y-27129202D02*
X28949659Y-27281583D01*
X28949659Y-27281583D02*
X28949659Y-27395869D01*
X28949659Y-27395869D02*
X28911563Y-27548250D01*
X28911563Y-27548250D02*
X28873468Y-27624440D01*
X28873468Y-27624440D02*
X28797278Y-27700631D01*
X28797278Y-27700631D02*
X28682992Y-27738726D01*
X28682992Y-27738726D02*
X28492516Y-27738726D01*
X27959183Y-134126726D02*
X28416326Y-134126726D01*
X28187754Y-134926726D02*
X28187754Y-134126726D01*
X28606802Y-134926726D02*
X29025850Y-134393392D01*
X28606802Y-134393392D02*
X29025850Y-134926726D01*
X30188040Y-26976821D02*
X30111850Y-26938726D01*
X30111850Y-26938726D02*
X29997564Y-26938726D01*
X29997564Y-26938726D02*
X29883278Y-26976821D01*
X29883278Y-26976821D02*
X29807088Y-27053011D01*
X29807088Y-27053011D02*
X29768993Y-27129202D01*
X29768993Y-27129202D02*
X29730897Y-27281583D01*
X29730897Y-27281583D02*
X29730897Y-27395869D01*
X29730897Y-27395869D02*
X29768993Y-27548250D01*
X29768993Y-27548250D02*
X29807088Y-27624440D01*
X29807088Y-27624440D02*
X29883278Y-27700631D01*
X29883278Y-27700631D02*
X29997564Y-27738726D01*
X29997564Y-27738726D02*
X30073755Y-27738726D01*
X30073755Y-27738726D02*
X30188040Y-27700631D01*
X30188040Y-27700631D02*
X30226136Y-27662535D01*
X30226136Y-27662535D02*
X30226136Y-27395869D01*
X30226136Y-27395869D02*
X30073755Y-27395869D01*
X30568993Y-27738726D02*
X30568993Y-26938726D01*
X30568993Y-26938726D02*
X31026136Y-27738726D01*
X31026136Y-27738726D02*
X31026136Y-26938726D01*
X31407088Y-27738726D02*
X31407088Y-26938726D01*
X31407088Y-26938726D02*
X31597564Y-26938726D01*
X31597564Y-26938726D02*
X31711850Y-26976821D01*
X31711850Y-26976821D02*
X31788040Y-27053011D01*
X31788040Y-27053011D02*
X31826135Y-27129202D01*
X31826135Y-27129202D02*
X31864231Y-27281583D01*
X31864231Y-27281583D02*
X31864231Y-27395869D01*
X31864231Y-27395869D02*
X31826135Y-27548250D01*
X31826135Y-27548250D02*
X31788040Y-27624440D01*
X31788040Y-27624440D02*
X31711850Y-27700631D01*
X31711850Y-27700631D02*
X31597564Y-27738726D01*
X31597564Y-27738726D02*
X31407088Y-27738726D01*
X30721374Y-134926726D02*
X30454707Y-134545773D01*
X30264231Y-134926726D02*
X30264231Y-134126726D01*
X30264231Y-134126726D02*
X30568993Y-134126726D01*
X30568993Y-134126726D02*
X30645183Y-134164821D01*
X30645183Y-134164821D02*
X30683278Y-134202916D01*
X30683278Y-134202916D02*
X30721374Y-134279107D01*
X30721374Y-134279107D02*
X30721374Y-134393392D01*
X30721374Y-134393392D02*
X30683278Y-134469583D01*
X30683278Y-134469583D02*
X30645183Y-134507678D01*
X30645183Y-134507678D02*
X30568993Y-134545773D01*
X30568993Y-134545773D02*
X30264231Y-134545773D01*
X30988040Y-134926726D02*
X31407088Y-134393392D01*
X30988040Y-134393392D02*
X31407088Y-134926726D01*
X33185183Y-26938726D02*
X32804231Y-26938726D01*
X32804231Y-26938726D02*
X32766135Y-27319678D01*
X32766135Y-27319678D02*
X32804231Y-27281583D01*
X32804231Y-27281583D02*
X32880421Y-27243488D01*
X32880421Y-27243488D02*
X33070897Y-27243488D01*
X33070897Y-27243488D02*
X33147088Y-27281583D01*
X33147088Y-27281583D02*
X33185183Y-27319678D01*
X33185183Y-27319678D02*
X33223278Y-27395869D01*
X33223278Y-27395869D02*
X33223278Y-27586345D01*
X33223278Y-27586345D02*
X33185183Y-27662535D01*
X33185183Y-27662535D02*
X33147088Y-27700631D01*
X33147088Y-27700631D02*
X33070897Y-27738726D01*
X33070897Y-27738726D02*
X32880421Y-27738726D01*
X32880421Y-27738726D02*
X32804231Y-27700631D01*
X32804231Y-27700631D02*
X32766135Y-27662535D01*
X33451850Y-26938726D02*
X33718517Y-27738726D01*
X33718517Y-27738726D02*
X33985183Y-26938726D01*
X33185183Y-134126726D02*
X32804231Y-134126726D01*
X32804231Y-134126726D02*
X32766135Y-134507678D01*
X32766135Y-134507678D02*
X32804231Y-134469583D01*
X32804231Y-134469583D02*
X32880421Y-134431488D01*
X32880421Y-134431488D02*
X33070897Y-134431488D01*
X33070897Y-134431488D02*
X33147088Y-134469583D01*
X33147088Y-134469583D02*
X33185183Y-134507678D01*
X33185183Y-134507678D02*
X33223278Y-134583869D01*
X33223278Y-134583869D02*
X33223278Y-134774345D01*
X33223278Y-134774345D02*
X33185183Y-134850535D01*
X33185183Y-134850535D02*
X33147088Y-134888631D01*
X33147088Y-134888631D02*
X33070897Y-134926726D01*
X33070897Y-134926726D02*
X32880421Y-134926726D01*
X32880421Y-134926726D02*
X32804231Y-134888631D01*
X32804231Y-134888631D02*
X32766135Y-134850535D01*
X33451850Y-134126726D02*
X33718517Y-134926726D01*
X33718517Y-134926726D02*
X33985183Y-134126726D01*
X35801374Y-27738726D02*
X35534707Y-27357773D01*
X35344231Y-27738726D02*
X35344231Y-26938726D01*
X35344231Y-26938726D02*
X35648993Y-26938726D01*
X35648993Y-26938726D02*
X35725183Y-26976821D01*
X35725183Y-26976821D02*
X35763278Y-27014916D01*
X35763278Y-27014916D02*
X35801374Y-27091107D01*
X35801374Y-27091107D02*
X35801374Y-27205392D01*
X35801374Y-27205392D02*
X35763278Y-27281583D01*
X35763278Y-27281583D02*
X35725183Y-27319678D01*
X35725183Y-27319678D02*
X35648993Y-27357773D01*
X35648993Y-27357773D02*
X35344231Y-27357773D01*
X36068040Y-27738726D02*
X36487088Y-27205392D01*
X36068040Y-27205392D02*
X36487088Y-27738726D01*
X35268040Y-134164821D02*
X35191850Y-134126726D01*
X35191850Y-134126726D02*
X35077564Y-134126726D01*
X35077564Y-134126726D02*
X34963278Y-134164821D01*
X34963278Y-134164821D02*
X34887088Y-134241011D01*
X34887088Y-134241011D02*
X34848993Y-134317202D01*
X34848993Y-134317202D02*
X34810897Y-134469583D01*
X34810897Y-134469583D02*
X34810897Y-134583869D01*
X34810897Y-134583869D02*
X34848993Y-134736250D01*
X34848993Y-134736250D02*
X34887088Y-134812440D01*
X34887088Y-134812440D02*
X34963278Y-134888631D01*
X34963278Y-134888631D02*
X35077564Y-134926726D01*
X35077564Y-134926726D02*
X35153755Y-134926726D01*
X35153755Y-134926726D02*
X35268040Y-134888631D01*
X35268040Y-134888631D02*
X35306136Y-134850535D01*
X35306136Y-134850535D02*
X35306136Y-134583869D01*
X35306136Y-134583869D02*
X35153755Y-134583869D01*
X35648993Y-134926726D02*
X35648993Y-134126726D01*
X35648993Y-134126726D02*
X36106136Y-134926726D01*
X36106136Y-134926726D02*
X36106136Y-134126726D01*
X36487088Y-134926726D02*
X36487088Y-134126726D01*
X36487088Y-134126726D02*
X36677564Y-134126726D01*
X36677564Y-134126726D02*
X36791850Y-134164821D01*
X36791850Y-134164821D02*
X36868040Y-134241011D01*
X36868040Y-134241011D02*
X36906135Y-134317202D01*
X36906135Y-134317202D02*
X36944231Y-134469583D01*
X36944231Y-134469583D02*
X36944231Y-134583869D01*
X36944231Y-134583869D02*
X36906135Y-134736250D01*
X36906135Y-134736250D02*
X36868040Y-134812440D01*
X36868040Y-134812440D02*
X36791850Y-134888631D01*
X36791850Y-134888631D02*
X36677564Y-134926726D01*
X36677564Y-134926726D02*
X36487088Y-134926726D01*
X37865183Y-26938726D02*
X38322326Y-26938726D01*
X38093754Y-27738726D02*
X38093754Y-26938726D01*
X38512802Y-27738726D02*
X38931850Y-27205392D01*
X38512802Y-27205392D02*
X38931850Y-27738726D01*
X38017564Y-134926726D02*
X38017564Y-134126726D01*
X38398516Y-134926726D02*
X38398516Y-134126726D01*
X38398516Y-134126726D02*
X38588992Y-134126726D01*
X38588992Y-134126726D02*
X38703278Y-134164821D01*
X38703278Y-134164821D02*
X38779468Y-134241011D01*
X38779468Y-134241011D02*
X38817563Y-134317202D01*
X38817563Y-134317202D02*
X38855659Y-134469583D01*
X38855659Y-134469583D02*
X38855659Y-134583869D01*
X38855659Y-134583869D02*
X38817563Y-134736250D01*
X38817563Y-134736250D02*
X38779468Y-134812440D01*
X38779468Y-134812440D02*
X38703278Y-134888631D01*
X38703278Y-134888631D02*
X38588992Y-134926726D01*
X38588992Y-134926726D02*
X38398516Y-134926726D01*
X104057564Y-27738726D02*
X104057564Y-26938726D01*
X104438516Y-27738726D02*
X104438516Y-26938726D01*
X104438516Y-26938726D02*
X104628992Y-26938726D01*
X104628992Y-26938726D02*
X104743278Y-26976821D01*
X104743278Y-26976821D02*
X104819468Y-27053011D01*
X104819468Y-27053011D02*
X104857563Y-27129202D01*
X104857563Y-27129202D02*
X104895659Y-27281583D01*
X104895659Y-27281583D02*
X104895659Y-27395869D01*
X104895659Y-27395869D02*
X104857563Y-27548250D01*
X104857563Y-27548250D02*
X104819468Y-27624440D01*
X104819468Y-27624440D02*
X104743278Y-27700631D01*
X104743278Y-27700631D02*
X104628992Y-27738726D01*
X104628992Y-27738726D02*
X104438516Y-27738726D01*
X103905183Y-134126726D02*
X104362326Y-134126726D01*
X104133754Y-134926726D02*
X104133754Y-134126726D01*
X104552802Y-134926726D02*
X104971850Y-134393392D01*
X104552802Y-134393392D02*
X104971850Y-134926726D01*
X106388040Y-26976821D02*
X106311850Y-26938726D01*
X106311850Y-26938726D02*
X106197564Y-26938726D01*
X106197564Y-26938726D02*
X106083278Y-26976821D01*
X106083278Y-26976821D02*
X106007088Y-27053011D01*
X106007088Y-27053011D02*
X105968993Y-27129202D01*
X105968993Y-27129202D02*
X105930897Y-27281583D01*
X105930897Y-27281583D02*
X105930897Y-27395869D01*
X105930897Y-27395869D02*
X105968993Y-27548250D01*
X105968993Y-27548250D02*
X106007088Y-27624440D01*
X106007088Y-27624440D02*
X106083278Y-27700631D01*
X106083278Y-27700631D02*
X106197564Y-27738726D01*
X106197564Y-27738726D02*
X106273755Y-27738726D01*
X106273755Y-27738726D02*
X106388040Y-27700631D01*
X106388040Y-27700631D02*
X106426136Y-27662535D01*
X106426136Y-27662535D02*
X106426136Y-27395869D01*
X106426136Y-27395869D02*
X106273755Y-27395869D01*
X106768993Y-27738726D02*
X106768993Y-26938726D01*
X106768993Y-26938726D02*
X107226136Y-27738726D01*
X107226136Y-27738726D02*
X107226136Y-26938726D01*
X107607088Y-27738726D02*
X107607088Y-26938726D01*
X107607088Y-26938726D02*
X107797564Y-26938726D01*
X107797564Y-26938726D02*
X107911850Y-26976821D01*
X107911850Y-26976821D02*
X107988040Y-27053011D01*
X107988040Y-27053011D02*
X108026135Y-27129202D01*
X108026135Y-27129202D02*
X108064231Y-27281583D01*
X108064231Y-27281583D02*
X108064231Y-27395869D01*
X108064231Y-27395869D02*
X108026135Y-27548250D01*
X108026135Y-27548250D02*
X107988040Y-27624440D01*
X107988040Y-27624440D02*
X107911850Y-27700631D01*
X107911850Y-27700631D02*
X107797564Y-27738726D01*
X107797564Y-27738726D02*
X107607088Y-27738726D01*
X106921374Y-134926726D02*
X106654707Y-134545773D01*
X106464231Y-134926726D02*
X106464231Y-134126726D01*
X106464231Y-134126726D02*
X106768993Y-134126726D01*
X106768993Y-134126726D02*
X106845183Y-134164821D01*
X106845183Y-134164821D02*
X106883278Y-134202916D01*
X106883278Y-134202916D02*
X106921374Y-134279107D01*
X106921374Y-134279107D02*
X106921374Y-134393392D01*
X106921374Y-134393392D02*
X106883278Y-134469583D01*
X106883278Y-134469583D02*
X106845183Y-134507678D01*
X106845183Y-134507678D02*
X106768993Y-134545773D01*
X106768993Y-134545773D02*
X106464231Y-134545773D01*
X107188040Y-134926726D02*
X107607088Y-134393392D01*
X107188040Y-134393392D02*
X107607088Y-134926726D01*
X109385183Y-26938726D02*
X109004231Y-26938726D01*
X109004231Y-26938726D02*
X108966135Y-27319678D01*
X108966135Y-27319678D02*
X109004231Y-27281583D01*
X109004231Y-27281583D02*
X109080421Y-27243488D01*
X109080421Y-27243488D02*
X109270897Y-27243488D01*
X109270897Y-27243488D02*
X109347088Y-27281583D01*
X109347088Y-27281583D02*
X109385183Y-27319678D01*
X109385183Y-27319678D02*
X109423278Y-27395869D01*
X109423278Y-27395869D02*
X109423278Y-27586345D01*
X109423278Y-27586345D02*
X109385183Y-27662535D01*
X109385183Y-27662535D02*
X109347088Y-27700631D01*
X109347088Y-27700631D02*
X109270897Y-27738726D01*
X109270897Y-27738726D02*
X109080421Y-27738726D01*
X109080421Y-27738726D02*
X109004231Y-27700631D01*
X109004231Y-27700631D02*
X108966135Y-27662535D01*
X109651850Y-26938726D02*
X109918517Y-27738726D01*
X109918517Y-27738726D02*
X110185183Y-26938726D01*
X109385183Y-134126726D02*
X109004231Y-134126726D01*
X109004231Y-134126726D02*
X108966135Y-134507678D01*
X108966135Y-134507678D02*
X109004231Y-134469583D01*
X109004231Y-134469583D02*
X109080421Y-134431488D01*
X109080421Y-134431488D02*
X109270897Y-134431488D01*
X109270897Y-134431488D02*
X109347088Y-134469583D01*
X109347088Y-134469583D02*
X109385183Y-134507678D01*
X109385183Y-134507678D02*
X109423278Y-134583869D01*
X109423278Y-134583869D02*
X109423278Y-134774345D01*
X109423278Y-134774345D02*
X109385183Y-134850535D01*
X109385183Y-134850535D02*
X109347088Y-134888631D01*
X109347088Y-134888631D02*
X109270897Y-134926726D01*
X109270897Y-134926726D02*
X109080421Y-134926726D01*
X109080421Y-134926726D02*
X109004231Y-134888631D01*
X109004231Y-134888631D02*
X108966135Y-134850535D01*
X109651850Y-134126726D02*
X109918517Y-134926726D01*
X109918517Y-134926726D02*
X110185183Y-134126726D01*
X112001374Y-27738726D02*
X111734707Y-27357773D01*
X111544231Y-27738726D02*
X111544231Y-26938726D01*
X111544231Y-26938726D02*
X111848993Y-26938726D01*
X111848993Y-26938726D02*
X111925183Y-26976821D01*
X111925183Y-26976821D02*
X111963278Y-27014916D01*
X111963278Y-27014916D02*
X112001374Y-27091107D01*
X112001374Y-27091107D02*
X112001374Y-27205392D01*
X112001374Y-27205392D02*
X111963278Y-27281583D01*
X111963278Y-27281583D02*
X111925183Y-27319678D01*
X111925183Y-27319678D02*
X111848993Y-27357773D01*
X111848993Y-27357773D02*
X111544231Y-27357773D01*
X112268040Y-27738726D02*
X112687088Y-27205392D01*
X112268040Y-27205392D02*
X112687088Y-27738726D01*
X111468040Y-134164821D02*
X111391850Y-134126726D01*
X111391850Y-134126726D02*
X111277564Y-134126726D01*
X111277564Y-134126726D02*
X111163278Y-134164821D01*
X111163278Y-134164821D02*
X111087088Y-134241011D01*
X111087088Y-134241011D02*
X111048993Y-134317202D01*
X111048993Y-134317202D02*
X111010897Y-134469583D01*
X111010897Y-134469583D02*
X111010897Y-134583869D01*
X111010897Y-134583869D02*
X111048993Y-134736250D01*
X111048993Y-134736250D02*
X111087088Y-134812440D01*
X111087088Y-134812440D02*
X111163278Y-134888631D01*
X111163278Y-134888631D02*
X111277564Y-134926726D01*
X111277564Y-134926726D02*
X111353755Y-134926726D01*
X111353755Y-134926726D02*
X111468040Y-134888631D01*
X111468040Y-134888631D02*
X111506136Y-134850535D01*
X111506136Y-134850535D02*
X111506136Y-134583869D01*
X111506136Y-134583869D02*
X111353755Y-134583869D01*
X111848993Y-134926726D02*
X111848993Y-134126726D01*
X111848993Y-134126726D02*
X112306136Y-134926726D01*
X112306136Y-134926726D02*
X112306136Y-134126726D01*
X112687088Y-134926726D02*
X112687088Y-134126726D01*
X112687088Y-134126726D02*
X112877564Y-134126726D01*
X112877564Y-134126726D02*
X112991850Y-134164821D01*
X112991850Y-134164821D02*
X113068040Y-134241011D01*
X113068040Y-134241011D02*
X113106135Y-134317202D01*
X113106135Y-134317202D02*
X113144231Y-134469583D01*
X113144231Y-134469583D02*
X113144231Y-134583869D01*
X113144231Y-134583869D02*
X113106135Y-134736250D01*
X113106135Y-134736250D02*
X113068040Y-134812440D01*
X113068040Y-134812440D02*
X112991850Y-134888631D01*
X112991850Y-134888631D02*
X112877564Y-134926726D01*
X112877564Y-134926726D02*
X112687088Y-134926726D01*
X113811183Y-26938726D02*
X114268326Y-26938726D01*
X114039754Y-27738726D02*
X114039754Y-26938726D01*
X114458802Y-27738726D02*
X114877850Y-27205392D01*
X114458802Y-27205392D02*
X114877850Y-27738726D01*
X113963564Y-134926726D02*
X113963564Y-134126726D01*
X114344516Y-134926726D02*
X114344516Y-134126726D01*
X114344516Y-134126726D02*
X114534992Y-134126726D01*
X114534992Y-134126726D02*
X114649278Y-134164821D01*
X114649278Y-134164821D02*
X114725468Y-134241011D01*
X114725468Y-134241011D02*
X114763563Y-134317202D01*
X114763563Y-134317202D02*
X114801659Y-134469583D01*
X114801659Y-134469583D02*
X114801659Y-134583869D01*
X114801659Y-134583869D02*
X114763563Y-134736250D01*
X114763563Y-134736250D02*
X114725468Y-134812440D01*
X114725468Y-134812440D02*
X114649278Y-134888631D01*
X114649278Y-134888631D02*
X114534992Y-134926726D01*
X114534992Y-134926726D02*
X114344516Y-134926726D01*
X26938859Y-29063811D02*
X26938859Y-28606668D01*
X27738859Y-28835240D02*
X26938859Y-28835240D01*
X27738859Y-28416192D02*
X27205525Y-27997144D01*
X27205525Y-28416192D02*
X27738859Y-27997144D01*
X27738859Y-30873620D02*
X27357906Y-31140287D01*
X27738859Y-31330763D02*
X26938859Y-31330763D01*
X26938859Y-31330763D02*
X26938859Y-31026001D01*
X26938859Y-31026001D02*
X26976954Y-30949811D01*
X26976954Y-30949811D02*
X27015049Y-30911716D01*
X27015049Y-30911716D02*
X27091240Y-30873620D01*
X27091240Y-30873620D02*
X27205525Y-30873620D01*
X27205525Y-30873620D02*
X27281716Y-30911716D01*
X27281716Y-30911716D02*
X27319811Y-30949811D01*
X27319811Y-30949811D02*
X27357906Y-31026001D01*
X27357906Y-31026001D02*
X27357906Y-31330763D01*
X27738859Y-30606954D02*
X27205525Y-30187906D01*
X27205525Y-30606954D02*
X27738859Y-30187906D01*
X26938859Y-33489811D02*
X26938859Y-33870763D01*
X26938859Y-33870763D02*
X27319811Y-33908859D01*
X27319811Y-33908859D02*
X27281716Y-33870763D01*
X27281716Y-33870763D02*
X27243621Y-33794573D01*
X27243621Y-33794573D02*
X27243621Y-33604097D01*
X27243621Y-33604097D02*
X27281716Y-33527906D01*
X27281716Y-33527906D02*
X27319811Y-33489811D01*
X27319811Y-33489811D02*
X27396002Y-33451716D01*
X27396002Y-33451716D02*
X27586478Y-33451716D01*
X27586478Y-33451716D02*
X27662668Y-33489811D01*
X27662668Y-33489811D02*
X27700764Y-33527906D01*
X27700764Y-33527906D02*
X27738859Y-33604097D01*
X27738859Y-33604097D02*
X27738859Y-33794573D01*
X27738859Y-33794573D02*
X27700764Y-33870763D01*
X27700764Y-33870763D02*
X27662668Y-33908859D01*
X26938859Y-33223144D02*
X27738859Y-32956477D01*
X27738859Y-32956477D02*
X26938859Y-32689811D01*
X26976954Y-36486954D02*
X26938859Y-36563144D01*
X26938859Y-36563144D02*
X26938859Y-36677430D01*
X26938859Y-36677430D02*
X26976954Y-36791716D01*
X26976954Y-36791716D02*
X27053144Y-36867906D01*
X27053144Y-36867906D02*
X27129335Y-36906001D01*
X27129335Y-36906001D02*
X27281716Y-36944097D01*
X27281716Y-36944097D02*
X27396002Y-36944097D01*
X27396002Y-36944097D02*
X27548383Y-36906001D01*
X27548383Y-36906001D02*
X27624573Y-36867906D01*
X27624573Y-36867906D02*
X27700764Y-36791716D01*
X27700764Y-36791716D02*
X27738859Y-36677430D01*
X27738859Y-36677430D02*
X27738859Y-36601239D01*
X27738859Y-36601239D02*
X27700764Y-36486954D01*
X27700764Y-36486954D02*
X27662668Y-36448858D01*
X27662668Y-36448858D02*
X27396002Y-36448858D01*
X27396002Y-36448858D02*
X27396002Y-36601239D01*
X27738859Y-36106001D02*
X26938859Y-36106001D01*
X26938859Y-36106001D02*
X27738859Y-35648858D01*
X27738859Y-35648858D02*
X26938859Y-35648858D01*
X27738859Y-35267906D02*
X26938859Y-35267906D01*
X26938859Y-35267906D02*
X26938859Y-35077430D01*
X26938859Y-35077430D02*
X26976954Y-34963144D01*
X26976954Y-34963144D02*
X27053144Y-34886954D01*
X27053144Y-34886954D02*
X27129335Y-34848859D01*
X27129335Y-34848859D02*
X27281716Y-34810763D01*
X27281716Y-34810763D02*
X27396002Y-34810763D01*
X27396002Y-34810763D02*
X27548383Y-34848859D01*
X27548383Y-34848859D02*
X27624573Y-34886954D01*
X27624573Y-34886954D02*
X27700764Y-34963144D01*
X27700764Y-34963144D02*
X27738859Y-35077430D01*
X27738859Y-35077430D02*
X27738859Y-35267906D01*
X27738859Y-38563430D02*
X26938859Y-38563430D01*
X27738859Y-38182478D02*
X26938859Y-38182478D01*
X26938859Y-38182478D02*
X26938859Y-37992002D01*
X26938859Y-37992002D02*
X26976954Y-37877716D01*
X26976954Y-37877716D02*
X27053144Y-37801526D01*
X27053144Y-37801526D02*
X27129335Y-37763431D01*
X27129335Y-37763431D02*
X27281716Y-37725335D01*
X27281716Y-37725335D02*
X27396002Y-37725335D01*
X27396002Y-37725335D02*
X27548383Y-37763431D01*
X27548383Y-37763431D02*
X27624573Y-37801526D01*
X27624573Y-37801526D02*
X27700764Y-37877716D01*
X27700764Y-37877716D02*
X27738859Y-37992002D01*
X27738859Y-37992002D02*
X27738859Y-38182478D01*
X26938859Y-124059811D02*
X26938859Y-123602668D01*
X27738859Y-123831240D02*
X26938859Y-123831240D01*
X27738859Y-123412192D02*
X27205525Y-122993144D01*
X27205525Y-123412192D02*
X27738859Y-122993144D01*
X27738859Y-126123620D02*
X27357906Y-126390287D01*
X27738859Y-126580763D02*
X26938859Y-126580763D01*
X26938859Y-126580763D02*
X26938859Y-126276001D01*
X26938859Y-126276001D02*
X26976954Y-126199811D01*
X26976954Y-126199811D02*
X27015049Y-126161716D01*
X27015049Y-126161716D02*
X27091240Y-126123620D01*
X27091240Y-126123620D02*
X27205525Y-126123620D01*
X27205525Y-126123620D02*
X27281716Y-126161716D01*
X27281716Y-126161716D02*
X27319811Y-126199811D01*
X27319811Y-126199811D02*
X27357906Y-126276001D01*
X27357906Y-126276001D02*
X27357906Y-126580763D01*
X27738859Y-125856954D02*
X27205525Y-125437906D01*
X27205525Y-125856954D02*
X27738859Y-125437906D01*
X26938859Y-128739811D02*
X26938859Y-129120763D01*
X26938859Y-129120763D02*
X27319811Y-129158859D01*
X27319811Y-129158859D02*
X27281716Y-129120763D01*
X27281716Y-129120763D02*
X27243621Y-129044573D01*
X27243621Y-129044573D02*
X27243621Y-128854097D01*
X27243621Y-128854097D02*
X27281716Y-128777906D01*
X27281716Y-128777906D02*
X27319811Y-128739811D01*
X27319811Y-128739811D02*
X27396002Y-128701716D01*
X27396002Y-128701716D02*
X27586478Y-128701716D01*
X27586478Y-128701716D02*
X27662668Y-128739811D01*
X27662668Y-128739811D02*
X27700764Y-128777906D01*
X27700764Y-128777906D02*
X27738859Y-128854097D01*
X27738859Y-128854097D02*
X27738859Y-129044573D01*
X27738859Y-129044573D02*
X27700764Y-129120763D01*
X27700764Y-129120763D02*
X27662668Y-129158859D01*
X26938859Y-128473144D02*
X27738859Y-128206477D01*
X27738859Y-128206477D02*
X26938859Y-127939811D01*
X26976954Y-131736954D02*
X26938859Y-131813144D01*
X26938859Y-131813144D02*
X26938859Y-131927430D01*
X26938859Y-131927430D02*
X26976954Y-132041716D01*
X26976954Y-132041716D02*
X27053144Y-132117906D01*
X27053144Y-132117906D02*
X27129335Y-132156001D01*
X27129335Y-132156001D02*
X27281716Y-132194097D01*
X27281716Y-132194097D02*
X27396002Y-132194097D01*
X27396002Y-132194097D02*
X27548383Y-132156001D01*
X27548383Y-132156001D02*
X27624573Y-132117906D01*
X27624573Y-132117906D02*
X27700764Y-132041716D01*
X27700764Y-132041716D02*
X27738859Y-131927430D01*
X27738859Y-131927430D02*
X27738859Y-131851239D01*
X27738859Y-131851239D02*
X27700764Y-131736954D01*
X27700764Y-131736954D02*
X27662668Y-131698858D01*
X27662668Y-131698858D02*
X27396002Y-131698858D01*
X27396002Y-131698858D02*
X27396002Y-131851239D01*
X27738859Y-131356001D02*
X26938859Y-131356001D01*
X26938859Y-131356001D02*
X27738859Y-130898858D01*
X27738859Y-130898858D02*
X26938859Y-130898858D01*
X27738859Y-130517906D02*
X26938859Y-130517906D01*
X26938859Y-130517906D02*
X26938859Y-130327430D01*
X26938859Y-130327430D02*
X26976954Y-130213144D01*
X26976954Y-130213144D02*
X27053144Y-130136954D01*
X27053144Y-130136954D02*
X27129335Y-130098859D01*
X27129335Y-130098859D02*
X27281716Y-130060763D01*
X27281716Y-130060763D02*
X27396002Y-130060763D01*
X27396002Y-130060763D02*
X27548383Y-130098859D01*
X27548383Y-130098859D02*
X27624573Y-130136954D01*
X27624573Y-130136954D02*
X27700764Y-130213144D01*
X27700764Y-130213144D02*
X27738859Y-130327430D01*
X27738859Y-130327430D02*
X27738859Y-130517906D01*
X27738859Y-133813430D02*
X26938859Y-133813430D01*
X27738859Y-133432478D02*
X26938859Y-133432478D01*
X26938859Y-133432478D02*
X26938859Y-133242002D01*
X26938859Y-133242002D02*
X26976954Y-133127716D01*
X26976954Y-133127716D02*
X27053144Y-133051526D01*
X27053144Y-133051526D02*
X27129335Y-133013431D01*
X27129335Y-133013431D02*
X27281716Y-132975335D01*
X27281716Y-132975335D02*
X27396002Y-132975335D01*
X27396002Y-132975335D02*
X27548383Y-133013431D01*
X27548383Y-133013431D02*
X27624573Y-133051526D01*
X27624573Y-133051526D02*
X27700764Y-133127716D01*
X27700764Y-133127716D02*
X27738859Y-133242002D01*
X27738859Y-133242002D02*
X27738859Y-133432478D01*
X115152268Y-28111431D02*
X115952268Y-28111431D01*
X115152268Y-28492383D02*
X115952268Y-28492383D01*
X115952268Y-28492383D02*
X115952268Y-28682859D01*
X115952268Y-28682859D02*
X115914173Y-28797145D01*
X115914173Y-28797145D02*
X115837983Y-28873335D01*
X115837983Y-28873335D02*
X115761792Y-28911430D01*
X115761792Y-28911430D02*
X115609411Y-28949526D01*
X115609411Y-28949526D02*
X115495125Y-28949526D01*
X115495125Y-28949526D02*
X115342744Y-28911430D01*
X115342744Y-28911430D02*
X115266554Y-28873335D01*
X115266554Y-28873335D02*
X115190364Y-28797145D01*
X115190364Y-28797145D02*
X115152268Y-28682859D01*
X115152268Y-28682859D02*
X115152268Y-28492383D01*
X115914173Y-30187907D02*
X115952268Y-30111717D01*
X115952268Y-30111717D02*
X115952268Y-29997431D01*
X115952268Y-29997431D02*
X115914173Y-29883145D01*
X115914173Y-29883145D02*
X115837983Y-29806955D01*
X115837983Y-29806955D02*
X115761792Y-29768860D01*
X115761792Y-29768860D02*
X115609411Y-29730764D01*
X115609411Y-29730764D02*
X115495125Y-29730764D01*
X115495125Y-29730764D02*
X115342744Y-29768860D01*
X115342744Y-29768860D02*
X115266554Y-29806955D01*
X115266554Y-29806955D02*
X115190364Y-29883145D01*
X115190364Y-29883145D02*
X115152268Y-29997431D01*
X115152268Y-29997431D02*
X115152268Y-30073622D01*
X115152268Y-30073622D02*
X115190364Y-30187907D01*
X115190364Y-30187907D02*
X115228459Y-30226003D01*
X115228459Y-30226003D02*
X115495125Y-30226003D01*
X115495125Y-30226003D02*
X115495125Y-30073622D01*
X115152268Y-30568860D02*
X115952268Y-30568860D01*
X115952268Y-30568860D02*
X115152268Y-31026003D01*
X115152268Y-31026003D02*
X115952268Y-31026003D01*
X115152268Y-31406955D02*
X115952268Y-31406955D01*
X115952268Y-31406955D02*
X115952268Y-31597431D01*
X115952268Y-31597431D02*
X115914173Y-31711717D01*
X115914173Y-31711717D02*
X115837983Y-31787907D01*
X115837983Y-31787907D02*
X115761792Y-31826002D01*
X115761792Y-31826002D02*
X115609411Y-31864098D01*
X115609411Y-31864098D02*
X115495125Y-31864098D01*
X115495125Y-31864098D02*
X115342744Y-31826002D01*
X115342744Y-31826002D02*
X115266554Y-31787907D01*
X115266554Y-31787907D02*
X115190364Y-31711717D01*
X115190364Y-31711717D02*
X115152268Y-31597431D01*
X115152268Y-31597431D02*
X115152268Y-31406955D01*
X115952268Y-33185050D02*
X115952268Y-32804098D01*
X115952268Y-32804098D02*
X115571316Y-32766002D01*
X115571316Y-32766002D02*
X115609411Y-32804098D01*
X115609411Y-32804098D02*
X115647506Y-32880288D01*
X115647506Y-32880288D02*
X115647506Y-33070764D01*
X115647506Y-33070764D02*
X115609411Y-33146955D01*
X115609411Y-33146955D02*
X115571316Y-33185050D01*
X115571316Y-33185050D02*
X115495125Y-33223145D01*
X115495125Y-33223145D02*
X115304649Y-33223145D01*
X115304649Y-33223145D02*
X115228459Y-33185050D01*
X115228459Y-33185050D02*
X115190364Y-33146955D01*
X115190364Y-33146955D02*
X115152268Y-33070764D01*
X115152268Y-33070764D02*
X115152268Y-32880288D01*
X115152268Y-32880288D02*
X115190364Y-32804098D01*
X115190364Y-32804098D02*
X115228459Y-32766002D01*
X115952268Y-33451717D02*
X115152268Y-33718384D01*
X115152268Y-33718384D02*
X115952268Y-33985050D01*
X115152268Y-35801241D02*
X115533221Y-35534574D01*
X115152268Y-35344098D02*
X115952268Y-35344098D01*
X115952268Y-35344098D02*
X115952268Y-35648860D01*
X115952268Y-35648860D02*
X115914173Y-35725050D01*
X115914173Y-35725050D02*
X115876078Y-35763145D01*
X115876078Y-35763145D02*
X115799887Y-35801241D01*
X115799887Y-35801241D02*
X115685602Y-35801241D01*
X115685602Y-35801241D02*
X115609411Y-35763145D01*
X115609411Y-35763145D02*
X115571316Y-35725050D01*
X115571316Y-35725050D02*
X115533221Y-35648860D01*
X115533221Y-35648860D02*
X115533221Y-35344098D01*
X115152268Y-36067907D02*
X115685602Y-36486955D01*
X115685602Y-36067907D02*
X115152268Y-36486955D01*
X115952268Y-37865050D02*
X115952268Y-38322193D01*
X115152268Y-38093621D02*
X115952268Y-38093621D01*
X115152268Y-38512669D02*
X115685602Y-38931717D01*
X115685602Y-38512669D02*
X115152268Y-38931717D01*
X115152268Y-123107431D02*
X115952268Y-123107431D01*
X115152268Y-123488383D02*
X115952268Y-123488383D01*
X115952268Y-123488383D02*
X115952268Y-123678859D01*
X115952268Y-123678859D02*
X115914173Y-123793145D01*
X115914173Y-123793145D02*
X115837983Y-123869335D01*
X115837983Y-123869335D02*
X115761792Y-123907430D01*
X115761792Y-123907430D02*
X115609411Y-123945526D01*
X115609411Y-123945526D02*
X115495125Y-123945526D01*
X115495125Y-123945526D02*
X115342744Y-123907430D01*
X115342744Y-123907430D02*
X115266554Y-123869335D01*
X115266554Y-123869335D02*
X115190364Y-123793145D01*
X115190364Y-123793145D02*
X115152268Y-123678859D01*
X115152268Y-123678859D02*
X115152268Y-123488383D01*
X115914173Y-125437907D02*
X115952268Y-125361717D01*
X115952268Y-125361717D02*
X115952268Y-125247431D01*
X115952268Y-125247431D02*
X115914173Y-125133145D01*
X115914173Y-125133145D02*
X115837983Y-125056955D01*
X115837983Y-125056955D02*
X115761792Y-125018860D01*
X115761792Y-125018860D02*
X115609411Y-124980764D01*
X115609411Y-124980764D02*
X115495125Y-124980764D01*
X115495125Y-124980764D02*
X115342744Y-125018860D01*
X115342744Y-125018860D02*
X115266554Y-125056955D01*
X115266554Y-125056955D02*
X115190364Y-125133145D01*
X115190364Y-125133145D02*
X115152268Y-125247431D01*
X115152268Y-125247431D02*
X115152268Y-125323622D01*
X115152268Y-125323622D02*
X115190364Y-125437907D01*
X115190364Y-125437907D02*
X115228459Y-125476003D01*
X115228459Y-125476003D02*
X115495125Y-125476003D01*
X115495125Y-125476003D02*
X115495125Y-125323622D01*
X115152268Y-125818860D02*
X115952268Y-125818860D01*
X115952268Y-125818860D02*
X115152268Y-126276003D01*
X115152268Y-126276003D02*
X115952268Y-126276003D01*
X115152268Y-126656955D02*
X115952268Y-126656955D01*
X115952268Y-126656955D02*
X115952268Y-126847431D01*
X115952268Y-126847431D02*
X115914173Y-126961717D01*
X115914173Y-126961717D02*
X115837983Y-127037907D01*
X115837983Y-127037907D02*
X115761792Y-127076002D01*
X115761792Y-127076002D02*
X115609411Y-127114098D01*
X115609411Y-127114098D02*
X115495125Y-127114098D01*
X115495125Y-127114098D02*
X115342744Y-127076002D01*
X115342744Y-127076002D02*
X115266554Y-127037907D01*
X115266554Y-127037907D02*
X115190364Y-126961717D01*
X115190364Y-126961717D02*
X115152268Y-126847431D01*
X115152268Y-126847431D02*
X115152268Y-126656955D01*
X115952268Y-128435050D02*
X115952268Y-128054098D01*
X115952268Y-128054098D02*
X115571316Y-128016002D01*
X115571316Y-128016002D02*
X115609411Y-128054098D01*
X115609411Y-128054098D02*
X115647506Y-128130288D01*
X115647506Y-128130288D02*
X115647506Y-128320764D01*
X115647506Y-128320764D02*
X115609411Y-128396955D01*
X115609411Y-128396955D02*
X115571316Y-128435050D01*
X115571316Y-128435050D02*
X115495125Y-128473145D01*
X115495125Y-128473145D02*
X115304649Y-128473145D01*
X115304649Y-128473145D02*
X115228459Y-128435050D01*
X115228459Y-128435050D02*
X115190364Y-128396955D01*
X115190364Y-128396955D02*
X115152268Y-128320764D01*
X115152268Y-128320764D02*
X115152268Y-128130288D01*
X115152268Y-128130288D02*
X115190364Y-128054098D01*
X115190364Y-128054098D02*
X115228459Y-128016002D01*
X115952268Y-128701717D02*
X115152268Y-128968384D01*
X115152268Y-128968384D02*
X115952268Y-129235050D01*
X115152268Y-131051241D02*
X115533221Y-130784574D01*
X115152268Y-130594098D02*
X115952268Y-130594098D01*
X115952268Y-130594098D02*
X115952268Y-130898860D01*
X115952268Y-130898860D02*
X115914173Y-130975050D01*
X115914173Y-130975050D02*
X115876078Y-131013145D01*
X115876078Y-131013145D02*
X115799887Y-131051241D01*
X115799887Y-131051241D02*
X115685602Y-131051241D01*
X115685602Y-131051241D02*
X115609411Y-131013145D01*
X115609411Y-131013145D02*
X115571316Y-130975050D01*
X115571316Y-130975050D02*
X115533221Y-130898860D01*
X115533221Y-130898860D02*
X115533221Y-130594098D01*
X115152268Y-131317907D02*
X115685602Y-131736955D01*
X115685602Y-131317907D02*
X115152268Y-131736955D01*
X115952268Y-132861050D02*
X115952268Y-133318193D01*
X115152268Y-133089621D02*
X115952268Y-133089621D01*
X115152268Y-133508669D02*
X115685602Y-133927717D01*
X115685602Y-133508669D02*
X115152268Y-133927717D01*
X28792154Y-76668601D02*
X27945487Y-76668601D01*
X28187392Y-76668601D02*
X28066439Y-76608124D01*
X28066439Y-76608124D02*
X28005963Y-76547648D01*
X28005963Y-76547648D02*
X27945487Y-76426696D01*
X27945487Y-76426696D02*
X27945487Y-76305743D01*
X28731678Y-75398601D02*
X28792154Y-75519553D01*
X28792154Y-75519553D02*
X28792154Y-75761458D01*
X28792154Y-75761458D02*
X28731678Y-75882411D01*
X28731678Y-75882411D02*
X28610725Y-75942887D01*
X28610725Y-75942887D02*
X28126916Y-75942887D01*
X28126916Y-75942887D02*
X28005963Y-75882411D01*
X28005963Y-75882411D02*
X27945487Y-75761458D01*
X27945487Y-75761458D02*
X27945487Y-75519553D01*
X27945487Y-75519553D02*
X28005963Y-75398601D01*
X28005963Y-75398601D02*
X28126916Y-75338125D01*
X28126916Y-75338125D02*
X28247868Y-75338125D01*
X28247868Y-75338125D02*
X28368820Y-75942887D01*
X28731678Y-74854316D02*
X28792154Y-74733363D01*
X28792154Y-74733363D02*
X28792154Y-74491459D01*
X28792154Y-74491459D02*
X28731678Y-74370506D01*
X28731678Y-74370506D02*
X28610725Y-74310030D01*
X28610725Y-74310030D02*
X28550249Y-74310030D01*
X28550249Y-74310030D02*
X28429297Y-74370506D01*
X28429297Y-74370506D02*
X28368820Y-74491459D01*
X28368820Y-74491459D02*
X28368820Y-74672887D01*
X28368820Y-74672887D02*
X28308344Y-74793840D01*
X28308344Y-74793840D02*
X28187392Y-74854316D01*
X28187392Y-74854316D02*
X28126916Y-74854316D01*
X28126916Y-74854316D02*
X28005963Y-74793840D01*
X28005963Y-74793840D02*
X27945487Y-74672887D01*
X27945487Y-74672887D02*
X27945487Y-74491459D01*
X27945487Y-74491459D02*
X28005963Y-74370506D01*
X28731678Y-73281935D02*
X28792154Y-73402887D01*
X28792154Y-73402887D02*
X28792154Y-73644792D01*
X28792154Y-73644792D02*
X28731678Y-73765745D01*
X28731678Y-73765745D02*
X28610725Y-73826221D01*
X28610725Y-73826221D02*
X28126916Y-73826221D01*
X28126916Y-73826221D02*
X28005963Y-73765745D01*
X28005963Y-73765745D02*
X27945487Y-73644792D01*
X27945487Y-73644792D02*
X27945487Y-73402887D01*
X27945487Y-73402887D02*
X28005963Y-73281935D01*
X28005963Y-73281935D02*
X28126916Y-73221459D01*
X28126916Y-73221459D02*
X28247868Y-73221459D01*
X28247868Y-73221459D02*
X28368820Y-73826221D01*
X27945487Y-72858602D02*
X27945487Y-72374793D01*
X27522154Y-72677174D02*
X28610725Y-72677174D01*
X28610725Y-72677174D02*
X28731678Y-72616697D01*
X28731678Y-72616697D02*
X28792154Y-72495745D01*
X28792154Y-72495745D02*
X28792154Y-72374793D01*
X29142154Y-87746460D02*
X27872154Y-87746460D01*
X28355963Y-87746460D02*
X28295487Y-87625507D01*
X28295487Y-87625507D02*
X28295487Y-87383602D01*
X28295487Y-87383602D02*
X28355963Y-87262650D01*
X28355963Y-87262650D02*
X28416439Y-87202174D01*
X28416439Y-87202174D02*
X28537392Y-87141698D01*
X28537392Y-87141698D02*
X28900249Y-87141698D01*
X28900249Y-87141698D02*
X29021201Y-87202174D01*
X29021201Y-87202174D02*
X29081678Y-87262650D01*
X29081678Y-87262650D02*
X29142154Y-87383602D01*
X29142154Y-87383602D02*
X29142154Y-87625507D01*
X29142154Y-87625507D02*
X29081678Y-87746460D01*
X29142154Y-86415983D02*
X29081678Y-86536935D01*
X29081678Y-86536935D02*
X29021201Y-86597412D01*
X29021201Y-86597412D02*
X28900249Y-86657888D01*
X28900249Y-86657888D02*
X28537392Y-86657888D01*
X28537392Y-86657888D02*
X28416439Y-86597412D01*
X28416439Y-86597412D02*
X28355963Y-86536935D01*
X28355963Y-86536935D02*
X28295487Y-86415983D01*
X28295487Y-86415983D02*
X28295487Y-86234554D01*
X28295487Y-86234554D02*
X28355963Y-86113602D01*
X28355963Y-86113602D02*
X28416439Y-86053126D01*
X28416439Y-86053126D02*
X28537392Y-85992650D01*
X28537392Y-85992650D02*
X28900249Y-85992650D01*
X28900249Y-85992650D02*
X29021201Y-86053126D01*
X29021201Y-86053126D02*
X29081678Y-86113602D01*
X29081678Y-86113602D02*
X29142154Y-86234554D01*
X29142154Y-86234554D02*
X29142154Y-86415983D01*
X29142154Y-85266935D02*
X29081678Y-85387887D01*
X29081678Y-85387887D02*
X29021201Y-85448364D01*
X29021201Y-85448364D02*
X28900249Y-85508840D01*
X28900249Y-85508840D02*
X28537392Y-85508840D01*
X28537392Y-85508840D02*
X28416439Y-85448364D01*
X28416439Y-85448364D02*
X28355963Y-85387887D01*
X28355963Y-85387887D02*
X28295487Y-85266935D01*
X28295487Y-85266935D02*
X28295487Y-85085506D01*
X28295487Y-85085506D02*
X28355963Y-84964554D01*
X28355963Y-84964554D02*
X28416439Y-84904078D01*
X28416439Y-84904078D02*
X28537392Y-84843602D01*
X28537392Y-84843602D02*
X28900249Y-84843602D01*
X28900249Y-84843602D02*
X29021201Y-84904078D01*
X29021201Y-84904078D02*
X29081678Y-84964554D01*
X29081678Y-84964554D02*
X29142154Y-85085506D01*
X29142154Y-85085506D02*
X29142154Y-85266935D01*
X28295487Y-84480744D02*
X28295487Y-83996935D01*
X27872154Y-84299316D02*
X28960725Y-84299316D01*
X28960725Y-84299316D02*
X29081678Y-84238839D01*
X29081678Y-84238839D02*
X29142154Y-84117887D01*
X29142154Y-84117887D02*
X29142154Y-83996935D01*
%TO.C,R100*%
D11*
X73283500Y-40283875D02*
X73283500Y-40591157D01*
X73791500Y-40283875D02*
X73791500Y-40591157D01*
%TO.C,C100*%
X76928492Y-56064656D02*
X76928492Y-56280328D01*
X77436492Y-56064656D02*
X77436492Y-56280328D01*
%TO.C,C85*%
X71927592Y-113299224D02*
X71927592Y-113514896D01*
X72435592Y-113299224D02*
X72435592Y-113514896D01*
%TO.C,R83*%
X101283859Y-52333500D02*
X101591141Y-52333500D01*
X101283859Y-52841500D02*
X101591141Y-52841500D01*
%TO.C,C95*%
X71927592Y-75199160D02*
X71927592Y-75414832D01*
X72435592Y-75199160D02*
X72435592Y-75414832D01*
%TO.C,H1:8*%
X92977500Y-73127500D02*
X94497500Y-73127500D01*
X92977500Y-74127500D02*
X92977500Y-73127500D01*
X92977500Y-76247500D02*
X92977500Y-75247500D01*
X94497500Y-73127500D02*
X94497500Y-73177500D01*
X94497500Y-74297500D02*
X94497500Y-75077500D01*
X94497500Y-76197500D02*
X94497500Y-76247500D01*
X94497500Y-76247500D02*
X92977500Y-76247500D01*
X95037500Y-75067500D02*
X94797500Y-74737500D01*
X95277500Y-74737500D01*
X95037500Y-75067500D01*
G36*
X95037500Y-75067500D02*
G01*
X94797500Y-74737500D01*
X95277500Y-74737500D01*
X95037500Y-75067500D01*
G37*
%TO.C,LED8*%
D12*
X51117500Y-51147500D02*
X53657500Y-51147500D01*
X51117500Y-51207500D02*
X51117500Y-51147500D01*
X51117500Y-52007500D02*
X51117500Y-51967500D01*
X51117500Y-52807500D02*
X51117500Y-52767500D01*
X51117500Y-53687500D02*
X51117500Y-53567500D01*
X53403500Y-53687500D02*
X51117500Y-53687500D01*
X53657500Y-51147500D02*
X53657500Y-51207500D01*
X53657500Y-51967500D02*
X53657500Y-52007500D01*
X53657500Y-52767500D02*
X53657500Y-52807500D01*
X53657500Y-53567500D02*
X53657500Y-53687500D01*
X53657500Y-53687500D02*
X53403500Y-53687500D01*
D13*
X54137500Y-53227500D02*
G75*
G02*
X53997500Y-53227500I-70000J0D01*
G01*
X53997500Y-53227500D02*
G75*
G02*
X54137500Y-53227500I70000J0D01*
G01*
D11*
X52472500Y-51472500D02*
X52472500Y-51722500D01*
X52202500Y-51592500D01*
X52472500Y-51472500D01*
G36*
X52472500Y-51722500D02*
G01*
X52202500Y-51592500D01*
X52472500Y-51472500D01*
X52472500Y-51722500D01*
G37*
%TO.C,R98*%
X73083500Y-43691157D02*
X73083500Y-43383875D01*
X73591500Y-43691157D02*
X73591500Y-43383875D01*
%TO.C,H1:4*%
X92977500Y-35027532D02*
X94497500Y-35027532D01*
X92977500Y-36027532D02*
X92977500Y-35027532D01*
X92977500Y-38147532D02*
X92977500Y-37147532D01*
X94497500Y-35027532D02*
X94497500Y-35077532D01*
X94497500Y-36197532D02*
X94497500Y-36977532D01*
X94497500Y-38097532D02*
X94497500Y-38147532D01*
X94497500Y-38147532D02*
X92977500Y-38147532D01*
X95037500Y-36967532D02*
X94797500Y-36637532D01*
X95277500Y-36637532D01*
X95037500Y-36967532D01*
G36*
X95037500Y-36967532D02*
G01*
X94797500Y-36637532D01*
X95277500Y-36637532D01*
X95037500Y-36967532D01*
G37*
%TO.C,D3*%
X33967500Y-62417517D02*
X33967500Y-66827517D01*
X33967500Y-66827517D02*
X36187500Y-66827517D01*
X36187500Y-66827517D02*
X36187500Y-62417517D01*
%TO.C,C73*%
X73267060Y-32783180D02*
X73267060Y-32998852D01*
X73775060Y-32783180D02*
X73775060Y-32998852D01*
%TO.C,PD1*%
X44067500Y-37687516D02*
X44292500Y-37687516D01*
X44067500Y-38162516D02*
X44067500Y-37687516D01*
X44067500Y-40407516D02*
X44067500Y-39932516D01*
X44292500Y-40407516D02*
X44067500Y-40407516D01*
X46562500Y-37687516D02*
X46787500Y-37687516D01*
X46787500Y-37687516D02*
X46787500Y-38162516D01*
X46787500Y-39932516D02*
X46787500Y-40407516D01*
X46787500Y-40407516D02*
X46562500Y-40407516D01*
X43567500Y-38547516D02*
X43237500Y-38787516D01*
X43237500Y-38307516D01*
X43567500Y-38547516D01*
G36*
X43567500Y-38547516D02*
G01*
X43237500Y-38787516D01*
X43237500Y-38307516D01*
X43567500Y-38547516D01*
G37*
%TO.C,LED30*%
D12*
X108267500Y-32037500D02*
X108521500Y-32037500D01*
X108267500Y-32157500D02*
X108267500Y-32037500D01*
X108267500Y-32957500D02*
X108267500Y-32917500D01*
X108267500Y-33757500D02*
X108267500Y-33717500D01*
X108267500Y-34577500D02*
X108267500Y-34517500D01*
X108521500Y-32037500D02*
X110807500Y-32037500D01*
X110807500Y-32037500D02*
X110807500Y-32157500D01*
X110807500Y-32917500D02*
X110807500Y-32957500D01*
X110807500Y-33717500D02*
X110807500Y-33757500D01*
X110807500Y-34517500D02*
X110807500Y-34577500D01*
X110807500Y-34577500D02*
X108267500Y-34577500D01*
D13*
X107927500Y-32497500D02*
G75*
G02*
X107787500Y-32497500I-70000J0D01*
G01*
X107787500Y-32497500D02*
G75*
G02*
X107927500Y-32497500I70000J0D01*
G01*
D11*
X109452500Y-34252500D02*
X109452500Y-34002500D01*
X109722500Y-34132500D01*
X109452500Y-34252500D01*
G36*
X109722500Y-34132500D02*
G01*
X109452500Y-34252500D01*
X109452500Y-34002500D01*
X109722500Y-34132500D01*
G37*
%TO.C,R23*%
X73383500Y-67143875D02*
X73383500Y-67451157D01*
X73891500Y-67143875D02*
X73891500Y-67451157D01*
%TO.C,C24*%
X74203500Y-47449680D02*
X74203500Y-47665352D01*
X74711500Y-47449680D02*
X74711500Y-47665352D01*
%TO.C,R19*%
X85233500Y-43833891D02*
X85233500Y-44141173D01*
X85741500Y-43833891D02*
X85741500Y-44141173D01*
%TO.C,H1:3*%
X92977500Y-54077516D02*
X94497500Y-54077516D01*
X92977500Y-55077516D02*
X92977500Y-54077516D01*
X92977500Y-57197516D02*
X92977500Y-56197516D01*
X94497500Y-54077516D02*
X94497500Y-54127516D01*
X94497500Y-55247516D02*
X94497500Y-56027516D01*
X94497500Y-57147516D02*
X94497500Y-57197516D01*
X94497500Y-57197516D02*
X92977500Y-57197516D01*
X95037500Y-56017516D02*
X94797500Y-55687516D01*
X95277500Y-55687516D01*
X95037500Y-56017516D01*
G36*
X95037500Y-56017516D02*
G01*
X94797500Y-55687516D01*
X95277500Y-55687516D01*
X95037500Y-56017516D01*
G37*
%TO.C,R12*%
X74753859Y-48783516D02*
X75061141Y-48783516D01*
X74753859Y-49291516D02*
X75061141Y-49291516D01*
%TO.C,C10*%
X64833500Y-68284564D02*
X64833500Y-68500236D01*
X65341500Y-68284564D02*
X65341500Y-68500236D01*
%TO.C,AM1:10*%
D10*
X102552500Y-59372516D02*
X102552500Y-58387516D01*
X102552500Y-59372516D02*
X103537500Y-59372516D01*
X116522500Y-45402516D02*
X115537500Y-45402516D01*
X116522500Y-45402516D02*
X116522500Y-46387516D01*
D14*
X113031278Y-55637516D02*
G75*
G02*
X112543722Y-55637516I-243778J0D01*
G01*
X112543722Y-55637516D02*
G75*
G02*
X113031278Y-55637516I243778J0D01*
G01*
%TO.C,U12*%
D11*
X97027500Y-119567517D02*
X98847500Y-119567517D01*
X97027500Y-119617517D02*
X97027500Y-119567517D01*
X97027500Y-122687517D02*
X97027500Y-122637517D01*
X98847500Y-119567517D02*
X98847500Y-119617517D01*
X98847500Y-120737517D02*
X98847500Y-121517517D01*
X98847500Y-122637517D02*
X98847500Y-122687517D01*
X98847500Y-122687517D02*
X97027500Y-122687517D01*
X96487500Y-119617517D02*
X96247500Y-119287517D01*
X96727500Y-119287517D01*
X96487500Y-119617517D01*
G36*
X96487500Y-119617517D02*
G01*
X96247500Y-119287517D01*
X96727500Y-119287517D01*
X96487500Y-119617517D01*
G37*
%TO.C,R72*%
X100583859Y-88683516D02*
X100891141Y-88683516D01*
X100583859Y-89191516D02*
X100891141Y-89191516D01*
%TO.C,R4*%
X28320988Y-77619899D02*
X28320988Y-77927181D01*
X28828988Y-77619899D02*
X28828988Y-77927181D01*
%TO.C,C44*%
X58749664Y-105683516D02*
X58965336Y-105683516D01*
X58749664Y-106191516D02*
X58965336Y-106191516D01*
%TO.C,C76*%
X100283500Y-119835353D02*
X100283500Y-119619681D01*
X100791500Y-119835353D02*
X100791500Y-119619681D01*
%TO.C,R86*%
X54955573Y-61982355D02*
X55262855Y-61982355D01*
X54955573Y-62490355D02*
X55262855Y-62490355D01*
%TO.C,LED23*%
D12*
X89217500Y-108297500D02*
X91757500Y-108297500D01*
X89217500Y-108357500D02*
X89217500Y-108297500D01*
X89217500Y-109157500D02*
X89217500Y-109117500D01*
X89217500Y-109957500D02*
X89217500Y-109917500D01*
X89217500Y-110837500D02*
X89217500Y-110717500D01*
X91503500Y-110837500D02*
X89217500Y-110837500D01*
X91757500Y-108297500D02*
X91757500Y-108357500D01*
X91757500Y-109117500D02*
X91757500Y-109157500D01*
X91757500Y-109917500D02*
X91757500Y-109957500D01*
X91757500Y-110717500D02*
X91757500Y-110837500D01*
X91757500Y-110837500D02*
X91503500Y-110837500D01*
D13*
X92237500Y-110377500D02*
G75*
G02*
X92097500Y-110377500I-70000J0D01*
G01*
X92097500Y-110377500D02*
G75*
G02*
X92237500Y-110377500I70000J0D01*
G01*
D11*
X90572500Y-108622500D02*
X90572500Y-108872500D01*
X90302500Y-108742500D01*
X90572500Y-108622500D01*
G36*
X90572500Y-108872500D02*
G01*
X90302500Y-108742500D01*
X90572500Y-108622500D01*
X90572500Y-108872500D01*
G37*
%TO.C,C74*%
X49879664Y-33083500D02*
X50095336Y-33083500D01*
X49879664Y-33591500D02*
X50095336Y-33591500D01*
%TO.C,C51*%
X111367028Y-108983116D02*
X111367028Y-109198788D01*
X111875028Y-108983116D02*
X111875028Y-109198788D01*
%TO.C,LED24*%
D12*
X89217500Y-127347500D02*
X91757500Y-127347500D01*
X89217500Y-127407500D02*
X89217500Y-127347500D01*
X89217500Y-128207500D02*
X89217500Y-128167500D01*
X89217500Y-129007500D02*
X89217500Y-128967500D01*
X89217500Y-129887500D02*
X89217500Y-129767500D01*
X91503500Y-129887500D02*
X89217500Y-129887500D01*
X91757500Y-127347500D02*
X91757500Y-127407500D01*
X91757500Y-128167500D02*
X91757500Y-128207500D01*
X91757500Y-128967500D02*
X91757500Y-129007500D01*
X91757500Y-129767500D02*
X91757500Y-129887500D01*
X91757500Y-129887500D02*
X91503500Y-129887500D01*
D13*
X92237500Y-129427500D02*
G75*
G02*
X92097500Y-129427500I-70000J0D01*
G01*
X92097500Y-129427500D02*
G75*
G02*
X92237500Y-129427500I70000J0D01*
G01*
D11*
X90572500Y-127672500D02*
X90572500Y-127922500D01*
X90302500Y-127792500D01*
X90572500Y-127672500D01*
G36*
X90572500Y-127922500D02*
G01*
X90302500Y-127792500D01*
X90572500Y-127672500D01*
X90572500Y-127922500D01*
G37*
%TO.C,C57*%
X49729664Y-90233500D02*
X49945336Y-90233500D01*
X49729664Y-90741500D02*
X49945336Y-90741500D01*
%TO.C,C12*%
X62527000Y-51400236D02*
X62527000Y-51184564D01*
X63035000Y-51400236D02*
X63035000Y-51184564D01*
%TO.C,LED1*%
D12*
X32067500Y-127287580D02*
X32321500Y-127287580D01*
X32067500Y-127407580D02*
X32067500Y-127287580D01*
X32067500Y-128207580D02*
X32067500Y-128167580D01*
X32067500Y-129007580D02*
X32067500Y-128967580D01*
X32067500Y-129827580D02*
X32067500Y-129767580D01*
X32321500Y-127287580D02*
X34607500Y-127287580D01*
X34607500Y-127287580D02*
X34607500Y-127407580D01*
X34607500Y-128167580D02*
X34607500Y-128207580D01*
X34607500Y-128967580D02*
X34607500Y-129007580D01*
X34607500Y-129767580D02*
X34607500Y-129827580D01*
X34607500Y-129827580D02*
X32067500Y-129827580D01*
D13*
X31727500Y-127747580D02*
G75*
G02*
X31587500Y-127747580I-70000J0D01*
G01*
X31587500Y-127747580D02*
G75*
G02*
X31727500Y-127747580I70000J0D01*
G01*
D11*
X33252500Y-129502580D02*
X33252500Y-129252580D01*
X33522500Y-129382580D01*
X33252500Y-129502580D01*
G36*
X33522500Y-129382580D02*
G01*
X33252500Y-129502580D01*
X33252500Y-129252580D01*
X33522500Y-129382580D01*
G37*
%TO.C,R61*%
X48891141Y-85533500D02*
X48583859Y-85533500D01*
X48891141Y-86041500D02*
X48583859Y-86041500D01*
%TO.C,C117*%
X96983500Y-86349680D02*
X96983500Y-86565352D01*
X97491500Y-86349680D02*
X97491500Y-86565352D01*
%TO.C,C23*%
X70403500Y-48249680D02*
X70403500Y-48465352D01*
X70911500Y-48249680D02*
X70911500Y-48465352D01*
%TO.C,C49*%
X88133500Y-129195336D02*
X88133500Y-128979664D01*
X88641500Y-129195336D02*
X88641500Y-128979664D01*
%TO.C,R69*%
X66391141Y-124083516D02*
X66083859Y-124083516D01*
X66391141Y-124591516D02*
X66083859Y-124591516D01*
%TO.C,LED10*%
D12*
X51117500Y-89247500D02*
X53657500Y-89247500D01*
X51117500Y-89307500D02*
X51117500Y-89247500D01*
X51117500Y-90107500D02*
X51117500Y-90067500D01*
X51117500Y-90907500D02*
X51117500Y-90867500D01*
X51117500Y-91787500D02*
X51117500Y-91667500D01*
X53403500Y-91787500D02*
X51117500Y-91787500D01*
X53657500Y-89247500D02*
X53657500Y-89307500D01*
X53657500Y-90067500D02*
X53657500Y-90107500D01*
X53657500Y-90867500D02*
X53657500Y-90907500D01*
X53657500Y-91667500D02*
X53657500Y-91787500D01*
X53657500Y-91787500D02*
X53403500Y-91787500D01*
D13*
X54137500Y-91327500D02*
G75*
G02*
X53997500Y-91327500I-70000J0D01*
G01*
X53997500Y-91327500D02*
G75*
G02*
X54137500Y-91327500I70000J0D01*
G01*
D11*
X52472500Y-89572500D02*
X52472500Y-89822500D01*
X52202500Y-89692500D01*
X52472500Y-89572500D01*
G36*
X52472500Y-89822500D02*
G01*
X52202500Y-89692500D01*
X52472500Y-89572500D01*
X52472500Y-89822500D01*
G37*
%TO.C,C56*%
X35975412Y-90233452D02*
X35759740Y-90233452D01*
X35975412Y-90741452D02*
X35759740Y-90741452D01*
%TO.C,C32*%
X92435500Y-62782196D02*
X92435500Y-62997868D01*
X92943500Y-62782196D02*
X92943500Y-62997868D01*
%TO.C,USB2*%
X29759683Y-111981320D02*
X27979683Y-111981320D01*
X29759683Y-121381320D02*
X27979683Y-121381320D01*
X32679683Y-113881320D02*
X32679683Y-113081320D01*
%TO.C,R50*%
X36183859Y-118283500D02*
X36491141Y-118283500D01*
X36183859Y-118791500D02*
X36491141Y-118791500D01*
%TO.C,R31*%
X53783859Y-116783516D02*
X54091141Y-116783516D01*
X53783859Y-117291516D02*
X54091141Y-117291516D01*
%TO.C,C47*%
X50283500Y-130845336D02*
X50283500Y-130629664D01*
X50791500Y-130845336D02*
X50791500Y-130629664D01*
%TO.C,C22*%
X63813500Y-38969680D02*
X63813500Y-39185352D01*
X64321500Y-38969680D02*
X64321500Y-39185352D01*
%TO.C,LED5*%
D12*
X32067500Y-51087500D02*
X32321500Y-51087500D01*
X32067500Y-51207500D02*
X32067500Y-51087500D01*
X32067500Y-52007500D02*
X32067500Y-51967500D01*
X32067500Y-52807500D02*
X32067500Y-52767500D01*
X32067500Y-53627500D02*
X32067500Y-53567500D01*
X32321500Y-51087500D02*
X34607500Y-51087500D01*
X34607500Y-51087500D02*
X34607500Y-51207500D01*
X34607500Y-51967500D02*
X34607500Y-52007500D01*
X34607500Y-52767500D02*
X34607500Y-52807500D01*
X34607500Y-53567500D02*
X34607500Y-53627500D01*
X34607500Y-53627500D02*
X32067500Y-53627500D01*
D13*
X31727500Y-51547500D02*
G75*
G02*
X31587500Y-51547500I-70000J0D01*
G01*
X31587500Y-51547500D02*
G75*
G02*
X31727500Y-51547500I70000J0D01*
G01*
D11*
X33252500Y-53302500D02*
X33252500Y-53052500D01*
X33522500Y-53182500D01*
X33252500Y-53302500D01*
G36*
X33522500Y-53182500D02*
G01*
X33252500Y-53302500D01*
X33252500Y-53052500D01*
X33522500Y-53182500D01*
G37*
%TO.C,LED25*%
D12*
X108267500Y-127287500D02*
X108521500Y-127287500D01*
X108267500Y-127407500D02*
X108267500Y-127287500D01*
X108267500Y-128207500D02*
X108267500Y-128167500D01*
X108267500Y-129007500D02*
X108267500Y-128967500D01*
X108267500Y-129827500D02*
X108267500Y-129767500D01*
X108521500Y-127287500D02*
X110807500Y-127287500D01*
X110807500Y-127287500D02*
X110807500Y-127407500D01*
X110807500Y-128167500D02*
X110807500Y-128207500D01*
X110807500Y-128967500D02*
X110807500Y-129007500D01*
X110807500Y-129767500D02*
X110807500Y-129827500D01*
X110807500Y-129827500D02*
X108267500Y-129827500D01*
D13*
X107927500Y-127747500D02*
G75*
G02*
X107787500Y-127747500I-70000J0D01*
G01*
X107787500Y-127747500D02*
G75*
G02*
X107927500Y-127747500I70000J0D01*
G01*
D11*
X109452500Y-129502500D02*
X109452500Y-129252500D01*
X109722500Y-129382500D01*
X109452500Y-129502500D01*
G36*
X109722500Y-129382500D02*
G01*
X109452500Y-129502500D01*
X109452500Y-129252500D01*
X109722500Y-129382500D01*
G37*
%TO.C,C80*%
X71927592Y-132349256D02*
X71927592Y-132564928D01*
X72435592Y-132349256D02*
X72435592Y-132564928D01*
%TO.C,L1*%
D15*
X65973274Y-50165895D02*
G75*
G02*
X65781854Y-50165895I-95710J0D01*
G01*
X65781854Y-50165895D02*
G75*
G02*
X65973274Y-50165895I95710J0D01*
G01*
%TO.C,C90*%
D11*
X71927592Y-94249192D02*
X71927592Y-94464864D01*
X72435592Y-94249192D02*
X72435592Y-94464864D01*
%TO.C,D4*%
X54477500Y-105677500D02*
X55477500Y-105677500D01*
X54477500Y-107197500D02*
X54477500Y-105677500D01*
X54527500Y-107197500D02*
X54477500Y-107197500D01*
X56427500Y-107197500D02*
X55647500Y-107197500D01*
X56597500Y-105677500D02*
X57597500Y-105677500D01*
X57597500Y-105677500D02*
X57597500Y-107197500D01*
X57597500Y-107197500D02*
X57547500Y-107197500D01*
X55657500Y-107737500D02*
X55987500Y-107497500D01*
X55987500Y-107977500D01*
X55657500Y-107737500D01*
G36*
X55987500Y-107977500D02*
G01*
X55657500Y-107737500D01*
X55987500Y-107497500D01*
X55987500Y-107977500D01*
G37*
%TO.C,R84*%
X56983859Y-52083516D02*
X57291141Y-52083516D01*
X56983859Y-52591516D02*
X57291141Y-52591516D01*
%TO.C,C25*%
X92533500Y-43879664D02*
X92533500Y-44095336D01*
X93041500Y-43879664D02*
X93041500Y-44095336D01*
%TO.C,H1:13*%
X112027484Y-111227468D02*
X113547484Y-111227468D01*
X112027484Y-112227468D02*
X112027484Y-111227468D01*
X112027484Y-114347468D02*
X112027484Y-113347468D01*
X113547484Y-111227468D02*
X113547484Y-111277468D01*
X113547484Y-112397468D02*
X113547484Y-113177468D01*
X113547484Y-114297468D02*
X113547484Y-114347468D01*
X113547484Y-114347468D02*
X112027484Y-114347468D01*
X114087484Y-113167468D02*
X113847484Y-112837468D01*
X114327484Y-112837468D01*
X114087484Y-113167468D01*
G36*
X114087484Y-113167468D02*
G01*
X113847484Y-112837468D01*
X114327484Y-112837468D01*
X114087484Y-113167468D01*
G37*
%TO.C,R42*%
X61841141Y-38333500D02*
X61533859Y-38333500D01*
X61841141Y-38841500D02*
X61533859Y-38841500D01*
%TO.C,R55*%
X64193501Y-80191157D02*
X64193501Y-79883875D01*
X64701501Y-80191157D02*
X64701501Y-79883875D01*
%TO.C,R18*%
X85233500Y-45833891D02*
X85233500Y-46141173D01*
X85741500Y-45833891D02*
X85741500Y-46141173D01*
%TO.C,C3*%
X62513836Y-70258400D02*
X62298164Y-70258400D01*
X62513836Y-70766400D02*
X62298164Y-70766400D01*
%TO.C,C107*%
X110027560Y-37099096D02*
X110027560Y-37314768D01*
X110535560Y-37099096D02*
X110535560Y-37314768D01*
%TO.C,H1:12*%
X111227500Y-92977548D02*
X111277500Y-92977548D01*
X111227500Y-94497548D02*
X111227500Y-92977548D01*
X112227500Y-94497548D02*
X111227500Y-94497548D01*
X112397500Y-92977548D02*
X113177500Y-92977548D01*
X114297500Y-92977548D02*
X114347500Y-92977548D01*
X114347500Y-92977548D02*
X114347500Y-94497548D01*
X114347500Y-94497548D02*
X113347500Y-94497548D01*
X113167500Y-92437548D02*
X112837500Y-92677548D01*
X112837500Y-92197548D01*
X113167500Y-92437548D01*
G36*
X113167500Y-92437548D02*
G01*
X112837500Y-92677548D01*
X112837500Y-92197548D01*
X113167500Y-92437548D01*
G37*
%TO.C,C125*%
X75283500Y-41545352D02*
X75283500Y-41329680D01*
X75791500Y-41545352D02*
X75791500Y-41329680D01*
%TO.C,H0:2*%
X35827500Y-92177548D02*
X37347500Y-92177548D01*
X35827500Y-93177548D02*
X35827500Y-92177548D01*
X35827500Y-95297548D02*
X35827500Y-94297548D01*
X37347500Y-92177548D02*
X37347500Y-92227548D01*
X37347500Y-93347548D02*
X37347500Y-94127548D01*
X37347500Y-95247548D02*
X37347500Y-95297548D01*
X37347500Y-95297548D02*
X35827500Y-95297548D01*
X37887500Y-94117548D02*
X37647500Y-93787548D01*
X38127500Y-93787548D01*
X37887500Y-94117548D01*
G36*
X37887500Y-94117548D02*
G01*
X37647500Y-93787548D01*
X38127500Y-93787548D01*
X37887500Y-94117548D01*
G37*
%TO.C,LED15*%
D12*
X70167500Y-89187548D02*
X70421500Y-89187548D01*
X70167500Y-89307548D02*
X70167500Y-89187548D01*
X70167500Y-90107548D02*
X70167500Y-90067548D01*
X70167500Y-90907548D02*
X70167500Y-90867548D01*
X70167500Y-91727548D02*
X70167500Y-91667548D01*
X70421500Y-89187548D02*
X72707500Y-89187548D01*
X72707500Y-89187548D02*
X72707500Y-89307548D01*
X72707500Y-90067548D02*
X72707500Y-90107548D01*
X72707500Y-90867548D02*
X72707500Y-90907548D01*
X72707500Y-91667548D02*
X72707500Y-91727548D01*
X72707500Y-91727548D02*
X70167500Y-91727548D01*
D13*
X69827500Y-89647548D02*
G75*
G02*
X69687500Y-89647548I-70000J0D01*
G01*
X69687500Y-89647548D02*
G75*
G02*
X69827500Y-89647548I70000J0D01*
G01*
D11*
X71352500Y-91402548D02*
X71352500Y-91152548D01*
X71622500Y-91282548D01*
X71352500Y-91402548D01*
G36*
X71622500Y-91282548D02*
G01*
X71352500Y-91402548D01*
X71352500Y-91152548D01*
X71622500Y-91282548D01*
G37*
%TO.C,C54*%
X50583500Y-111845336D02*
X50583500Y-111629664D01*
X51091500Y-111845336D02*
X51091500Y-111629664D01*
%TO.C,AM0:11*%
D10*
X64452500Y-121602580D02*
X64452500Y-122587580D01*
X64452500Y-121602580D02*
X65437500Y-121602580D01*
X78422500Y-121602580D02*
X77437500Y-121602580D01*
X78422500Y-121602580D02*
X78422500Y-122587580D01*
D14*
X74931278Y-131837580D02*
G75*
G02*
X74443722Y-131837580I-243778J0D01*
G01*
X74443722Y-131837580D02*
G75*
G02*
X74931278Y-131837580I243778J0D01*
G01*
%TO.C,U3*%
D11*
X54021000Y-44694992D02*
X59541000Y-44694992D01*
X54021000Y-44964992D02*
X54021000Y-44694992D01*
X54021000Y-50214992D02*
X54021000Y-49944992D01*
X59541000Y-44694992D02*
X59541000Y-44964992D01*
X59541000Y-49944992D02*
X59541000Y-50214992D01*
X59541000Y-50214992D02*
X54021000Y-50214992D01*
X53191000Y-44954992D02*
X52851000Y-44484992D01*
X53531000Y-44484992D01*
X53191000Y-44954992D01*
G36*
X53191000Y-44954992D02*
G01*
X52851000Y-44484992D01*
X53531000Y-44484992D01*
X53191000Y-44954992D01*
G37*
%TO.C,H1:14*%
X112027500Y-130277580D02*
X113547500Y-130277580D01*
X112027500Y-131277580D02*
X112027500Y-130277580D01*
X112027500Y-133397580D02*
X112027500Y-132397580D01*
X113547500Y-130277580D02*
X113547500Y-130327580D01*
X113547500Y-131447580D02*
X113547500Y-132227580D01*
X113547500Y-133347580D02*
X113547500Y-133397580D01*
X113547500Y-133397580D02*
X112027500Y-133397580D01*
X114087500Y-132217580D02*
X113847500Y-131887580D01*
X114327500Y-131887580D01*
X114087500Y-132217580D01*
G36*
X114087500Y-132217580D02*
G01*
X113847500Y-131887580D01*
X114327500Y-131887580D01*
X114087500Y-132217580D01*
G37*
%TO.C,AM1:11*%
D10*
X102552500Y-78422532D02*
X102552500Y-77437532D01*
X102552500Y-78422532D02*
X103537500Y-78422532D01*
X116522500Y-78422532D02*
X115537500Y-78422532D01*
X116522500Y-78422532D02*
X116522500Y-77437532D01*
D14*
X113031278Y-74687532D02*
G75*
G02*
X112543722Y-74687532I-243778J0D01*
G01*
X112543722Y-74687532D02*
G75*
G02*
X113031278Y-74687532I243778J0D01*
G01*
%TO.C,R68*%
D11*
X98083500Y-86873876D02*
X98083500Y-87181158D01*
X98591500Y-86873876D02*
X98591500Y-87181158D01*
%TO.C,C83*%
X38858500Y-113179696D02*
X38858500Y-113395368D01*
X39366500Y-113179696D02*
X39366500Y-113395368D01*
%TO.C,C127*%
X35783500Y-121145352D02*
X35783500Y-120929680D01*
X36291500Y-121145352D02*
X36291500Y-120929680D01*
%TO.C,R90*%
X27033500Y-53101141D02*
X27033500Y-52793859D01*
X27541500Y-53101141D02*
X27541500Y-52793859D01*
%TO.C,C120*%
X109293499Y-45729680D02*
X109293499Y-45945352D01*
X109801499Y-45729680D02*
X109801499Y-45945352D01*
%TO.C,R28*%
X57683500Y-125901156D02*
X57683500Y-125593874D01*
X58191500Y-125901156D02*
X58191500Y-125593874D01*
%TO.C,C87*%
X110027560Y-113299224D02*
X110027560Y-113514896D01*
X110535560Y-113299224D02*
X110535560Y-113514896D01*
%TO.C,U13*%
X44099992Y-34947500D02*
X44099992Y-33527500D01*
X45099992Y-34947500D02*
X44969992Y-34947500D01*
X45969992Y-33811932D02*
X45969992Y-34947500D01*
X45974992Y-33517500D02*
X46164992Y-33377500D01*
X46164992Y-33657500D01*
X45974992Y-33517500D01*
G36*
X46164992Y-33657500D02*
G01*
X45974992Y-33517500D01*
X46164992Y-33377500D01*
X46164992Y-33657500D01*
G37*
%TO.C,C105*%
X71927592Y-37099096D02*
X71927592Y-37314768D01*
X72435592Y-37099096D02*
X72435592Y-37314768D01*
%TO.C,LED19*%
D12*
X89217500Y-32097500D02*
X91757500Y-32097500D01*
X89217500Y-32157500D02*
X89217500Y-32097500D01*
X89217500Y-32957500D02*
X89217500Y-32917500D01*
X89217500Y-33757500D02*
X89217500Y-33717500D01*
X89217500Y-34637500D02*
X89217500Y-34517500D01*
X91503500Y-34637500D02*
X89217500Y-34637500D01*
X91757500Y-32097500D02*
X91757500Y-32157500D01*
X91757500Y-32917500D02*
X91757500Y-32957500D01*
X91757500Y-33717500D02*
X91757500Y-33757500D01*
X91757500Y-34517500D02*
X91757500Y-34637500D01*
X91757500Y-34637500D02*
X91503500Y-34637500D01*
D13*
X92237500Y-34177500D02*
G75*
G02*
X92097500Y-34177500I-70000J0D01*
G01*
X92097500Y-34177500D02*
G75*
G02*
X92237500Y-34177500I70000J0D01*
G01*
D11*
X90572500Y-32422500D02*
X90572500Y-32672500D01*
X90302500Y-32542500D01*
X90572500Y-32422500D01*
G36*
X90572500Y-32672500D02*
G01*
X90302500Y-32542500D01*
X90572500Y-32422500D01*
X90572500Y-32672500D01*
G37*
%TO.C,R91*%
X78423859Y-33183500D02*
X78731141Y-33183500D01*
X78423859Y-33691500D02*
X78731141Y-33691500D01*
%TO.C,C129*%
X50779664Y-35083516D02*
X50995336Y-35083516D01*
X50779664Y-35591516D02*
X50995336Y-35591516D01*
%TO.C,R26*%
X86135500Y-63043673D02*
X86135500Y-62736391D01*
X86643500Y-63043673D02*
X86643500Y-62736391D01*
%TO.C,R21*%
X58683500Y-119481158D02*
X58683500Y-119173876D01*
X59191500Y-119481158D02*
X59191500Y-119173876D01*
%TO.C,Q14*%
X42087500Y-46007516D02*
X42187501Y-46007516D01*
X42087500Y-49987516D02*
X42087500Y-46007516D01*
X42187501Y-49987516D02*
X42087500Y-49987516D01*
X47167499Y-46007516D02*
X47267500Y-46007516D01*
X47267500Y-46007516D02*
X47267500Y-49987516D01*
X47267500Y-49987516D02*
X47167499Y-49987516D01*
X47177500Y-45457516D02*
X47507500Y-45217516D01*
X47507500Y-45697516D01*
X47177500Y-45457516D01*
G36*
X47507500Y-45697516D02*
G01*
X47177500Y-45457516D01*
X47507500Y-45217516D01*
X47507500Y-45697516D01*
G37*
%TO.C,AM0:4*%
D10*
X26352500Y-45402516D02*
X26352500Y-46387516D01*
X26352500Y-45402516D02*
X27337500Y-45402516D01*
X40322500Y-45402516D02*
X39337500Y-45402516D01*
X40322500Y-45402516D02*
X40322500Y-46387516D01*
X40322500Y-59372516D02*
X39337500Y-59372516D01*
X40322500Y-59372516D02*
X40322500Y-58387516D01*
D14*
X36831278Y-55637516D02*
G75*
G02*
X36343722Y-55637516I-243778J0D01*
G01*
X36343722Y-55637516D02*
G75*
G02*
X36831278Y-55637516I243778J0D01*
G01*
%TO.C,R11*%
D11*
X63243858Y-46893516D02*
X63551140Y-46893516D01*
X63243858Y-47401516D02*
X63551140Y-47401516D01*
%TO.C,R1*%
X56213500Y-43313875D02*
X56213500Y-43621157D01*
X56721500Y-43313875D02*
X56721500Y-43621157D01*
%TO.C,R65*%
X91983500Y-84791157D02*
X91983500Y-84483875D01*
X92491500Y-84791157D02*
X92491500Y-84483875D01*
%TO.C,U16*%
X111237499Y-42577516D02*
X113057499Y-42577516D01*
X111237499Y-42627516D02*
X111237499Y-42577516D01*
X111237499Y-44527516D02*
X111237499Y-43747516D01*
X111237499Y-45697516D02*
X111237499Y-45647516D01*
X113057499Y-42577516D02*
X113057499Y-42627516D01*
X113057499Y-45647516D02*
X113057499Y-45697516D01*
X113057499Y-45697516D02*
X111237499Y-45697516D01*
X113597499Y-45647516D02*
X113837499Y-45977516D01*
X113357499Y-45977516D01*
X113597499Y-45647516D01*
G36*
X113837499Y-45977516D02*
G01*
X113357499Y-45977516D01*
X113597499Y-45647516D01*
X113837499Y-45977516D01*
G37*
%TO.C,C81*%
X90977576Y-132349256D02*
X90977576Y-132564928D01*
X91485576Y-132349256D02*
X91485576Y-132564928D01*
%TO.C,AM1:4*%
D10*
X83502500Y-40322500D02*
X83502500Y-39337500D01*
X83502500Y-40322500D02*
X84487500Y-40322500D01*
X97472500Y-26352500D02*
X96487500Y-26352500D01*
X97472500Y-26352500D02*
X97472500Y-27337500D01*
X97472500Y-40322500D02*
X96487500Y-40322500D01*
X97472500Y-40322500D02*
X97472500Y-39337500D01*
D14*
X93981278Y-36587500D02*
G75*
G02*
X93493722Y-36587500I-243778J0D01*
G01*
X93493722Y-36587500D02*
G75*
G02*
X93981278Y-36587500I243778J0D01*
G01*
%TO.C,C128*%
D11*
X41343500Y-120535352D02*
X41343500Y-120319680D01*
X41851500Y-120535352D02*
X41851500Y-120319680D01*
%TO.C,Q9*%
X102077500Y-89677516D02*
X103077500Y-89677516D01*
X102077500Y-91197516D02*
X102077500Y-89677516D01*
X102127500Y-91197516D02*
X102077500Y-91197516D01*
X104027500Y-91197516D02*
X103247500Y-91197516D01*
X104197500Y-89677516D02*
X105197500Y-89677516D01*
X105197500Y-89677516D02*
X105197500Y-91197516D01*
X105197500Y-91197516D02*
X105147500Y-91197516D01*
X103257500Y-91737516D02*
X103587500Y-91497516D01*
X103587500Y-91977516D01*
X103257500Y-91737516D01*
G36*
X103587500Y-91977516D02*
G01*
X103257500Y-91737516D01*
X103587500Y-91497516D01*
X103587500Y-91977516D01*
G37*
%TO.C,C111*%
X71679664Y-59483516D02*
X71895336Y-59483516D01*
X71679664Y-59991516D02*
X71895336Y-59991516D01*
%TO.C,C59*%
X87879664Y-90283500D02*
X88095336Y-90283500D01*
X87879664Y-90791500D02*
X88095336Y-90791500D01*
%TO.C,AM1:12*%
D10*
X102552500Y-83502548D02*
X102552500Y-84487548D01*
X102552500Y-83502548D02*
X103537500Y-83502548D01*
X102552500Y-97472548D02*
X102552500Y-96487548D01*
X102552500Y-97472548D02*
X103537500Y-97472548D01*
X116522500Y-83502548D02*
X115537500Y-83502548D01*
X116522500Y-83502548D02*
X116522500Y-84487548D01*
D14*
X113031278Y-93737548D02*
G75*
G02*
X112543722Y-93737548I-243778J0D01*
G01*
X112543722Y-93737548D02*
G75*
G02*
X113031278Y-93737548I243778J0D01*
G01*
%TO.C,R29*%
D11*
X56183859Y-108683516D02*
X56491141Y-108683516D01*
X56183859Y-109191516D02*
X56491141Y-109191516D01*
%TO.C,AM0:3*%
D10*
X40322500Y-64452532D02*
X39337500Y-64452532D01*
X40322500Y-64452532D02*
X40322500Y-65437532D01*
X40322500Y-78422532D02*
X39337500Y-78422532D01*
X40322500Y-78422532D02*
X40322500Y-77437532D01*
D14*
X36831278Y-74687532D02*
G75*
G02*
X36343722Y-74687532I-243778J0D01*
G01*
X36343722Y-74687532D02*
G75*
G02*
X36831278Y-74687532I243778J0D01*
G01*
%TO.C,LED22*%
D12*
X89217500Y-89247500D02*
X91757500Y-89247500D01*
X89217500Y-89307500D02*
X89217500Y-89247500D01*
X89217500Y-90107500D02*
X89217500Y-90067500D01*
X89217500Y-90907500D02*
X89217500Y-90867500D01*
X89217500Y-91787500D02*
X89217500Y-91667500D01*
X91503500Y-91787500D02*
X89217500Y-91787500D01*
X91757500Y-89247500D02*
X91757500Y-89307500D01*
X91757500Y-90067500D02*
X91757500Y-90107500D01*
X91757500Y-90867500D02*
X91757500Y-90907500D01*
X91757500Y-91667500D02*
X91757500Y-91787500D01*
X91757500Y-91787500D02*
X91503500Y-91787500D01*
D13*
X92237500Y-91327500D02*
G75*
G02*
X92097500Y-91327500I-70000J0D01*
G01*
X92097500Y-91327500D02*
G75*
G02*
X92237500Y-91327500I70000J0D01*
G01*
D11*
X90572500Y-89572500D02*
X90572500Y-89822500D01*
X90302500Y-89692500D01*
X90572500Y-89572500D01*
G36*
X90572500Y-89822500D02*
G01*
X90302500Y-89692500D01*
X90572500Y-89572500D01*
X90572500Y-89822500D01*
G37*
%TO.C,R53*%
X62183500Y-80191157D02*
X62183500Y-79883875D01*
X62691500Y-80191157D02*
X62691500Y-79883875D01*
%TO.C,R33*%
X79891141Y-110283516D02*
X79583859Y-110283516D01*
X79891141Y-110791516D02*
X79583859Y-110791516D01*
%TO.C,C109*%
X88145336Y-75783516D02*
X87929664Y-75783516D01*
X88145336Y-76291516D02*
X87929664Y-76291516D01*
%TO.C,C75*%
X35133500Y-32779664D02*
X35133500Y-32995336D01*
X35641500Y-32779664D02*
X35641500Y-32995336D01*
%TO.C,C116*%
X101354664Y-37183500D02*
X101570336Y-37183500D01*
X101354664Y-37691500D02*
X101570336Y-37691500D01*
%TO.C,R101*%
X66420956Y-68529220D02*
X66420956Y-68221938D01*
X66928956Y-68529220D02*
X66928956Y-68221938D01*
%TO.C,R77*%
X71683500Y-121491157D02*
X71683500Y-121183875D01*
X72191500Y-121491157D02*
X72191500Y-121183875D01*
%TO.C,C123*%
X74383500Y-67189680D02*
X74383500Y-67405352D01*
X74891500Y-67189680D02*
X74891500Y-67405352D01*
%TO.C,C33*%
X87481664Y-65336032D02*
X87697336Y-65336032D01*
X87481664Y-65844032D02*
X87697336Y-65844032D01*
%TO.C,Q1*%
X76777500Y-99777516D02*
X78297500Y-99777516D01*
X76777500Y-100777516D02*
X76777500Y-99777516D01*
X76777500Y-102897516D02*
X76777500Y-101897516D01*
X78297500Y-99777516D02*
X78297500Y-99827516D01*
X78297500Y-100947516D02*
X78297500Y-101727516D01*
X78297500Y-102847516D02*
X78297500Y-102897516D01*
X78297500Y-102897516D02*
X76777500Y-102897516D01*
X78837500Y-101717516D02*
X78597500Y-101387516D01*
X79077500Y-101387516D01*
X78837500Y-101717516D01*
G36*
X78837500Y-101717516D02*
G01*
X78597500Y-101387516D01*
X79077500Y-101387516D01*
X78837500Y-101717516D01*
G37*
%TO.C,R52*%
X90983500Y-84483875D02*
X90983500Y-84791157D01*
X91491500Y-84483875D02*
X91491500Y-84791157D01*
%TO.C,C124*%
X74083500Y-43645352D02*
X74083500Y-43429680D01*
X74591500Y-43645352D02*
X74591500Y-43429680D01*
%TO.C,C113*%
X59180328Y-67598492D02*
X58964656Y-67598492D01*
X59180328Y-68106492D02*
X58964656Y-68106492D01*
%TO.C,LED26*%
D12*
X108267500Y-108237500D02*
X108521500Y-108237500D01*
X108267500Y-108357500D02*
X108267500Y-108237500D01*
X108267500Y-109157500D02*
X108267500Y-109117500D01*
X108267500Y-109957500D02*
X108267500Y-109917500D01*
X108267500Y-110777500D02*
X108267500Y-110717500D01*
X108521500Y-108237500D02*
X110807500Y-108237500D01*
X110807500Y-108237500D02*
X110807500Y-108357500D01*
X110807500Y-109117500D02*
X110807500Y-109157500D01*
X110807500Y-109917500D02*
X110807500Y-109957500D01*
X110807500Y-110717500D02*
X110807500Y-110777500D01*
X110807500Y-110777500D02*
X108267500Y-110777500D01*
D13*
X107927500Y-108697500D02*
G75*
G02*
X107787500Y-108697500I-70000J0D01*
G01*
X107787500Y-108697500D02*
G75*
G02*
X107927500Y-108697500I70000J0D01*
G01*
D11*
X109452500Y-110452500D02*
X109452500Y-110202500D01*
X109722500Y-110332500D01*
X109452500Y-110452500D01*
G36*
X109722500Y-110332500D02*
G01*
X109452500Y-110452500D01*
X109452500Y-110202500D01*
X109722500Y-110332500D01*
G37*
%TO.C,R16*%
X100291141Y-74233500D02*
X99983859Y-74233500D01*
X100291141Y-74741500D02*
X99983859Y-74741500D01*
%TO.C,Q4*%
X97572500Y-30147500D02*
X97672500Y-30147500D01*
X97572500Y-34127500D02*
X97572500Y-30147500D01*
X97672500Y-34127500D02*
X97572500Y-34127500D01*
X102652500Y-30147500D02*
X102752500Y-30147500D01*
X102752500Y-30147500D02*
X102752500Y-34127500D01*
X102752500Y-34127500D02*
X102652500Y-34127500D01*
X97662500Y-34677500D02*
X97332500Y-34917500D01*
X97332500Y-34437500D01*
X97662500Y-34677500D01*
G36*
X97662500Y-34677500D02*
G01*
X97332500Y-34917500D01*
X97332500Y-34437500D01*
X97662500Y-34677500D01*
G37*
%TO.C,C72*%
X88133500Y-32783180D02*
X88133500Y-32998852D01*
X88641500Y-32783180D02*
X88641500Y-32998852D01*
%TO.C,C46*%
X35167092Y-128033100D02*
X35167092Y-128248772D01*
X35675092Y-128033100D02*
X35675092Y-128248772D01*
%TO.C,J8*%
D10*
X54151593Y-134112412D02*
X54151593Y-136612412D01*
X54151593Y-134112412D02*
X54901593Y-134112412D01*
X54151593Y-136612412D02*
X54651593Y-136612412D01*
X54651593Y-137612412D02*
X54651593Y-136612412D01*
X54651593Y-137612412D02*
X69651593Y-137612412D01*
X55276593Y-137662412D02*
X56526593Y-137662412D01*
X56901593Y-134112412D02*
X57401593Y-134112412D01*
X57776593Y-137662412D02*
X59026593Y-137662412D01*
X59401593Y-134112412D02*
X59901593Y-134112412D01*
X60276593Y-137662412D02*
X61526593Y-137662412D01*
X61901593Y-134112412D02*
X62401593Y-134112412D01*
X62776593Y-137662412D02*
X64026593Y-137662412D01*
X64401593Y-134112412D02*
X64901593Y-134112412D01*
X65276593Y-137662412D02*
X66526593Y-137662412D01*
X66901593Y-134112412D02*
X67401593Y-134112412D01*
X67776593Y-137662412D02*
X69026593Y-137662412D01*
X69651593Y-137612412D02*
X69651593Y-136612412D01*
X70151593Y-134112412D02*
X69401593Y-134112412D01*
X70151593Y-134112412D02*
X70151593Y-136612412D01*
X70151593Y-136612412D02*
X69651593Y-136612412D01*
%TO.C,R94*%
D11*
X74291141Y-68443516D02*
X73983859Y-68443516D01*
X74291141Y-68951516D02*
X73983859Y-68951516D01*
%TO.C,R6*%
X54783859Y-51453516D02*
X55091141Y-51453516D01*
X54783859Y-51961516D02*
X55091141Y-51961516D01*
%TO.C,Q7*%
X31167500Y-100677516D02*
X35147500Y-100677516D01*
X31167500Y-100777517D02*
X31167500Y-100677516D01*
X31167500Y-105857516D02*
X31167500Y-105757515D01*
X35147500Y-100677516D02*
X35147500Y-100777517D01*
X35147500Y-105757515D02*
X35147500Y-105857516D01*
X35147500Y-105857516D02*
X31167500Y-105857516D01*
X35697500Y-105767516D02*
X35937500Y-106097516D01*
X35457500Y-106097516D01*
X35697500Y-105767516D01*
G36*
X35937500Y-106097516D02*
G01*
X35457500Y-106097516D01*
X35697500Y-105767516D01*
X35937500Y-106097516D01*
G37*
%TO.C,C71*%
X111367028Y-32783180D02*
X111367028Y-32998852D01*
X111875028Y-32783180D02*
X111875028Y-32998852D01*
%TO.C,C89*%
X52877608Y-94249192D02*
X52877608Y-94464864D01*
X53385608Y-94249192D02*
X53385608Y-94464864D01*
%TO.C,Q5*%
X100710000Y-83042516D02*
X104690000Y-83042516D01*
X100710000Y-83142516D02*
X100710000Y-83042516D01*
X100710000Y-88222516D02*
X100710000Y-88122516D01*
X104690000Y-83042516D02*
X104690000Y-83142516D01*
X104690000Y-88122516D02*
X104690000Y-88222516D01*
X104690000Y-88222516D02*
X100710000Y-88222516D01*
X100160000Y-83132516D02*
X99920000Y-82802516D01*
X100400000Y-82802516D01*
X100160000Y-83132516D01*
G36*
X100160000Y-83132516D02*
G01*
X99920000Y-82802516D01*
X100400000Y-82802516D01*
X100160000Y-83132516D01*
G37*
%TO.C,R8*%
X64527000Y-51138759D02*
X64527000Y-51446041D01*
X65035000Y-51138759D02*
X65035000Y-51446041D01*
%TO.C,R46*%
X51833859Y-116633500D02*
X52141141Y-116633500D01*
X51833859Y-117141500D02*
X52141141Y-117141500D01*
%TO.C,R24*%
X85135500Y-64736391D02*
X85135500Y-65043673D01*
X85643500Y-64736391D02*
X85643500Y-65043673D01*
%TO.C,AM1:7*%
D10*
X64452500Y-78422532D02*
X64452500Y-77437532D01*
X64452500Y-78422532D02*
X65437500Y-78422532D01*
X78422500Y-64452532D02*
X77437500Y-64452532D01*
X78422500Y-64452532D02*
X78422500Y-65437532D01*
X78422500Y-78422532D02*
X77437500Y-78422532D01*
X78422500Y-78422532D02*
X78422500Y-77437532D01*
D14*
X74931278Y-74687532D02*
G75*
G02*
X74443722Y-74687532I-243778J0D01*
G01*
X74443722Y-74687532D02*
G75*
G02*
X74931278Y-74687532I243778J0D01*
G01*
%TO.C,R15*%
D11*
X99841141Y-55933500D02*
X99533859Y-55933500D01*
X99841141Y-56441500D02*
X99533859Y-56441500D01*
%TO.C,C34*%
X97200752Y-68980032D02*
X95778248Y-68980032D01*
X97200752Y-70800032D02*
X95778248Y-70800032D01*
%TO.C,AM1:5*%
D10*
X78422500Y-40322500D02*
X77437500Y-40322500D01*
X78422500Y-40322500D02*
X78422500Y-39337500D01*
D14*
X74931278Y-36587500D02*
G75*
G02*
X74443722Y-36587500I-243778J0D01*
G01*
X74443722Y-36587500D02*
G75*
G02*
X74931278Y-36587500I243778J0D01*
G01*
%TO.C,U4*%
D11*
X64407500Y-40217516D02*
X64677500Y-40217516D01*
X64407500Y-45737516D02*
X64407500Y-40217516D01*
X64677500Y-45737516D02*
X64407500Y-45737516D01*
X69657500Y-40217516D02*
X69927500Y-40217516D01*
X69927500Y-40217516D02*
X69927500Y-45737516D01*
X69927500Y-45737516D02*
X69657500Y-45737516D01*
X64667500Y-46567516D02*
X64197500Y-46907516D01*
X64197500Y-46227516D01*
X64667500Y-46567516D01*
G36*
X64667500Y-46567516D02*
G01*
X64197500Y-46907516D01*
X64197500Y-46227516D01*
X64667500Y-46567516D01*
G37*
%TO.C,R5*%
X76595631Y-67131744D02*
X76595631Y-67439026D01*
X77103631Y-67131744D02*
X77103631Y-67439026D01*
%TO.C,AM0:0*%
D10*
X26352500Y-121602580D02*
X26352500Y-122587580D01*
X26352500Y-121602580D02*
X27337500Y-121602580D01*
X26352500Y-135572580D02*
X26352500Y-134587580D01*
X26352500Y-135572580D02*
X27337500Y-135572580D01*
X40322500Y-135572580D02*
X39337500Y-135572580D01*
X40322500Y-135572580D02*
X40322500Y-134587580D01*
D14*
X36831278Y-131837580D02*
G75*
G02*
X36343722Y-131837580I-243778J0D01*
G01*
X36343722Y-131837580D02*
G75*
G02*
X36831278Y-131837580I243778J0D01*
G01*
%TO.C,C97*%
D11*
X110027560Y-75199160D02*
X110027560Y-75414832D01*
X110535560Y-75199160D02*
X110535560Y-75414832D01*
%TO.C,C17*%
X55769456Y-63593144D02*
X55553784Y-63593144D01*
X55769456Y-64101144D02*
X55553784Y-64101144D01*
%TO.C,C103*%
X33827624Y-37099096D02*
X33827624Y-37314768D01*
X34335624Y-37099096D02*
X34335624Y-37314768D01*
%TO.C,AM1:3*%
D10*
X83502500Y-45402516D02*
X83502500Y-46387516D01*
X83502500Y-45402516D02*
X84487500Y-45402516D01*
X83502500Y-59372516D02*
X83502500Y-58387516D01*
X83502500Y-59372516D02*
X84487500Y-59372516D01*
X97472500Y-45402516D02*
X96487500Y-45402516D01*
X97472500Y-45402516D02*
X97472500Y-46387516D01*
X97472500Y-59372516D02*
X96487500Y-59372516D01*
X97472500Y-59372516D02*
X97472500Y-58387516D01*
D14*
X93981278Y-55637516D02*
G75*
G02*
X93493722Y-55637516I-243778J0D01*
G01*
X93493722Y-55637516D02*
G75*
G02*
X93981278Y-55637516I243778J0D01*
G01*
%TO.C,R79*%
D11*
X105308500Y-33583859D02*
X105308500Y-33891141D01*
X105816500Y-33583859D02*
X105816500Y-33891141D01*
%TO.C,C35*%
X94000752Y-66280032D02*
X92578248Y-66280032D01*
X94000752Y-68100032D02*
X92578248Y-68100032D01*
%TO.C,U10*%
X58927500Y-122477500D02*
X58977500Y-122477500D01*
X58927500Y-123997500D02*
X58927500Y-122477500D01*
X59927500Y-123997500D02*
X58927500Y-123997500D01*
X60097500Y-122477500D02*
X60877500Y-122477500D01*
X61997500Y-122477500D02*
X62047500Y-122477500D01*
X62047500Y-122477500D02*
X62047500Y-123997500D01*
X62047500Y-123997500D02*
X61047500Y-123997500D01*
X60867500Y-121937500D02*
X60537500Y-122177500D01*
X60537500Y-121697500D01*
X60867500Y-121937500D01*
G36*
X60867500Y-121937500D02*
G01*
X60537500Y-122177500D01*
X60537500Y-121697500D01*
X60867500Y-121937500D01*
G37*
%TO.C,R45*%
X69658859Y-79108500D02*
X69966141Y-79108500D01*
X69658859Y-79616500D02*
X69966141Y-79616500D01*
%TO.C,H0:11*%
X73927500Y-130277580D02*
X75447500Y-130277580D01*
X73927500Y-131277580D02*
X73927500Y-130277580D01*
X73927500Y-133397580D02*
X73927500Y-132397580D01*
X75447500Y-130277580D02*
X75447500Y-130327580D01*
X75447500Y-131447580D02*
X75447500Y-132227580D01*
X75447500Y-133347580D02*
X75447500Y-133397580D01*
X75447500Y-133397580D02*
X73927500Y-133397580D01*
X75987500Y-132217580D02*
X75747500Y-131887580D01*
X76227500Y-131887580D01*
X75987500Y-132217580D01*
G36*
X75987500Y-132217580D02*
G01*
X75747500Y-131887580D01*
X76227500Y-131887580D01*
X75987500Y-132217580D01*
G37*
%TO.C,Q2*%
X54710000Y-99142516D02*
X58690000Y-99142516D01*
X54710000Y-99242516D02*
X54710000Y-99142516D01*
X54710000Y-104322516D02*
X54710000Y-104222516D01*
X58690000Y-99142516D02*
X58690000Y-99242516D01*
X58690000Y-104222516D02*
X58690000Y-104322516D01*
X58690000Y-104322516D02*
X54710000Y-104322516D01*
X54160000Y-99232516D02*
X53920000Y-98902516D01*
X54400000Y-98902516D01*
X54160000Y-99232516D01*
G36*
X54160000Y-99232516D02*
G01*
X53920000Y-98902516D01*
X54400000Y-98902516D01*
X54160000Y-99232516D01*
G37*
%TO.C,LED20*%
D12*
X89217500Y-51147500D02*
X91757500Y-51147500D01*
X89217500Y-51207500D02*
X89217500Y-51147500D01*
X89217500Y-52007500D02*
X89217500Y-51967500D01*
X89217500Y-52807500D02*
X89217500Y-52767500D01*
X89217500Y-53687500D02*
X89217500Y-53567500D01*
X91503500Y-53687500D02*
X89217500Y-53687500D01*
X91757500Y-51147500D02*
X91757500Y-51207500D01*
X91757500Y-51967500D02*
X91757500Y-52007500D01*
X91757500Y-52767500D02*
X91757500Y-52807500D01*
X91757500Y-53567500D02*
X91757500Y-53687500D01*
X91757500Y-53687500D02*
X91503500Y-53687500D01*
D13*
X92237500Y-53227500D02*
G75*
G02*
X92097500Y-53227500I-70000J0D01*
G01*
X92097500Y-53227500D02*
G75*
G02*
X92237500Y-53227500I70000J0D01*
G01*
D11*
X90572500Y-51472500D02*
X90572500Y-51722500D01*
X90302500Y-51592500D01*
X90572500Y-51472500D01*
G36*
X90572500Y-51722500D02*
G01*
X90302500Y-51592500D01*
X90572500Y-51472500D01*
X90572500Y-51722500D01*
G37*
%TO.C,R47*%
X81683500Y-108083875D02*
X81683500Y-108391157D01*
X82191500Y-108083875D02*
X82191500Y-108391157D01*
%TO.C,R7*%
X63527000Y-51138759D02*
X63527000Y-51446041D01*
X64035000Y-51138759D02*
X64035000Y-51446041D01*
%TO.C,C130*%
X53883500Y-38245352D02*
X53883500Y-38029680D01*
X54391500Y-38245352D02*
X54391500Y-38029680D01*
%TO.C,C36*%
X84135500Y-62997868D02*
X84135500Y-62782196D01*
X84643500Y-62997868D02*
X84643500Y-62782196D01*
%TO.C,C94*%
X52877608Y-75199160D02*
X52877608Y-75414832D01*
X53385608Y-75199160D02*
X53385608Y-75414832D01*
%TO.C,C67*%
X50083500Y-52745336D02*
X50083500Y-52529664D01*
X50591500Y-52745336D02*
X50591500Y-52529664D01*
%TO.C,J3*%
D10*
X115062572Y-56104707D02*
X115062572Y-56804707D01*
X115062572Y-56104707D02*
X117562572Y-56104707D01*
X115062572Y-59304707D02*
X115062572Y-58804707D01*
X115062572Y-61804707D02*
X115062572Y-61304707D01*
X115062572Y-64304707D02*
X115062572Y-63804707D01*
X115062572Y-66804707D02*
X115062572Y-66304707D01*
X115062572Y-69304707D02*
X115062572Y-68804707D01*
X115062572Y-72004707D02*
X115062572Y-71304707D01*
X115062572Y-72004707D02*
X117562572Y-72004707D01*
X117562572Y-56104707D02*
X117562572Y-56554707D01*
X117562572Y-72004707D02*
X117562572Y-71554707D01*
X118562572Y-56554707D02*
X117562572Y-56554707D01*
X118562572Y-57354707D02*
X118762572Y-57354707D01*
X118562572Y-58254707D02*
X118762572Y-58254707D01*
X118562572Y-59854707D02*
X118762572Y-59854707D01*
X118562572Y-60754707D02*
X118762572Y-60754707D01*
X118562572Y-62354707D02*
X118762572Y-62354707D01*
X118562572Y-63254707D02*
X118762572Y-63254707D01*
X118562572Y-64854707D02*
X118762572Y-64854707D01*
X118562572Y-65754707D02*
X118762572Y-65754707D01*
X118562572Y-67354707D02*
X118762572Y-67354707D01*
X118562572Y-68254707D02*
X118762572Y-68254707D01*
X118562572Y-69854707D02*
X118762572Y-69854707D01*
X118562572Y-70754707D02*
X118762572Y-70754707D01*
X118562572Y-71554707D02*
X117562572Y-71554707D01*
X118562572Y-71554707D02*
X118562572Y-56554707D01*
%TO.C,C119*%
D11*
X38283500Y-101945352D02*
X38283500Y-101729680D01*
X38791500Y-101945352D02*
X38791500Y-101729680D01*
%TO.C,C99*%
X52877608Y-56149128D02*
X52877608Y-56364800D01*
X53385608Y-56149128D02*
X53385608Y-56364800D01*
%TO.C,R66*%
X48583859Y-86483500D02*
X48891141Y-86483500D01*
X48583859Y-86991500D02*
X48891141Y-86991500D01*
%TO.C,R48*%
X41726535Y-35099270D02*
X41509254Y-35316551D01*
X42085746Y-35458481D02*
X41868465Y-35675762D01*
%TO.C,H0:3*%
X35827500Y-73127532D02*
X37347500Y-73127532D01*
X35827500Y-74127532D02*
X35827500Y-73127532D01*
X35827500Y-76247532D02*
X35827500Y-75247532D01*
X37347500Y-73127532D02*
X37347500Y-73177532D01*
X37347500Y-74297532D02*
X37347500Y-75077532D01*
X37347500Y-76197532D02*
X37347500Y-76247532D01*
X37347500Y-76247532D02*
X35827500Y-76247532D01*
X37887500Y-75067532D02*
X37647500Y-74737532D01*
X38127500Y-74737532D01*
X37887500Y-75067532D01*
G36*
X37887500Y-75067532D02*
G01*
X37647500Y-74737532D01*
X38127500Y-74737532D01*
X37887500Y-75067532D01*
G37*
%TO.C,R62*%
X47791141Y-133563516D02*
X47483859Y-133563516D01*
X47791141Y-134071516D02*
X47483859Y-134071516D01*
%TO.C,C62*%
X88133500Y-70829664D02*
X88133500Y-71045336D01*
X88641500Y-70829664D02*
X88641500Y-71045336D01*
%TO.C,R3*%
X68727000Y-51588759D02*
X68727000Y-51896041D01*
X69235000Y-51588759D02*
X69235000Y-51896041D01*
%TO.C,C40*%
X37126248Y-80327516D02*
X38548752Y-80327516D01*
X37126248Y-82147516D02*
X38548752Y-82147516D01*
%TO.C,C50*%
X111367028Y-128066616D02*
X111367028Y-128282288D01*
X111875028Y-128066616D02*
X111875028Y-128282288D01*
%TO.C,C18*%
X69992828Y-64930012D02*
X69992828Y-65145684D01*
X70500828Y-64930012D02*
X70500828Y-65145684D01*
%TO.C,J1*%
D10*
X54201593Y-25312492D02*
X54651593Y-25312492D01*
X54201593Y-27812492D02*
X54201593Y-25312492D01*
X54201593Y-27812492D02*
X54901593Y-27812492D01*
X54651593Y-24312492D02*
X54651593Y-25312492D01*
X55451593Y-24312492D02*
X55451593Y-24112492D01*
X56351593Y-24312492D02*
X56351593Y-24112492D01*
X57401593Y-27812492D02*
X56901593Y-27812492D01*
X57951593Y-24312492D02*
X57951593Y-24112492D01*
X58851593Y-24312492D02*
X58851593Y-24112492D01*
X59901593Y-27812492D02*
X59401593Y-27812492D01*
X60451593Y-24312492D02*
X60451593Y-24112492D01*
X61351593Y-24312492D02*
X61351593Y-24112492D01*
X62401593Y-27812492D02*
X61901593Y-27812492D01*
X62951593Y-24312492D02*
X62951593Y-24112492D01*
X63851593Y-24312492D02*
X63851593Y-24112492D01*
X64901593Y-27812492D02*
X64401593Y-27812492D01*
X65451593Y-24312492D02*
X65451593Y-24112492D01*
X66351593Y-24312492D02*
X66351593Y-24112492D01*
X67401593Y-27812492D02*
X66901593Y-27812492D01*
X67951593Y-24312492D02*
X67951593Y-24112492D01*
X68851593Y-24312492D02*
X68851593Y-24112492D01*
X69651593Y-24312492D02*
X54651593Y-24312492D01*
X69651593Y-24312492D02*
X69651593Y-25312492D01*
X70101593Y-25312492D02*
X69651593Y-25312492D01*
X70101593Y-27812492D02*
X69401593Y-27812492D01*
X70101593Y-27812492D02*
X70101593Y-25312492D01*
%TO.C,C63*%
D11*
X73383500Y-72095336D02*
X73383500Y-71879664D01*
X73891500Y-72095336D02*
X73891500Y-71879664D01*
%TO.C,C115*%
X38045336Y-79283516D02*
X37829664Y-79283516D01*
X38045336Y-79791516D02*
X37829664Y-79791516D01*
%TO.C,U15*%
X99356552Y-71723032D02*
X100826552Y-71723032D01*
X99356552Y-71748032D02*
X99356552Y-71723032D01*
X99356552Y-73943032D02*
X99356552Y-73918032D01*
X100826552Y-71723032D02*
X100826552Y-71748032D01*
X100826552Y-73918032D02*
X100826552Y-73943032D01*
X100826552Y-73943032D02*
X99356552Y-73943032D01*
X98911552Y-71743032D02*
X98771552Y-71553032D01*
X99051552Y-71553032D01*
X98911552Y-71743032D01*
G36*
X98911552Y-71743032D02*
G01*
X98771552Y-71553032D01*
X99051552Y-71553032D01*
X98911552Y-71743032D01*
G37*
%TO.C,C8*%
X55945336Y-59883516D02*
X55729664Y-59883516D01*
X55945336Y-60391516D02*
X55729664Y-60391516D01*
%TO.C,C31*%
X93479500Y-62378780D02*
X93479500Y-63801284D01*
X95299500Y-62378780D02*
X95299500Y-63801284D01*
%TO.C,LED4*%
D12*
X32067500Y-70137500D02*
X32321500Y-70137500D01*
X32067500Y-70257500D02*
X32067500Y-70137500D01*
X32067500Y-71057500D02*
X32067500Y-71017500D01*
X32067500Y-71857500D02*
X32067500Y-71817500D01*
X32067500Y-72677500D02*
X32067500Y-72617500D01*
X32321500Y-70137500D02*
X34607500Y-70137500D01*
X34607500Y-70137500D02*
X34607500Y-70257500D01*
X34607500Y-71017500D02*
X34607500Y-71057500D01*
X34607500Y-71817500D02*
X34607500Y-71857500D01*
X34607500Y-72617500D02*
X34607500Y-72677500D01*
X34607500Y-72677500D02*
X32067500Y-72677500D01*
D13*
X31727500Y-70597500D02*
G75*
G02*
X31587500Y-70597500I-70000J0D01*
G01*
X31587500Y-70597500D02*
G75*
G02*
X31727500Y-70597500I70000J0D01*
G01*
D11*
X33252500Y-72352500D02*
X33252500Y-72102500D01*
X33522500Y-72232500D01*
X33252500Y-72352500D01*
G36*
X33522500Y-72232500D02*
G01*
X33252500Y-72352500D01*
X33252500Y-72102500D01*
X33522500Y-72232500D01*
G37*
%TO.C,R38*%
X87253141Y-60736032D02*
X86945859Y-60736032D01*
X87253141Y-61244032D02*
X86945859Y-61244032D01*
%TO.C,R92*%
X100283500Y-121473876D02*
X100283500Y-121781158D01*
X100791500Y-121473876D02*
X100791500Y-121781158D01*
%TO.C,AM0:2*%
D10*
X40322500Y-83502548D02*
X39337500Y-83502548D01*
X40322500Y-83502548D02*
X40322500Y-84487548D01*
X40322500Y-97472548D02*
X39337500Y-97472548D01*
X40322500Y-97472548D02*
X40322500Y-96487548D01*
D14*
X36831278Y-93737548D02*
G75*
G02*
X36343722Y-93737548I-243778J0D01*
G01*
X36343722Y-93737548D02*
G75*
G02*
X36831278Y-93737548I243778J0D01*
G01*
%TO.C,C52*%
D11*
X88133500Y-108979664D02*
X88133500Y-109195336D01*
X88641500Y-108979664D02*
X88641500Y-109195336D01*
%TO.C,C45*%
X77762836Y-103433516D02*
X77547164Y-103433516D01*
X77762836Y-103941516D02*
X77547164Y-103941516D01*
%TO.C,C28*%
X97298752Y-50077532D02*
X95876248Y-50077532D01*
X97298752Y-51897532D02*
X95876248Y-51897532D01*
%TO.C,AM0*%
X44567316Y-76752444D02*
X50087316Y-76752444D01*
X44567316Y-76927444D02*
X44567316Y-76752444D01*
X44567316Y-85172444D02*
X44567316Y-84997444D01*
X50087316Y-76752444D02*
X50087316Y-76927444D01*
X50087316Y-84997444D02*
X50087316Y-85172444D01*
X50087316Y-85172444D02*
X44567316Y-85172444D01*
X43827316Y-76922444D02*
X43487316Y-76452444D01*
X44167316Y-76452444D01*
X43827316Y-76922444D01*
G36*
X43827316Y-76922444D02*
G01*
X43487316Y-76452444D01*
X44167316Y-76452444D01*
X43827316Y-76922444D01*
G37*
%TO.C,R82*%
X34983859Y-98683516D02*
X35291141Y-98683516D01*
X34983859Y-99191516D02*
X35291141Y-99191516D01*
%TO.C,H0:0*%
X35827500Y-130277580D02*
X37347500Y-130277580D01*
X35827500Y-131277580D02*
X35827500Y-130277580D01*
X35827500Y-133397580D02*
X35827500Y-132397580D01*
X37347500Y-130277580D02*
X37347500Y-130327580D01*
X37347500Y-131447580D02*
X37347500Y-132227580D01*
X37347500Y-133347580D02*
X37347500Y-133397580D01*
X37347500Y-133397580D02*
X35827500Y-133397580D01*
X37887500Y-132217580D02*
X37647500Y-131887580D01*
X38127500Y-131887580D01*
X37887500Y-132217580D01*
G36*
X37887500Y-132217580D02*
G01*
X37647500Y-131887580D01*
X38127500Y-131887580D01*
X37887500Y-132217580D01*
G37*
%TO.C,H0:14*%
X54877500Y-92177548D02*
X56397500Y-92177548D01*
X54877500Y-93177548D02*
X54877500Y-92177548D01*
X54877500Y-95297548D02*
X54877500Y-94297548D01*
X56397500Y-92177548D02*
X56397500Y-92227548D01*
X56397500Y-93347548D02*
X56397500Y-94127548D01*
X56397500Y-95247548D02*
X56397500Y-95297548D01*
X56397500Y-95297548D02*
X54877500Y-95297548D01*
X56937500Y-94117548D02*
X56697500Y-93787548D01*
X57177500Y-93787548D01*
X56937500Y-94117548D01*
G36*
X56937500Y-94117548D02*
G01*
X56697500Y-93787548D01*
X57177500Y-93787548D01*
X56937500Y-94117548D01*
G37*
%TO.C,U11*%
X52627500Y-117782516D02*
X56747500Y-117782516D01*
X52627500Y-117902516D02*
X52627500Y-117782516D01*
X52627500Y-122902516D02*
X52627500Y-122782516D01*
X56747500Y-117782516D02*
X56747500Y-117902516D01*
X56747500Y-122782516D02*
X56747500Y-122902516D01*
X56747500Y-122902516D02*
X52627500Y-122902516D01*
X52027500Y-117892516D02*
X51787500Y-117562516D01*
X52267500Y-117562516D01*
X52027500Y-117892516D01*
G36*
X52027500Y-117892516D02*
G01*
X51787500Y-117562516D01*
X52267500Y-117562516D01*
X52027500Y-117892516D01*
G37*
%TO.C,PD2*%
X37777500Y-118077516D02*
X38252500Y-118077516D01*
X37777500Y-118302516D02*
X37777500Y-118077516D01*
X37777500Y-120797516D02*
X37777500Y-120572516D01*
X38252500Y-120797516D02*
X37777500Y-120797516D01*
X40022500Y-118077516D02*
X40497500Y-118077516D01*
X40497500Y-118077516D02*
X40497500Y-118302516D01*
X40497500Y-120572516D02*
X40497500Y-120797516D01*
X40497500Y-120797516D02*
X40022500Y-120797516D01*
X38637500Y-121297516D02*
X38877500Y-121627516D01*
X38397500Y-121627516D01*
X38637500Y-121297516D01*
G36*
X38877500Y-121627516D02*
G01*
X38397500Y-121627516D01*
X38637500Y-121297516D01*
X38877500Y-121627516D01*
G37*
%TO.C,C39*%
X36483500Y-63129680D02*
X36483500Y-63345352D01*
X36991500Y-63129680D02*
X36991500Y-63345352D01*
%TO.C,AM0:9*%
D10*
X64452500Y-83502548D02*
X64452500Y-84487548D01*
X64452500Y-83502548D02*
X65437500Y-83502548D01*
X64452500Y-97472548D02*
X64452500Y-96487548D01*
X64452500Y-97472548D02*
X65437500Y-97472548D01*
X78422500Y-83502548D02*
X77437500Y-83502548D01*
X78422500Y-83502548D02*
X78422500Y-84487548D01*
X78422500Y-97472548D02*
X77437500Y-97472548D01*
X78422500Y-97472548D02*
X78422500Y-96487548D01*
D14*
X74931278Y-93737548D02*
G75*
G02*
X74443722Y-93737548I-243778J0D01*
G01*
X74443722Y-93737548D02*
G75*
G02*
X74931278Y-93737548I243778J0D01*
G01*
%TO.C,U6*%
D11*
X88079500Y-61830032D02*
X89899500Y-61830032D01*
X88079500Y-61880032D02*
X88079500Y-61830032D01*
X88079500Y-64950032D02*
X88079500Y-64900032D01*
X89899500Y-61830032D02*
X89899500Y-61880032D01*
X89899500Y-64900032D02*
X89899500Y-64950032D01*
X89899500Y-64950032D02*
X88079500Y-64950032D01*
X90439500Y-64900032D02*
X90679500Y-65230032D01*
X90199500Y-65230032D01*
X90439500Y-64900032D01*
G36*
X90679500Y-65230032D02*
G01*
X90199500Y-65230032D01*
X90439500Y-64900032D01*
X90679500Y-65230032D01*
G37*
%TO.C,C77*%
X98448752Y-117317517D02*
X97026248Y-117317517D01*
X98448752Y-119137517D02*
X97026248Y-119137517D01*
%TO.C,C118*%
X67483500Y-123745352D02*
X67483500Y-123529680D01*
X67991500Y-123745352D02*
X67991500Y-123529680D01*
%TO.C,Q10*%
X68415001Y-120377516D02*
X69935001Y-120377516D01*
X68415001Y-121377516D02*
X68415001Y-120377516D01*
X68415001Y-123497516D02*
X68415001Y-122497516D01*
X69935001Y-120377516D02*
X69935001Y-120427516D01*
X69935001Y-121547516D02*
X69935001Y-122327516D01*
X69935001Y-123447516D02*
X69935001Y-123497516D01*
X69935001Y-123497516D02*
X68415001Y-123497516D01*
X70475001Y-122317516D02*
X70235001Y-121987516D01*
X70715001Y-121987516D01*
X70475001Y-122317516D01*
G36*
X70475001Y-122317516D02*
G01*
X70235001Y-121987516D01*
X70715001Y-121987516D01*
X70475001Y-122317516D01*
G37*
%TO.C,LED7*%
D12*
X51117500Y-32097500D02*
X53657500Y-32097500D01*
X51117500Y-32157500D02*
X51117500Y-32097500D01*
X51117500Y-32957500D02*
X51117500Y-32917500D01*
X51117500Y-33757500D02*
X51117500Y-33717500D01*
X51117500Y-34637500D02*
X51117500Y-34517500D01*
X53403500Y-34637500D02*
X51117500Y-34637500D01*
X53657500Y-32097500D02*
X53657500Y-32157500D01*
X53657500Y-32917500D02*
X53657500Y-32957500D01*
X53657500Y-33717500D02*
X53657500Y-33757500D01*
X53657500Y-34517500D02*
X53657500Y-34637500D01*
X53657500Y-34637500D02*
X53403500Y-34637500D01*
D13*
X54137500Y-34177500D02*
G75*
G02*
X53997500Y-34177500I-70000J0D01*
G01*
X53997500Y-34177500D02*
G75*
G02*
X54137500Y-34177500I70000J0D01*
G01*
D11*
X52472500Y-32422500D02*
X52472500Y-32672500D01*
X52202500Y-32542500D01*
X52472500Y-32422500D01*
G36*
X52472500Y-32672500D02*
G01*
X52202500Y-32542500D01*
X52472500Y-32422500D01*
X52472500Y-32672500D01*
G37*
%TO.C,R25*%
X85135500Y-62736391D02*
X85135500Y-63043673D01*
X85643500Y-62736391D02*
X85643500Y-63043673D01*
%TO.C,J5*%
D10*
X24312508Y-90370373D02*
X24312508Y-105370373D01*
X24312508Y-90370373D02*
X25312508Y-90370373D01*
X24312508Y-91170373D02*
X24112508Y-91170373D01*
X24312508Y-92070373D02*
X24112508Y-92070373D01*
X24312508Y-93670373D02*
X24112508Y-93670373D01*
X24312508Y-94570373D02*
X24112508Y-94570373D01*
X24312508Y-96170373D02*
X24112508Y-96170373D01*
X24312508Y-97070373D02*
X24112508Y-97070373D01*
X24312508Y-98670373D02*
X24112508Y-98670373D01*
X24312508Y-99570373D02*
X24112508Y-99570373D01*
X24312508Y-101170373D02*
X24112508Y-101170373D01*
X24312508Y-102070373D02*
X24112508Y-102070373D01*
X24312508Y-103670373D02*
X24112508Y-103670373D01*
X24312508Y-104570373D02*
X24112508Y-104570373D01*
X24312508Y-105370373D02*
X25312508Y-105370373D01*
X25312508Y-89920373D02*
X25312508Y-90370373D01*
X25312508Y-105820373D02*
X25312508Y-105370373D01*
X27812508Y-89920373D02*
X25312508Y-89920373D01*
X27812508Y-89920373D02*
X27812508Y-90620373D01*
X27812508Y-92620373D02*
X27812508Y-93120373D01*
X27812508Y-95120373D02*
X27812508Y-95620373D01*
X27812508Y-97620373D02*
X27812508Y-98120373D01*
X27812508Y-100120373D02*
X27812508Y-100620373D01*
X27812508Y-102620373D02*
X27812508Y-103120373D01*
X27812508Y-105820373D02*
X25312508Y-105820373D01*
X27812508Y-105820373D02*
X27812508Y-105120373D01*
%TO.C,R80*%
D11*
X103483859Y-92683516D02*
X103791141Y-92683516D01*
X103483859Y-93191516D02*
X103791141Y-93191516D01*
%TO.C,C19*%
X73227500Y-61026264D02*
X73227500Y-62448768D01*
X75047500Y-61026264D02*
X75047500Y-62448768D01*
%TO.C,AM1:9*%
D10*
X102552500Y-26352500D02*
X102552500Y-27337500D01*
X102552500Y-26352500D02*
X103537500Y-26352500D01*
X102552500Y-40322500D02*
X102552500Y-39337500D01*
X102552500Y-40322500D02*
X103537500Y-40322500D01*
X116522500Y-26352500D02*
X115537500Y-26352500D01*
X116522500Y-26352500D02*
X116522500Y-27337500D01*
X116522500Y-40322500D02*
X115537500Y-40322500D01*
X116522500Y-40322500D02*
X116522500Y-39337500D01*
D14*
X113031278Y-36587500D02*
G75*
G02*
X112543722Y-36587500I-243778J0D01*
G01*
X112543722Y-36587500D02*
G75*
G02*
X113031278Y-36587500I243778J0D01*
G01*
%TO.C,L3*%
D11*
X95779500Y-60705032D02*
X97179500Y-60705032D01*
X95779500Y-67725032D02*
X95779500Y-60705032D01*
X97179500Y-67725032D02*
X95779500Y-67725032D01*
X101199500Y-60705032D02*
X102599500Y-60705032D01*
X102599500Y-60705032D02*
X102599500Y-67725032D01*
X102599500Y-67725032D02*
X101199500Y-67725032D01*
%TO.C,C82*%
X110027560Y-132349256D02*
X110027560Y-132564928D01*
X110535560Y-132349256D02*
X110535560Y-132564928D01*
%TO.C,C65*%
X35167092Y-70883148D02*
X35167092Y-71098820D01*
X35675092Y-70883148D02*
X35675092Y-71098820D01*
%TO.C,C2*%
X58894908Y-43501444D02*
X58679236Y-43501444D01*
X58894908Y-44009444D02*
X58679236Y-44009444D01*
%TO.C,AM1:0*%
D10*
X83502500Y-83502548D02*
X83502500Y-84487548D01*
X83502500Y-83502548D02*
X84487500Y-83502548D01*
X83502500Y-97472548D02*
X83502500Y-96487548D01*
X83502500Y-97472548D02*
X84487500Y-97472548D01*
X97472500Y-83502548D02*
X96487500Y-83502548D01*
X97472500Y-83502548D02*
X97472500Y-84487548D01*
X97472500Y-97472548D02*
X96487500Y-97472548D01*
X97472500Y-97472548D02*
X97472500Y-96487548D01*
D14*
X93981278Y-93737548D02*
G75*
G02*
X93493722Y-93737548I-243778J0D01*
G01*
X93493722Y-93737548D02*
G75*
G02*
X93981278Y-93737548I243778J0D01*
G01*
%TO.C,AM0:5*%
D10*
X26352500Y-26352500D02*
X26352500Y-27337500D01*
X26352500Y-26352500D02*
X27337500Y-26352500D01*
X26352500Y-40322500D02*
X26352500Y-39337500D01*
X26352500Y-40322500D02*
X27337500Y-40322500D01*
X40322500Y-26352500D02*
X39337500Y-26352500D01*
X40322500Y-26352500D02*
X40322500Y-27337500D01*
X40322500Y-40322500D02*
X39337500Y-40322500D01*
X40322500Y-40322500D02*
X40322500Y-39337500D01*
D14*
X36831278Y-36587500D02*
G75*
G02*
X36343722Y-36587500I-243778J0D01*
G01*
X36343722Y-36587500D02*
G75*
G02*
X36831278Y-36587500I243778J0D01*
G01*
%TO.C,C114*%
D11*
X97742052Y-72329680D02*
X97742052Y-72545352D01*
X98250052Y-72329680D02*
X98250052Y-72545352D01*
%TO.C,C43*%
X44345336Y-114333500D02*
X44129664Y-114333500D01*
X44345336Y-114841500D02*
X44129664Y-114841500D01*
%TO.C,C78*%
X33827624Y-132349256D02*
X33827624Y-132564928D01*
X34335624Y-132349256D02*
X34335624Y-132564928D01*
%TO.C,H0:1*%
X35827500Y-111227564D02*
X37347500Y-111227564D01*
X35827500Y-112227564D02*
X35827500Y-111227564D01*
X35827500Y-114347564D02*
X35827500Y-113347564D01*
X37347500Y-111227564D02*
X37347500Y-111277564D01*
X37347500Y-112397564D02*
X37347500Y-113177564D01*
X37347500Y-114297564D02*
X37347500Y-114347564D01*
X37347500Y-114347564D02*
X35827500Y-114347564D01*
X37887500Y-113167564D02*
X37647500Y-112837564D01*
X38127500Y-112837564D01*
X37887500Y-113167564D01*
G36*
X37887500Y-113167564D02*
G01*
X37647500Y-112837564D01*
X38127500Y-112837564D01*
X37887500Y-113167564D01*
G37*
%TO.C,R99*%
X74283500Y-41591157D02*
X74283500Y-41283875D01*
X74791500Y-41591157D02*
X74791500Y-41283875D01*
%TO.C,AM1:13*%
D10*
X102552500Y-102552564D02*
X102552500Y-103537564D01*
X102552500Y-102552564D02*
X103537500Y-102552564D01*
X102552500Y-116522564D02*
X102552500Y-115537564D01*
X102552500Y-116522564D02*
X103537500Y-116522564D01*
X116522500Y-116522564D02*
X115537500Y-116522564D01*
X116522500Y-116522564D02*
X116522500Y-115537564D01*
D14*
X113031278Y-112787564D02*
G75*
G02*
X112543722Y-112787564I-243778J0D01*
G01*
X112543722Y-112787564D02*
G75*
G02*
X113031278Y-112787564I243778J0D01*
G01*
%TO.C,H0:13*%
D11*
X54877500Y-111227564D02*
X56397500Y-111227564D01*
X54877500Y-112227564D02*
X54877500Y-111227564D01*
X54877500Y-114347564D02*
X54877500Y-113347564D01*
X56397500Y-111227564D02*
X56397500Y-111277564D01*
X56397500Y-112397564D02*
X56397500Y-113177564D01*
X56397500Y-114297564D02*
X56397500Y-114347564D01*
X56397500Y-114347564D02*
X54877500Y-114347564D01*
X56937500Y-113167564D02*
X56697500Y-112837564D01*
X57177500Y-112837564D01*
X56937500Y-113167564D01*
G36*
X56937500Y-113167564D02*
G01*
X56697500Y-112837564D01*
X57177500Y-112837564D01*
X56937500Y-113167564D01*
G37*
%TO.C,C13*%
X62533500Y-68629664D02*
X62533500Y-68845336D01*
X63041500Y-68629664D02*
X63041500Y-68845336D01*
%TO.C,R97*%
X72083859Y-41783516D02*
X72391141Y-41783516D01*
X72083859Y-42291516D02*
X72391141Y-42291516D01*
%TO.C,C122*%
X75583500Y-67189680D02*
X75583500Y-67405352D01*
X76091500Y-67189680D02*
X76091500Y-67405352D01*
%TO.C,R10*%
X54133859Y-43573516D02*
X54441141Y-43573516D01*
X54133859Y-44081516D02*
X54441141Y-44081516D01*
%TO.C,H1:7*%
X73927516Y-73127500D02*
X75447516Y-73127500D01*
X73927516Y-74127500D02*
X73927516Y-73127500D01*
X73927516Y-76247500D02*
X73927516Y-75247500D01*
X75447516Y-73127500D02*
X75447516Y-73177500D01*
X75447516Y-74297500D02*
X75447516Y-75077500D01*
X75447516Y-76197500D02*
X75447516Y-76247500D01*
X75447516Y-76247500D02*
X73927516Y-76247500D01*
X75987516Y-75067500D02*
X75747516Y-74737500D01*
X76227516Y-74737500D01*
X75987516Y-75067500D01*
G36*
X75987516Y-75067500D02*
G01*
X75747516Y-74737500D01*
X76227516Y-74737500D01*
X75987516Y-75067500D01*
G37*
%TO.C,R89*%
X60251141Y-109533500D02*
X59943859Y-109533500D01*
X60251141Y-110041500D02*
X59943859Y-110041500D01*
%TO.C,LED18*%
D12*
X70167500Y-32037500D02*
X70421500Y-32037500D01*
X70167500Y-32157500D02*
X70167500Y-32037500D01*
X70167500Y-32957500D02*
X70167500Y-32917500D01*
X70167500Y-33757500D02*
X70167500Y-33717500D01*
X70167500Y-34577500D02*
X70167500Y-34517500D01*
X70421500Y-32037500D02*
X72707500Y-32037500D01*
X72707500Y-32037500D02*
X72707500Y-32157500D01*
X72707500Y-32917500D02*
X72707500Y-32957500D01*
X72707500Y-33717500D02*
X72707500Y-33757500D01*
X72707500Y-34517500D02*
X72707500Y-34577500D01*
X72707500Y-34577500D02*
X70167500Y-34577500D01*
D13*
X69827500Y-32497500D02*
G75*
G02*
X69687500Y-32497500I-70000J0D01*
G01*
X69687500Y-32497500D02*
G75*
G02*
X69827500Y-32497500I70000J0D01*
G01*
D11*
X71352500Y-34252500D02*
X71352500Y-34002500D01*
X71622500Y-34132500D01*
X71352500Y-34252500D01*
G36*
X71622500Y-34132500D02*
G01*
X71352500Y-34252500D01*
X71352500Y-34002500D01*
X71622500Y-34132500D01*
G37*
%TO.C,R22*%
X56073859Y-123483516D02*
X56381141Y-123483516D01*
X56073859Y-123991516D02*
X56381141Y-123991516D01*
%TO.C,U2*%
X31502500Y-78177532D02*
X31552500Y-78177532D01*
X31502500Y-78627532D02*
X31502500Y-78177532D01*
X31502500Y-80197532D02*
X31502500Y-79747532D01*
X31552500Y-80197532D02*
X31502500Y-80197532D01*
X33072500Y-78177532D02*
X33122500Y-78177532D01*
X33122500Y-78177532D02*
X33122500Y-78627532D01*
X33122500Y-80187532D02*
X33122500Y-80197532D01*
X33122500Y-80197532D02*
X33072500Y-80197532D01*
X33262500Y-79757532D02*
X33402500Y-79947532D01*
X33122500Y-79947532D01*
X33262500Y-79757532D01*
G36*
X33402500Y-79947532D02*
G01*
X33122500Y-79947532D01*
X33262500Y-79757532D01*
X33402500Y-79947532D01*
G37*
%TO.C,R81*%
X71683500Y-123293874D02*
X71683500Y-123601156D01*
X72191500Y-123293874D02*
X72191500Y-123601156D01*
%TO.C,H1:11*%
X112027500Y-73127532D02*
X113547500Y-73127532D01*
X112027500Y-74127532D02*
X112027500Y-73127532D01*
X112027500Y-76247532D02*
X112027500Y-75247532D01*
X113547500Y-73127532D02*
X113547500Y-73177532D01*
X113547500Y-74297532D02*
X113547500Y-75077532D01*
X113547500Y-76197532D02*
X113547500Y-76247532D01*
X113547500Y-76247532D02*
X112027500Y-76247532D01*
X114087500Y-75067532D02*
X113847500Y-74737532D01*
X114327500Y-74737532D01*
X114087500Y-75067532D01*
G36*
X114087500Y-75067532D02*
G01*
X113847500Y-74737532D01*
X114327500Y-74737532D01*
X114087500Y-75067532D01*
G37*
%TO.C,H1:5*%
X73927516Y-35027532D02*
X75447516Y-35027532D01*
X73927516Y-36027532D02*
X73927516Y-35027532D01*
X73927516Y-38147532D02*
X73927516Y-37147532D01*
X75447516Y-35027532D02*
X75447516Y-35077532D01*
X75447516Y-36197532D02*
X75447516Y-36977532D01*
X75447516Y-38097532D02*
X75447516Y-38147532D01*
X75447516Y-38147532D02*
X73927516Y-38147532D01*
X75987516Y-36967532D02*
X75747516Y-36637532D01*
X76227516Y-36637532D01*
X75987516Y-36967532D01*
G36*
X75987516Y-36967532D02*
G01*
X75747516Y-36637532D01*
X76227516Y-36637532D01*
X75987516Y-36967532D01*
G37*
%TO.C,C11*%
X71668172Y-60475008D02*
X71883844Y-60475008D01*
X71668172Y-60983008D02*
X71883844Y-60983008D01*
%TO.C,LED11*%
D12*
X51117500Y-108297500D02*
X53657500Y-108297500D01*
X51117500Y-108357500D02*
X51117500Y-108297500D01*
X51117500Y-109157500D02*
X51117500Y-109117500D01*
X51117500Y-109957500D02*
X51117500Y-109917500D01*
X51117500Y-110837500D02*
X51117500Y-110717500D01*
X53403500Y-110837500D02*
X51117500Y-110837500D01*
X53657500Y-108297500D02*
X53657500Y-108357500D01*
X53657500Y-109117500D02*
X53657500Y-109157500D01*
X53657500Y-109917500D02*
X53657500Y-109957500D01*
X53657500Y-110717500D02*
X53657500Y-110837500D01*
X53657500Y-110837500D02*
X53403500Y-110837500D01*
D13*
X54137500Y-110377500D02*
G75*
G02*
X53997500Y-110377500I-70000J0D01*
G01*
X53997500Y-110377500D02*
G75*
G02*
X54137500Y-110377500I70000J0D01*
G01*
D11*
X52472500Y-108622500D02*
X52472500Y-108872500D01*
X52202500Y-108742500D01*
X52472500Y-108622500D01*
G36*
X52472500Y-108872500D02*
G01*
X52202500Y-108742500D01*
X52472500Y-108622500D01*
X52472500Y-108872500D01*
G37*
%TO.C,C60*%
X111367028Y-89933132D02*
X111367028Y-90148804D01*
X111875028Y-89933132D02*
X111875028Y-90148804D01*
%TO.C,R14*%
X34183500Y-79383875D02*
X34183500Y-79691157D01*
X34691500Y-79383875D02*
X34691500Y-79691157D01*
%TO.C,R27*%
X57683500Y-123981158D02*
X57683500Y-123673876D01*
X58191500Y-123981158D02*
X58191500Y-123673876D01*
%TO.C,C4*%
X65268164Y-70258400D02*
X65483836Y-70258400D01*
X65268164Y-70766400D02*
X65483836Y-70766400D01*
%TO.C,C42*%
X44789664Y-36203516D02*
X45005336Y-36203516D01*
X44789664Y-36711516D02*
X45005336Y-36711516D01*
%TO.C,U17*%
X42277500Y-118727516D02*
X42352500Y-118727516D01*
X42277500Y-120547516D02*
X42277500Y-118727516D01*
X42352500Y-120547516D02*
X42277500Y-120547516D01*
X45322500Y-118727516D02*
X45397500Y-118727516D01*
X45397500Y-118727516D02*
X45397500Y-120547516D01*
X45397500Y-120547516D02*
X45322500Y-120547516D01*
X45327500Y-118187516D02*
X45657500Y-117947516D01*
X45657500Y-118427516D01*
X45327500Y-118187516D01*
G36*
X45657500Y-118427516D02*
G01*
X45327500Y-118187516D01*
X45657500Y-117947516D01*
X45657500Y-118427516D01*
G37*
%TO.C,U14*%
X33799432Y-116027532D02*
X34935000Y-116027532D01*
X34935000Y-116897532D02*
X34935000Y-117027532D01*
X34935000Y-117897532D02*
X33515000Y-117897532D01*
X33505000Y-116022532D02*
X33365000Y-115832532D01*
X33645000Y-115832532D01*
X33505000Y-116022532D01*
G36*
X33505000Y-116022532D02*
G01*
X33365000Y-115832532D01*
X33645000Y-115832532D01*
X33505000Y-116022532D01*
G37*
%TO.C,C88*%
X33827624Y-94249192D02*
X33827624Y-94464864D01*
X34335624Y-94249192D02*
X34335624Y-94464864D01*
%TO.C,R74*%
X35291141Y-99683516D02*
X34983859Y-99683516D01*
X35291141Y-100191516D02*
X34983859Y-100191516D01*
%TO.C,R85*%
X56983859Y-53083516D02*
X57291141Y-53083516D01*
X56983859Y-53591516D02*
X57291141Y-53591516D01*
%TO.C,LED12*%
D12*
X51117500Y-127347500D02*
X53657500Y-127347500D01*
X51117500Y-127407500D02*
X51117500Y-127347500D01*
X51117500Y-128207500D02*
X51117500Y-128167500D01*
X51117500Y-129007500D02*
X51117500Y-128967500D01*
X51117500Y-129887500D02*
X51117500Y-129767500D01*
X53403500Y-129887500D02*
X51117500Y-129887500D01*
X53657500Y-127347500D02*
X53657500Y-127407500D01*
X53657500Y-128167500D02*
X53657500Y-128207500D01*
X53657500Y-128967500D02*
X53657500Y-129007500D01*
X53657500Y-129767500D02*
X53657500Y-129887500D01*
X53657500Y-129887500D02*
X53403500Y-129887500D01*
D13*
X54137500Y-129427500D02*
G75*
G02*
X53997500Y-129427500I-70000J0D01*
G01*
X53997500Y-129427500D02*
G75*
G02*
X54137500Y-129427500I70000J0D01*
G01*
D11*
X52472500Y-127672500D02*
X52472500Y-127922500D01*
X52202500Y-127792500D01*
X52472500Y-127672500D01*
G36*
X52472500Y-127922500D02*
G01*
X52202500Y-127792500D01*
X52472500Y-127672500D01*
X52472500Y-127922500D01*
G37*
%TO.C,C98*%
X33827624Y-56149128D02*
X33827624Y-56364800D01*
X34335624Y-56149128D02*
X34335624Y-56364800D01*
%TO.C,AM1*%
X82667284Y-76752444D02*
X88187284Y-76752444D01*
X82667284Y-76927444D02*
X82667284Y-76752444D01*
X82667284Y-85172444D02*
X82667284Y-84997444D01*
X88187284Y-76752444D02*
X88187284Y-76927444D01*
X88187284Y-84997444D02*
X88187284Y-85172444D01*
X88187284Y-85172444D02*
X82667284Y-85172444D01*
X81927284Y-76922444D02*
X81587284Y-76452443D01*
X82267284Y-76452444D01*
X81927284Y-76922444D01*
G36*
X82267284Y-76452444D02*
G01*
X81927284Y-76922444D01*
X81587284Y-76452443D01*
X82267284Y-76452444D01*
G37*
%TO.C,C84*%
X52877608Y-113299224D02*
X52877608Y-113514896D01*
X53385608Y-113299224D02*
X53385608Y-113514896D01*
%TO.C,R35*%
X77483859Y-104683516D02*
X77791141Y-104683516D01*
X77483859Y-105191516D02*
X77791141Y-105191516D01*
%TO.C,LED17*%
D12*
X70167500Y-51087500D02*
X70421500Y-51087500D01*
X70167500Y-51207500D02*
X70167500Y-51087500D01*
X70167500Y-52007500D02*
X70167500Y-51967500D01*
X70167500Y-52807500D02*
X70167500Y-52767500D01*
X70167500Y-53627500D02*
X70167500Y-53567500D01*
X70421500Y-51087500D02*
X72707500Y-51087500D01*
X72707500Y-51087500D02*
X72707500Y-51207500D01*
X72707500Y-51967500D02*
X72707500Y-52007500D01*
X72707500Y-52767500D02*
X72707500Y-52807500D01*
X72707500Y-53567500D02*
X72707500Y-53627500D01*
X72707500Y-53627500D02*
X70167500Y-53627500D01*
D13*
X69827500Y-51547500D02*
G75*
G02*
X69687500Y-51547500I-70000J0D01*
G01*
X69687500Y-51547500D02*
G75*
G02*
X69827500Y-51547500I70000J0D01*
G01*
D11*
X71352500Y-53302500D02*
X71352500Y-53052500D01*
X71622500Y-53182500D01*
X71352500Y-53302500D01*
G36*
X71622500Y-53182500D02*
G01*
X71352500Y-53302500D01*
X71352500Y-53052500D01*
X71622500Y-53182500D01*
G37*
%TO.C,R43*%
X61841141Y-39283500D02*
X61533859Y-39283500D01*
X61841141Y-39791500D02*
X61533859Y-39791500D01*
%TO.C,R71*%
X103208500Y-33891141D02*
X103208500Y-33583859D01*
X103716500Y-33891141D02*
X103716500Y-33583859D01*
%TO.C,R73*%
X66183500Y-122580225D02*
X66183500Y-122272943D01*
X66691500Y-122580225D02*
X66691500Y-122272943D01*
%TO.C,H1:0*%
X92977500Y-92177548D02*
X94497500Y-92177548D01*
X92977500Y-93177548D02*
X92977500Y-92177548D01*
X92977500Y-95297548D02*
X92977500Y-94297548D01*
X94497500Y-92177548D02*
X94497500Y-92227548D01*
X94497500Y-93347548D02*
X94497500Y-94127548D01*
X94497500Y-95247548D02*
X94497500Y-95297548D01*
X94497500Y-95297548D02*
X92977500Y-95297548D01*
X95037500Y-94117548D02*
X94797500Y-93787548D01*
X95277500Y-93787548D01*
X95037500Y-94117548D01*
G36*
X95037500Y-94117548D02*
G01*
X94797500Y-93787548D01*
X95277500Y-93787548D01*
X95037500Y-94117548D01*
G37*
%TO.C,LED2*%
D12*
X32067500Y-108237500D02*
X32321500Y-108237500D01*
X32067500Y-108357500D02*
X32067500Y-108237500D01*
X32067500Y-109157500D02*
X32067500Y-109117500D01*
X32067500Y-109957500D02*
X32067500Y-109917500D01*
X32067500Y-110777500D02*
X32067500Y-110717500D01*
X32321500Y-108237500D02*
X34607500Y-108237500D01*
X34607500Y-108237500D02*
X34607500Y-108357500D01*
X34607500Y-109117500D02*
X34607500Y-109157500D01*
X34607500Y-109917500D02*
X34607500Y-109957500D01*
X34607500Y-110717500D02*
X34607500Y-110777500D01*
X34607500Y-110777500D02*
X32067500Y-110777500D01*
D13*
X31727500Y-108697500D02*
G75*
G02*
X31587500Y-108697500I-70000J0D01*
G01*
X31587500Y-108697500D02*
G75*
G02*
X31727500Y-108697500I70000J0D01*
G01*
D11*
X33252500Y-110452500D02*
X33252500Y-110202500D01*
X33522500Y-110332500D01*
X33252500Y-110452500D01*
G36*
X33522500Y-110332500D02*
G01*
X33252500Y-110452500D01*
X33252500Y-110202500D01*
X33522500Y-110332500D01*
G37*
%TO.C,LED29*%
D12*
X108267500Y-51087500D02*
X108521500Y-51087500D01*
X108267500Y-51207500D02*
X108267500Y-51087500D01*
X108267500Y-52007500D02*
X108267500Y-51967500D01*
X108267500Y-52807500D02*
X108267500Y-52767500D01*
X108267500Y-53627500D02*
X108267500Y-53567500D01*
X108521500Y-51087500D02*
X110807500Y-51087500D01*
X110807500Y-51087500D02*
X110807500Y-51207500D01*
X110807500Y-51967500D02*
X110807500Y-52007500D01*
X110807500Y-52767500D02*
X110807500Y-52807500D01*
X110807500Y-53567500D02*
X110807500Y-53627500D01*
X110807500Y-53627500D02*
X108267500Y-53627500D01*
D13*
X107927500Y-51547500D02*
G75*
G02*
X107787500Y-51547500I-70000J0D01*
G01*
X107787500Y-51547500D02*
G75*
G02*
X107927500Y-51547500I70000J0D01*
G01*
D11*
X109452500Y-53302500D02*
X109452500Y-53052500D01*
X109722500Y-53182500D01*
X109452500Y-53302500D01*
G36*
X109722500Y-53182500D02*
G01*
X109452500Y-53302500D01*
X109452500Y-53052500D01*
X109722500Y-53182500D01*
G37*
%TO.C,C126*%
X67462752Y-68453416D02*
X67462752Y-68237744D01*
X67970752Y-68453416D02*
X67970752Y-68237744D01*
%TO.C,H0:10*%
X73927500Y-111227564D02*
X75447500Y-111227564D01*
X73927500Y-112227564D02*
X73927500Y-111227564D01*
X73927500Y-114347564D02*
X73927500Y-113347564D01*
X75447500Y-111227564D02*
X75447500Y-111277564D01*
X75447500Y-112397564D02*
X75447500Y-113177564D01*
X75447500Y-114297564D02*
X75447500Y-114347564D01*
X75447500Y-114347564D02*
X73927500Y-114347564D01*
X75987500Y-113167564D02*
X75747500Y-112837564D01*
X76227500Y-112837564D01*
X75987500Y-113167564D01*
G36*
X75987500Y-113167564D02*
G01*
X75747500Y-112837564D01*
X76227500Y-112837564D01*
X75987500Y-113167564D01*
G37*
%TO.C,R75*%
X104208500Y-33583859D02*
X104208500Y-33891141D01*
X104716500Y-33583859D02*
X104716500Y-33891141D01*
%TO.C,H0:9*%
X73927500Y-92177548D02*
X75447500Y-92177548D01*
X73927500Y-93177548D02*
X73927500Y-92177548D01*
X73927500Y-95297548D02*
X73927500Y-94297548D01*
X75447500Y-92177548D02*
X75447500Y-92227548D01*
X75447500Y-93347548D02*
X75447500Y-94127548D01*
X75447500Y-95247548D02*
X75447500Y-95297548D01*
X75447500Y-95297548D02*
X73927500Y-95297548D01*
X75987500Y-94117548D02*
X75747500Y-93787548D01*
X76227500Y-93787548D01*
X75987500Y-94117548D01*
G36*
X75987500Y-94117548D02*
G01*
X75747500Y-93787548D01*
X76227500Y-93787548D01*
X75987500Y-94117548D01*
G37*
%TO.C,C66*%
X35167092Y-51833164D02*
X35167092Y-52048836D01*
X35675092Y-51833164D02*
X35675092Y-52048836D01*
%TO.C,C9*%
X68727000Y-53484564D02*
X68727000Y-53700236D01*
X69235000Y-53484564D02*
X69235000Y-53700236D01*
%TO.C,R2*%
X63727000Y-68243759D02*
X63727000Y-68551041D01*
X64235000Y-68243759D02*
X64235000Y-68551041D01*
%TO.C,R78*%
X34983859Y-97683515D02*
X35291141Y-97683515D01*
X34983859Y-98191515D02*
X35291141Y-98191515D01*
%TO.C,R44*%
X61533859Y-37383500D02*
X61841141Y-37383500D01*
X61533859Y-37891500D02*
X61841141Y-37891500D01*
%TO.C,Q8*%
X104102500Y-29477500D02*
X105622500Y-29477500D01*
X104102500Y-30477500D02*
X104102500Y-29477500D01*
X104102500Y-32597500D02*
X104102500Y-31597500D01*
X105622500Y-29477500D02*
X105622500Y-29527500D01*
X105622500Y-30647500D02*
X105622500Y-31427500D01*
X105622500Y-32547500D02*
X105622500Y-32597500D01*
X105622500Y-32597500D02*
X104102500Y-32597500D01*
X106162500Y-31417500D02*
X105922500Y-31087500D01*
X106402500Y-31087500D01*
X106162500Y-31417500D01*
G36*
X106162500Y-31417500D02*
G01*
X105922500Y-31087500D01*
X106402500Y-31087500D01*
X106162500Y-31417500D01*
G37*
%TO.C,C15*%
X55918348Y-57583516D02*
X55702676Y-57583516D01*
X55918348Y-58091516D02*
X55702676Y-58091516D01*
%TO.C,C93*%
X33827624Y-75199160D02*
X33827624Y-75414832D01*
X34335624Y-75199160D02*
X34335624Y-75414832D01*
%TO.C,C41*%
X97783500Y-53729680D02*
X97783500Y-53945352D01*
X98291500Y-53729680D02*
X98291500Y-53945352D01*
%TO.C,C92*%
X113150300Y-95888916D02*
X113365972Y-95888916D01*
X113150300Y-96396916D02*
X113365972Y-96396916D01*
%TO.C,LED9*%
D12*
X51117500Y-70197500D02*
X53657500Y-70197500D01*
X51117500Y-70257500D02*
X51117500Y-70197500D01*
X51117500Y-71057500D02*
X51117500Y-71017500D01*
X51117500Y-71857500D02*
X51117500Y-71817500D01*
X51117500Y-72737500D02*
X51117500Y-72617500D01*
X53403500Y-72737500D02*
X51117500Y-72737500D01*
X53657500Y-70197500D02*
X53657500Y-70257500D01*
X53657500Y-71017500D02*
X53657500Y-71057500D01*
X53657500Y-71817500D02*
X53657500Y-71857500D01*
X53657500Y-72617500D02*
X53657500Y-72737500D01*
X53657500Y-72737500D02*
X53403500Y-72737500D01*
D13*
X54137500Y-72277500D02*
G75*
G02*
X53997500Y-72277500I-70000J0D01*
G01*
X53997500Y-72277500D02*
G75*
G02*
X54137500Y-72277500I70000J0D01*
G01*
D11*
X52472500Y-70522500D02*
X52472500Y-70772500D01*
X52202500Y-70642500D01*
X52472500Y-70522500D01*
G36*
X52472500Y-70772500D02*
G01*
X52202500Y-70642500D01*
X52472500Y-70522500D01*
X52472500Y-70772500D01*
G37*
%TO.C,U9*%
X99292500Y-53302516D02*
X100762500Y-53302516D01*
X99292500Y-53327516D02*
X99292500Y-53302516D01*
X99292500Y-55522516D02*
X99292500Y-55497516D01*
X100762500Y-53302516D02*
X100762500Y-53327516D01*
X100762500Y-55497516D02*
X100762500Y-55522516D01*
X100762500Y-55522516D02*
X99292500Y-55522516D01*
X98847500Y-53322516D02*
X98707500Y-53132516D01*
X98987500Y-53132516D01*
X98847500Y-53322516D01*
G36*
X98847500Y-53322516D02*
G01*
X98707500Y-53132516D01*
X98987500Y-53132516D01*
X98847500Y-53322516D01*
G37*
%TO.C,R64*%
X33791141Y-130183500D02*
X33483859Y-130183500D01*
X33791141Y-130691500D02*
X33483859Y-130691500D01*
%TO.C,R56*%
X65183500Y-80191157D02*
X65183500Y-79883875D01*
X65691500Y-80191157D02*
X65691500Y-79883875D01*
%TO.C,R70*%
X37283500Y-101991157D02*
X37283500Y-101683875D01*
X37791500Y-101991157D02*
X37791500Y-101683875D01*
%TO.C,H0:8*%
X54877500Y-73127532D02*
X56397500Y-73127532D01*
X54877500Y-74127532D02*
X54877500Y-73127532D01*
X54877500Y-76247532D02*
X54877500Y-75247532D01*
X56397500Y-73127532D02*
X56397500Y-73177532D01*
X56397500Y-74297532D02*
X56397500Y-75077532D01*
X56397500Y-76197532D02*
X56397500Y-76247532D01*
X56397500Y-76247532D02*
X54877500Y-76247532D01*
X56937500Y-75067532D02*
X56697500Y-74737532D01*
X57177500Y-74737532D01*
X56937500Y-75067532D01*
G36*
X56937500Y-75067532D02*
G01*
X56697500Y-74737532D01*
X57177500Y-74737532D01*
X56937500Y-75067532D01*
G37*
%TO.C,C68*%
X73267060Y-51833164D02*
X73267060Y-52048836D01*
X73775060Y-51833164D02*
X73775060Y-52048836D01*
%TO.C,AM1:8*%
D10*
X83502500Y-64452532D02*
X83502500Y-65437532D01*
X83502500Y-64452532D02*
X84487500Y-64452532D01*
X83502500Y-78422532D02*
X83502500Y-77437532D01*
X83502500Y-78422532D02*
X84487500Y-78422532D01*
X97472500Y-64452532D02*
X96487500Y-64452532D01*
X97472500Y-64452532D02*
X97472500Y-65437532D01*
X97472500Y-78422532D02*
X96487500Y-78422532D01*
X97472500Y-78422532D02*
X97472500Y-77437532D01*
D14*
X93981278Y-74687532D02*
G75*
G02*
X93493722Y-74687532I-243778J0D01*
G01*
X93493722Y-74687532D02*
G75*
G02*
X93981278Y-74687532I243778J0D01*
G01*
%TO.C,C58*%
D11*
X73267060Y-90081960D02*
X73267060Y-90297632D01*
X73775060Y-90081960D02*
X73775060Y-90297632D01*
%TO.C,R93*%
X76195990Y-68443516D02*
X76503272Y-68443516D01*
X76195990Y-68951516D02*
X76503272Y-68951516D01*
%TO.C,R102*%
X45883500Y-119091157D02*
X45883500Y-118783875D01*
X46391500Y-119091157D02*
X46391500Y-118783875D01*
%TO.C,C70*%
X111367028Y-51833164D02*
X111367028Y-52048836D01*
X111875028Y-51833164D02*
X111875028Y-52048836D01*
%TO.C,LED21*%
D12*
X89217500Y-70197500D02*
X91757500Y-70197500D01*
X89217500Y-70257500D02*
X89217500Y-70197500D01*
X89217500Y-71057500D02*
X89217500Y-71017500D01*
X89217500Y-71857500D02*
X89217500Y-71817500D01*
X89217500Y-72737500D02*
X89217500Y-72617500D01*
X91503500Y-72737500D02*
X89217500Y-72737500D01*
X91757500Y-70197500D02*
X91757500Y-70257500D01*
X91757500Y-71017500D02*
X91757500Y-71057500D01*
X91757500Y-71817500D02*
X91757500Y-71857500D01*
X91757500Y-72617500D02*
X91757500Y-72737500D01*
X91757500Y-72737500D02*
X91503500Y-72737500D01*
D13*
X92237500Y-72277500D02*
G75*
G02*
X92097500Y-72277500I-70000J0D01*
G01*
X92097500Y-72277500D02*
G75*
G02*
X92237500Y-72277500I70000J0D01*
G01*
D11*
X90572500Y-70522500D02*
X90572500Y-70772500D01*
X90302500Y-70642500D01*
X90572500Y-70522500D01*
G36*
X90572500Y-70772500D02*
G01*
X90302500Y-70642500D01*
X90572500Y-70522500D01*
X90572500Y-70772500D01*
G37*
%TO.C,D5*%
X79995000Y-103127516D02*
X81515000Y-103127516D01*
X79995000Y-103177516D02*
X79995000Y-103127516D01*
X79995000Y-105077516D02*
X79995000Y-104297516D01*
X79995000Y-106247516D02*
X79995000Y-106197516D01*
X81515000Y-103127516D02*
X81515000Y-104127516D01*
X81515000Y-105247516D02*
X81515000Y-106247516D01*
X81515000Y-106247516D02*
X79995000Y-106247516D01*
X79455000Y-104307516D02*
X79695000Y-104637516D01*
X79215000Y-104637516D01*
X79455000Y-104307516D01*
G36*
X79695000Y-104637516D02*
G01*
X79215000Y-104637516D01*
X79455000Y-104307516D01*
X79695000Y-104637516D01*
G37*
%TO.C,J4*%
D10*
X115062428Y-89870373D02*
X115062428Y-90620373D01*
X115062428Y-89870373D02*
X117562428Y-89870373D01*
X115062428Y-93120373D02*
X115062428Y-92620373D01*
X115062428Y-95620373D02*
X115062428Y-95120373D01*
X115062428Y-98120373D02*
X115062428Y-97620373D01*
X115062428Y-100620373D02*
X115062428Y-100120373D01*
X115062428Y-103120373D02*
X115062428Y-102620373D01*
X115062428Y-105870373D02*
X115062428Y-105120373D01*
X115062428Y-105870373D02*
X117562428Y-105870373D01*
X117562428Y-89870373D02*
X117562428Y-90370373D01*
X117562428Y-105870373D02*
X117562428Y-105370373D01*
X118562428Y-90370373D02*
X117562428Y-90370373D01*
X118562428Y-105370373D02*
X117562428Y-105370373D01*
X118562428Y-105370373D02*
X118562428Y-90370373D01*
X118612428Y-92245373D02*
X118612428Y-90995373D01*
X118612428Y-94745373D02*
X118612428Y-93495373D01*
X118612428Y-97245373D02*
X118612428Y-95995373D01*
X118612428Y-99745373D02*
X118612428Y-98495373D01*
X118612428Y-102245373D02*
X118612428Y-100995373D01*
X118612428Y-104745373D02*
X118612428Y-103495373D01*
%TO.C,AM0:12*%
X45402500Y-121602580D02*
X45402500Y-122587580D01*
X45402500Y-121602580D02*
X46387500Y-121602580D01*
X45402500Y-135572580D02*
X45402500Y-134587580D01*
X45402500Y-135572580D02*
X46387500Y-135572580D01*
X59372500Y-121602580D02*
X58387500Y-121602580D01*
X59372500Y-121602580D02*
X59372500Y-122587580D01*
D14*
X55881278Y-131837580D02*
G75*
G02*
X55393722Y-131837580I-243778J0D01*
G01*
X55393722Y-131837580D02*
G75*
G02*
X55881278Y-131837580I243778J0D01*
G01*
%TO.C,C110*%
D11*
X55918284Y-60914240D02*
X55702612Y-60914240D01*
X55918284Y-61422240D02*
X55702612Y-61422240D01*
%TO.C,SW2*%
X27414289Y-73416356D02*
X27414289Y-74216356D01*
X27454289Y-74216356D02*
X27414289Y-74216356D01*
X27454289Y-74216356D02*
X27454289Y-77716356D01*
%TO.C,R54*%
X63183500Y-80191157D02*
X63183500Y-79883875D01*
X63691500Y-80191157D02*
X63691500Y-79883875D01*
%TO.C,C48*%
X73208500Y-127379664D02*
X73208500Y-127595336D01*
X73716500Y-127379664D02*
X73716500Y-127595336D01*
%TO.C,LED16*%
D12*
X70167500Y-70137500D02*
X70421500Y-70137500D01*
X70167500Y-70257500D02*
X70167500Y-70137500D01*
X70167500Y-71057500D02*
X70167500Y-71017500D01*
X70167500Y-71857500D02*
X70167500Y-71817500D01*
X70167500Y-72677500D02*
X70167500Y-72617500D01*
X70421500Y-70137500D02*
X72707500Y-70137500D01*
X72707500Y-70137500D02*
X72707500Y-70257500D01*
X72707500Y-71017500D02*
X72707500Y-71057500D01*
X72707500Y-71817500D02*
X72707500Y-71857500D01*
X72707500Y-72617500D02*
X72707500Y-72677500D01*
X72707500Y-72677500D02*
X70167500Y-72677500D01*
D13*
X69827500Y-70597500D02*
G75*
G02*
X69687500Y-70597500I-70000J0D01*
G01*
X69687500Y-70597500D02*
G75*
G02*
X69827500Y-70597500I70000J0D01*
G01*
D11*
X71352500Y-72352500D02*
X71352500Y-72102500D01*
X71622500Y-72232500D01*
X71352500Y-72352500D01*
G36*
X71622500Y-72232500D02*
G01*
X71352500Y-72352500D01*
X71352500Y-72102500D01*
X71622500Y-72232500D01*
G37*
%TO.C,R40*%
X69966141Y-78158500D02*
X69658859Y-78158500D01*
X69966141Y-78666500D02*
X69658859Y-78666500D01*
%TO.C,LED14*%
D12*
X70167500Y-108237500D02*
X70421500Y-108237500D01*
X70167500Y-108357500D02*
X70167500Y-108237500D01*
X70167500Y-109157500D02*
X70167500Y-109117500D01*
X70167500Y-109957500D02*
X70167500Y-109917500D01*
X70167500Y-110777500D02*
X70167500Y-110717500D01*
X70421500Y-108237500D02*
X72707500Y-108237500D01*
X72707500Y-108237500D02*
X72707500Y-108357500D01*
X72707500Y-109117500D02*
X72707500Y-109157500D01*
X72707500Y-109917500D02*
X72707500Y-109957500D01*
X72707500Y-110717500D02*
X72707500Y-110777500D01*
X72707500Y-110777500D02*
X70167500Y-110777500D01*
D13*
X69827500Y-108697500D02*
G75*
G02*
X69687500Y-108697500I-70000J0D01*
G01*
X69687500Y-108697500D02*
G75*
G02*
X69827500Y-108697500I70000J0D01*
G01*
D11*
X71352500Y-110452500D02*
X71352500Y-110202500D01*
X71622500Y-110332500D01*
X71352500Y-110452500D01*
G36*
X71622500Y-110332500D02*
G01*
X71352500Y-110452500D01*
X71352500Y-110202500D01*
X71622500Y-110332500D01*
G37*
%TO.C,C27*%
X87579664Y-46433532D02*
X87795336Y-46433532D01*
X87579664Y-46941532D02*
X87795336Y-46941532D01*
%TO.C,L2*%
X95877500Y-41802532D02*
X97277500Y-41802532D01*
X95877500Y-48822532D02*
X95877500Y-41802532D01*
X97277500Y-48822532D02*
X95877500Y-48822532D01*
X101297500Y-41802532D02*
X102697500Y-41802532D01*
X102697500Y-41802532D02*
X102697500Y-48822532D01*
X102697500Y-48822532D02*
X101297500Y-48822532D01*
%TO.C,Y1*%
X61721000Y-72382399D02*
X61721000Y-75802401D01*
X61721000Y-75802401D02*
X65841000Y-75802401D01*
%TO.C,H0:4*%
X35827500Y-54077516D02*
X37347500Y-54077516D01*
X35827500Y-55077516D02*
X35827500Y-54077516D01*
X35827500Y-57197516D02*
X35827500Y-56197516D01*
X37347500Y-54077516D02*
X37347500Y-54127516D01*
X37347500Y-55247516D02*
X37347500Y-56027516D01*
X37347500Y-57147516D02*
X37347500Y-57197516D01*
X37347500Y-57197516D02*
X35827500Y-57197516D01*
X37887500Y-56017516D02*
X37647500Y-55687516D01*
X38127500Y-55687516D01*
X37887500Y-56017516D01*
G36*
X37887500Y-56017516D02*
G01*
X37647500Y-55687516D01*
X38127500Y-55687516D01*
X37887500Y-56017516D01*
G37*
%TO.C,R39*%
X35283500Y-78691157D02*
X35283500Y-78383875D01*
X35791500Y-78691157D02*
X35791500Y-78383875D01*
%TO.C,J9*%
X90227500Y-26522516D02*
X90227500Y-29022516D01*
X90227500Y-29022516D02*
X91277500Y-29022516D01*
X94277500Y-24552516D02*
X91397500Y-24552516D01*
X94397500Y-29022516D02*
X94397500Y-30012516D01*
X95447500Y-26522516D02*
X95447500Y-29022516D01*
X95447500Y-29022516D02*
X94397500Y-29022516D01*
%TO.C,U8*%
X48477500Y-134422517D02*
X50997500Y-134422517D01*
X50843068Y-136792517D02*
X48477500Y-136792517D01*
X51137500Y-136797517D02*
X51277500Y-136987517D01*
X50997500Y-136987517D01*
X51137500Y-136797517D01*
G36*
X51277500Y-136987517D02*
G01*
X50997500Y-136987517D01*
X51137500Y-136797517D01*
X51277500Y-136987517D01*
G37*
%TO.C,C61*%
X111367028Y-70883148D02*
X111367028Y-71098820D01*
X111875028Y-70883148D02*
X111875028Y-71098820D01*
%TO.C,R36*%
X77786141Y-105738500D02*
X77478859Y-105738500D01*
X77786141Y-106246500D02*
X77478859Y-106246500D01*
%TO.C,C106*%
X90977576Y-37099096D02*
X90977576Y-37314768D01*
X91485576Y-37099096D02*
X91485576Y-37314768D01*
%TO.C,H0:5*%
X35827500Y-35027500D02*
X37347500Y-35027500D01*
X35827500Y-36027500D02*
X35827500Y-35027500D01*
X35827500Y-38147500D02*
X35827500Y-37147500D01*
X37347500Y-35027500D02*
X37347500Y-35077500D01*
X37347500Y-36197500D02*
X37347500Y-36977500D01*
X37347500Y-38097500D02*
X37347500Y-38147500D01*
X37347500Y-38147500D02*
X35827500Y-38147500D01*
X37887500Y-36967500D02*
X37647500Y-36637500D01*
X38127500Y-36637500D01*
X37887500Y-36967500D01*
G36*
X37887500Y-36967500D02*
G01*
X37647500Y-36637500D01*
X38127500Y-36637500D01*
X37887500Y-36967500D01*
G37*
%TO.C,Q11*%
X30877500Y-97777516D02*
X30927500Y-97777516D01*
X30877500Y-99297516D02*
X30877500Y-97777516D01*
X31877500Y-99297516D02*
X30877500Y-99297516D01*
X32047500Y-97777516D02*
X32827500Y-97777516D01*
X33947500Y-97777516D02*
X33997500Y-97777516D01*
X33997500Y-97777516D02*
X33997500Y-99297516D01*
X33997500Y-99297516D02*
X32997500Y-99297516D01*
X32817500Y-97237516D02*
X32487500Y-97477516D01*
X32487500Y-96997516D01*
X32817500Y-97237516D01*
G36*
X32817500Y-97237516D02*
G01*
X32487500Y-97477516D01*
X32487500Y-96997516D01*
X32817500Y-97237516D01*
G37*
%TO.C,R87*%
X56300668Y-65741141D02*
X56300668Y-65433859D01*
X56808668Y-65741141D02*
X56808668Y-65433859D01*
%TO.C,AM0:10*%
D10*
X64452500Y-102552564D02*
X64452500Y-103537564D01*
X64452500Y-102552564D02*
X65437500Y-102552564D01*
X64452500Y-116522564D02*
X64452500Y-115537564D01*
X64452500Y-116522564D02*
X65437500Y-116522564D01*
X78422500Y-116522564D02*
X77437500Y-116522564D01*
X78422500Y-116522564D02*
X78422500Y-115537564D01*
D14*
X74931278Y-112787564D02*
G75*
G02*
X74443722Y-112787564I-243778J0D01*
G01*
X74443722Y-112787564D02*
G75*
G02*
X74931278Y-112787564I243778J0D01*
G01*
%TO.C,AM0:7*%
D10*
X45402500Y-45402516D02*
X45402500Y-46387516D01*
X45402500Y-45402516D02*
X46387500Y-45402516D01*
X45402500Y-59372516D02*
X45402500Y-58387516D01*
X45402500Y-59372516D02*
X46387500Y-59372516D01*
X59372500Y-45402516D02*
X58387500Y-45402516D01*
X59372500Y-45402516D02*
X59372500Y-46387516D01*
D14*
X55881278Y-55637516D02*
G75*
G02*
X55393722Y-55637516I-243778J0D01*
G01*
X55393722Y-55637516D02*
G75*
G02*
X55881278Y-55637516I243778J0D01*
G01*
%TO.C,R20*%
D11*
X86233500Y-44141173D02*
X86233500Y-43833891D01*
X86741500Y-44141173D02*
X86741500Y-43833891D01*
%TO.C,R37*%
X36483500Y-65291157D02*
X36483500Y-64983875D01*
X36991500Y-65291157D02*
X36991500Y-64983875D01*
%TO.C,H0:12*%
X54877500Y-130277580D02*
X56397500Y-130277580D01*
X54877500Y-131277580D02*
X54877500Y-130277580D01*
X54877500Y-133397580D02*
X54877500Y-132397580D01*
X56397500Y-130277580D02*
X56397500Y-130327580D01*
X56397500Y-131447580D02*
X56397500Y-132227580D01*
X56397500Y-133347580D02*
X56397500Y-133397580D01*
X56397500Y-133397580D02*
X54877500Y-133397580D01*
X56937500Y-132217580D02*
X56697500Y-131887580D01*
X57177500Y-131887580D01*
X56937500Y-132217580D01*
G36*
X56937500Y-132217580D02*
G01*
X56697500Y-131887580D01*
X57177500Y-131887580D01*
X56937500Y-132217580D01*
G37*
%TO.C,C30*%
X84233500Y-44095368D02*
X84233500Y-43879696D01*
X84741500Y-44095368D02*
X84741500Y-43879696D01*
%TO.C,C86*%
X90977576Y-113299224D02*
X90977576Y-113514896D01*
X91485576Y-113299224D02*
X91485576Y-113514896D01*
%TO.C,C121*%
X111636247Y-46127516D02*
X113058751Y-46127516D01*
X111636247Y-47947516D02*
X113058751Y-47947516D01*
%TO.C,C96*%
X90977576Y-75199160D02*
X90977576Y-75414832D01*
X91485576Y-75199160D02*
X91485576Y-75414832D01*
%TO.C,C108*%
X51445336Y-75883516D02*
X51229664Y-75883516D01*
X51445336Y-76391516D02*
X51229664Y-76391516D01*
%TO.C,SW1*%
X27422492Y-83472596D02*
X27422492Y-84272596D01*
X27462492Y-84272596D02*
X27422492Y-84272596D01*
X27462492Y-84272596D02*
X27462492Y-87772596D01*
%TO.C,Q13*%
X38747500Y-122147516D02*
X42727500Y-122147516D01*
X38747500Y-122247516D02*
X38747500Y-122147516D01*
X38747500Y-127327516D02*
X38747500Y-127227516D01*
X42727500Y-122147516D02*
X42727500Y-122247516D01*
X42727500Y-127227516D02*
X42727500Y-127327516D01*
X42727500Y-127327516D02*
X38747500Y-127327516D01*
X38197500Y-122237516D02*
X37957500Y-121907516D01*
X38437500Y-121907516D01*
X38197500Y-122237516D01*
G36*
X38197500Y-122237516D02*
G01*
X37957500Y-121907516D01*
X38437500Y-121907516D01*
X38197500Y-122237516D01*
G37*
%TO.C,H0:7*%
X54877500Y-54077516D02*
X56397500Y-54077516D01*
X54877500Y-55077516D02*
X54877500Y-54077516D01*
X54877500Y-57197516D02*
X54877500Y-56197516D01*
X56397500Y-54077516D02*
X56397500Y-54127516D01*
X56397500Y-55247516D02*
X56397500Y-56027516D01*
X56397500Y-57147516D02*
X56397500Y-57197516D01*
X56397500Y-57197516D02*
X54877500Y-57197516D01*
X56937500Y-56017516D02*
X56697500Y-55687516D01*
X57177500Y-55687516D01*
X56937500Y-56017516D01*
G36*
X56937500Y-56017516D02*
G01*
X56697500Y-55687516D01*
X57177500Y-55687516D01*
X56937500Y-56017516D01*
G37*
%TO.C,J7*%
D10*
X72773471Y-134112588D02*
X72773471Y-136612588D01*
X72773471Y-134112588D02*
X73473471Y-134112588D01*
X72773471Y-136612588D02*
X73223471Y-136612588D01*
X73223471Y-137612588D02*
X73223471Y-136612588D01*
X73223471Y-137612588D02*
X88223471Y-137612588D01*
X74023471Y-137612588D02*
X74023471Y-137812588D01*
X74923471Y-137612588D02*
X74923471Y-137812588D01*
X75473471Y-134112588D02*
X75973471Y-134112588D01*
X76523471Y-137612588D02*
X76523471Y-137812588D01*
X77423471Y-137612588D02*
X77423471Y-137812588D01*
X77973471Y-134112588D02*
X78473471Y-134112588D01*
X79023471Y-137612588D02*
X79023471Y-137812588D01*
X79923471Y-137612588D02*
X79923471Y-137812588D01*
X80473471Y-134112588D02*
X80973471Y-134112588D01*
X81523471Y-137612588D02*
X81523471Y-137812588D01*
X82423471Y-137612588D02*
X82423471Y-137812588D01*
X82973471Y-134112588D02*
X83473471Y-134112588D01*
X84023471Y-137612588D02*
X84023471Y-137812588D01*
X84923471Y-137612588D02*
X84923471Y-137812588D01*
X85473471Y-134112588D02*
X85973471Y-134112588D01*
X86523471Y-137612588D02*
X86523471Y-137812588D01*
X87423471Y-137612588D02*
X87423471Y-137812588D01*
X88223471Y-137612588D02*
X88223471Y-136612588D01*
X88673471Y-134112588D02*
X87973471Y-134112588D01*
X88673471Y-134112588D02*
X88673471Y-136612588D01*
X88673471Y-136612588D02*
X88223471Y-136612588D01*
%TO.C,AM0:8*%
X45402500Y-64452532D02*
X45402500Y-65437532D01*
X45402500Y-64452532D02*
X46387500Y-64452532D01*
X45402500Y-78422532D02*
X45402500Y-77437532D01*
X45402500Y-78422532D02*
X46387500Y-78422532D01*
X59372500Y-78422532D02*
X58387500Y-78422532D01*
X59372500Y-78422532D02*
X59372500Y-77437532D01*
D14*
X55881278Y-74687532D02*
G75*
G02*
X55393722Y-74687532I-243778J0D01*
G01*
X55393722Y-74687532D02*
G75*
G02*
X55881278Y-74687532I243778J0D01*
G01*
%TO.C,U5*%
D11*
X88177500Y-42927532D02*
X89997500Y-42927532D01*
X88177500Y-42977532D02*
X88177500Y-42927532D01*
X88177500Y-46047532D02*
X88177500Y-45997532D01*
X89997500Y-42927532D02*
X89997500Y-42977532D01*
X89997500Y-45997532D02*
X89997500Y-46047532D01*
X89997500Y-46047532D02*
X88177500Y-46047532D01*
X90537500Y-45997532D02*
X90777500Y-46327532D01*
X90297500Y-46327532D01*
X90537500Y-45997532D01*
G36*
X90777500Y-46327532D02*
G01*
X90297500Y-46327532D01*
X90537500Y-45997532D01*
X90777500Y-46327532D01*
G37*
%TO.C,AM0:1*%
D10*
X26352500Y-116522564D02*
X26352500Y-115537564D01*
X26352500Y-116522564D02*
X27337500Y-116522564D01*
X40322500Y-102552564D02*
X39337500Y-102552564D01*
X40322500Y-102552564D02*
X40322500Y-103537564D01*
X40322500Y-116522564D02*
X39337500Y-116522564D01*
X40322500Y-116522564D02*
X40322500Y-115537564D01*
D14*
X36831278Y-112787564D02*
G75*
G02*
X36343722Y-112787564I-243778J0D01*
G01*
X36343722Y-112787564D02*
G75*
G02*
X36831278Y-112787564I243778J0D01*
G01*
%TO.C,C112*%
D11*
X71229664Y-54583500D02*
X71445336Y-54583500D01*
X71229664Y-55091500D02*
X71445336Y-55091500D01*
%TO.C,H1:2*%
X92977500Y-130277452D02*
X94497500Y-130277452D01*
X92977500Y-131277452D02*
X92977500Y-130277452D01*
X92977500Y-133397452D02*
X92977500Y-132397452D01*
X94497500Y-130277452D02*
X94497500Y-130327452D01*
X94497500Y-131447452D02*
X94497500Y-132227452D01*
X94497500Y-133347452D02*
X94497500Y-133397452D01*
X94497500Y-133397452D02*
X92977500Y-133397452D01*
X95037500Y-132217452D02*
X94797500Y-131887452D01*
X95277500Y-131887452D01*
X95037500Y-132217452D01*
G36*
X95037500Y-132217452D02*
G01*
X94797500Y-131887452D01*
X95277500Y-131887452D01*
X95037500Y-132217452D01*
G37*
%TO.C,R67*%
X101308859Y-36183500D02*
X101616141Y-36183500D01*
X101308859Y-36691500D02*
X101616141Y-36691500D01*
%TO.C,LED3*%
D12*
X32067500Y-89187500D02*
X32321500Y-89187500D01*
X32067500Y-89307500D02*
X32067500Y-89187500D01*
X32067500Y-90107500D02*
X32067500Y-90067500D01*
X32067500Y-90907500D02*
X32067500Y-90867500D01*
X32067500Y-91727500D02*
X32067500Y-91667500D01*
X32321500Y-89187500D02*
X34607500Y-89187500D01*
X34607500Y-89187500D02*
X34607500Y-89307500D01*
X34607500Y-90067500D02*
X34607500Y-90107500D01*
X34607500Y-90867500D02*
X34607500Y-90907500D01*
X34607500Y-91667500D02*
X34607500Y-91727500D01*
X34607500Y-91727500D02*
X32067500Y-91727500D01*
D13*
X31727500Y-89647500D02*
G75*
G02*
X31587500Y-89647500I-70000J0D01*
G01*
X31587500Y-89647500D02*
G75*
G02*
X31727500Y-89647500I70000J0D01*
G01*
D11*
X33252500Y-91402500D02*
X33252500Y-91152500D01*
X33522500Y-91282500D01*
X33252500Y-91402500D01*
G36*
X33522500Y-91282500D02*
G01*
X33252500Y-91402500D01*
X33252500Y-91152500D01*
X33522500Y-91282500D01*
G37*
%TO.C,AM1:14*%
D10*
X102552500Y-121602580D02*
X102552500Y-122587580D01*
X102552500Y-121602580D02*
X103537500Y-121602580D01*
X102552500Y-135572580D02*
X102552500Y-134587580D01*
X102552500Y-135572580D02*
X103537500Y-135572580D01*
X116522500Y-121602580D02*
X115537500Y-121602580D01*
X116522500Y-121602580D02*
X116522500Y-122587580D01*
X116522500Y-135572580D02*
X115537500Y-135572580D01*
X116522500Y-135572580D02*
X116522500Y-134587580D01*
D14*
X113031278Y-131837580D02*
G75*
G02*
X112543722Y-131837580I-243778J0D01*
G01*
X112543722Y-131837580D02*
G75*
G02*
X113031278Y-131837580I243778J0D01*
G01*
%TO.C,H1:6*%
D11*
X73927516Y-54077516D02*
X75447516Y-54077516D01*
X73927516Y-55077516D02*
X73927516Y-54077516D01*
X73927516Y-57197516D02*
X73927516Y-56197516D01*
X75447516Y-54077516D02*
X75447516Y-54127516D01*
X75447516Y-55247516D02*
X75447516Y-56027516D01*
X75447516Y-57147516D02*
X75447516Y-57197516D01*
X75447516Y-57197516D02*
X73927516Y-57197516D01*
X75987516Y-56017516D02*
X75747516Y-55687516D01*
X76227516Y-55687516D01*
X75987516Y-56017516D01*
G36*
X75987516Y-56017516D02*
G01*
X75747516Y-55687516D01*
X76227516Y-55687516D01*
X75987516Y-56017516D01*
G37*
%TO.C,C104*%
X57873500Y-37009680D02*
X57873500Y-37225352D01*
X58381500Y-37009680D02*
X58381500Y-37225352D01*
%TO.C,C131*%
X93533500Y-43879664D02*
X93533500Y-44095336D01*
X94041500Y-43879664D02*
X94041500Y-44095336D01*
%TO.C,USB1*%
X40543760Y-29759683D02*
X40543760Y-27979683D01*
X48043760Y-32679683D02*
X48843760Y-32679683D01*
X49943760Y-29759683D02*
X49943760Y-27979683D01*
%TO.C,AM0:6*%
D10*
X45402500Y-26352500D02*
X45402500Y-27337500D01*
X45402500Y-26352500D02*
X46387500Y-26352500D01*
X59372500Y-40322500D02*
X58387500Y-40322500D01*
X59372500Y-40322500D02*
X59372500Y-39337500D01*
D14*
X55881278Y-36587500D02*
G75*
G02*
X55393722Y-36587500I-243778J0D01*
G01*
X55393722Y-36587500D02*
G75*
G02*
X55881278Y-36587500I243778J0D01*
G01*
%TO.C,C101*%
D11*
X90977576Y-56149128D02*
X90977576Y-56364800D01*
X91485576Y-56149128D02*
X91485576Y-56364800D01*
%TO.C,C29*%
X94098752Y-47377532D02*
X92676248Y-47377532D01*
X94098752Y-49197532D02*
X92676248Y-49197532D01*
%TO.C,Q6*%
X63547500Y-126947516D02*
X63647500Y-126947516D01*
X63547500Y-130927516D02*
X63547500Y-126947516D01*
X63647500Y-130927516D02*
X63547500Y-130927516D01*
X68627500Y-126947516D02*
X68727500Y-126947516D01*
X68727500Y-126947516D02*
X68727500Y-130927516D01*
X68727500Y-130927516D02*
X68627500Y-130927516D01*
X68637500Y-126397516D02*
X68967500Y-126157516D01*
X68967500Y-126637516D01*
X68637500Y-126397516D01*
G36*
X68967500Y-126637516D02*
G01*
X68637500Y-126397516D01*
X68967500Y-126157516D01*
X68967500Y-126637516D01*
G37*
%TO.C,Q3*%
X78640000Y-106727516D02*
X80160000Y-106727516D01*
X78640000Y-107727516D02*
X78640000Y-106727516D01*
X78640000Y-109847516D02*
X78640000Y-108847516D01*
X80160000Y-106727516D02*
X80160000Y-106777516D01*
X80160000Y-107897516D02*
X80160000Y-108677516D01*
X80160000Y-109797516D02*
X80160000Y-109847516D01*
X80160000Y-109847516D02*
X78640000Y-109847516D01*
X80700000Y-108667516D02*
X80460000Y-108337516D01*
X80940000Y-108337516D01*
X80700000Y-108667516D01*
G36*
X80700000Y-108667516D02*
G01*
X80460000Y-108337516D01*
X80940000Y-108337516D01*
X80700000Y-108667516D01*
G37*
%TO.C,R88*%
X115883500Y-107933859D02*
X115883500Y-108241141D01*
X116391500Y-107933859D02*
X116391500Y-108241141D01*
%TO.C,C14*%
X57045336Y-50683516D02*
X56829664Y-50683516D01*
X57045336Y-51191516D02*
X56829664Y-51191516D01*
%TO.C,C55*%
X35167092Y-109131944D02*
X35167092Y-109347616D01*
X35675092Y-109131944D02*
X35675092Y-109347616D01*
%TO.C,H1:9*%
X112027484Y-35027532D02*
X113547484Y-35027532D01*
X112027484Y-36027532D02*
X112027484Y-35027532D01*
X112027484Y-38147532D02*
X112027484Y-37147532D01*
X113547484Y-35027532D02*
X113547484Y-35077532D01*
X113547484Y-36197532D02*
X113547484Y-36977532D01*
X113547484Y-38097532D02*
X113547484Y-38147532D01*
X113547484Y-38147532D02*
X112027484Y-38147532D01*
X114087484Y-36967532D02*
X113847484Y-36637532D01*
X114327484Y-36637532D01*
X114087484Y-36967532D01*
G36*
X114087484Y-36967532D02*
G01*
X113847484Y-36637532D01*
X114327484Y-36637532D01*
X114087484Y-36967532D01*
G37*
%TO.C,J2*%
D10*
X72723404Y-25312508D02*
X73223404Y-25312508D01*
X72723404Y-27812508D02*
X72723404Y-25312508D01*
X72723404Y-27812508D02*
X73473404Y-27812508D01*
X73223404Y-24312508D02*
X73223404Y-25312508D01*
X75098404Y-24262508D02*
X73848404Y-24262508D01*
X75973404Y-27812508D02*
X75473404Y-27812508D01*
X77598404Y-24262508D02*
X76348404Y-24262508D01*
X78473404Y-27812508D02*
X77973404Y-27812508D01*
X80098404Y-24262508D02*
X78848404Y-24262508D01*
X80973404Y-27812508D02*
X80473404Y-27812508D01*
X82598404Y-24262508D02*
X81348404Y-24262508D01*
X83473404Y-27812508D02*
X82973404Y-27812508D01*
X85098404Y-24262508D02*
X83848404Y-24262508D01*
X85973404Y-27812508D02*
X85473404Y-27812508D01*
X87598404Y-24262508D02*
X86348404Y-24262508D01*
X88223404Y-24312508D02*
X73223404Y-24312508D01*
X88223404Y-24312508D02*
X88223404Y-25312508D01*
X88723404Y-25312508D02*
X88223404Y-25312508D01*
X88723404Y-27812508D02*
X87973404Y-27812508D01*
X88723404Y-27812508D02*
X88723404Y-25312508D01*
%TO.C,J6*%
X24262508Y-57179707D02*
X24262508Y-58429707D01*
X24262508Y-59679707D02*
X24262508Y-60929707D01*
X24262508Y-62179707D02*
X24262508Y-63429707D01*
X24262508Y-64679707D02*
X24262508Y-65929707D01*
X24262508Y-67179707D02*
X24262508Y-68429707D01*
X24262508Y-69679707D02*
X24262508Y-70929707D01*
X24312508Y-56554707D02*
X24312508Y-71554707D01*
X24312508Y-56554707D02*
X25312508Y-56554707D01*
X24312508Y-71554707D02*
X25312508Y-71554707D01*
X25312508Y-56054707D02*
X25312508Y-56554707D01*
X25312508Y-72054707D02*
X25312508Y-71554707D01*
X27812508Y-56054707D02*
X25312508Y-56054707D01*
X27812508Y-56054707D02*
X27812508Y-56804707D01*
X27812508Y-58804707D02*
X27812508Y-59304707D01*
X27812508Y-61304707D02*
X27812508Y-61804707D01*
X27812508Y-63804707D02*
X27812508Y-64304707D01*
X27812508Y-66304707D02*
X27812508Y-66804707D01*
X27812508Y-68804707D02*
X27812508Y-69304707D01*
X27812508Y-72054707D02*
X25312508Y-72054707D01*
X27812508Y-72054707D02*
X27812508Y-71304707D01*
%TO.C,R96*%
D11*
X113401140Y-41683516D02*
X113093858Y-41683516D01*
X113401140Y-42191516D02*
X113093858Y-42191516D01*
%TO.C,H1:1*%
X92977500Y-111227564D02*
X94497500Y-111227564D01*
X92977500Y-112227564D02*
X92977500Y-111227564D01*
X92977500Y-114347564D02*
X92977500Y-113347564D01*
X94497500Y-111227564D02*
X94497500Y-111277564D01*
X94497500Y-112397564D02*
X94497500Y-113177564D01*
X94497500Y-114297564D02*
X94497500Y-114347564D01*
X94497500Y-114347564D02*
X92977500Y-114347564D01*
X95037500Y-113167564D02*
X94797500Y-112837564D01*
X95277500Y-112837564D01*
X95037500Y-113167564D01*
G36*
X95037500Y-113167564D02*
G01*
X94797500Y-112837564D01*
X95277500Y-112837564D01*
X95037500Y-113167564D01*
G37*
%TO.C,R30*%
X55783859Y-116783516D02*
X56091141Y-116783516D01*
X55783859Y-117291516D02*
X56091141Y-117291516D01*
%TO.C,C21*%
X59188836Y-66538400D02*
X58973164Y-66538400D01*
X59188836Y-67046400D02*
X58973164Y-67046400D01*
%TO.C,R76*%
X100891141Y-90083516D02*
X100583859Y-90083516D01*
X100891141Y-90591516D02*
X100583859Y-90591516D01*
%TO.C,AM0:13*%
D10*
X45402500Y-102552564D02*
X45402500Y-103537564D01*
X45402500Y-102552564D02*
X46387500Y-102552564D01*
X45402500Y-116522564D02*
X45402500Y-115537564D01*
X45402500Y-116522564D02*
X46387500Y-116522564D01*
X59372500Y-102552564D02*
X58387500Y-102552564D01*
X59372500Y-102552564D02*
X59372500Y-103537564D01*
X59372500Y-116522564D02*
X58387500Y-116522564D01*
X59372500Y-116522564D02*
X59372500Y-115537564D01*
D14*
X55881278Y-112787564D02*
G75*
G02*
X55393722Y-112787564I-243778J0D01*
G01*
X55393722Y-112787564D02*
G75*
G02*
X55881278Y-112787564I243778J0D01*
G01*
%TO.C,R32*%
D11*
X55773859Y-115583516D02*
X56081141Y-115583516D01*
X55773859Y-116091516D02*
X56081141Y-116091516D01*
%TO.C,C38*%
X58129664Y-116833500D02*
X58345336Y-116833500D01*
X58129664Y-117341500D02*
X58345336Y-117341500D01*
%TO.C,AM0:14*%
D10*
X45402500Y-83502548D02*
X45402500Y-84487548D01*
X45402500Y-83502548D02*
X46387500Y-83502548D01*
X45402500Y-97472548D02*
X45402500Y-96487548D01*
X45402500Y-97472548D02*
X46387500Y-97472548D01*
X59372500Y-83502548D02*
X58387500Y-83502548D01*
X59372500Y-83502548D02*
X59372500Y-84487548D01*
X59372500Y-97472548D02*
X58387500Y-97472548D01*
X59372500Y-97472548D02*
X59372500Y-96487548D01*
D14*
X55881278Y-93737548D02*
G75*
G02*
X55393722Y-93737548I-243778J0D01*
G01*
X55393722Y-93737548D02*
G75*
G02*
X55881278Y-93737548I243778J0D01*
G01*
%TO.C,C69*%
D11*
X88133500Y-51833164D02*
X88133500Y-52048836D01*
X88641500Y-51833164D02*
X88641500Y-52048836D01*
%TO.C,U18*%
X48847500Y-36000016D02*
X50667500Y-36000016D01*
X48847500Y-36075016D02*
X48847500Y-36000016D01*
X48847500Y-39120016D02*
X48847500Y-39045016D01*
X50667500Y-36000016D02*
X50667500Y-36075016D01*
X50667500Y-39045016D02*
X50667500Y-39120016D01*
X50667500Y-39120016D02*
X48847500Y-39120016D01*
X51207500Y-39050016D02*
X51447500Y-39380016D01*
X50967500Y-39380016D01*
X51207500Y-39050016D01*
G36*
X51447500Y-39380016D02*
G01*
X50967500Y-39380016D01*
X51207500Y-39050016D01*
X51447500Y-39380016D01*
G37*
%TO.C,R13*%
X62823858Y-45733516D02*
X63131140Y-45733516D01*
X62823858Y-46241516D02*
X63131140Y-46241516D01*
%TO.C,R49*%
X46493500Y-35611157D02*
X46493500Y-35303875D01*
X47001500Y-35611157D02*
X47001500Y-35303875D01*
%TO.C,R51*%
X34211113Y-114914716D02*
X33903831Y-114914716D01*
X34211113Y-115422716D02*
X33903831Y-115422716D01*
%TO.C,AM1:6*%
D10*
X78422500Y-45402516D02*
X77437500Y-45402516D01*
X78422500Y-45402516D02*
X78422500Y-46387516D01*
X78422500Y-59372516D02*
X77437500Y-59372516D01*
X78422500Y-59372516D02*
X78422500Y-58387516D01*
D14*
X74931278Y-55637516D02*
G75*
G02*
X74443722Y-55637516I-243778J0D01*
G01*
X74443722Y-55637516D02*
G75*
G02*
X74931278Y-55637516I243778J0D01*
G01*
%TO.C,C64*%
D11*
X50033500Y-70883148D02*
X50033500Y-71098820D01*
X50541500Y-70883148D02*
X50541500Y-71098820D01*
%TO.C,R95*%
X111201140Y-41683516D02*
X110893858Y-41683516D01*
X111201140Y-42191516D02*
X110893858Y-42191516D01*
%TO.C,R63*%
X30983500Y-129783875D02*
X30983500Y-130091157D01*
X31491500Y-129783875D02*
X31491500Y-130091157D01*
%TO.C,C102*%
X110027560Y-56149128D02*
X110027560Y-56364800D01*
X110535560Y-56149128D02*
X110535560Y-56364800D01*
%TO.C,LED6*%
D12*
X32067500Y-32037500D02*
X32321500Y-32037500D01*
X32067500Y-32157500D02*
X32067500Y-32037500D01*
X32067500Y-32957500D02*
X32067500Y-32917500D01*
X32067500Y-33757500D02*
X32067500Y-33717500D01*
X32067500Y-34577500D02*
X32067500Y-34517500D01*
X32321500Y-32037500D02*
X34607500Y-32037500D01*
X34607500Y-32037500D02*
X34607500Y-32157500D01*
X34607500Y-32917500D02*
X34607500Y-32957500D01*
X34607500Y-33717500D02*
X34607500Y-33757500D01*
X34607500Y-34517500D02*
X34607500Y-34577500D01*
X34607500Y-34577500D02*
X32067500Y-34577500D01*
D13*
X31727500Y-32497500D02*
G75*
G02*
X31587500Y-32497500I-70000J0D01*
G01*
X31587500Y-32497500D02*
G75*
G02*
X31727500Y-32497500I70000J0D01*
G01*
D11*
X33252500Y-34252500D02*
X33252500Y-34002500D01*
X33522500Y-34132500D01*
X33252500Y-34252500D01*
G36*
X33522500Y-34132500D02*
G01*
X33252500Y-34252500D01*
X33252500Y-34002500D01*
X33522500Y-34132500D01*
G37*
%TO.C,C16*%
X71679664Y-61433516D02*
X71895336Y-61433516D01*
X71679664Y-61941516D02*
X71895336Y-61941516D01*
%TO.C,C37*%
X56345336Y-124883516D02*
X56129664Y-124883516D01*
X56345336Y-125391516D02*
X56129664Y-125391516D01*
%TO.C,U1*%
X58631000Y-65242400D02*
X58631000Y-64292400D01*
X59581000Y-54942400D02*
X58391000Y-54942400D01*
X59581000Y-65242400D02*
X58631000Y-65242400D01*
X67981000Y-54942400D02*
X68931000Y-54942400D01*
X67981000Y-65242400D02*
X68931000Y-65242400D01*
X68931000Y-54942400D02*
X68931000Y-55892400D01*
X68931000Y-65242400D02*
X68931000Y-64292400D01*
%TO.C,AM1:1*%
D10*
X83502500Y-102552564D02*
X83502500Y-103537564D01*
X83502500Y-102552564D02*
X84487500Y-102552564D01*
X83502500Y-116522564D02*
X83502500Y-115537564D01*
X83502500Y-116522564D02*
X84487500Y-116522564D01*
X97472500Y-102552564D02*
X96487500Y-102552564D01*
X97472500Y-102552564D02*
X97472500Y-103537564D01*
X97472500Y-116522564D02*
X96487500Y-116522564D01*
X97472500Y-116522564D02*
X97472500Y-115537564D01*
D14*
X93981278Y-112787564D02*
G75*
G02*
X93493722Y-112787564I-243778J0D01*
G01*
X93493722Y-112787564D02*
G75*
G02*
X93981278Y-112787564I243778J0D01*
G01*
%TO.C,C91*%
D11*
X90977576Y-94249192D02*
X90977576Y-94464864D01*
X91485576Y-94249192D02*
X91485576Y-94464864D01*
%TO.C,C53*%
X73267060Y-108983116D02*
X73267060Y-109198788D01*
X73775060Y-108983116D02*
X73775060Y-109198788D01*
%TO.C,C26*%
X94533500Y-43879664D02*
X94533500Y-44095336D01*
X95041500Y-43879664D02*
X95041500Y-44095336D01*
%TO.C,LED28*%
D12*
X108267500Y-70137500D02*
X108521500Y-70137500D01*
X108267500Y-70257500D02*
X108267500Y-70137500D01*
X108267500Y-71057500D02*
X108267500Y-71017500D01*
X108267500Y-71857500D02*
X108267500Y-71817500D01*
X108267500Y-72677500D02*
X108267500Y-72617500D01*
X108521500Y-70137500D02*
X110807500Y-70137500D01*
X110807500Y-70137500D02*
X110807500Y-70257500D01*
X110807500Y-71017500D02*
X110807500Y-71057500D01*
X110807500Y-71817500D02*
X110807500Y-71857500D01*
X110807500Y-72617500D02*
X110807500Y-72677500D01*
X110807500Y-72677500D02*
X108267500Y-72677500D01*
D13*
X107927500Y-70597500D02*
G75*
G02*
X107787500Y-70597500I-70000J0D01*
G01*
X107787500Y-70597500D02*
G75*
G02*
X107927500Y-70597500I70000J0D01*
G01*
D11*
X109452500Y-72352500D02*
X109452500Y-72102500D01*
X109722500Y-72232500D01*
X109452500Y-72352500D01*
G36*
X109722500Y-72232500D02*
G01*
X109452500Y-72352500D01*
X109452500Y-72102500D01*
X109722500Y-72232500D01*
G37*
%TO.C,H0:6*%
X54877500Y-35027500D02*
X56397500Y-35027500D01*
X54877500Y-36027500D02*
X54877500Y-35027500D01*
X54877500Y-38147500D02*
X54877500Y-37147500D01*
X56397500Y-35027500D02*
X56397500Y-35077500D01*
X56397500Y-36197500D02*
X56397500Y-36977500D01*
X56397500Y-38097500D02*
X56397500Y-38147500D01*
X56397500Y-38147500D02*
X54877500Y-38147500D01*
X56937500Y-36967500D02*
X56697500Y-36637500D01*
X57177500Y-36637500D01*
X56937500Y-36967500D01*
G36*
X56937500Y-36967500D02*
G01*
X56697500Y-36637500D01*
X57177500Y-36637500D01*
X56937500Y-36967500D01*
G37*
%TO.C,H1:10*%
X112027484Y-54077516D02*
X113547484Y-54077516D01*
X112027484Y-55077516D02*
X112027484Y-54077516D01*
X112027484Y-57197516D02*
X112027484Y-56197516D01*
X113547484Y-54077516D02*
X113547484Y-54127516D01*
X113547484Y-55247516D02*
X113547484Y-56027516D01*
X113547484Y-57147516D02*
X113547484Y-57197516D01*
X113547484Y-57197516D02*
X112027484Y-57197516D01*
X114087484Y-56017516D02*
X113847484Y-55687516D01*
X114327484Y-55687516D01*
X114087484Y-56017516D01*
G36*
X114087484Y-56017516D02*
G01*
X113847484Y-55687516D01*
X114327484Y-55687516D01*
X114087484Y-56017516D01*
G37*
%TO.C,LED27*%
D12*
X108267500Y-89187500D02*
X108521500Y-89187500D01*
X108267500Y-89307500D02*
X108267500Y-89187500D01*
X108267500Y-90107500D02*
X108267500Y-90067500D01*
X108267500Y-90907500D02*
X108267500Y-90867500D01*
X108267500Y-91727500D02*
X108267500Y-91667500D01*
X108521500Y-89187500D02*
X110807500Y-89187500D01*
X110807500Y-89187500D02*
X110807500Y-89307500D01*
X110807500Y-90067500D02*
X110807500Y-90107500D01*
X110807500Y-90867500D02*
X110807500Y-90907500D01*
X110807500Y-91667500D02*
X110807500Y-91727500D01*
X110807500Y-91727500D02*
X108267500Y-91727500D01*
D13*
X107927500Y-89647500D02*
G75*
G02*
X107787500Y-89647500I-70000J0D01*
G01*
X107787500Y-89647500D02*
G75*
G02*
X107927500Y-89647500I70000J0D01*
G01*
D11*
X109452500Y-91402500D02*
X109452500Y-91152500D01*
X109722500Y-91282500D01*
X109452500Y-91402500D01*
G36*
X109722500Y-91282500D02*
G01*
X109452500Y-91402500D01*
X109452500Y-91152500D01*
X109722500Y-91282500D01*
G37*
%TO.C,R41*%
X69966141Y-77208500D02*
X69658859Y-77208500D01*
X69966141Y-77716500D02*
X69658859Y-77716500D01*
%TO.C,C20*%
X71173164Y-55538400D02*
X71388836Y-55538400D01*
X71173164Y-56046400D02*
X71388836Y-56046400D01*
%TO.C,R103*%
X52663500Y-37793876D02*
X52663500Y-38101158D01*
X53171500Y-37793876D02*
X53171500Y-38101158D01*
%TO.C,AM1:2*%
D10*
X83502500Y-121602580D02*
X83502500Y-122587580D01*
X83502500Y-121602580D02*
X84487500Y-121602580D01*
X97472500Y-135572580D02*
X96487500Y-135572580D01*
X97472500Y-135572580D02*
X97472500Y-134587580D01*
D14*
X93981278Y-131837580D02*
G75*
G02*
X93493722Y-131837580I-243778J0D01*
G01*
X93493722Y-131837580D02*
G75*
G02*
X93981278Y-131837580I243778J0D01*
G01*
%TO.C,C79*%
D11*
X52877608Y-132349256D02*
X52877608Y-132564928D01*
X53385608Y-132349256D02*
X53385608Y-132564928D01*
%TO.C,U7*%
X71870748Y-46927516D02*
X73680000Y-46927516D01*
X73680000Y-49147516D02*
X71460000Y-49147516D01*
X71580000Y-46917516D02*
X71440000Y-46727516D01*
X71720000Y-46727516D01*
X71580000Y-46917516D01*
G36*
X71580000Y-46917516D02*
G01*
X71440000Y-46727516D01*
X71720000Y-46727516D01*
X71580000Y-46917516D01*
G37*
%TO.C,LED13*%
D12*
X70167500Y-127287500D02*
X70421500Y-127287500D01*
X70167500Y-127407500D02*
X70167500Y-127287500D01*
X70167500Y-128207500D02*
X70167500Y-128167500D01*
X70167500Y-129007500D02*
X70167500Y-128967500D01*
X70167500Y-129827500D02*
X70167500Y-129767500D01*
X70421500Y-127287500D02*
X72707500Y-127287500D01*
X72707500Y-127287500D02*
X72707500Y-127407500D01*
X72707500Y-128167500D02*
X72707500Y-128207500D01*
X72707500Y-128967500D02*
X72707500Y-129007500D01*
X72707500Y-129767500D02*
X72707500Y-129827500D01*
X72707500Y-129827500D02*
X70167500Y-129827500D01*
D13*
X69827500Y-127747500D02*
G75*
G02*
X69687500Y-127747500I-70000J0D01*
G01*
X69687500Y-127747500D02*
G75*
G02*
X69827500Y-127747500I70000J0D01*
G01*
D11*
X71352500Y-129502500D02*
X71352500Y-129252500D01*
X71622500Y-129382500D01*
X71352500Y-129502500D01*
G36*
X71622500Y-129382500D02*
G01*
X71352500Y-129502500D01*
X71352500Y-129252500D01*
X71622500Y-129382500D01*
G37*
%TD*%
%LPC*%
D16*
%TO.C,R100*%
X73537500Y-39927516D03*
X73537500Y-40947516D03*
%TD*%
D17*
%TO.C,C100*%
X77182492Y-55692492D03*
X77182492Y-56652492D03*
%TD*%
%TO.C,C85*%
X72181592Y-112927060D03*
X72181592Y-113887060D03*
%TD*%
D18*
%TO.C,R83*%
X100927500Y-52587500D03*
X101947500Y-52587500D03*
%TD*%
D17*
%TO.C,C95*%
X72181592Y-74826996D03*
X72181592Y-75786996D03*
%TD*%
D19*
%TO.C,H1:8*%
X94675000Y-75637500D03*
X94675000Y-73737500D03*
X92800000Y-74687500D03*
%TD*%
D20*
%TO.C,LED8*%
X53235500Y-53187500D03*
X53235500Y-52387500D03*
X53235500Y-51587500D03*
X51539500Y-51587500D03*
X51539500Y-52387500D03*
X51539500Y-53187500D03*
%TD*%
D21*
%TO.C,R98*%
X73337500Y-44047516D03*
X73337500Y-43027516D03*
%TD*%
D19*
%TO.C,H1:4*%
X94675000Y-37537532D03*
X94675000Y-35637532D03*
X92800000Y-36587532D03*
%TD*%
D22*
%TO.C,D3*%
X35077500Y-65917516D03*
X35077500Y-62417516D03*
%TD*%
D17*
%TO.C,C73*%
X73521060Y-32411016D03*
X73521060Y-33371016D03*
%TD*%
D23*
%TO.C,PD1*%
X44165000Y-38547516D03*
X44165000Y-39047516D03*
X44165000Y-39547516D03*
D24*
X44677500Y-40310016D03*
X45177500Y-40310016D03*
X45677500Y-40310016D03*
X46177500Y-40310016D03*
D23*
X46690000Y-39547516D03*
X46690000Y-39047516D03*
X46690000Y-38547516D03*
D24*
X46177500Y-37785016D03*
X45677500Y-37785016D03*
X45177500Y-37785016D03*
X44677500Y-37785016D03*
D25*
X45427500Y-39047516D03*
%TD*%
D26*
%TO.C,H2*%
X100012556Y-135731336D03*
%TD*%
D20*
%TO.C,LED30*%
X108689500Y-32537500D03*
X108689500Y-33337500D03*
X108689500Y-34137500D03*
X110385500Y-34137500D03*
X110385500Y-33337500D03*
X110385500Y-32537500D03*
%TD*%
D16*
%TO.C,R23*%
X73637500Y-66787516D03*
X73637500Y-67807516D03*
%TD*%
D17*
%TO.C,C24*%
X74457500Y-47077516D03*
X74457500Y-48037516D03*
%TD*%
D16*
%TO.C,R19*%
X85487500Y-43477532D03*
X85487500Y-44497532D03*
%TD*%
D19*
%TO.C,H1:3*%
X94675000Y-56587516D03*
X94675000Y-54687516D03*
X92800000Y-55637516D03*
%TD*%
D18*
%TO.C,R12*%
X74397500Y-49037516D03*
X75417500Y-49037516D03*
%TD*%
D17*
%TO.C,C10*%
X65087500Y-67912400D03*
X65087500Y-68872400D03*
%TD*%
D27*
%TO.C,U12*%
X96800000Y-120177517D03*
X96800000Y-121127517D03*
X96800000Y-122077517D03*
X99075000Y-122077517D03*
X99075000Y-120177517D03*
%TD*%
D18*
%TO.C,R72*%
X100227500Y-88937516D03*
X101247500Y-88937516D03*
%TD*%
D16*
%TO.C,R4*%
X28574988Y-77263540D03*
X28574988Y-78283540D03*
%TD*%
D28*
%TO.C,C44*%
X58377500Y-105937516D03*
X59337500Y-105937516D03*
%TD*%
D29*
%TO.C,C76*%
X100537500Y-120207517D03*
X100537500Y-119247517D03*
%TD*%
D18*
%TO.C,R86*%
X54599214Y-62236355D03*
X55619214Y-62236355D03*
%TD*%
D20*
%TO.C,LED23*%
X91335500Y-110337500D03*
X91335500Y-109537500D03*
X91335500Y-108737500D03*
X89639500Y-108737500D03*
X89639500Y-109537500D03*
X89639500Y-110337500D03*
%TD*%
D28*
%TO.C,C74*%
X49507500Y-33337500D03*
X50467500Y-33337500D03*
%TD*%
D17*
%TO.C,C51*%
X111621028Y-108610952D03*
X111621028Y-109570952D03*
%TD*%
D20*
%TO.C,LED24*%
X91335500Y-129387500D03*
X91335500Y-128587500D03*
X91335500Y-127787500D03*
X89639500Y-127787500D03*
X89639500Y-128587500D03*
X89639500Y-129387500D03*
%TD*%
D30*
%TO.C,H1*%
X117276633Y-25598431D03*
%TD*%
D28*
%TO.C,C57*%
X49357500Y-90487500D03*
X50317500Y-90487500D03*
%TD*%
D29*
%TO.C,C12*%
X62781000Y-51772400D03*
X62781000Y-50812400D03*
%TD*%
D20*
%TO.C,LED1*%
X32489500Y-127787580D03*
X32489500Y-128587580D03*
X32489500Y-129387580D03*
X34185500Y-129387580D03*
X34185500Y-128587580D03*
X34185500Y-127787580D03*
%TD*%
D31*
%TO.C,R61*%
X49247500Y-85787500D03*
X48227500Y-85787500D03*
%TD*%
D17*
%TO.C,C117*%
X97237500Y-85977516D03*
X97237500Y-86937516D03*
%TD*%
%TO.C,C23*%
X70657500Y-47877516D03*
X70657500Y-48837516D03*
%TD*%
D29*
%TO.C,C49*%
X88387500Y-129567500D03*
X88387500Y-128607500D03*
%TD*%
D31*
%TO.C,R69*%
X66747500Y-124337516D03*
X65727500Y-124337516D03*
%TD*%
D20*
%TO.C,LED10*%
X53235500Y-91287500D03*
X53235500Y-90487500D03*
X53235500Y-89687500D03*
X51539500Y-89687500D03*
X51539500Y-90487500D03*
X51539500Y-91287500D03*
%TD*%
D32*
%TO.C,C56*%
X36347576Y-90487452D03*
X35387576Y-90487452D03*
%TD*%
D17*
%TO.C,C32*%
X92689500Y-62410032D03*
X92689500Y-63370032D03*
%TD*%
D33*
%TO.C,USB2*%
X30584683Y-113791320D03*
X30584683Y-119571320D03*
D34*
X31724683Y-113481320D03*
X31724683Y-114281320D03*
D35*
X31724683Y-115431320D03*
X31724683Y-116431320D03*
X31724683Y-116931320D03*
X31724683Y-117931320D03*
D34*
X31724683Y-119081320D03*
X31724683Y-119881320D03*
X31724683Y-119881320D03*
X31724683Y-119081320D03*
D35*
X31724683Y-118431320D03*
X31724683Y-117431320D03*
X31724683Y-115931320D03*
X31724683Y-114931320D03*
D34*
X31724683Y-114281320D03*
X31724683Y-113481320D03*
D36*
X31084683Y-112361320D03*
D37*
X26904683Y-112361320D03*
D36*
X31084683Y-121001320D03*
D37*
X26904683Y-121001320D03*
%TD*%
D18*
%TO.C,R50*%
X35827500Y-118537500D03*
X36847500Y-118537500D03*
%TD*%
%TO.C,R31*%
X53427500Y-117037516D03*
X54447500Y-117037516D03*
%TD*%
D29*
%TO.C,C47*%
X50537500Y-131217500D03*
X50537500Y-130257500D03*
%TD*%
D26*
%TO.C,H12*%
X80962444Y-119062412D03*
%TD*%
D17*
%TO.C,C22*%
X64067500Y-38597516D03*
X64067500Y-39557516D03*
%TD*%
D20*
%TO.C,LED5*%
X32489500Y-51587500D03*
X32489500Y-52387500D03*
X32489500Y-53187500D03*
X34185500Y-53187500D03*
X34185500Y-52387500D03*
X34185500Y-51587500D03*
%TD*%
%TO.C,LED25*%
X108689500Y-127787500D03*
X108689500Y-128587500D03*
X108689500Y-129387500D03*
X110385500Y-129387500D03*
X110385500Y-128587500D03*
X110385500Y-127787500D03*
%TD*%
D17*
%TO.C,C80*%
X72181592Y-131977092D03*
X72181592Y-132937092D03*
%TD*%
D38*
%TO.C,L1*%
X66077564Y-51465895D03*
X67477564Y-51465895D03*
%TD*%
D17*
%TO.C,C90*%
X72181592Y-93877028D03*
X72181592Y-94837028D03*
%TD*%
D39*
%TO.C,D4*%
X55087500Y-107375000D03*
X56987500Y-107375000D03*
X56037500Y-105500000D03*
%TD*%
D18*
%TO.C,R84*%
X56627500Y-52337516D03*
X57647500Y-52337516D03*
%TD*%
D17*
%TO.C,C25*%
X92787500Y-43507500D03*
X92787500Y-44467500D03*
%TD*%
D19*
%TO.C,H1:13*%
X113724984Y-113737468D03*
X113724984Y-111837468D03*
X111849984Y-112787468D03*
%TD*%
D31*
%TO.C,R42*%
X62197500Y-38587500D03*
X61177500Y-38587500D03*
%TD*%
D21*
%TO.C,R55*%
X64447501Y-80547516D03*
X64447501Y-79527516D03*
%TD*%
D16*
%TO.C,R18*%
X85487500Y-45477532D03*
X85487500Y-46497532D03*
%TD*%
D32*
%TO.C,C3*%
X62886000Y-70512400D03*
X61926000Y-70512400D03*
%TD*%
D30*
%TO.C,H10*%
X117276633Y-136326649D03*
%TD*%
D17*
%TO.C,C107*%
X110281560Y-36726932D03*
X110281560Y-37686932D03*
%TD*%
D26*
%TO.C,J19*%
X117276633Y-123507580D03*
X117276633Y-126047580D03*
X117276633Y-128587580D03*
X117276633Y-131127580D03*
X117276633Y-133667580D03*
%TD*%
D40*
%TO.C,H1:12*%
X113737500Y-92800048D03*
X111837500Y-92800048D03*
X112787500Y-94675048D03*
%TD*%
D29*
%TO.C,C125*%
X75537500Y-41917516D03*
X75537500Y-40957516D03*
%TD*%
D19*
%TO.C,H0:2*%
X37525000Y-94687548D03*
X37525000Y-92787548D03*
X35650000Y-93737548D03*
%TD*%
D20*
%TO.C,LED15*%
X70589500Y-89687548D03*
X70589500Y-90487548D03*
X70589500Y-91287548D03*
X72285500Y-91287548D03*
X72285500Y-90487548D03*
X72285500Y-89687548D03*
%TD*%
D29*
%TO.C,C54*%
X50837500Y-112217500D03*
X50837500Y-111257500D03*
%TD*%
D41*
%TO.C,U3*%
X53193500Y-45549992D03*
X53193500Y-46819992D03*
X53193500Y-48089992D03*
X53193500Y-49359992D03*
X60368500Y-49359992D03*
X60368500Y-48089992D03*
X60368500Y-46819992D03*
X60368500Y-45549992D03*
%TD*%
D19*
%TO.C,H1:14*%
X113725000Y-132787580D03*
X113725000Y-130887580D03*
X111850000Y-131837580D03*
%TD*%
D16*
%TO.C,R68*%
X98337500Y-86517517D03*
X98337500Y-87537517D03*
%TD*%
D17*
%TO.C,C83*%
X39112500Y-112807532D03*
X39112500Y-113767532D03*
%TD*%
D42*
%TO.C,C7*%
X66266000Y-53092400D03*
X67296000Y-53092400D03*
%TD*%
D29*
%TO.C,C127*%
X36037500Y-121517516D03*
X36037500Y-120557516D03*
%TD*%
D21*
%TO.C,R90*%
X27287500Y-53457500D03*
X27287500Y-52437500D03*
%TD*%
D17*
%TO.C,C120*%
X109547499Y-45357516D03*
X109547499Y-46317516D03*
%TD*%
D21*
%TO.C,R28*%
X57937500Y-126257515D03*
X57937500Y-125237515D03*
%TD*%
D17*
%TO.C,C87*%
X110281560Y-112927060D03*
X110281560Y-113887060D03*
%TD*%
D43*
%TO.C,U13*%
X45534992Y-33525000D03*
X45034992Y-33525000D03*
X44534992Y-33525000D03*
X44534992Y-34950000D03*
X45534992Y-34950000D03*
%TD*%
D17*
%TO.C,C105*%
X72181592Y-36726932D03*
X72181592Y-37686932D03*
%TD*%
D20*
%TO.C,LED19*%
X91335500Y-34137500D03*
X91335500Y-33337500D03*
X91335500Y-32537500D03*
X89639500Y-32537500D03*
X89639500Y-33337500D03*
X89639500Y-34137500D03*
%TD*%
D18*
%TO.C,R91*%
X78067500Y-33437500D03*
X79087500Y-33437500D03*
%TD*%
D28*
%TO.C,C129*%
X50407500Y-35337516D03*
X51367500Y-35337516D03*
%TD*%
D26*
%TO.C,J10*%
X28257500Y-25598431D03*
X30797500Y-25598431D03*
X33337500Y-25598431D03*
X35877500Y-25598431D03*
X38417500Y-25598431D03*
%TD*%
D21*
%TO.C,R26*%
X86389500Y-63400032D03*
X86389500Y-62380032D03*
%TD*%
D26*
%TO.C,J17*%
X25598431Y-133667580D03*
X25598431Y-131127580D03*
X25598431Y-128587580D03*
X25598431Y-126047580D03*
X25598431Y-123507580D03*
%TD*%
D21*
%TO.C,R21*%
X58937500Y-119837517D03*
X58937500Y-118817517D03*
%TD*%
D44*
%TO.C,Q14*%
X46582500Y-45460016D03*
X45312500Y-45460016D03*
X44042500Y-45460016D03*
X42772500Y-45460016D03*
X42772500Y-50535016D03*
X44042500Y-50535016D03*
X45312500Y-50535016D03*
X46582500Y-50535016D03*
%TD*%
D18*
%TO.C,R11*%
X62887499Y-47147516D03*
X63907499Y-47147516D03*
%TD*%
D16*
%TO.C,R1*%
X56467500Y-42957516D03*
X56467500Y-43977516D03*
%TD*%
D21*
%TO.C,R65*%
X92237500Y-85147516D03*
X92237500Y-84127516D03*
%TD*%
D45*
%TO.C,U16*%
X113284999Y-45087516D03*
X113284999Y-44137516D03*
X113284999Y-43187516D03*
X111009999Y-43187516D03*
X111009999Y-45087516D03*
%TD*%
D17*
%TO.C,C81*%
X91231576Y-131977092D03*
X91231576Y-132937092D03*
%TD*%
D29*
%TO.C,C128*%
X41597500Y-120907516D03*
X41597500Y-119947516D03*
%TD*%
D39*
%TO.C,Q9*%
X102687500Y-91375016D03*
X104587500Y-91375016D03*
X103637500Y-89500016D03*
%TD*%
D28*
%TO.C,C111*%
X71307500Y-59737516D03*
X72267500Y-59737516D03*
%TD*%
%TO.C,C59*%
X87507500Y-90537500D03*
X88467500Y-90537500D03*
%TD*%
D18*
%TO.C,R29*%
X55827500Y-108937516D03*
X56847500Y-108937516D03*
%TD*%
D20*
%TO.C,LED22*%
X91335500Y-91287500D03*
X91335500Y-90487500D03*
X91335500Y-89687500D03*
X89639500Y-89687500D03*
X89639500Y-90487500D03*
X89639500Y-91287500D03*
%TD*%
D21*
%TO.C,R53*%
X62437500Y-80547516D03*
X62437500Y-79527516D03*
%TD*%
D31*
%TO.C,R33*%
X80247500Y-110537516D03*
X79227500Y-110537516D03*
%TD*%
D32*
%TO.C,C109*%
X88517500Y-76037516D03*
X87557500Y-76037516D03*
%TD*%
D17*
%TO.C,C75*%
X35387500Y-32407500D03*
X35387500Y-33367500D03*
%TD*%
D28*
%TO.C,C116*%
X100982500Y-37437500D03*
X101942500Y-37437500D03*
%TD*%
D21*
%TO.C,R101*%
X66674956Y-68885579D03*
X66674956Y-67865579D03*
%TD*%
%TO.C,R77*%
X71937500Y-121847516D03*
X71937500Y-120827516D03*
%TD*%
D17*
%TO.C,C123*%
X74637500Y-66817516D03*
X74637500Y-67777516D03*
%TD*%
D28*
%TO.C,C33*%
X87109500Y-65590032D03*
X88069500Y-65590032D03*
%TD*%
D19*
%TO.C,Q1*%
X78475000Y-102287516D03*
X78475000Y-100387516D03*
X76600000Y-101337516D03*
%TD*%
D16*
%TO.C,R52*%
X91237500Y-84127516D03*
X91237500Y-85147516D03*
%TD*%
D29*
%TO.C,C124*%
X74337500Y-44017516D03*
X74337500Y-43057516D03*
%TD*%
D32*
%TO.C,C113*%
X59552492Y-67852492D03*
X58592492Y-67852492D03*
%TD*%
D20*
%TO.C,LED26*%
X108689500Y-108737500D03*
X108689500Y-109537500D03*
X108689500Y-110337500D03*
X110385500Y-110337500D03*
X110385500Y-109537500D03*
X110385500Y-108737500D03*
%TD*%
D31*
%TO.C,R16*%
X100647500Y-74487500D03*
X99627500Y-74487500D03*
%TD*%
D46*
%TO.C,Q4*%
X98257500Y-34675000D03*
X99527500Y-34675000D03*
X100797500Y-34675000D03*
X102067500Y-34675000D03*
X102067500Y-29600000D03*
X100797500Y-29600000D03*
X99527500Y-29600000D03*
X98257500Y-29600000D03*
%TD*%
D17*
%TO.C,C72*%
X88387500Y-32411016D03*
X88387500Y-33371016D03*
%TD*%
%TO.C,C46*%
X35421092Y-127660936D03*
X35421092Y-128620936D03*
%TD*%
D33*
%TO.C,J8*%
X57151593Y-135612412D03*
X67151593Y-135612412D03*
D47*
X68401593Y-135112412D03*
X65901593Y-135112412D03*
X63401593Y-135112412D03*
X60901593Y-135112412D03*
X58401593Y-135112412D03*
X55901593Y-135112412D03*
%TD*%
D31*
%TO.C,R94*%
X74647500Y-68697516D03*
X73627500Y-68697516D03*
%TD*%
D18*
%TO.C,R6*%
X54427500Y-51707516D03*
X55447500Y-51707516D03*
%TD*%
D48*
%TO.C,Q7*%
X35695000Y-105172516D03*
X35695000Y-103902516D03*
X35695000Y-102632516D03*
X35695000Y-101362516D03*
X30620000Y-101362516D03*
X30620000Y-102632516D03*
X30620000Y-103902516D03*
X30620000Y-105172516D03*
%TD*%
D17*
%TO.C,C71*%
X111621028Y-32411016D03*
X111621028Y-33371016D03*
%TD*%
%TO.C,C89*%
X53131608Y-93877028D03*
X53131608Y-94837028D03*
%TD*%
D49*
%TO.C,Q5*%
X100162500Y-83727516D03*
X100162500Y-84997516D03*
X100162500Y-86267516D03*
X100162500Y-87537516D03*
X105237500Y-87537516D03*
X105237500Y-86267516D03*
X105237500Y-84997516D03*
X105237500Y-83727516D03*
%TD*%
D16*
%TO.C,R8*%
X64781000Y-50782400D03*
X64781000Y-51802400D03*
%TD*%
D18*
%TO.C,R46*%
X51477500Y-116887500D03*
X52497500Y-116887500D03*
%TD*%
D16*
%TO.C,R24*%
X85389500Y-64380032D03*
X85389500Y-65400032D03*
%TD*%
D31*
%TO.C,R15*%
X100197500Y-56187500D03*
X99177500Y-56187500D03*
%TD*%
D50*
%TO.C,C34*%
X97964500Y-69890032D03*
X95014500Y-69890032D03*
%TD*%
D51*
%TO.C,U4*%
X65262500Y-46565016D03*
X66532500Y-46565016D03*
X67802500Y-46565016D03*
X69072500Y-46565016D03*
X69072500Y-39390016D03*
X67802500Y-39390016D03*
X66532500Y-39390016D03*
X65262500Y-39390016D03*
%TD*%
D16*
%TO.C,R5*%
X76849631Y-66775385D03*
X76849631Y-67795385D03*
%TD*%
D26*
%TO.C,H15*%
X61912460Y-119062412D03*
%TD*%
D17*
%TO.C,C97*%
X110281560Y-74826996D03*
X110281560Y-75786996D03*
%TD*%
D32*
%TO.C,C17*%
X56141620Y-63847144D03*
X55181620Y-63847144D03*
%TD*%
D17*
%TO.C,C103*%
X34081624Y-36726932D03*
X34081624Y-37686932D03*
%TD*%
D16*
%TO.C,R79*%
X105562500Y-33227500D03*
X105562500Y-34247500D03*
%TD*%
D50*
%TO.C,C35*%
X94764500Y-67190032D03*
X91814500Y-67190032D03*
%TD*%
D26*
%TO.C,J20*%
X117276633Y-28257500D03*
X117276633Y-30797500D03*
X117276633Y-33337500D03*
X117276633Y-35877500D03*
X117276633Y-38417500D03*
%TD*%
D52*
%TO.C,FID2*%
X26193744Y-47029699D03*
%TD*%
D40*
%TO.C,U10*%
X61437500Y-122300000D03*
X59537500Y-122300000D03*
X60487500Y-124175000D03*
%TD*%
D18*
%TO.C,R45*%
X69302500Y-79362500D03*
X70322500Y-79362500D03*
%TD*%
D19*
%TO.C,H0:11*%
X75625000Y-132787580D03*
X75625000Y-130887580D03*
X73750000Y-131837580D03*
%TD*%
D49*
%TO.C,Q2*%
X54162500Y-99827516D03*
X54162500Y-101097516D03*
X54162500Y-102367516D03*
X54162500Y-103637516D03*
X59237500Y-103637516D03*
X59237500Y-102367516D03*
X59237500Y-101097516D03*
X59237500Y-99827516D03*
%TD*%
D20*
%TO.C,LED20*%
X91335500Y-53187500D03*
X91335500Y-52387500D03*
X91335500Y-51587500D03*
X89639500Y-51587500D03*
X89639500Y-52387500D03*
X89639500Y-53187500D03*
%TD*%
D16*
%TO.C,R47*%
X81937500Y-107727516D03*
X81937500Y-108747516D03*
%TD*%
%TO.C,R7*%
X63781000Y-50782400D03*
X63781000Y-51802400D03*
%TD*%
D29*
%TO.C,C130*%
X54137500Y-38617516D03*
X54137500Y-37657516D03*
%TD*%
%TO.C,C36*%
X84389500Y-63370032D03*
X84389500Y-62410032D03*
%TD*%
D17*
%TO.C,C94*%
X53131608Y-74826996D03*
X53131608Y-75786996D03*
%TD*%
D29*
%TO.C,C67*%
X50337500Y-53117500D03*
X50337500Y-52157500D03*
%TD*%
D33*
%TO.C,J3*%
X116562572Y-69054707D03*
X116562572Y-59054707D03*
D53*
X116062572Y-57804707D03*
X116062572Y-60304707D03*
X116062572Y-62804707D03*
X116062572Y-65304707D03*
X116062572Y-67804707D03*
X116062572Y-70304707D03*
%TD*%
D29*
%TO.C,C119*%
X38537500Y-102317516D03*
X38537500Y-101357516D03*
%TD*%
D17*
%TO.C,C99*%
X53131608Y-55776964D03*
X53131608Y-56736964D03*
%TD*%
D18*
%TO.C,R66*%
X48227500Y-86737500D03*
X49247500Y-86737500D03*
%TD*%
D54*
%TO.C,R48*%
X42158124Y-35026892D03*
X41436876Y-35748140D03*
%TD*%
D19*
%TO.C,H0:3*%
X37525000Y-75637532D03*
X37525000Y-73737532D03*
X35650000Y-74687532D03*
%TD*%
D31*
%TO.C,R62*%
X48147500Y-133817516D03*
X47127500Y-133817516D03*
%TD*%
D17*
%TO.C,C62*%
X88387500Y-70457500D03*
X88387500Y-71417500D03*
%TD*%
D26*
%TO.C,J16*%
X38417500Y-136326649D03*
X35877500Y-136326649D03*
X33337500Y-136326649D03*
X30797500Y-136326649D03*
X28257500Y-136326649D03*
%TD*%
D16*
%TO.C,R3*%
X68981000Y-51232400D03*
X68981000Y-52252400D03*
%TD*%
D55*
%TO.C,C40*%
X36362500Y-81237516D03*
X39312500Y-81237516D03*
%TD*%
D17*
%TO.C,C50*%
X111621028Y-127694452D03*
X111621028Y-128654452D03*
%TD*%
%TO.C,C18*%
X70246828Y-64557848D03*
X70246828Y-65517848D03*
%TD*%
D33*
%TO.C,J1*%
X67151593Y-26312492D03*
X57151593Y-26312492D03*
D47*
X55901593Y-26812492D03*
X58401593Y-26812492D03*
X60901593Y-26812492D03*
X63401593Y-26812492D03*
X65901593Y-26812492D03*
X68401593Y-26812492D03*
%TD*%
D29*
%TO.C,C63*%
X73637500Y-72467500D03*
X73637500Y-71507500D03*
%TD*%
D32*
%TO.C,C115*%
X38417500Y-79537516D03*
X37457500Y-79537516D03*
%TD*%
D56*
%TO.C,U15*%
X99254052Y-72183032D03*
X99254052Y-72833032D03*
X99254052Y-73483032D03*
X100929052Y-73483032D03*
X100929052Y-72833032D03*
X100929052Y-72183032D03*
%TD*%
D32*
%TO.C,C8*%
X56317500Y-60137516D03*
X55357500Y-60137516D03*
%TD*%
D57*
%TO.C,C31*%
X94389500Y-61615032D03*
X94389500Y-64565032D03*
%TD*%
D20*
%TO.C,LED4*%
X32489500Y-70637500D03*
X32489500Y-71437500D03*
X32489500Y-72237500D03*
X34185500Y-72237500D03*
X34185500Y-71437500D03*
X34185500Y-70637500D03*
%TD*%
D31*
%TO.C,R38*%
X87609500Y-60990032D03*
X86589500Y-60990032D03*
%TD*%
D26*
%TO.C,H5*%
X116681320Y-119062572D03*
%TD*%
D16*
%TO.C,R92*%
X100537500Y-121117517D03*
X100537500Y-122137517D03*
%TD*%
D17*
%TO.C,C52*%
X88387500Y-108607500D03*
X88387500Y-109567500D03*
%TD*%
D32*
%TO.C,C45*%
X78135000Y-103687516D03*
X77175000Y-103687516D03*
%TD*%
D50*
%TO.C,C28*%
X98062500Y-50987532D03*
X95112500Y-50987532D03*
%TD*%
D58*
%TO.C,AM0*%
X43827316Y-77387444D03*
X43827316Y-78037444D03*
X43827316Y-78687444D03*
X43827316Y-79337444D03*
X43827316Y-79987444D03*
X43827316Y-80637444D03*
X43827316Y-81287444D03*
X43827316Y-81937444D03*
X43827316Y-82587444D03*
X43827316Y-83237444D03*
X43827316Y-83887444D03*
X43827316Y-84537444D03*
X50827316Y-84537444D03*
X50827316Y-83887444D03*
X50827316Y-83237444D03*
X50827316Y-82587444D03*
X50827316Y-81937444D03*
X50827316Y-81287444D03*
X50827316Y-80637444D03*
X50827316Y-79987444D03*
X50827316Y-79337444D03*
X50827316Y-78687444D03*
X50827316Y-78037444D03*
X50827316Y-77387444D03*
%TD*%
D18*
%TO.C,R82*%
X34627500Y-98937516D03*
X35647500Y-98937516D03*
%TD*%
D19*
%TO.C,H0:0*%
X37525000Y-132787580D03*
X37525000Y-130887580D03*
X35650000Y-131837580D03*
%TD*%
%TO.C,H0:14*%
X56575000Y-94687548D03*
X56575000Y-92787548D03*
X54700000Y-93737548D03*
%TD*%
D59*
%TO.C,U11*%
X52037500Y-118437516D03*
X52037500Y-119707516D03*
X52037500Y-120977516D03*
X52037500Y-122247516D03*
X57337500Y-122247516D03*
X57337500Y-120977516D03*
X57337500Y-119707516D03*
X57337500Y-118437516D03*
%TD*%
D60*
%TO.C,H8*%
X80962476Y-42862428D03*
%TD*%
D61*
%TO.C,PD2*%
X38637500Y-120700016D03*
X39137500Y-120700016D03*
X39637500Y-120700016D03*
D62*
X40400000Y-120187516D03*
X40400000Y-119687516D03*
X40400000Y-119187516D03*
X40400000Y-118687516D03*
D61*
X39637500Y-118175016D03*
X39137500Y-118175016D03*
X38637500Y-118175016D03*
D62*
X37875000Y-118687516D03*
X37875000Y-119187516D03*
X37875000Y-119687516D03*
X37875000Y-120187516D03*
D25*
X39137500Y-119437516D03*
%TD*%
D17*
%TO.C,C39*%
X36737500Y-62757516D03*
X36737500Y-63717516D03*
%TD*%
D45*
%TO.C,U6*%
X90127000Y-64340032D03*
X90127000Y-63390032D03*
X90127000Y-62440032D03*
X87852000Y-62440032D03*
X87852000Y-63390032D03*
X87852000Y-64340032D03*
%TD*%
D50*
%TO.C,C77*%
X99212501Y-118227517D03*
X96262499Y-118227517D03*
%TD*%
D29*
%TO.C,C118*%
X67737500Y-124117516D03*
X67737500Y-123157516D03*
%TD*%
D19*
%TO.C,Q10*%
X70112501Y-122887516D03*
X70112501Y-120987516D03*
X68237501Y-121937516D03*
%TD*%
D20*
%TO.C,LED7*%
X53235500Y-34137500D03*
X53235500Y-33337500D03*
X53235500Y-32537500D03*
X51539500Y-32537500D03*
X51539500Y-33337500D03*
X51539500Y-34137500D03*
%TD*%
D16*
%TO.C,R25*%
X85389500Y-62380032D03*
X85389500Y-63400032D03*
%TD*%
D33*
%TO.C,J5*%
X26312508Y-92870373D03*
X26312508Y-102870373D03*
D53*
X26812508Y-104120373D03*
X26812508Y-101620373D03*
X26812508Y-99120373D03*
X26812508Y-96620373D03*
X26812508Y-94120373D03*
X26812508Y-91620373D03*
%TD*%
D18*
%TO.C,R80*%
X103127500Y-92937516D03*
X104147500Y-92937516D03*
%TD*%
D57*
%TO.C,C19*%
X74137500Y-60262516D03*
X74137500Y-63212516D03*
%TD*%
D63*
%TO.C,L3*%
X99189500Y-61190032D03*
X99189500Y-67240032D03*
%TD*%
D17*
%TO.C,C82*%
X110281560Y-131977092D03*
X110281560Y-132937092D03*
%TD*%
%TO.C,C65*%
X35421092Y-70510984D03*
X35421092Y-71470984D03*
%TD*%
D32*
%TO.C,C2*%
X59267072Y-43755444D03*
X58307072Y-43755444D03*
%TD*%
D17*
%TO.C,C114*%
X97996052Y-71957516D03*
X97996052Y-72917516D03*
%TD*%
D26*
%TO.C,H14*%
X116681164Y-80962444D03*
%TD*%
%TO.C,H9*%
X26193740Y-42862476D03*
%TD*%
D32*
%TO.C,C43*%
X44717500Y-114587500D03*
X43757500Y-114587500D03*
%TD*%
D17*
%TO.C,C78*%
X34081624Y-131977092D03*
X34081624Y-132937092D03*
%TD*%
D19*
%TO.C,H0:1*%
X37525000Y-113737564D03*
X37525000Y-111837564D03*
X35650000Y-112787564D03*
%TD*%
D21*
%TO.C,R99*%
X74537500Y-41947516D03*
X74537500Y-40927516D03*
%TD*%
D19*
%TO.C,H0:13*%
X56575000Y-113737564D03*
X56575000Y-111837564D03*
X54700000Y-112787564D03*
%TD*%
D17*
%TO.C,C13*%
X62787500Y-68257500D03*
X62787500Y-69217500D03*
%TD*%
D18*
%TO.C,R97*%
X71727500Y-42037516D03*
X72747500Y-42037516D03*
%TD*%
D17*
%TO.C,C122*%
X75837500Y-66817516D03*
X75837500Y-67777516D03*
%TD*%
D18*
%TO.C,R10*%
X53777500Y-43827516D03*
X54797500Y-43827516D03*
%TD*%
D19*
%TO.C,H1:7*%
X75625016Y-75637500D03*
X75625016Y-73737500D03*
X73750016Y-74687500D03*
%TD*%
D31*
%TO.C,R89*%
X60607500Y-109787500D03*
X59587500Y-109787500D03*
%TD*%
D20*
%TO.C,LED18*%
X70589500Y-32537500D03*
X70589500Y-33337500D03*
X70589500Y-34137500D03*
X72285500Y-34137500D03*
X72285500Y-33337500D03*
X72285500Y-32537500D03*
%TD*%
D18*
%TO.C,R22*%
X55717500Y-123737516D03*
X56737500Y-123737516D03*
%TD*%
D64*
%TO.C,U2*%
X32875000Y-79387532D03*
D65*
X32975000Y-78987532D03*
D66*
X32712500Y-78325032D03*
X32312500Y-78325032D03*
X31912500Y-78325032D03*
D65*
X31650000Y-78987532D03*
X31650000Y-79387532D03*
D66*
X31912500Y-80050032D03*
X32312500Y-80050032D03*
X32712500Y-80050032D03*
%TD*%
D16*
%TO.C,R81*%
X71937500Y-122937515D03*
X71937500Y-123957515D03*
%TD*%
D19*
%TO.C,H1:11*%
X113725000Y-75637532D03*
X113725000Y-73737532D03*
X111850000Y-74687532D03*
%TD*%
%TO.C,H1:5*%
X75625016Y-37537532D03*
X75625016Y-35637532D03*
X73750016Y-36587532D03*
%TD*%
D28*
%TO.C,C11*%
X71296008Y-60729008D03*
X72256008Y-60729008D03*
%TD*%
D20*
%TO.C,LED11*%
X53235500Y-110337500D03*
X53235500Y-109537500D03*
X53235500Y-108737500D03*
X51539500Y-108737500D03*
X51539500Y-109537500D03*
X51539500Y-110337500D03*
%TD*%
D30*
%TO.C,H6*%
X25598431Y-136326649D03*
%TD*%
D17*
%TO.C,C60*%
X111621028Y-89560968D03*
X111621028Y-90520968D03*
%TD*%
D16*
%TO.C,R14*%
X34437500Y-79027516D03*
X34437500Y-80047516D03*
%TD*%
D21*
%TO.C,R27*%
X57937500Y-124337517D03*
X57937500Y-123317517D03*
%TD*%
D28*
%TO.C,C4*%
X64896000Y-70512400D03*
X65856000Y-70512400D03*
%TD*%
%TO.C,C42*%
X44417500Y-36457516D03*
X45377500Y-36457516D03*
%TD*%
D67*
%TO.C,U17*%
X44812500Y-118500016D03*
X44162500Y-118500016D03*
X43512500Y-118500016D03*
X42862500Y-118500016D03*
X42862500Y-120775016D03*
X43512500Y-120775016D03*
X44162500Y-120775016D03*
X44812500Y-120775016D03*
%TD*%
D68*
%TO.C,U14*%
X33512500Y-116462532D03*
X33512500Y-116962532D03*
X33512500Y-117462532D03*
X34937500Y-117462532D03*
X34937500Y-116462532D03*
%TD*%
D17*
%TO.C,C88*%
X34081624Y-93877028D03*
X34081624Y-94837028D03*
%TD*%
D31*
%TO.C,R74*%
X35647500Y-99937516D03*
X34627500Y-99937516D03*
%TD*%
D18*
%TO.C,R85*%
X56627500Y-53337516D03*
X57647500Y-53337516D03*
%TD*%
D20*
%TO.C,LED12*%
X53235500Y-129387500D03*
X53235500Y-128587500D03*
X53235500Y-127787500D03*
X51539500Y-127787500D03*
X51539500Y-128587500D03*
X51539500Y-129387500D03*
%TD*%
D17*
%TO.C,C98*%
X34081624Y-55776964D03*
X34081624Y-56736964D03*
%TD*%
D26*
%TO.C,H7*%
X42862508Y-135731336D03*
%TD*%
D58*
%TO.C,AM1*%
X81927284Y-77387444D03*
X81927284Y-78037444D03*
X81927284Y-78687444D03*
X81927284Y-79337444D03*
X81927284Y-79987444D03*
X81927284Y-80637444D03*
X81927284Y-81287444D03*
X81927284Y-81937444D03*
X81927284Y-82587444D03*
X81927284Y-83237444D03*
X81927284Y-83887444D03*
X81927284Y-84537444D03*
X88927284Y-84537444D03*
X88927284Y-83887444D03*
X88927284Y-83237444D03*
X88927284Y-82587444D03*
X88927284Y-81937444D03*
X88927284Y-81287444D03*
X88927284Y-80637444D03*
X88927284Y-79987444D03*
X88927284Y-79337444D03*
X88927284Y-78687444D03*
X88927284Y-78037444D03*
X88927284Y-77387444D03*
%TD*%
D17*
%TO.C,C84*%
X53131608Y-112927060D03*
X53131608Y-113887060D03*
%TD*%
D18*
%TO.C,R35*%
X77127500Y-104937516D03*
X78147500Y-104937516D03*
%TD*%
D20*
%TO.C,LED17*%
X70589500Y-51587500D03*
X70589500Y-52387500D03*
X70589500Y-53187500D03*
X72285500Y-53187500D03*
X72285500Y-52387500D03*
X72285500Y-51587500D03*
%TD*%
D31*
%TO.C,R43*%
X62197500Y-39537500D03*
X61177500Y-39537500D03*
%TD*%
D21*
%TO.C,R71*%
X103462500Y-34247500D03*
X103462500Y-33227500D03*
%TD*%
%TO.C,R73*%
X66437500Y-122936584D03*
X66437500Y-121916584D03*
%TD*%
D19*
%TO.C,H1:0*%
X94675000Y-94687548D03*
X94675000Y-92787548D03*
X92800000Y-93737548D03*
%TD*%
D20*
%TO.C,LED2*%
X32489500Y-108737500D03*
X32489500Y-109537500D03*
X32489500Y-110337500D03*
X34185500Y-110337500D03*
X34185500Y-109537500D03*
X34185500Y-108737500D03*
%TD*%
%TO.C,LED29*%
X108689500Y-51587500D03*
X108689500Y-52387500D03*
X108689500Y-53187500D03*
X110385500Y-53187500D03*
X110385500Y-52387500D03*
X110385500Y-51587500D03*
%TD*%
D29*
%TO.C,C126*%
X67716752Y-68825580D03*
X67716752Y-67865580D03*
%TD*%
D19*
%TO.C,H0:10*%
X75625000Y-113737564D03*
X75625000Y-111837564D03*
X73750000Y-112787564D03*
%TD*%
D16*
%TO.C,R75*%
X104462500Y-33227500D03*
X104462500Y-34247500D03*
%TD*%
D19*
%TO.C,H0:9*%
X75625000Y-94687548D03*
X75625000Y-92787548D03*
X73750000Y-93737548D03*
%TD*%
D26*
%TO.C,H11*%
X61912460Y-42862476D03*
%TD*%
D17*
%TO.C,C66*%
X35421092Y-51461000D03*
X35421092Y-52421000D03*
%TD*%
D26*
%TO.C,H4*%
X116681320Y-42862508D03*
%TD*%
%TO.C,H3*%
X100012556Y-26193744D03*
%TD*%
D17*
%TO.C,C9*%
X68981000Y-53112400D03*
X68981000Y-54072400D03*
%TD*%
D16*
%TO.C,R2*%
X63981000Y-67887400D03*
X63981000Y-68907400D03*
%TD*%
D18*
%TO.C,R78*%
X34627500Y-97937515D03*
X35647500Y-97937515D03*
%TD*%
%TO.C,R44*%
X61177500Y-37637500D03*
X62197500Y-37637500D03*
%TD*%
D19*
%TO.C,Q8*%
X105800000Y-31987500D03*
X105800000Y-30087500D03*
X103925000Y-31037500D03*
%TD*%
D32*
%TO.C,C15*%
X56290512Y-57837516D03*
X55330512Y-57837516D03*
%TD*%
D17*
%TO.C,C93*%
X34081624Y-74826996D03*
X34081624Y-75786996D03*
%TD*%
%TO.C,C41*%
X98037500Y-53357516D03*
X98037500Y-54317516D03*
%TD*%
D28*
%TO.C,C92*%
X112778136Y-96142916D03*
X113738136Y-96142916D03*
%TD*%
D20*
%TO.C,LED9*%
X53235500Y-72237500D03*
X53235500Y-71437500D03*
X53235500Y-70637500D03*
X51539500Y-70637500D03*
X51539500Y-71437500D03*
X51539500Y-72237500D03*
%TD*%
D56*
%TO.C,U9*%
X99190000Y-53762516D03*
X99190000Y-54412516D03*
X99190000Y-55062516D03*
X100865000Y-55062516D03*
X100865000Y-54412516D03*
X100865000Y-53762516D03*
%TD*%
D31*
%TO.C,R64*%
X34147500Y-130437500D03*
X33127500Y-130437500D03*
%TD*%
D21*
%TO.C,R56*%
X65437500Y-80547516D03*
X65437500Y-79527516D03*
%TD*%
%TO.C,R70*%
X37537500Y-102347516D03*
X37537500Y-101327516D03*
%TD*%
D19*
%TO.C,H0:8*%
X56575000Y-75637532D03*
X56575000Y-73737532D03*
X54700000Y-74687532D03*
%TD*%
D17*
%TO.C,C68*%
X73521060Y-51461000D03*
X73521060Y-52421000D03*
%TD*%
%TO.C,C58*%
X73521060Y-89709796D03*
X73521060Y-90669796D03*
%TD*%
D18*
%TO.C,R93*%
X75839631Y-68697516D03*
X76859631Y-68697516D03*
%TD*%
D21*
%TO.C,R102*%
X46137500Y-119447516D03*
X46137500Y-118427516D03*
%TD*%
D17*
%TO.C,C70*%
X111621028Y-51461000D03*
X111621028Y-52421000D03*
%TD*%
D20*
%TO.C,LED21*%
X91335500Y-72237500D03*
X91335500Y-71437500D03*
X91335500Y-70637500D03*
X89639500Y-70637500D03*
X89639500Y-71437500D03*
X89639500Y-72237500D03*
%TD*%
D69*
%TO.C,D5*%
X79817500Y-103737516D03*
X79817500Y-105637516D03*
X81692500Y-104687516D03*
%TD*%
D33*
%TO.C,J4*%
X116562428Y-102870373D03*
X116562428Y-92870373D03*
D53*
X116062428Y-91620373D03*
X116062428Y-94120373D03*
X116062428Y-96620373D03*
X116062428Y-99120373D03*
X116062428Y-101620373D03*
X116062428Y-104120373D03*
%TD*%
D26*
%TO.C,H13*%
X26193740Y-80962444D03*
%TD*%
D32*
%TO.C,C110*%
X56290448Y-61168240D03*
X55330448Y-61168240D03*
%TD*%
D70*
%TO.C,SW2*%
X26804289Y-75966356D03*
X25004289Y-75966356D03*
D71*
X26624289Y-74166356D03*
X26624289Y-77766356D03*
X25184289Y-74166356D03*
X25184289Y-77766356D03*
%TD*%
D21*
%TO.C,R54*%
X63437500Y-80547516D03*
X63437500Y-79527516D03*
%TD*%
D17*
%TO.C,C48*%
X73462500Y-127007500D03*
X73462500Y-127967500D03*
%TD*%
D20*
%TO.C,LED16*%
X70589500Y-70637500D03*
X70589500Y-71437500D03*
X70589500Y-72237500D03*
X72285500Y-72237500D03*
X72285500Y-71437500D03*
X72285500Y-70637500D03*
%TD*%
D31*
%TO.C,R40*%
X70322500Y-78412500D03*
X69302500Y-78412500D03*
%TD*%
D20*
%TO.C,LED14*%
X70589500Y-108737500D03*
X70589500Y-109537500D03*
X70589500Y-110337500D03*
X72285500Y-110337500D03*
X72285500Y-109537500D03*
X72285500Y-108737500D03*
%TD*%
D28*
%TO.C,C27*%
X87207500Y-46687532D03*
X88167500Y-46687532D03*
%TD*%
D63*
%TO.C,L2*%
X99287500Y-42287532D03*
X99287500Y-48337532D03*
%TD*%
D26*
%TO.C,J18*%
X114617564Y-136326649D03*
X112077564Y-136326649D03*
X109537564Y-136326649D03*
X106997564Y-136326649D03*
X104457564Y-136326649D03*
%TD*%
D72*
%TO.C,Y1*%
X62681000Y-74942400D03*
X64881000Y-74942400D03*
X64881000Y-73242400D03*
X62681000Y-73242400D03*
%TD*%
D19*
%TO.C,H0:4*%
X37525000Y-56587516D03*
X37525000Y-54687516D03*
X35650000Y-55637516D03*
%TD*%
D21*
%TO.C,R39*%
X35537500Y-79047516D03*
X35537500Y-78027516D03*
%TD*%
D73*
%TO.C,J9*%
X93837500Y-29237516D03*
X92837500Y-29237517D03*
X91837500Y-29237516D03*
D74*
X95137500Y-25362516D03*
X90537500Y-25362516D03*
%TD*%
D52*
%TO.C,FID3*%
X116681320Y-114895381D03*
%TD*%
D75*
%TO.C,U8*%
X51137500Y-136357517D03*
X51137500Y-135857517D03*
X51137500Y-135357517D03*
X51137500Y-134857517D03*
X48337500Y-134857517D03*
X48337500Y-135357517D03*
X48337500Y-135857517D03*
X48337500Y-136357517D03*
%TD*%
D17*
%TO.C,C61*%
X111621028Y-70510984D03*
X111621028Y-71470984D03*
%TD*%
D31*
%TO.C,R36*%
X78142500Y-105992500D03*
X77122500Y-105992500D03*
%TD*%
D17*
%TO.C,C106*%
X91231576Y-36726932D03*
X91231576Y-37686932D03*
%TD*%
D26*
%TO.C,J12*%
X104457564Y-25598431D03*
X106997564Y-25598431D03*
X109537564Y-25598431D03*
X112077564Y-25598431D03*
X114617564Y-25598431D03*
%TD*%
D19*
%TO.C,H0:5*%
X37525000Y-37537500D03*
X37525000Y-35637500D03*
X35650000Y-36587500D03*
%TD*%
D40*
%TO.C,Q11*%
X33387500Y-97600016D03*
X31487500Y-97600016D03*
X32437500Y-99475016D03*
%TD*%
D21*
%TO.C,R87*%
X56554668Y-66097500D03*
X56554668Y-65077500D03*
%TD*%
%TO.C,R20*%
X86487500Y-44497532D03*
X86487500Y-43477532D03*
%TD*%
%TO.C,R37*%
X36737500Y-65647516D03*
X36737500Y-64627516D03*
%TD*%
D19*
%TO.C,H0:12*%
X56575000Y-132787580D03*
X56575000Y-130887580D03*
X54700000Y-131837580D03*
%TD*%
D29*
%TO.C,C30*%
X84487500Y-44467532D03*
X84487500Y-43507532D03*
%TD*%
D17*
%TO.C,C86*%
X91231576Y-112927060D03*
X91231576Y-113887060D03*
%TD*%
D55*
%TO.C,C121*%
X110872498Y-47037516D03*
X113822500Y-47037516D03*
%TD*%
D17*
%TO.C,C96*%
X91231576Y-74826996D03*
X91231576Y-75786996D03*
%TD*%
D32*
%TO.C,C108*%
X51817500Y-76137516D03*
X50857500Y-76137516D03*
%TD*%
D70*
%TO.C,SW1*%
X26812492Y-86022596D03*
X25012492Y-86022596D03*
D71*
X26632492Y-84222596D03*
X26632492Y-87822596D03*
X25192492Y-84222596D03*
X25192492Y-87822596D03*
%TD*%
D49*
%TO.C,Q13*%
X38200000Y-122832516D03*
X38200000Y-124102516D03*
X38200000Y-125372516D03*
X38200000Y-126642516D03*
X43275000Y-126642516D03*
X43275000Y-125372516D03*
X43275000Y-124102516D03*
X43275000Y-122832516D03*
%TD*%
D19*
%TO.C,H0:7*%
X56575000Y-56587516D03*
X56575000Y-54687516D03*
X54700000Y-55637516D03*
%TD*%
D33*
%TO.C,J7*%
X75723471Y-135612588D03*
X85723471Y-135612588D03*
D47*
X86973471Y-135112588D03*
X84473471Y-135112588D03*
X81973471Y-135112588D03*
X79473471Y-135112588D03*
X76973471Y-135112588D03*
X74473471Y-135112588D03*
%TD*%
D45*
%TO.C,U5*%
X90225000Y-45437532D03*
X90225000Y-44487532D03*
X90225000Y-43537532D03*
X87950000Y-43537532D03*
X87950000Y-44487532D03*
X87950000Y-45437532D03*
%TD*%
D28*
%TO.C,C112*%
X70857500Y-54837500D03*
X71817500Y-54837500D03*
%TD*%
D19*
%TO.C,H1:2*%
X94675000Y-132787452D03*
X94675000Y-130887452D03*
X92800000Y-131837452D03*
%TD*%
D18*
%TO.C,R67*%
X100952500Y-36437500D03*
X101972500Y-36437500D03*
%TD*%
D20*
%TO.C,LED3*%
X32489500Y-89687500D03*
X32489500Y-90487500D03*
X32489500Y-91287500D03*
X34185500Y-91287500D03*
X34185500Y-90487500D03*
X34185500Y-89687500D03*
%TD*%
D19*
%TO.C,H1:6*%
X75625016Y-56587516D03*
X75625016Y-54687516D03*
X73750016Y-55637516D03*
%TD*%
D17*
%TO.C,C104*%
X58127500Y-36637516D03*
X58127500Y-37597516D03*
%TD*%
%TO.C,C131*%
X93787500Y-43507500D03*
X93787500Y-44467500D03*
%TD*%
D33*
%TO.C,USB1*%
X48133760Y-30584683D03*
X42353760Y-30584683D03*
D76*
X48443760Y-31724683D03*
X47643760Y-31724683D03*
D77*
X46493760Y-31724683D03*
X45493760Y-31724683D03*
X44993760Y-31724683D03*
X43993760Y-31724683D03*
D76*
X42843760Y-31724683D03*
X42043760Y-31724683D03*
X42043760Y-31724683D03*
X42843760Y-31724683D03*
D77*
X43493760Y-31724683D03*
X44493760Y-31724683D03*
X45993760Y-31724683D03*
X46993760Y-31724683D03*
D76*
X47643760Y-31724683D03*
X48443760Y-31724683D03*
D78*
X49563760Y-31084683D03*
D79*
X49563760Y-26904683D03*
D78*
X40923760Y-31084683D03*
D79*
X40923760Y-26904683D03*
%TD*%
D17*
%TO.C,C101*%
X91231576Y-55776964D03*
X91231576Y-56736964D03*
%TD*%
D50*
%TO.C,C29*%
X94862500Y-48287532D03*
X91912500Y-48287532D03*
%TD*%
D44*
%TO.C,Q6*%
X68042500Y-126400016D03*
X66772500Y-126400016D03*
X65502500Y-126400016D03*
X64232500Y-126400016D03*
X64232500Y-131475016D03*
X65502500Y-131475016D03*
X66772500Y-131475016D03*
X68042500Y-131475016D03*
%TD*%
D19*
%TO.C,Q3*%
X80337500Y-109237516D03*
X80337500Y-107337516D03*
X78462500Y-108287516D03*
%TD*%
D16*
%TO.C,R88*%
X116137500Y-107577500D03*
X116137500Y-108597500D03*
%TD*%
D32*
%TO.C,C14*%
X57417500Y-50937516D03*
X56457500Y-50937516D03*
%TD*%
D17*
%TO.C,C55*%
X35421092Y-108759780D03*
X35421092Y-109719780D03*
%TD*%
D19*
%TO.C,H1:9*%
X113724984Y-37537532D03*
X113724984Y-35637532D03*
X111849984Y-36587532D03*
%TD*%
D33*
%TO.C,J2*%
X85723404Y-26312508D03*
X75723404Y-26312508D03*
D47*
X74473404Y-26812508D03*
X76973404Y-26812508D03*
X79473404Y-26812508D03*
X81973404Y-26812508D03*
X84473404Y-26812508D03*
X86973404Y-26812508D03*
%TD*%
D33*
%TO.C,J6*%
X26312508Y-59054707D03*
X26312508Y-69054707D03*
D53*
X26812508Y-70304707D03*
X26812508Y-67804707D03*
X26812508Y-65304707D03*
X26812508Y-62804707D03*
X26812508Y-60304707D03*
X26812508Y-57804707D03*
%TD*%
D31*
%TO.C,R96*%
X113757499Y-41937516D03*
X112737499Y-41937516D03*
%TD*%
D19*
%TO.C,H1:1*%
X94675000Y-113737564D03*
X94675000Y-111837564D03*
X92800000Y-112787564D03*
%TD*%
D18*
%TO.C,R30*%
X55427500Y-117037516D03*
X56447500Y-117037516D03*
%TD*%
D32*
%TO.C,C21*%
X59561000Y-66792400D03*
X58601000Y-66792400D03*
%TD*%
D31*
%TO.C,R76*%
X101247500Y-90337516D03*
X100227500Y-90337516D03*
%TD*%
D18*
%TO.C,R32*%
X55417500Y-115837516D03*
X56437500Y-115837516D03*
%TD*%
D28*
%TO.C,C38*%
X57757500Y-117087500D03*
X58717500Y-117087500D03*
%TD*%
D17*
%TO.C,C69*%
X88387500Y-51461000D03*
X88387500Y-52421000D03*
%TD*%
D80*
%TO.C,U18*%
X50895000Y-38535016D03*
X50895000Y-37885016D03*
X50895000Y-37235016D03*
X50895000Y-36585016D03*
X48620000Y-36585016D03*
X48620000Y-37235016D03*
X48620000Y-37885016D03*
X48620000Y-38535016D03*
%TD*%
D18*
%TO.C,R13*%
X62467499Y-45987516D03*
X63487499Y-45987516D03*
%TD*%
D21*
%TO.C,R49*%
X46747500Y-35967516D03*
X46747500Y-34947516D03*
%TD*%
D31*
%TO.C,R51*%
X34567472Y-115168716D03*
X33547472Y-115168716D03*
%TD*%
D26*
%TO.C,J11*%
X25598431Y-38417500D03*
X25598431Y-35877500D03*
X25598431Y-33337500D03*
X25598431Y-30797500D03*
X25598431Y-28257500D03*
%TD*%
D42*
%TO.C,C6*%
X66266000Y-54042400D03*
X67296000Y-54042400D03*
%TD*%
D17*
%TO.C,C64*%
X50287500Y-70510984D03*
X50287500Y-71470984D03*
%TD*%
D31*
%TO.C,R95*%
X111557499Y-41937516D03*
X110537499Y-41937516D03*
%TD*%
D16*
%TO.C,R63*%
X31237500Y-129427516D03*
X31237500Y-130447516D03*
%TD*%
D17*
%TO.C,C102*%
X110281560Y-55776964D03*
X110281560Y-56736964D03*
%TD*%
D20*
%TO.C,LED6*%
X32489500Y-32537500D03*
X32489500Y-33337500D03*
X32489500Y-34137500D03*
X34185500Y-34137500D03*
X34185500Y-33337500D03*
X34185500Y-32537500D03*
%TD*%
D28*
%TO.C,C16*%
X71307500Y-61687516D03*
X72267500Y-61687516D03*
%TD*%
D52*
%TO.C,FID1*%
X83939105Y-69056280D03*
%TD*%
D32*
%TO.C,C37*%
X56717500Y-125137516D03*
X55757500Y-125137516D03*
%TD*%
D81*
%TO.C,U1*%
X58884500Y-56292400D03*
X58884500Y-56692400D03*
X58884500Y-57092400D03*
X58884500Y-57492400D03*
X58884500Y-57892400D03*
X58884500Y-58292400D03*
X58884500Y-58692400D03*
X58884500Y-59092400D03*
X58884500Y-59492400D03*
X58884500Y-59892400D03*
X58884500Y-60292400D03*
X58884500Y-60692400D03*
X58884500Y-61092400D03*
X58884500Y-61492400D03*
X58884500Y-61892400D03*
X58884500Y-62292400D03*
X58884500Y-62692400D03*
X58884500Y-63092400D03*
X58884500Y-63492400D03*
X58884500Y-63892400D03*
D82*
X59981000Y-64988900D03*
X60381000Y-64988900D03*
X60781000Y-64988900D03*
X61181000Y-64988900D03*
X61581000Y-64988900D03*
X61981000Y-64988900D03*
X62381000Y-64988900D03*
X62781000Y-64988900D03*
X63181000Y-64988900D03*
X63581000Y-64988900D03*
X63981000Y-64988900D03*
X64381000Y-64988900D03*
X64781000Y-64988900D03*
X65181000Y-64988900D03*
X65581000Y-64988900D03*
X65981000Y-64988900D03*
X66381000Y-64988900D03*
X66781000Y-64988900D03*
X67181000Y-64988900D03*
X67581000Y-64988900D03*
D81*
X68677500Y-63892400D03*
X68677500Y-63492400D03*
X68677500Y-63092400D03*
X68677500Y-62692400D03*
X68677500Y-62292400D03*
X68677500Y-61892400D03*
X68677500Y-61492400D03*
X68677500Y-61092400D03*
X68677500Y-60692400D03*
X68677500Y-60292400D03*
X68677500Y-59892400D03*
X68677500Y-59492400D03*
X68677500Y-59092400D03*
X68677500Y-58692400D03*
X68677500Y-58292400D03*
X68677500Y-57892400D03*
X68677500Y-57492400D03*
X68677500Y-57092400D03*
X68677500Y-56692400D03*
X68677500Y-56292400D03*
D82*
X67581000Y-55195900D03*
X67181000Y-55195900D03*
X66781000Y-55195900D03*
X66381000Y-55195900D03*
X65981000Y-55195900D03*
X65581000Y-55195900D03*
X65181000Y-55195900D03*
X64781000Y-55195900D03*
X64381000Y-55195900D03*
X63981000Y-55195900D03*
X63581000Y-55195900D03*
X63181000Y-55195900D03*
X62781000Y-55195900D03*
X62381000Y-55195900D03*
X61981000Y-55195900D03*
X61581000Y-55195900D03*
X61181000Y-55195900D03*
X60781000Y-55195900D03*
X60381000Y-55195900D03*
X59981000Y-55195900D03*
D83*
X62647667Y-58959067D03*
D84*
X62647667Y-58959067D03*
D83*
X62647667Y-60092400D03*
D84*
X62647667Y-60092400D03*
D83*
X62647667Y-61225733D03*
D84*
X62647667Y-61225733D03*
D83*
X63781000Y-58959067D03*
D84*
X63781000Y-58959067D03*
D83*
X63781000Y-60092400D03*
D84*
X63781000Y-60092400D03*
D83*
X63781000Y-61225733D03*
D84*
X63781000Y-61225733D03*
D83*
X64914333Y-58959067D03*
D84*
X64914333Y-58959067D03*
D83*
X64914333Y-60092400D03*
D84*
X64914333Y-60092400D03*
D83*
X64914333Y-61225733D03*
D84*
X64914333Y-61225733D03*
%TD*%
D17*
%TO.C,C91*%
X91231576Y-93877028D03*
X91231576Y-94837028D03*
%TD*%
%TO.C,C53*%
X73521060Y-108610952D03*
X73521060Y-109570952D03*
%TD*%
%TO.C,C26*%
X94787500Y-43507500D03*
X94787500Y-44467500D03*
%TD*%
D20*
%TO.C,LED28*%
X108689500Y-70637500D03*
X108689500Y-71437500D03*
X108689500Y-72237500D03*
X110385500Y-72237500D03*
X110385500Y-71437500D03*
X110385500Y-70637500D03*
%TD*%
D19*
%TO.C,H0:6*%
X56575000Y-37537500D03*
X56575000Y-35637500D03*
X54700000Y-36587500D03*
%TD*%
%TO.C,H1:10*%
X113724984Y-56587516D03*
X113724984Y-54687516D03*
X111849984Y-55637516D03*
%TD*%
D20*
%TO.C,LED27*%
X108689500Y-89687500D03*
X108689500Y-90487500D03*
X108689500Y-91287500D03*
X110385500Y-91287500D03*
X110385500Y-90487500D03*
X110385500Y-89687500D03*
%TD*%
D31*
%TO.C,R41*%
X70322500Y-77462500D03*
X69302500Y-77462500D03*
%TD*%
D28*
%TO.C,C20*%
X70801000Y-55792400D03*
X71761000Y-55792400D03*
%TD*%
D16*
%TO.C,R103*%
X52917500Y-37437517D03*
X52917500Y-38457517D03*
%TD*%
D17*
%TO.C,C79*%
X53131608Y-131977092D03*
X53131608Y-132937092D03*
%TD*%
D85*
%TO.C,U7*%
X71682500Y-47387516D03*
X71682500Y-48037516D03*
X71682500Y-48687516D03*
X73457500Y-48687516D03*
X73457500Y-48037516D03*
X73457500Y-47387516D03*
D86*
X72570000Y-48037516D03*
%TD*%
D20*
%TO.C,LED13*%
X70589500Y-127787500D03*
X70589500Y-128587500D03*
X70589500Y-129387500D03*
X72285500Y-129387500D03*
X72285500Y-128587500D03*
X72285500Y-127787500D03*
%TD*%
%LPD*%
M02*
