%TF.GenerationSoftware,KiCad,Pcbnew,10.0.5*%
%TF.CreationDate,2026-08-21T05:45:31-06:00*%
%TF.ProjectId,Voided-Oblivion,566f6964-6564-42d4-9f62-6c6976696f6e,rev?*%
%TF.SameCoordinates,Original*%
%TF.FileFunction,Soldermask,Top*%
%TF.FilePolarity,Negative*%
%FSLAX46Y46*%
G04 Gerber Fmt 4.6, Leading zero omitted, Abs format (unit mm)*
G04 Created by KiCad (PCBNEW 10.0.5) date 2026-08-21 05:45:31*
%MOMM*%
%LPD*%
G01*
G04 APERTURE LIST*
G04 Aperture macros list*
%AMRoundRect*
0 Rectangle with rounded corners*
0 $1 Rounding radius*
0 $2 $3 $4 $5 $6 $7 $8 $9 X,Y pos of 4 corners*
0 Add a 4 corners polygon primitive as box body*
4,1,4,$2,$3,$4,$5,$6,$7,$8,$9,$2,$3,0*
0 Add four circle primitives for the rounded corners*
1,1,$1+$1,$2,$3*
1,1,$1+$1,$4,$5*
1,1,$1+$1,$6,$7*
1,1,$1+$1,$8,$9*
0 Add four rect primitives between the rounded corners*
20,1,$1+$1,$2,$3,$4,$5,0*
20,1,$1+$1,$4,$5,$6,$7,0*
20,1,$1+$1,$6,$7,$8,$9,0*
20,1,$1+$1,$8,$9,$2,$3,0*%
G04 Aperture macros list end*
%ADD10C,1.300000*%
%ADD11C,3.000000*%
%ADD12RoundRect,0.135000X-0.185000X0.135000X-0.185000X-0.135000X0.185000X-0.135000X0.185000X0.135000X0*%
%ADD13RoundRect,0.140000X-0.170000X0.140000X-0.170000X-0.140000X0.170000X-0.140000X0.170000X0.140000X0*%
%ADD14RoundRect,0.135000X-0.135000X-0.185000X0.135000X-0.185000X0.135000X0.185000X-0.135000X0.185000X0*%
%ADD15RoundRect,0.150000X0.587500X0.150000X-0.587500X0.150000X-0.587500X-0.150000X0.587500X-0.150000X0*%
%ADD16R,1.145000X0.400000*%
%ADD17RoundRect,0.135000X0.185000X-0.135000X0.185000X0.135000X-0.185000X0.135000X-0.185000X-0.135000X0*%
%ADD18RoundRect,0.250000X0.600000X-0.400000X0.600000X0.400000X-0.600000X0.400000X-0.600000X-0.400000X0*%
%ADD19RoundRect,0.062500X-0.275000X-0.062500X0.275000X-0.062500X0.275000X0.062500X-0.275000X0.062500X0*%
%ADD20RoundRect,0.062500X-0.062500X-0.275000X0.062500X-0.275000X0.062500X0.275000X-0.062500X0.275000X0*%
%ADD21R,1.450000X1.450000*%
%ADD22RoundRect,0.150000X-0.512500X-0.150000X0.512500X-0.150000X0.512500X0.150000X-0.512500X0.150000X0*%
%ADD23RoundRect,0.140000X-0.140000X-0.170000X0.140000X-0.170000X0.140000X0.170000X-0.140000X0.170000X0*%
%ADD24RoundRect,0.140000X0.170000X-0.140000X0.170000X0.140000X-0.170000X0.140000X-0.170000X-0.140000X0*%
%ADD25RoundRect,0.135000X0.135000X0.185000X-0.135000X0.185000X-0.135000X-0.185000X0.135000X-0.185000X0*%
%ADD26RoundRect,0.140000X0.140000X0.170000X-0.140000X0.170000X-0.140000X-0.170000X0.140000X-0.170000X0*%
%ADD27RoundRect,0.150000X-0.500000X0.150000X-0.500000X-0.150000X0.500000X-0.150000X0.500000X0.150000X0*%
%ADD28RoundRect,0.075000X-0.575000X0.075000X-0.575000X-0.075000X0.575000X-0.075000X0.575000X0.075000X0*%
%ADD29O,2.100000X1.000000*%
%ADD30O,1.600000X1.000000*%
%ADD31R,0.700000X1.700000*%
%ADD32RoundRect,0.150000X0.150000X-0.587500X0.150000X0.587500X-0.150000X0.587500X-0.150000X-0.587500X0*%
%ADD33C,2.200000*%
%ADD34RoundRect,0.150000X-0.150000X0.587500X-0.150000X-0.587500X0.150000X-0.587500X0.150000X0.587500X0*%
%ADD35RoundRect,0.162500X-0.650000X-0.162500X0.650000X-0.162500X0.650000X0.162500X-0.650000X0.162500X0*%
%ADD36R,0.470000X0.530000*%
%ADD37RoundRect,0.087500X-0.087500X0.250000X-0.087500X-0.250000X0.087500X-0.250000X0.087500X0.250000X0*%
%ADD38RoundRect,0.162500X-0.162500X0.825000X-0.162500X-0.825000X0.162500X-0.825000X0.162500X0.825000X0*%
%ADD39RoundRect,0.150000X0.512500X0.150000X-0.512500X0.150000X-0.512500X-0.150000X0.512500X-0.150000X0*%
%ADD40RoundRect,0.162500X0.162500X-0.825000X0.162500X0.825000X-0.162500X0.825000X-0.162500X-0.825000X0*%
%ADD41R,1.700000X2.400000*%
%ADD42RoundRect,0.162500X0.825000X0.162500X-0.825000X0.162500X-0.825000X-0.162500X0.825000X-0.162500X0*%
%ADD43RoundRect,0.162500X-0.825000X-0.162500X0.825000X-0.162500X0.825000X0.162500X-0.825000X0.162500X0*%
%ADD44RoundRect,0.250000X0.325000X0.650000X-0.325000X0.650000X-0.325000X-0.650000X0.325000X-0.650000X0*%
%ADD45RoundRect,0.162500X0.162500X-0.650000X0.162500X0.650000X-0.162500X0.650000X-0.162500X-0.650000X0*%
%ADD46R,2.400000X1.700000*%
%ADD47RoundRect,0.135000X-0.035355X0.226274X-0.226274X0.035355X0.035355X-0.226274X0.226274X-0.035355X0*%
%ADD48RoundRect,0.250000X-0.325000X-0.650000X0.325000X-0.650000X0.325000X0.650000X-0.325000X0.650000X0*%
%ADD49RoundRect,0.087500X-0.425000X-0.087500X0.425000X-0.087500X0.425000X0.087500X-0.425000X0.087500X0*%
%ADD50RoundRect,0.250000X-0.650000X0.325000X-0.650000X-0.325000X0.650000X-0.325000X0.650000X0.325000X0*%
%ADD51RoundRect,0.100000X-0.850000X-0.100000X0.850000X-0.100000X0.850000X0.100000X-0.850000X0.100000X0*%
%ADD52RoundRect,0.137500X-0.612500X-0.137500X0.612500X-0.137500X0.612500X0.137500X-0.612500X0.137500X0*%
%ADD53C,3.800000*%
%ADD54RoundRect,0.062500X0.062500X-0.275000X0.062500X0.275000X-0.062500X0.275000X-0.062500X-0.275000X0*%
%ADD55RoundRect,0.062500X0.275000X-0.062500X0.275000X0.062500X-0.275000X0.062500X-0.275000X-0.062500X0*%
%ADD56RoundRect,0.250000X-1.500000X0.925000X-1.500000X-0.925000X1.500000X-0.925000X1.500000X0.925000X0*%
%ADD57RoundRect,0.050000X0.437500X0.050000X-0.437500X0.050000X-0.437500X-0.050000X0.437500X-0.050000X0*%
%ADD58RoundRect,0.050000X0.337500X0.050000X-0.337500X0.050000X-0.337500X-0.050000X0.337500X-0.050000X0*%
%ADD59RoundRect,0.050000X0.050000X0.337500X-0.050000X0.337500X-0.050000X-0.337500X0.050000X-0.337500X0*%
%ADD60RoundRect,0.125000X-0.125000X0.537500X-0.125000X-0.537500X0.125000X-0.537500X0.125000X0.537500X0*%
%ADD61RoundRect,0.087500X-0.250000X-0.087500X0.250000X-0.087500X0.250000X0.087500X-0.250000X0.087500X0*%
%ADD62RoundRect,0.150000X-0.587500X-0.150000X0.587500X-0.150000X0.587500X0.150000X-0.587500X0.150000X0*%
%ADD63RoundRect,0.187500X-0.712500X0.187500X-0.712500X-0.187500X0.712500X-0.187500X0.712500X0.187500X0*%
%ADD64RoundRect,0.150000X-0.750000X0.150000X-0.750000X-0.150000X0.750000X-0.150000X0.750000X0.150000X0*%
%ADD65RoundRect,0.225000X-0.225000X0.425000X-0.225000X-0.425000X0.225000X-0.425000X0.225000X0.425000X0*%
%ADD66RoundRect,0.250000X-0.450000X-0.350000X0.450000X-0.350000X0.450000X0.350000X-0.450000X0.350000X0*%
%ADD67RoundRect,0.150000X0.150000X0.625000X-0.150000X0.625000X-0.150000X-0.625000X0.150000X-0.625000X0*%
%ADD68RoundRect,0.250000X0.350000X0.650000X-0.350000X0.650000X-0.350000X-0.650000X0.350000X-0.650000X0*%
%ADD69RoundRect,0.087500X0.537500X0.087500X-0.537500X0.087500X-0.537500X-0.087500X0.537500X-0.087500X0*%
%ADD70RoundRect,0.150000X0.150000X0.500000X-0.150000X0.500000X-0.150000X-0.500000X0.150000X-0.500000X0*%
%ADD71RoundRect,0.075000X0.075000X0.575000X-0.075000X0.575000X-0.075000X-0.575000X0.075000X-0.575000X0*%
%ADD72O,1.000000X2.100000*%
%ADD73O,1.000000X1.600000*%
%ADD74RoundRect,0.125000X0.537500X0.125000X-0.537500X0.125000X-0.537500X-0.125000X0.537500X-0.125000X0*%
%ADD75RoundRect,0.055000X0.335000X-0.055000X0.335000X0.055000X-0.335000X0.055000X-0.335000X-0.055000X0*%
%ADD76RoundRect,0.055000X-0.055000X-0.335000X0.055000X-0.335000X0.055000X0.335000X-0.055000X0.335000X0*%
%ADD77C,0.600000*%
%ADD78R,1.133333X1.133333*%
%ADD79RoundRect,0.093750X-0.093750X-0.106250X0.093750X-0.106250X0.093750X0.106250X-0.093750X0.106250X0*%
%ADD80R,1.000000X1.600000*%
G04 APERTURE END LIST*
D10*
%TO.C,H10*%
X117276633Y-136326649D03*
%TD*%
%TO.C,H6*%
X25598431Y-136326649D03*
%TD*%
%TO.C,H1*%
X117276633Y-25598431D03*
%TD*%
D11*
%TO.C,FID3*%
X116681320Y-114895381D03*
%TD*%
%TO.C,FID2*%
X26193744Y-47029699D03*
%TD*%
%TO.C,FID1*%
X83939105Y-69056280D03*
%TD*%
D12*
%TO.C,R100*%
X73537500Y-39927516D03*
X73537500Y-40947516D03*
%TD*%
D13*
%TO.C,C100*%
X77182492Y-55692492D03*
X77182492Y-56652492D03*
%TD*%
%TO.C,C85*%
X72181592Y-112927060D03*
X72181592Y-113887060D03*
%TD*%
D14*
%TO.C,R83*%
X100927500Y-52587500D03*
X101947500Y-52587500D03*
%TD*%
D13*
%TO.C,C95*%
X72181592Y-74826996D03*
X72181592Y-75786996D03*
%TD*%
D15*
%TO.C,H1:8*%
X94675000Y-75637500D03*
X94675000Y-73737500D03*
X92800000Y-74687500D03*
%TD*%
D16*
%TO.C,LED8*%
X53235500Y-53187500D03*
X53235500Y-52387500D03*
X53235500Y-51587500D03*
X51539500Y-51587500D03*
X51539500Y-52387500D03*
X51539500Y-53187500D03*
%TD*%
D17*
%TO.C,R98*%
X73337500Y-44047516D03*
X73337500Y-43027516D03*
%TD*%
D15*
%TO.C,H1:4*%
X94675000Y-37537532D03*
X94675000Y-35637532D03*
X92800000Y-36587532D03*
%TD*%
D18*
%TO.C,D3*%
X35077500Y-65917516D03*
X35077500Y-62417516D03*
%TD*%
D13*
%TO.C,C73*%
X73521060Y-32411016D03*
X73521060Y-33371016D03*
%TD*%
D19*
%TO.C,PD1*%
X44165000Y-38547516D03*
X44165000Y-39047516D03*
X44165000Y-39547516D03*
D20*
X44677500Y-40310016D03*
X45177500Y-40310016D03*
X45677500Y-40310016D03*
X46177500Y-40310016D03*
D19*
X46690000Y-39547516D03*
X46690000Y-39047516D03*
X46690000Y-38547516D03*
D20*
X46177500Y-37785016D03*
X45677500Y-37785016D03*
X45177500Y-37785016D03*
X44677500Y-37785016D03*
D21*
X45427500Y-39047516D03*
%TD*%
D16*
%TO.C,LED30*%
X108689500Y-32537500D03*
X108689500Y-33337500D03*
X108689500Y-34137500D03*
X110385500Y-34137500D03*
X110385500Y-33337500D03*
X110385500Y-32537500D03*
%TD*%
D12*
%TO.C,R23*%
X73637500Y-66787516D03*
X73637500Y-67807516D03*
%TD*%
D13*
%TO.C,C24*%
X74457500Y-47077516D03*
X74457500Y-48037516D03*
%TD*%
D12*
%TO.C,R19*%
X85487500Y-43477532D03*
X85487500Y-44497532D03*
%TD*%
D15*
%TO.C,H1:3*%
X94675000Y-56587516D03*
X94675000Y-54687516D03*
X92800000Y-55637516D03*
%TD*%
D14*
%TO.C,R12*%
X74397500Y-49037516D03*
X75417500Y-49037516D03*
%TD*%
D13*
%TO.C,C10*%
X65087500Y-67912400D03*
X65087500Y-68872400D03*
%TD*%
D22*
%TO.C,U12*%
X96800000Y-120177517D03*
X96800000Y-121127517D03*
X96800000Y-122077517D03*
X99075000Y-122077517D03*
X99075000Y-120177517D03*
%TD*%
D14*
%TO.C,R72*%
X100227500Y-88937516D03*
X101247500Y-88937516D03*
%TD*%
D12*
%TO.C,R4*%
X28574988Y-77263540D03*
X28574988Y-78283540D03*
%TD*%
D23*
%TO.C,C44*%
X58377500Y-105937516D03*
X59337500Y-105937516D03*
%TD*%
D24*
%TO.C,C76*%
X100537500Y-120207517D03*
X100537500Y-119247517D03*
%TD*%
D14*
%TO.C,R86*%
X55300528Y-61087500D03*
X56320528Y-61087500D03*
%TD*%
D16*
%TO.C,LED23*%
X91335500Y-110337500D03*
X91335500Y-109537500D03*
X91335500Y-108737500D03*
X89639500Y-108737500D03*
X89639500Y-109537500D03*
X89639500Y-110337500D03*
%TD*%
D23*
%TO.C,C74*%
X49507500Y-33337500D03*
X50467500Y-33337500D03*
%TD*%
D13*
%TO.C,C51*%
X111621028Y-108610952D03*
X111621028Y-109570952D03*
%TD*%
D16*
%TO.C,LED24*%
X91335500Y-129387500D03*
X91335500Y-128587500D03*
X91335500Y-127787500D03*
X89639500Y-127787500D03*
X89639500Y-128587500D03*
X89639500Y-129387500D03*
%TD*%
D23*
%TO.C,C57*%
X49357500Y-90487500D03*
X50317500Y-90487500D03*
%TD*%
D24*
%TO.C,C12*%
X62781000Y-51772400D03*
X62781000Y-50812400D03*
%TD*%
D16*
%TO.C,LED1*%
X32489500Y-127787580D03*
X32489500Y-128587580D03*
X32489500Y-129387580D03*
X34185500Y-129387580D03*
X34185500Y-128587580D03*
X34185500Y-127787580D03*
%TD*%
D25*
%TO.C,R61*%
X49247500Y-85787500D03*
X48227500Y-85787500D03*
%TD*%
D13*
%TO.C,C117*%
X97237500Y-85977516D03*
X97237500Y-86937516D03*
%TD*%
%TO.C,C23*%
X70657500Y-47877516D03*
X70657500Y-48837516D03*
%TD*%
D24*
%TO.C,C49*%
X88387500Y-129567500D03*
X88387500Y-128607500D03*
%TD*%
D25*
%TO.C,R69*%
X66747500Y-124337516D03*
X65727500Y-124337516D03*
%TD*%
D16*
%TO.C,LED10*%
X53235500Y-91287500D03*
X53235500Y-90487500D03*
X53235500Y-89687500D03*
X51539500Y-89687500D03*
X51539500Y-90487500D03*
X51539500Y-91287500D03*
%TD*%
D26*
%TO.C,C56*%
X36347576Y-90487452D03*
X35387576Y-90487452D03*
%TD*%
D13*
%TO.C,C32*%
X92689500Y-62410032D03*
X92689500Y-63370032D03*
%TD*%
D27*
%TO.C,USB2*%
X31724683Y-113481320D03*
X31724683Y-114281320D03*
D28*
X31724683Y-115431320D03*
X31724683Y-116431320D03*
X31724683Y-116931320D03*
X31724683Y-117931320D03*
D27*
X31724683Y-119081320D03*
X31724683Y-119881320D03*
X31724683Y-119881320D03*
X31724683Y-119081320D03*
D28*
X31724683Y-118431320D03*
X31724683Y-117431320D03*
X31724683Y-115931320D03*
X31724683Y-114931320D03*
D27*
X31724683Y-114281320D03*
X31724683Y-113481320D03*
D29*
X31084683Y-112361320D03*
D30*
X26904683Y-112361320D03*
D29*
X31084683Y-121001320D03*
D30*
X26904683Y-121001320D03*
%TD*%
D14*
%TO.C,R50*%
X35827500Y-118537500D03*
X36847500Y-118537500D03*
%TD*%
%TO.C,R31*%
X53427500Y-117037516D03*
X54447500Y-117037516D03*
%TD*%
D24*
%TO.C,C47*%
X50537500Y-131217500D03*
X50537500Y-130257500D03*
%TD*%
D13*
%TO.C,C22*%
X64067500Y-38597516D03*
X64067500Y-39557516D03*
%TD*%
D16*
%TO.C,LED5*%
X32489500Y-51587500D03*
X32489500Y-52387500D03*
X32489500Y-53187500D03*
X34185500Y-53187500D03*
X34185500Y-52387500D03*
X34185500Y-51587500D03*
%TD*%
%TO.C,LED25*%
X108689500Y-127787500D03*
X108689500Y-128587500D03*
X108689500Y-129387500D03*
X110385500Y-129387500D03*
X110385500Y-128587500D03*
X110385500Y-127787500D03*
%TD*%
D13*
%TO.C,C80*%
X72181592Y-131977092D03*
X72181592Y-132937092D03*
%TD*%
D31*
%TO.C,L1*%
X66122492Y-50452492D03*
X67522492Y-50452492D03*
%TD*%
D13*
%TO.C,C90*%
X72181592Y-93877028D03*
X72181592Y-94837028D03*
%TD*%
D32*
%TO.C,D4*%
X55087500Y-107375000D03*
X56987500Y-107375000D03*
X56037500Y-105500000D03*
%TD*%
D14*
%TO.C,R84*%
X56627500Y-52337516D03*
X57647500Y-52337516D03*
%TD*%
D13*
%TO.C,C25*%
X92787500Y-43507500D03*
X92787500Y-44467500D03*
%TD*%
D15*
%TO.C,H1:13*%
X113724984Y-113737468D03*
X113724984Y-111837468D03*
X111849984Y-112787468D03*
%TD*%
D25*
%TO.C,R42*%
X62197500Y-38587500D03*
X61177500Y-38587500D03*
%TD*%
D17*
%TO.C,R55*%
X64447501Y-80547516D03*
X64447501Y-79527516D03*
%TD*%
D12*
%TO.C,R18*%
X85487500Y-45477532D03*
X85487500Y-46497532D03*
%TD*%
D26*
%TO.C,C3*%
X62886000Y-70512400D03*
X61926000Y-70512400D03*
%TD*%
D13*
%TO.C,C107*%
X110281560Y-36726932D03*
X110281560Y-37686932D03*
%TD*%
D33*
%TO.C,J19*%
X117276633Y-123507580D03*
X117276633Y-126047580D03*
X117276633Y-128587580D03*
X117276633Y-131127580D03*
X117276633Y-133667580D03*
%TD*%
D34*
%TO.C,H1:12*%
X113737500Y-92800048D03*
X111837500Y-92800048D03*
X112787500Y-94675048D03*
%TD*%
D24*
%TO.C,C125*%
X75537500Y-41917516D03*
X75537500Y-40957516D03*
%TD*%
D15*
%TO.C,H0:2*%
X37525000Y-94687548D03*
X37525000Y-92787548D03*
X35650000Y-93737548D03*
%TD*%
D16*
%TO.C,LED15*%
X70589500Y-89687548D03*
X70589500Y-90487548D03*
X70589500Y-91287548D03*
X72285500Y-91287548D03*
X72285500Y-90487548D03*
X72285500Y-89687548D03*
%TD*%
D24*
%TO.C,C54*%
X50837500Y-112217500D03*
X50837500Y-111257500D03*
%TD*%
D35*
%TO.C,U3*%
X53193500Y-45549992D03*
X53193500Y-46819992D03*
X53193500Y-48089992D03*
X53193500Y-49359992D03*
X60368500Y-49359992D03*
X60368500Y-48089992D03*
X60368500Y-46819992D03*
X60368500Y-45549992D03*
%TD*%
D15*
%TO.C,H1:14*%
X113725000Y-132787580D03*
X113725000Y-130887580D03*
X111850000Y-131837580D03*
%TD*%
D12*
%TO.C,R68*%
X98337500Y-86517517D03*
X98337500Y-87537517D03*
%TD*%
D13*
%TO.C,C83*%
X39112500Y-112807532D03*
X39112500Y-113767532D03*
%TD*%
D36*
%TO.C,C7*%
X66266000Y-53092400D03*
X67296000Y-53092400D03*
%TD*%
D24*
%TO.C,C127*%
X36037500Y-121517516D03*
X36037500Y-120557516D03*
%TD*%
D17*
%TO.C,R90*%
X27287500Y-53457500D03*
X27287500Y-52437500D03*
%TD*%
D13*
%TO.C,C120*%
X109547499Y-45357516D03*
X109547499Y-46317516D03*
%TD*%
D17*
%TO.C,R28*%
X57937500Y-126257515D03*
X57937500Y-125237515D03*
%TD*%
D13*
%TO.C,C87*%
X110281560Y-112927060D03*
X110281560Y-113887060D03*
%TD*%
D37*
%TO.C,U13*%
X45534992Y-33525000D03*
X45034992Y-33525000D03*
X44534992Y-33525000D03*
X44534992Y-34950000D03*
X45534992Y-34950000D03*
%TD*%
D13*
%TO.C,C105*%
X72181592Y-36726932D03*
X72181592Y-37686932D03*
%TD*%
D16*
%TO.C,LED19*%
X91335500Y-34137500D03*
X91335500Y-33337500D03*
X91335500Y-32537500D03*
X89639500Y-32537500D03*
X89639500Y-33337500D03*
X89639500Y-34137500D03*
%TD*%
D14*
%TO.C,R91*%
X78067500Y-33437500D03*
X79087500Y-33437500D03*
%TD*%
D23*
%TO.C,C129*%
X50407500Y-35337516D03*
X51367500Y-35337516D03*
%TD*%
D33*
%TO.C,J10*%
X28257500Y-25598431D03*
X30797500Y-25598431D03*
X33337500Y-25598431D03*
X35877500Y-25598431D03*
X38417500Y-25598431D03*
%TD*%
D17*
%TO.C,R26*%
X86389500Y-63400032D03*
X86389500Y-62380032D03*
%TD*%
D33*
%TO.C,J17*%
X25598431Y-133667580D03*
X25598431Y-131127580D03*
X25598431Y-128587580D03*
X25598431Y-126047580D03*
X25598431Y-123507580D03*
%TD*%
D17*
%TO.C,R21*%
X58937500Y-119837517D03*
X58937500Y-118817517D03*
%TD*%
D38*
%TO.C,Q14*%
X46582500Y-45460016D03*
X45312500Y-45460016D03*
X44042500Y-45460016D03*
X42772500Y-45460016D03*
X42772500Y-50535016D03*
X44042500Y-50535016D03*
X45312500Y-50535016D03*
X46582500Y-50535016D03*
%TD*%
D14*
%TO.C,R11*%
X62887499Y-47147516D03*
X63907499Y-47147516D03*
%TD*%
D12*
%TO.C,R1*%
X56467500Y-42957516D03*
X56467500Y-43977516D03*
%TD*%
D17*
%TO.C,R65*%
X92237500Y-85147516D03*
X92237500Y-84127516D03*
%TD*%
D39*
%TO.C,U16*%
X113284999Y-45087516D03*
X113284999Y-44137516D03*
X113284999Y-43187516D03*
X111009999Y-43187516D03*
X111009999Y-45087516D03*
%TD*%
D13*
%TO.C,C81*%
X91231576Y-131977092D03*
X91231576Y-132937092D03*
%TD*%
D24*
%TO.C,C128*%
X41597500Y-120907516D03*
X41597500Y-119947516D03*
%TD*%
D32*
%TO.C,Q9*%
X102687500Y-91375016D03*
X104587500Y-91375016D03*
X103637500Y-89500016D03*
%TD*%
D23*
%TO.C,C111*%
X71307500Y-59737516D03*
X72267500Y-59737516D03*
%TD*%
%TO.C,C59*%
X87507500Y-90537500D03*
X88467500Y-90537500D03*
%TD*%
D14*
%TO.C,R29*%
X55827500Y-108937516D03*
X56847500Y-108937516D03*
%TD*%
D16*
%TO.C,LED22*%
X91335500Y-91287500D03*
X91335500Y-90487500D03*
X91335500Y-89687500D03*
X89639500Y-89687500D03*
X89639500Y-90487500D03*
X89639500Y-91287500D03*
%TD*%
D17*
%TO.C,R53*%
X62437500Y-80547516D03*
X62437500Y-79527516D03*
%TD*%
D25*
%TO.C,R33*%
X80247500Y-110537516D03*
X79227500Y-110537516D03*
%TD*%
D26*
%TO.C,C109*%
X88517500Y-76037516D03*
X87557500Y-76037516D03*
%TD*%
D13*
%TO.C,C75*%
X35387500Y-32407500D03*
X35387500Y-33367500D03*
%TD*%
D23*
%TO.C,C116*%
X100982500Y-37437500D03*
X101942500Y-37437500D03*
%TD*%
D17*
%TO.C,R101*%
X66674956Y-68885579D03*
X66674956Y-67865579D03*
%TD*%
%TO.C,R77*%
X71937500Y-121847516D03*
X71937500Y-120827516D03*
%TD*%
D13*
%TO.C,C123*%
X74637500Y-66817516D03*
X74637500Y-67777516D03*
%TD*%
D23*
%TO.C,C33*%
X87109500Y-65590032D03*
X88069500Y-65590032D03*
%TD*%
D15*
%TO.C,Q1*%
X78475000Y-102287516D03*
X78475000Y-100387516D03*
X76600000Y-101337516D03*
%TD*%
D12*
%TO.C,R52*%
X91237500Y-84127516D03*
X91237500Y-85147516D03*
%TD*%
D24*
%TO.C,C124*%
X74337500Y-44017516D03*
X74337500Y-43057516D03*
%TD*%
D26*
%TO.C,C113*%
X59552492Y-67852492D03*
X58592492Y-67852492D03*
%TD*%
D16*
%TO.C,LED26*%
X108689500Y-108737500D03*
X108689500Y-109537500D03*
X108689500Y-110337500D03*
X110385500Y-110337500D03*
X110385500Y-109537500D03*
X110385500Y-108737500D03*
%TD*%
D25*
%TO.C,R16*%
X100606052Y-74437516D03*
X99586052Y-74437516D03*
%TD*%
D40*
%TO.C,Q4*%
X98257500Y-34675000D03*
X99527500Y-34675000D03*
X100797500Y-34675000D03*
X102067500Y-34675000D03*
X102067500Y-29600000D03*
X100797500Y-29600000D03*
X99527500Y-29600000D03*
X98257500Y-29600000D03*
%TD*%
D13*
%TO.C,C72*%
X88387500Y-32411016D03*
X88387500Y-33371016D03*
%TD*%
%TO.C,C46*%
X35421092Y-127660936D03*
X35421092Y-128620936D03*
%TD*%
D41*
%TO.C,J8*%
X68401593Y-135112412D03*
X65901593Y-135112412D03*
X63401593Y-135112412D03*
X60901593Y-135112412D03*
X58401593Y-135112412D03*
X55901593Y-135112412D03*
%TD*%
D25*
%TO.C,R94*%
X74647500Y-68697516D03*
X73627500Y-68697516D03*
%TD*%
D14*
%TO.C,R6*%
X54427500Y-51707516D03*
X55447500Y-51707516D03*
%TD*%
D42*
%TO.C,Q7*%
X35695000Y-105172516D03*
X35695000Y-103902516D03*
X35695000Y-102632516D03*
X35695000Y-101362516D03*
X30620000Y-101362516D03*
X30620000Y-102632516D03*
X30620000Y-103902516D03*
X30620000Y-105172516D03*
%TD*%
D13*
%TO.C,C71*%
X111621028Y-32411016D03*
X111621028Y-33371016D03*
%TD*%
%TO.C,C89*%
X53131608Y-93877028D03*
X53131608Y-94837028D03*
%TD*%
D43*
%TO.C,Q5*%
X100162500Y-83727516D03*
X100162500Y-84997516D03*
X100162500Y-86267516D03*
X100162500Y-87537516D03*
X105237500Y-87537516D03*
X105237500Y-86267516D03*
X105237500Y-84997516D03*
X105237500Y-83727516D03*
%TD*%
D12*
%TO.C,R8*%
X64781000Y-50782400D03*
X64781000Y-51802400D03*
%TD*%
D14*
%TO.C,R46*%
X51477500Y-117087500D03*
X52497500Y-117087500D03*
%TD*%
D12*
%TO.C,R24*%
X85389500Y-64380032D03*
X85389500Y-65400032D03*
%TD*%
D25*
%TO.C,R15*%
X100247500Y-56037516D03*
X99227500Y-56037516D03*
%TD*%
D44*
%TO.C,C34*%
X97964500Y-69890032D03*
X95014500Y-69890032D03*
%TD*%
D45*
%TO.C,U4*%
X65262500Y-46565016D03*
X66532500Y-46565016D03*
X67802500Y-46565016D03*
X69072500Y-46565016D03*
X69072500Y-39390016D03*
X67802500Y-39390016D03*
X66532500Y-39390016D03*
X65262500Y-39390016D03*
%TD*%
D12*
%TO.C,R5*%
X76849631Y-66775385D03*
X76849631Y-67795385D03*
%TD*%
D13*
%TO.C,C97*%
X110281560Y-74826996D03*
X110281560Y-75786996D03*
%TD*%
D26*
%TO.C,C17*%
X56141700Y-63137500D03*
X55181700Y-63137500D03*
%TD*%
D13*
%TO.C,C103*%
X34081624Y-36726932D03*
X34081624Y-37686932D03*
%TD*%
D12*
%TO.C,R79*%
X105562500Y-33227500D03*
X105562500Y-34247500D03*
%TD*%
D44*
%TO.C,C35*%
X94764500Y-67190032D03*
X91814500Y-67190032D03*
%TD*%
D33*
%TO.C,J20*%
X117276633Y-28257500D03*
X117276633Y-30797500D03*
X117276633Y-33337500D03*
X117276633Y-35877500D03*
X117276633Y-38417500D03*
%TD*%
D34*
%TO.C,U10*%
X61437500Y-122300000D03*
X59537500Y-122300000D03*
X60487500Y-124175000D03*
%TD*%
D14*
%TO.C,R45*%
X69302500Y-79362500D03*
X70322500Y-79362500D03*
%TD*%
D15*
%TO.C,H0:11*%
X75625000Y-132787580D03*
X75625000Y-130887580D03*
X73750000Y-131837580D03*
%TD*%
D43*
%TO.C,Q2*%
X54162500Y-99827516D03*
X54162500Y-101097516D03*
X54162500Y-102367516D03*
X54162500Y-103637516D03*
X59237500Y-103637516D03*
X59237500Y-102367516D03*
X59237500Y-101097516D03*
X59237500Y-99827516D03*
%TD*%
D16*
%TO.C,LED20*%
X91335500Y-53187500D03*
X91335500Y-52387500D03*
X91335500Y-51587500D03*
X89639500Y-51587500D03*
X89639500Y-52387500D03*
X89639500Y-53187500D03*
%TD*%
D12*
%TO.C,R47*%
X81937500Y-107727516D03*
X81937500Y-108747516D03*
%TD*%
%TO.C,R7*%
X63781000Y-50782400D03*
X63781000Y-51802400D03*
%TD*%
D24*
%TO.C,C130*%
X54137500Y-38617516D03*
X54137500Y-37657516D03*
%TD*%
%TO.C,C36*%
X84389500Y-63370032D03*
X84389500Y-62410032D03*
%TD*%
D13*
%TO.C,C94*%
X53131608Y-74826996D03*
X53131608Y-75786996D03*
%TD*%
D24*
%TO.C,C67*%
X50337500Y-53117500D03*
X50337500Y-52157500D03*
%TD*%
D46*
%TO.C,J3*%
X116062572Y-57804707D03*
X116062572Y-60304707D03*
X116062572Y-62804707D03*
X116062572Y-65304707D03*
X116062572Y-67804707D03*
X116062572Y-70304707D03*
%TD*%
D24*
%TO.C,C119*%
X38537500Y-102317516D03*
X38537500Y-101357516D03*
%TD*%
D13*
%TO.C,C99*%
X53131608Y-55776964D03*
X53131608Y-56736964D03*
%TD*%
D14*
%TO.C,R66*%
X48227500Y-86737500D03*
X49247500Y-86737500D03*
%TD*%
D47*
%TO.C,R48*%
X42158124Y-35026892D03*
X41436876Y-35748140D03*
%TD*%
D15*
%TO.C,H0:3*%
X37525000Y-75637532D03*
X37525000Y-73737532D03*
X35650000Y-74687532D03*
%TD*%
D25*
%TO.C,R62*%
X48147500Y-133817516D03*
X47127500Y-133817516D03*
%TD*%
D13*
%TO.C,C62*%
X88387500Y-70457500D03*
X88387500Y-71417500D03*
%TD*%
D33*
%TO.C,J16*%
X38417500Y-136326649D03*
X35877500Y-136326649D03*
X33337500Y-136326649D03*
X30797500Y-136326649D03*
X28257500Y-136326649D03*
%TD*%
D12*
%TO.C,R3*%
X68981000Y-51232400D03*
X68981000Y-52252400D03*
%TD*%
D48*
%TO.C,C40*%
X36362500Y-81237516D03*
X39312500Y-81237516D03*
%TD*%
D13*
%TO.C,C50*%
X111621028Y-127694452D03*
X111621028Y-128654452D03*
%TD*%
%TO.C,C18*%
X70246828Y-64557848D03*
X70246828Y-65517848D03*
%TD*%
D41*
%TO.C,J1*%
X55901593Y-26812492D03*
X58401593Y-26812492D03*
X60901593Y-26812492D03*
X63401593Y-26812492D03*
X65901593Y-26812492D03*
X68401593Y-26812492D03*
%TD*%
D24*
%TO.C,C63*%
X73637500Y-72467500D03*
X73637500Y-71507500D03*
%TD*%
D26*
%TO.C,C115*%
X38417500Y-79537516D03*
X37457500Y-79537516D03*
%TD*%
D49*
%TO.C,U15*%
X99254052Y-72183032D03*
X99254052Y-72833032D03*
X99254052Y-73483032D03*
X100929052Y-73483032D03*
X100929052Y-72833032D03*
X100929052Y-72183032D03*
%TD*%
D26*
%TO.C,C8*%
X56317500Y-60137516D03*
X55357500Y-60137516D03*
%TD*%
D50*
%TO.C,C31*%
X94389500Y-61615032D03*
X94389500Y-64565032D03*
%TD*%
D16*
%TO.C,LED4*%
X32489500Y-70637500D03*
X32489500Y-71437500D03*
X32489500Y-72237500D03*
X34185500Y-72237500D03*
X34185500Y-71437500D03*
X34185500Y-70637500D03*
%TD*%
D25*
%TO.C,R38*%
X87609500Y-60990032D03*
X86589500Y-60990032D03*
%TD*%
D12*
%TO.C,R92*%
X100537500Y-121117517D03*
X100537500Y-122137517D03*
%TD*%
D13*
%TO.C,C52*%
X88387500Y-108607500D03*
X88387500Y-109567500D03*
%TD*%
D26*
%TO.C,C45*%
X78135000Y-103687516D03*
X77175000Y-103687516D03*
%TD*%
D44*
%TO.C,C28*%
X98062500Y-50987532D03*
X95112500Y-50987532D03*
%TD*%
D51*
%TO.C,AM0*%
X43827316Y-77387444D03*
X43827316Y-78037444D03*
X43827316Y-78687444D03*
X43827316Y-79337444D03*
X43827316Y-79987444D03*
X43827316Y-80637444D03*
X43827316Y-81287444D03*
X43827316Y-81937444D03*
X43827316Y-82587444D03*
X43827316Y-83237444D03*
X43827316Y-83887444D03*
X43827316Y-84537444D03*
X50827316Y-84537444D03*
X50827316Y-83887444D03*
X50827316Y-83237444D03*
X50827316Y-82587444D03*
X50827316Y-81937444D03*
X50827316Y-81287444D03*
X50827316Y-80637444D03*
X50827316Y-79987444D03*
X50827316Y-79337444D03*
X50827316Y-78687444D03*
X50827316Y-78037444D03*
X50827316Y-77387444D03*
%TD*%
D14*
%TO.C,R82*%
X34627500Y-98937516D03*
X35647500Y-98937516D03*
%TD*%
D15*
%TO.C,H0:0*%
X37525000Y-132787580D03*
X37525000Y-130887580D03*
X35650000Y-131837580D03*
%TD*%
%TO.C,H0:14*%
X56575000Y-94687548D03*
X56575000Y-92787548D03*
X54700000Y-93737548D03*
%TD*%
D52*
%TO.C,U11*%
X52037500Y-118437516D03*
X52037500Y-119707516D03*
X52037500Y-120977516D03*
X52037500Y-122247516D03*
X57337500Y-122247516D03*
X57337500Y-120977516D03*
X57337500Y-119707516D03*
X57337500Y-118437516D03*
%TD*%
D53*
%TO.C,H8*%
X61912524Y-42267195D03*
%TD*%
D54*
%TO.C,PD2*%
X38637500Y-120700016D03*
X39137500Y-120700016D03*
X39637500Y-120700016D03*
D55*
X40400000Y-120187516D03*
X40400000Y-119687516D03*
X40400000Y-119187516D03*
X40400000Y-118687516D03*
D54*
X39637500Y-118175016D03*
X39137500Y-118175016D03*
X38637500Y-118175016D03*
D55*
X37875000Y-118687516D03*
X37875000Y-119187516D03*
X37875000Y-119687516D03*
X37875000Y-120187516D03*
D21*
X39137500Y-119437516D03*
%TD*%
D13*
%TO.C,C39*%
X36737500Y-62757516D03*
X36737500Y-63717516D03*
%TD*%
D39*
%TO.C,U6*%
X90127000Y-64340032D03*
X90127000Y-63390032D03*
X90127000Y-62440032D03*
X87852000Y-62440032D03*
X87852000Y-63390032D03*
X87852000Y-64340032D03*
%TD*%
D44*
%TO.C,C77*%
X99212501Y-118227517D03*
X96262499Y-118227517D03*
%TD*%
D24*
%TO.C,C118*%
X67737500Y-124117516D03*
X67737500Y-123157516D03*
%TD*%
D15*
%TO.C,Q10*%
X70112501Y-122887516D03*
X70112501Y-120987516D03*
X68237501Y-121937516D03*
%TD*%
D16*
%TO.C,LED7*%
X53235500Y-34137500D03*
X53235500Y-33337500D03*
X53235500Y-32537500D03*
X51539500Y-32537500D03*
X51539500Y-33337500D03*
X51539500Y-34137500D03*
%TD*%
D12*
%TO.C,R25*%
X85389500Y-62380032D03*
X85389500Y-63400032D03*
%TD*%
D46*
%TO.C,J5*%
X26812508Y-104120373D03*
X26812508Y-101620373D03*
X26812508Y-99120373D03*
X26812508Y-96620373D03*
X26812508Y-94120373D03*
X26812508Y-91620373D03*
%TD*%
D14*
%TO.C,R80*%
X103127500Y-92937516D03*
X104147500Y-92937516D03*
%TD*%
D50*
%TO.C,C19*%
X74137500Y-60262516D03*
X74137500Y-63212516D03*
%TD*%
D56*
%TO.C,L3*%
X99189500Y-61190032D03*
X99189500Y-67240032D03*
%TD*%
D13*
%TO.C,C82*%
X110281560Y-131977092D03*
X110281560Y-132937092D03*
%TD*%
%TO.C,C65*%
X35421092Y-70510984D03*
X35421092Y-71470984D03*
%TD*%
D26*
%TO.C,C2*%
X59267072Y-43755444D03*
X58307072Y-43755444D03*
%TD*%
D13*
%TO.C,C114*%
X97996052Y-71957516D03*
X97996052Y-72917516D03*
%TD*%
D26*
%TO.C,C43*%
X44717500Y-114587500D03*
X43757500Y-114587500D03*
%TD*%
D13*
%TO.C,C78*%
X34081624Y-131977092D03*
X34081624Y-132937092D03*
%TD*%
D15*
%TO.C,H0:1*%
X37525000Y-113737564D03*
X37525000Y-111837564D03*
X35650000Y-112787564D03*
%TD*%
D17*
%TO.C,R99*%
X74537500Y-41947516D03*
X74537500Y-40927516D03*
%TD*%
D15*
%TO.C,H0:13*%
X56575000Y-113737564D03*
X56575000Y-111837564D03*
X54700000Y-112787564D03*
%TD*%
D13*
%TO.C,C13*%
X62787500Y-68257500D03*
X62787500Y-69217500D03*
%TD*%
D14*
%TO.C,R97*%
X71727500Y-42037516D03*
X72747500Y-42037516D03*
%TD*%
D13*
%TO.C,C122*%
X75837500Y-66817516D03*
X75837500Y-67777516D03*
%TD*%
D14*
%TO.C,R10*%
X53777500Y-43827516D03*
X54797500Y-43827516D03*
%TD*%
D15*
%TO.C,H1:7*%
X75625016Y-75637500D03*
X75625016Y-73737500D03*
X73750016Y-74687500D03*
%TD*%
D25*
%TO.C,R89*%
X60607500Y-109787500D03*
X59587500Y-109787500D03*
%TD*%
D16*
%TO.C,LED18*%
X70589500Y-32537500D03*
X70589500Y-33337500D03*
X70589500Y-34137500D03*
X72285500Y-34137500D03*
X72285500Y-33337500D03*
X72285500Y-32537500D03*
%TD*%
D14*
%TO.C,R22*%
X55717500Y-123737516D03*
X56737500Y-123737516D03*
%TD*%
D57*
%TO.C,U2*%
X32875000Y-79387532D03*
D58*
X32975000Y-78987532D03*
D59*
X32712500Y-78325032D03*
X32312500Y-78325032D03*
X31912500Y-78325032D03*
D58*
X31650000Y-78987532D03*
X31650000Y-79387532D03*
D59*
X31912500Y-80050032D03*
X32312500Y-80050032D03*
X32712500Y-80050032D03*
%TD*%
D12*
%TO.C,R81*%
X71937500Y-122937515D03*
X71937500Y-123957515D03*
%TD*%
D15*
%TO.C,H1:11*%
X113725000Y-75637532D03*
X113725000Y-73737532D03*
X111850000Y-74687532D03*
%TD*%
%TO.C,H1:5*%
X75625016Y-37537532D03*
X75625016Y-35637532D03*
X73750016Y-36587532D03*
%TD*%
D23*
%TO.C,C11*%
X71296008Y-60729008D03*
X72256008Y-60729008D03*
%TD*%
D16*
%TO.C,LED11*%
X53235500Y-110337500D03*
X53235500Y-109537500D03*
X53235500Y-108737500D03*
X51539500Y-108737500D03*
X51539500Y-109537500D03*
X51539500Y-110337500D03*
%TD*%
D13*
%TO.C,C60*%
X111621028Y-89560968D03*
X111621028Y-90520968D03*
%TD*%
D12*
%TO.C,R14*%
X34437500Y-79027516D03*
X34437500Y-80047516D03*
%TD*%
D17*
%TO.C,R27*%
X57937500Y-124337517D03*
X57937500Y-123317517D03*
%TD*%
D23*
%TO.C,C4*%
X64896000Y-70512400D03*
X65856000Y-70512400D03*
%TD*%
%TO.C,C42*%
X44417500Y-36457516D03*
X45377500Y-36457516D03*
%TD*%
D60*
%TO.C,U17*%
X44812500Y-118500016D03*
X44162500Y-118500016D03*
X43512500Y-118500016D03*
X42862500Y-118500016D03*
X42862500Y-120775016D03*
X43512500Y-120775016D03*
X44162500Y-120775016D03*
X44812500Y-120775016D03*
%TD*%
D61*
%TO.C,U14*%
X33512500Y-116462532D03*
X33512500Y-116962532D03*
X33512500Y-117462532D03*
X34937500Y-117462532D03*
X34937500Y-116462532D03*
%TD*%
D13*
%TO.C,C88*%
X34081624Y-93877028D03*
X34081624Y-94837028D03*
%TD*%
D25*
%TO.C,R74*%
X35647500Y-99937516D03*
X34627500Y-99937516D03*
%TD*%
D14*
%TO.C,R85*%
X56627500Y-53337516D03*
X57647500Y-53337516D03*
%TD*%
D16*
%TO.C,LED12*%
X53235500Y-129387500D03*
X53235500Y-128587500D03*
X53235500Y-127787500D03*
X51539500Y-127787500D03*
X51539500Y-128587500D03*
X51539500Y-129387500D03*
%TD*%
D13*
%TO.C,C98*%
X34081624Y-55776964D03*
X34081624Y-56736964D03*
%TD*%
D51*
%TO.C,AM1*%
X81927284Y-77387444D03*
X81927284Y-78037444D03*
X81927284Y-78687444D03*
X81927284Y-79337444D03*
X81927284Y-79987444D03*
X81927284Y-80637444D03*
X81927284Y-81287444D03*
X81927284Y-81937444D03*
X81927284Y-82587444D03*
X81927284Y-83237444D03*
X81927284Y-83887444D03*
X81927284Y-84537444D03*
X88927284Y-84537444D03*
X88927284Y-83887444D03*
X88927284Y-83237444D03*
X88927284Y-82587444D03*
X88927284Y-81937444D03*
X88927284Y-81287444D03*
X88927284Y-80637444D03*
X88927284Y-79987444D03*
X88927284Y-79337444D03*
X88927284Y-78687444D03*
X88927284Y-78037444D03*
X88927284Y-77387444D03*
%TD*%
D13*
%TO.C,C84*%
X53131608Y-112927060D03*
X53131608Y-113887060D03*
%TD*%
D14*
%TO.C,R35*%
X77127500Y-104937516D03*
X78147500Y-104937516D03*
%TD*%
D16*
%TO.C,LED17*%
X70589500Y-51587500D03*
X70589500Y-52387500D03*
X70589500Y-53187500D03*
X72285500Y-53187500D03*
X72285500Y-52387500D03*
X72285500Y-51587500D03*
%TD*%
D25*
%TO.C,R43*%
X62197500Y-39537500D03*
X61177500Y-39537500D03*
%TD*%
D17*
%TO.C,R71*%
X103462500Y-34247500D03*
X103462500Y-33227500D03*
%TD*%
%TO.C,R73*%
X66437500Y-122936584D03*
X66437500Y-121916584D03*
%TD*%
D15*
%TO.C,H1:0*%
X94675000Y-94687548D03*
X94675000Y-92787548D03*
X92800000Y-93737548D03*
%TD*%
D16*
%TO.C,LED2*%
X32489500Y-108737500D03*
X32489500Y-109537500D03*
X32489500Y-110337500D03*
X34185500Y-110337500D03*
X34185500Y-109537500D03*
X34185500Y-108737500D03*
%TD*%
%TO.C,LED29*%
X108689500Y-51587500D03*
X108689500Y-52387500D03*
X108689500Y-53187500D03*
X110385500Y-53187500D03*
X110385500Y-52387500D03*
X110385500Y-51587500D03*
%TD*%
D24*
%TO.C,C126*%
X67716752Y-68825580D03*
X67716752Y-67865580D03*
%TD*%
D15*
%TO.C,H0:10*%
X75625000Y-113737564D03*
X75625000Y-111837564D03*
X73750000Y-112787564D03*
%TD*%
D12*
%TO.C,R75*%
X104462500Y-33227500D03*
X104462500Y-34247500D03*
%TD*%
D15*
%TO.C,H0:9*%
X75625000Y-94687548D03*
X75625000Y-92787548D03*
X73750000Y-93737548D03*
%TD*%
D13*
%TO.C,C66*%
X35421092Y-51461000D03*
X35421092Y-52421000D03*
%TD*%
%TO.C,C9*%
X68981000Y-53112400D03*
X68981000Y-54072400D03*
%TD*%
D12*
%TO.C,R2*%
X63981000Y-67887400D03*
X63981000Y-68907400D03*
%TD*%
D14*
%TO.C,R78*%
X34627500Y-97937515D03*
X35647500Y-97937515D03*
%TD*%
%TO.C,R44*%
X61177500Y-37637500D03*
X62197500Y-37637500D03*
%TD*%
D15*
%TO.C,Q8*%
X105800000Y-31987500D03*
X105800000Y-30087500D03*
X103925000Y-31037500D03*
%TD*%
D26*
%TO.C,C15*%
X56290512Y-57837516D03*
X55330512Y-57837516D03*
%TD*%
D13*
%TO.C,C93*%
X34081624Y-74826996D03*
X34081624Y-75786996D03*
%TD*%
%TO.C,C41*%
X98037500Y-53357516D03*
X98037500Y-54317516D03*
%TD*%
D23*
%TO.C,C92*%
X112778136Y-96142916D03*
X113738136Y-96142916D03*
%TD*%
D16*
%TO.C,LED9*%
X53235500Y-72237500D03*
X53235500Y-71437500D03*
X53235500Y-70637500D03*
X51539500Y-70637500D03*
X51539500Y-71437500D03*
X51539500Y-72237500D03*
%TD*%
D49*
%TO.C,U9*%
X99190000Y-53762516D03*
X99190000Y-54412516D03*
X99190000Y-55062516D03*
X100865000Y-55062516D03*
X100865000Y-54412516D03*
X100865000Y-53762516D03*
%TD*%
D25*
%TO.C,R64*%
X34147500Y-130337516D03*
X33127500Y-130337516D03*
%TD*%
D17*
%TO.C,R56*%
X65437500Y-80547516D03*
X65437500Y-79527516D03*
%TD*%
%TO.C,R70*%
X37537500Y-102347516D03*
X37537500Y-101327516D03*
%TD*%
D15*
%TO.C,H0:8*%
X56575000Y-75637532D03*
X56575000Y-73737532D03*
X54700000Y-74687532D03*
%TD*%
D13*
%TO.C,C68*%
X73521060Y-51461000D03*
X73521060Y-52421000D03*
%TD*%
%TO.C,C58*%
X73521060Y-89709796D03*
X73521060Y-90669796D03*
%TD*%
D14*
%TO.C,R93*%
X75839631Y-68697516D03*
X76859631Y-68697516D03*
%TD*%
D17*
%TO.C,R102*%
X46137500Y-119447516D03*
X46137500Y-118427516D03*
%TD*%
D13*
%TO.C,C70*%
X111621028Y-51461000D03*
X111621028Y-52421000D03*
%TD*%
D16*
%TO.C,LED21*%
X91335500Y-72237500D03*
X91335500Y-71437500D03*
X91335500Y-70637500D03*
X89639500Y-70637500D03*
X89639500Y-71437500D03*
X89639500Y-72237500D03*
%TD*%
D62*
%TO.C,D5*%
X79817500Y-103737516D03*
X79817500Y-105637516D03*
X81692500Y-104687516D03*
%TD*%
D46*
%TO.C,J4*%
X116062428Y-91620373D03*
X116062428Y-94120373D03*
X116062428Y-96620373D03*
X116062428Y-99120373D03*
X116062428Y-101620373D03*
X116062428Y-104120373D03*
%TD*%
D36*
%TO.C,C110*%
X66267492Y-52052492D03*
X67297492Y-52052492D03*
%TD*%
D63*
%TO.C,SW2*%
X26804289Y-74741356D03*
X26804289Y-77191356D03*
D64*
X26804289Y-75966356D03*
D65*
X24854288Y-74116356D03*
X24854288Y-77816356D03*
%TD*%
D17*
%TO.C,R54*%
X63437500Y-80547516D03*
X63437500Y-79527516D03*
%TD*%
D13*
%TO.C,C48*%
X73462500Y-127007500D03*
X73462500Y-127967500D03*
%TD*%
D16*
%TO.C,LED16*%
X70589500Y-70637500D03*
X70589500Y-71437500D03*
X70589500Y-72237500D03*
X72285500Y-72237500D03*
X72285500Y-71437500D03*
X72285500Y-70637500D03*
%TD*%
D25*
%TO.C,R40*%
X70322500Y-78412500D03*
X69302500Y-78412500D03*
%TD*%
D16*
%TO.C,LED14*%
X70589500Y-108737500D03*
X70589500Y-109537500D03*
X70589500Y-110337500D03*
X72285500Y-110337500D03*
X72285500Y-109537500D03*
X72285500Y-108737500D03*
%TD*%
D23*
%TO.C,C27*%
X87207500Y-46687532D03*
X88167500Y-46687532D03*
%TD*%
D56*
%TO.C,L2*%
X99287500Y-42287532D03*
X99287500Y-48337532D03*
%TD*%
D33*
%TO.C,J18*%
X114617564Y-136326649D03*
X112077564Y-136326649D03*
X109537564Y-136326649D03*
X106997564Y-136326649D03*
X104457564Y-136326649D03*
%TD*%
D66*
%TO.C,Y1*%
X62681000Y-74942400D03*
X64881000Y-74942400D03*
X64881000Y-73242400D03*
X62681000Y-73242400D03*
%TD*%
D15*
%TO.C,H0:4*%
X37525000Y-56587516D03*
X37525000Y-54687516D03*
X35650000Y-55637516D03*
%TD*%
D17*
%TO.C,R39*%
X35537500Y-79047516D03*
X35537500Y-78027516D03*
%TD*%
D67*
%TO.C,J9*%
X93837500Y-29237516D03*
X92837500Y-29237517D03*
X91837500Y-29237516D03*
D68*
X95137500Y-25362516D03*
X90537500Y-25362516D03*
%TD*%
D69*
%TO.C,U8*%
X51137500Y-136357517D03*
X51137500Y-135857517D03*
X51137500Y-135357517D03*
X51137500Y-134857517D03*
X48337500Y-134857517D03*
X48337500Y-135357517D03*
X48337500Y-135857517D03*
X48337500Y-136357517D03*
%TD*%
D13*
%TO.C,C61*%
X111621028Y-70510984D03*
X111621028Y-71470984D03*
%TD*%
D25*
%TO.C,R36*%
X78142500Y-105992500D03*
X77122500Y-105992500D03*
%TD*%
D13*
%TO.C,C106*%
X91231576Y-36726932D03*
X91231576Y-37686932D03*
%TD*%
D33*
%TO.C,J12*%
X104457564Y-25598431D03*
X106997564Y-25598431D03*
X109537564Y-25598431D03*
X112077564Y-25598431D03*
X114617564Y-25598431D03*
%TD*%
D15*
%TO.C,H0:5*%
X37525000Y-37537500D03*
X37525000Y-35637500D03*
X35650000Y-36587500D03*
%TD*%
D34*
%TO.C,Q11*%
X33387500Y-97600016D03*
X31487500Y-97600016D03*
X32437500Y-99475016D03*
%TD*%
D17*
%TO.C,R87*%
X56554668Y-66097500D03*
X56554668Y-65077500D03*
%TD*%
%TO.C,R20*%
X86487500Y-44497532D03*
X86487500Y-43477532D03*
%TD*%
%TO.C,R37*%
X36737500Y-65647516D03*
X36737500Y-64627516D03*
%TD*%
D15*
%TO.C,H0:12*%
X56575000Y-132787580D03*
X56575000Y-130887580D03*
X54700000Y-131837580D03*
%TD*%
D24*
%TO.C,C30*%
X84487500Y-44467532D03*
X84487500Y-43507532D03*
%TD*%
D13*
%TO.C,C86*%
X91231576Y-112927060D03*
X91231576Y-113887060D03*
%TD*%
D48*
%TO.C,C121*%
X110872498Y-47037516D03*
X113822500Y-47037516D03*
%TD*%
D13*
%TO.C,C96*%
X91231576Y-74826996D03*
X91231576Y-75786996D03*
%TD*%
D26*
%TO.C,C108*%
X51817500Y-76137516D03*
X50857500Y-76137516D03*
%TD*%
D63*
%TO.C,SW1*%
X26812492Y-84797596D03*
X26812492Y-87247596D03*
D64*
X26812492Y-86022596D03*
D65*
X24862492Y-84172596D03*
X24862492Y-87872596D03*
%TD*%
D43*
%TO.C,Q13*%
X38200000Y-122832516D03*
X38200000Y-124102516D03*
X38200000Y-125372516D03*
X38200000Y-126642516D03*
X43275000Y-126642516D03*
X43275000Y-125372516D03*
X43275000Y-124102516D03*
X43275000Y-122832516D03*
%TD*%
D15*
%TO.C,H0:7*%
X56575000Y-56587516D03*
X56575000Y-54687516D03*
X54700000Y-55637516D03*
%TD*%
D41*
%TO.C,J7*%
X86973471Y-135112588D03*
X84473471Y-135112588D03*
X81973471Y-135112588D03*
X79473471Y-135112588D03*
X76973471Y-135112588D03*
X74473471Y-135112588D03*
%TD*%
D39*
%TO.C,U5*%
X90225000Y-45437532D03*
X90225000Y-44487532D03*
X90225000Y-43537532D03*
X87950000Y-43537532D03*
X87950000Y-44487532D03*
X87950000Y-45437532D03*
%TD*%
D23*
%TO.C,C112*%
X70857500Y-54837500D03*
X71817500Y-54837500D03*
%TD*%
D15*
%TO.C,H1:2*%
X94675000Y-132787452D03*
X94675000Y-130887452D03*
X92800000Y-131837452D03*
%TD*%
D14*
%TO.C,R67*%
X100952500Y-36437500D03*
X101972500Y-36437500D03*
%TD*%
D16*
%TO.C,LED3*%
X32489500Y-89687500D03*
X32489500Y-90487500D03*
X32489500Y-91287500D03*
X34185500Y-91287500D03*
X34185500Y-90487500D03*
X34185500Y-89687500D03*
%TD*%
D15*
%TO.C,H1:6*%
X75625016Y-56587516D03*
X75625016Y-54687516D03*
X73750016Y-55637516D03*
%TD*%
D13*
%TO.C,C104*%
X58127500Y-36637516D03*
X58127500Y-37597516D03*
%TD*%
%TO.C,C131*%
X93787500Y-43507500D03*
X93787500Y-44467500D03*
%TD*%
D70*
%TO.C,USB1*%
X48443760Y-31724683D03*
X47643760Y-31724683D03*
D71*
X46493760Y-31724683D03*
X45493760Y-31724683D03*
X44993760Y-31724683D03*
X43993760Y-31724683D03*
D70*
X42843760Y-31724683D03*
X42043760Y-31724683D03*
X42043760Y-31724683D03*
X42843760Y-31724683D03*
D71*
X43493760Y-31724683D03*
X44493760Y-31724683D03*
X45993760Y-31724683D03*
X46993760Y-31724683D03*
D70*
X47643760Y-31724683D03*
X48443760Y-31724683D03*
D72*
X49563760Y-31084683D03*
D73*
X49563760Y-26904683D03*
D72*
X40923760Y-31084683D03*
D73*
X40923760Y-26904683D03*
%TD*%
D13*
%TO.C,C101*%
X91231576Y-55776964D03*
X91231576Y-56736964D03*
%TD*%
D44*
%TO.C,C29*%
X94862500Y-48287532D03*
X91912500Y-48287532D03*
%TD*%
D38*
%TO.C,Q6*%
X68042500Y-126400016D03*
X66772500Y-126400016D03*
X65502500Y-126400016D03*
X64232500Y-126400016D03*
X64232500Y-131475016D03*
X65502500Y-131475016D03*
X66772500Y-131475016D03*
X68042500Y-131475016D03*
%TD*%
D15*
%TO.C,Q3*%
X80337500Y-109237516D03*
X80337500Y-107337516D03*
X78462500Y-108287516D03*
%TD*%
D12*
%TO.C,R88*%
X116137500Y-107577500D03*
X116137500Y-108597500D03*
%TD*%
D26*
%TO.C,C14*%
X57417500Y-50937516D03*
X56457500Y-50937516D03*
%TD*%
D13*
%TO.C,C55*%
X35421092Y-108759780D03*
X35421092Y-109719780D03*
%TD*%
D15*
%TO.C,H1:9*%
X113724984Y-37537532D03*
X113724984Y-35637532D03*
X111849984Y-36587532D03*
%TD*%
D41*
%TO.C,J2*%
X74473404Y-26812508D03*
X76973404Y-26812508D03*
X79473404Y-26812508D03*
X81973404Y-26812508D03*
X84473404Y-26812508D03*
X86973404Y-26812508D03*
%TD*%
D46*
%TO.C,J6*%
X26812508Y-70304707D03*
X26812508Y-67804707D03*
X26812508Y-65304707D03*
X26812508Y-62804707D03*
X26812508Y-60304707D03*
X26812508Y-57804707D03*
%TD*%
D25*
%TO.C,R96*%
X113757499Y-41937516D03*
X112737499Y-41937516D03*
%TD*%
D15*
%TO.C,H1:1*%
X94675000Y-113737564D03*
X94675000Y-111837564D03*
X92800000Y-112787564D03*
%TD*%
D14*
%TO.C,R30*%
X55427500Y-117037516D03*
X56447500Y-117037516D03*
%TD*%
D26*
%TO.C,C21*%
X59561000Y-66792400D03*
X58601000Y-66792400D03*
%TD*%
D25*
%TO.C,R76*%
X101247500Y-90337516D03*
X100227500Y-90337516D03*
%TD*%
D14*
%TO.C,R32*%
X55417500Y-115837516D03*
X56437500Y-115837516D03*
%TD*%
D23*
%TO.C,C38*%
X57757500Y-117037516D03*
X58717500Y-117037516D03*
%TD*%
D13*
%TO.C,C69*%
X88387500Y-51461000D03*
X88387500Y-52421000D03*
%TD*%
D74*
%TO.C,U18*%
X50895000Y-38535016D03*
X50895000Y-37885016D03*
X50895000Y-37235016D03*
X50895000Y-36585016D03*
X48620000Y-36585016D03*
X48620000Y-37235016D03*
X48620000Y-37885016D03*
X48620000Y-38535016D03*
%TD*%
D14*
%TO.C,R13*%
X62467499Y-45987516D03*
X63487499Y-45987516D03*
%TD*%
D17*
%TO.C,R49*%
X46747500Y-35967516D03*
X46747500Y-34947516D03*
%TD*%
D25*
%TO.C,R51*%
X34567472Y-115168716D03*
X33547472Y-115168716D03*
%TD*%
D33*
%TO.C,J11*%
X25598431Y-38417500D03*
X25598431Y-35877500D03*
X25598431Y-33337500D03*
X25598431Y-30797500D03*
X25598431Y-28257500D03*
%TD*%
D36*
%TO.C,C6*%
X66266000Y-54042400D03*
X67296000Y-54042400D03*
%TD*%
D13*
%TO.C,C64*%
X50287500Y-70510984D03*
X50287500Y-71470984D03*
%TD*%
D25*
%TO.C,R95*%
X111557499Y-41937516D03*
X110537499Y-41937516D03*
%TD*%
D12*
%TO.C,R63*%
X31237500Y-129427516D03*
X31237500Y-130447516D03*
%TD*%
D13*
%TO.C,C102*%
X110281560Y-55776964D03*
X110281560Y-56736964D03*
%TD*%
D16*
%TO.C,LED6*%
X32489500Y-32537500D03*
X32489500Y-33337500D03*
X32489500Y-34137500D03*
X34185500Y-34137500D03*
X34185500Y-33337500D03*
X34185500Y-32537500D03*
%TD*%
D23*
%TO.C,C16*%
X71307500Y-61687516D03*
X72267500Y-61687516D03*
%TD*%
D26*
%TO.C,C37*%
X56717500Y-125137516D03*
X55757500Y-125137516D03*
%TD*%
D75*
%TO.C,U1*%
X58884500Y-56292400D03*
X58884500Y-56692400D03*
X58884500Y-57092400D03*
X58884500Y-57492400D03*
X58884500Y-57892400D03*
X58884500Y-58292400D03*
X58884500Y-58692400D03*
X58884500Y-59092400D03*
X58884500Y-59492400D03*
X58884500Y-59892400D03*
X58884500Y-60292400D03*
X58884500Y-60692400D03*
X58884500Y-61092400D03*
X58884500Y-61492400D03*
X58884500Y-61892400D03*
X58884500Y-62292400D03*
X58884500Y-62692400D03*
X58884500Y-63092400D03*
X58884500Y-63492400D03*
X58884500Y-63892400D03*
D76*
X59981000Y-64988900D03*
X60381000Y-64988900D03*
X60781000Y-64988900D03*
X61181000Y-64988900D03*
X61581000Y-64988900D03*
X61981000Y-64988900D03*
X62381000Y-64988900D03*
X62781000Y-64988900D03*
X63181000Y-64988900D03*
X63581000Y-64988900D03*
X63981000Y-64988900D03*
X64381000Y-64988900D03*
X64781000Y-64988900D03*
X65181000Y-64988900D03*
X65581000Y-64988900D03*
X65981000Y-64988900D03*
X66381000Y-64988900D03*
X66781000Y-64988900D03*
X67181000Y-64988900D03*
X67581000Y-64988900D03*
D75*
X68677500Y-63892400D03*
X68677500Y-63492400D03*
X68677500Y-63092400D03*
X68677500Y-62692400D03*
X68677500Y-62292400D03*
X68677500Y-61892400D03*
X68677500Y-61492400D03*
X68677500Y-61092400D03*
X68677500Y-60692400D03*
X68677500Y-60292400D03*
X68677500Y-59892400D03*
X68677500Y-59492400D03*
X68677500Y-59092400D03*
X68677500Y-58692400D03*
X68677500Y-58292400D03*
X68677500Y-57892400D03*
X68677500Y-57492400D03*
X68677500Y-57092400D03*
X68677500Y-56692400D03*
X68677500Y-56292400D03*
D76*
X67581000Y-55195900D03*
X67181000Y-55195900D03*
X66781000Y-55195900D03*
X66381000Y-55195900D03*
X65981000Y-55195900D03*
X65581000Y-55195900D03*
X65181000Y-55195900D03*
X64781000Y-55195900D03*
X64381000Y-55195900D03*
X63981000Y-55195900D03*
X63581000Y-55195900D03*
X63181000Y-55195900D03*
X62781000Y-55195900D03*
X62381000Y-55195900D03*
X61981000Y-55195900D03*
X61581000Y-55195900D03*
X61181000Y-55195900D03*
X60781000Y-55195900D03*
X60381000Y-55195900D03*
X59981000Y-55195900D03*
D77*
X62647667Y-58959067D03*
D78*
X62647667Y-58959067D03*
D77*
X62647667Y-60092400D03*
D78*
X62647667Y-60092400D03*
D77*
X62647667Y-61225733D03*
D78*
X62647667Y-61225733D03*
D77*
X63781000Y-58959067D03*
D78*
X63781000Y-58959067D03*
D77*
X63781000Y-60092400D03*
D78*
X63781000Y-60092400D03*
D77*
X63781000Y-61225733D03*
D78*
X63781000Y-61225733D03*
D77*
X64914333Y-58959067D03*
D78*
X64914333Y-58959067D03*
D77*
X64914333Y-60092400D03*
D78*
X64914333Y-60092400D03*
D77*
X64914333Y-61225733D03*
D78*
X64914333Y-61225733D03*
%TD*%
D13*
%TO.C,C91*%
X91231576Y-93877028D03*
X91231576Y-94837028D03*
%TD*%
%TO.C,C53*%
X73521060Y-108610952D03*
X73521060Y-109570952D03*
%TD*%
%TO.C,C26*%
X94787500Y-43507500D03*
X94787500Y-44467500D03*
%TD*%
D16*
%TO.C,LED28*%
X108689500Y-70637500D03*
X108689500Y-71437500D03*
X108689500Y-72237500D03*
X110385500Y-72237500D03*
X110385500Y-71437500D03*
X110385500Y-70637500D03*
%TD*%
D15*
%TO.C,H0:6*%
X56575000Y-37537500D03*
X56575000Y-35637500D03*
X54700000Y-36587500D03*
%TD*%
%TO.C,H1:10*%
X113724984Y-56587516D03*
X113724984Y-54687516D03*
X111849984Y-55637516D03*
%TD*%
D16*
%TO.C,LED27*%
X108689500Y-89687500D03*
X108689500Y-90487500D03*
X108689500Y-91287500D03*
X110385500Y-91287500D03*
X110385500Y-90487500D03*
X110385500Y-89687500D03*
%TD*%
D25*
%TO.C,R41*%
X70322500Y-77462500D03*
X69302500Y-77462500D03*
%TD*%
D23*
%TO.C,C20*%
X70801000Y-55792400D03*
X71761000Y-55792400D03*
%TD*%
D12*
%TO.C,R103*%
X52917500Y-37437517D03*
X52917500Y-38457517D03*
%TD*%
D13*
%TO.C,C79*%
X53131608Y-131977092D03*
X53131608Y-132937092D03*
%TD*%
D79*
%TO.C,U7*%
X71682500Y-47387516D03*
X71682500Y-48037516D03*
X71682500Y-48687516D03*
X73457500Y-48687516D03*
X73457500Y-48037516D03*
X73457500Y-47387516D03*
D80*
X72570000Y-48037516D03*
%TD*%
D16*
%TO.C,LED13*%
X70589500Y-127787500D03*
X70589500Y-128587500D03*
X70589500Y-129387500D03*
X72285500Y-129387500D03*
X72285500Y-128587500D03*
X72285500Y-127787500D03*
%TD*%
M02*
