%TF.GenerationSoftware,KiCad,Pcbnew,10.0.5*%
%TF.CreationDate,2026-09-05T13:54:18-06:00*%
%TF.ProjectId,Voided-Oblivion,566f6964-6564-42d4-9f62-6c6976696f6e,rev?*%
%TF.SameCoordinates,Original*%
%TF.FileFunction,Profile,NP*%
%FSLAX46Y46*%
G04 Gerber Fmt 4.6, Leading zero omitted, Abs format (unit mm)*
G04 Created by KiCad (PCBNEW 10.0.5) date 2026-09-05 13:54:18*
%MOMM*%
%LPD*%
G01*
G04 APERTURE LIST*
%TA.AperFunction,Profile*%
%ADD10C,0.050000*%
%TD*%
%ADD11C,0.050000*%
G04 APERTURE END LIST*
D10*
X23812428Y-73612412D02*
X23812428Y-25012412D01*
D11*
X23812428Y-73612412D02*
X23812438Y-73617703D01*
X23812468Y-73622969D01*
X23812518Y-73628210D01*
X23812587Y-73633427D01*
X23812676Y-73638620D01*
X23812785Y-73643788D01*
X23812913Y-73648933D01*
X23813060Y-73654054D01*
X23813227Y-73659152D01*
X23813413Y-73664226D01*
X23813618Y-73669278D01*
X23813842Y-73674306D01*
X23814085Y-73679313D01*
X23814347Y-73684297D01*
X23814628Y-73689259D01*
X23814927Y-73694198D01*
X23815245Y-73699117D01*
X23815582Y-73704013D01*
X23815937Y-73708889D01*
X23816311Y-73713743D01*
X23816703Y-73718577D01*
X23817113Y-73723389D01*
X23817542Y-73728182D01*
X23817989Y-73732953D01*
X23818454Y-73737706D01*
X23818937Y-73742437D01*
X23819439Y-73747151D01*
X23819958Y-73751842D01*
X23820495Y-73756517D01*
X23821050Y-73761171D01*
X23821623Y-73765808D01*
X23822213Y-73770424D01*
X23822822Y-73775025D01*
X23823448Y-73779604D01*
X23824092Y-73784168D01*
X23824753Y-73788712D01*
X23825432Y-73793241D01*
X23826128Y-73797749D01*
X23826843Y-73802244D01*
X23827574Y-73806718D01*
X23829089Y-73815620D01*
X23830674Y-73824457D01*
X23832329Y-73833230D01*
X23834053Y-73841942D01*
X23835846Y-73850593D01*
X23837708Y-73859186D01*
X23839640Y-73867722D01*
X23841640Y-73876203D01*
X23843710Y-73884631D01*
X23845849Y-73893008D01*
X23848058Y-73901335D01*
X23850336Y-73909614D01*
X23852685Y-73917847D01*
X23855103Y-73926036D01*
X23857592Y-73934183D01*
X23860152Y-73942290D01*
X23862783Y-73950358D01*
X23865486Y-73958390D01*
X23868261Y-73966388D01*
X23871110Y-73974353D01*
X23874032Y-73982289D01*
X23877029Y-73990197D01*
X23880101Y-73998079D01*
X23883249Y-74005939D01*
X23886475Y-74013777D01*
X23889780Y-74021598D01*
X23893164Y-74029403D01*
X23896630Y-74037196D01*
X23900178Y-74044978D01*
X23903810Y-74052754D01*
X23907528Y-74060526D01*
X23911335Y-74068298D01*
X23915231Y-74076073D01*
X23919220Y-74083855D01*
X23923303Y-74091648D01*
X23927484Y-74099456D01*
X23931766Y-74107283D01*
X23936152Y-74115136D01*
X23940645Y-74123018D01*
X23945251Y-74130937D01*
X23949972Y-74138897D01*
X23954815Y-74146907D01*
X23959785Y-74154973D01*
X23964888Y-74163105D01*
X23970132Y-74171312D01*
X23975524Y-74179605D01*
X23981075Y-74187996D01*
X23986795Y-74196499D01*
X23992696Y-74205130D01*
X23998794Y-74213910D01*
X24005106Y-74222859D01*
X24011654Y-74232007D01*
X24018464Y-74241385D01*
X24025570Y-74251037D01*
X24033013Y-74261015D01*
X24040850Y-74271390D01*
X24049157Y-74282259D01*
X24058044Y-74293760D01*
X24067682Y-74306107D01*
X24078359Y-74319662D01*
X24090645Y-74335141D01*
X24106057Y-74354447D01*
X24120322Y-74372281D01*
X24134570Y-74390135D01*
X24142196Y-74399731D01*
X24149804Y-74409349D01*
X24155644Y-74416768D01*
X24161470Y-74424205D01*
X24166540Y-74430714D01*
X24171596Y-74437240D01*
X24176185Y-74443197D01*
X24180759Y-74449171D01*
X24185002Y-74454745D01*
X24189230Y-74460336D01*
X24193205Y-74465625D01*
X24197165Y-74470930D01*
X24200921Y-74475997D01*
X24204664Y-74481080D01*
X24208237Y-74485967D01*
X24211797Y-74490872D01*
X24215212Y-74495612D01*
X24218614Y-74500369D01*
X24221891Y-74504985D01*
X24225154Y-74509619D01*
X24228308Y-74514132D01*
X24231448Y-74518661D01*
X24234489Y-74523084D01*
X24237518Y-74527524D01*
X24240458Y-74531871D01*
X24243385Y-74536234D01*
X24246231Y-74540514D01*
X24249064Y-74544811D01*
X24251824Y-74549034D01*
X24254570Y-74553273D01*
X24257249Y-74557445D01*
X24259914Y-74561634D01*
X24262517Y-74565763D01*
X24265107Y-74569908D01*
X24267638Y-74573999D01*
X24270156Y-74578106D01*
X24272620Y-74582163D01*
X24275070Y-74586237D01*
X24277469Y-74590266D01*
X24279854Y-74594312D01*
X24282192Y-74598316D01*
X24284516Y-74602336D01*
X24286795Y-74606319D01*
X24289060Y-74610319D01*
X24291282Y-74614284D01*
X24293491Y-74618267D01*
X24295658Y-74622217D01*
X24297813Y-74626184D01*
X24299928Y-74630122D01*
X24302029Y-74634077D01*
X24304094Y-74638006D01*
X24306145Y-74641952D01*
X24308160Y-74645873D01*
X24310161Y-74649811D01*
X24312129Y-74653727D01*
X24314082Y-74657661D01*
X24316003Y-74661573D01*
X24317910Y-74665504D01*
X24319786Y-74669415D01*
X24321647Y-74673345D01*
X24323479Y-74677257D01*
X24325296Y-74681187D01*
X24327084Y-74685101D01*
X24328858Y-74689033D01*
X24330603Y-74692952D01*
X24332334Y-74696888D01*
X24334038Y-74700811D01*
X24335728Y-74704753D01*
X24337391Y-74708683D01*
X24339040Y-74712632D01*
X24340663Y-74716570D01*
X24342271Y-74720527D01*
X24343855Y-74724475D01*
X24345424Y-74728442D01*
X24346968Y-74732401D01*
X24348498Y-74736378D01*
X24350004Y-74740349D01*
X24351496Y-74744338D01*
X24352964Y-74748322D01*
X24354417Y-74752325D01*
X24355848Y-74756324D01*
X24357263Y-74760341D01*
X24358657Y-74764355D01*
X24360036Y-74768388D01*
X24361392Y-74772418D01*
X24362734Y-74776468D01*
X24364054Y-74780516D01*
X24365359Y-74784583D01*
X24366643Y-74788650D01*
X24367912Y-74792736D01*
X24369160Y-74796823D01*
X24370393Y-74800928D01*
X24371606Y-74805036D01*
X24372803Y-74809162D01*
X24373980Y-74813291D01*
X24375141Y-74817439D01*
X24376283Y-74821591D01*
X24377409Y-74825762D01*
X24378515Y-74829937D01*
X24379606Y-74834131D01*
X24380677Y-74838331D01*
X24381733Y-74842550D01*
X24382769Y-74846775D01*
X24383790Y-74851019D01*
X24384791Y-74855270D01*
X24385777Y-74859541D01*
X24386743Y-74863820D01*
X24387694Y-74868118D01*
X24388625Y-74872424D01*
X24389541Y-74876751D01*
X24390438Y-74881086D01*
X24391318Y-74885442D01*
X24392180Y-74889806D01*
X24393026Y-74894192D01*
X24393853Y-74898588D01*
X24394663Y-74903004D01*
X24395455Y-74907431D01*
X24396231Y-74911879D01*
X24396988Y-74916338D01*
X24397728Y-74920819D01*
X24398450Y-74925311D01*
X24399155Y-74929825D01*
X24399842Y-74934352D01*
X24400511Y-74938900D01*
X24401163Y-74943461D01*
X24401797Y-74948044D01*
X24402413Y-74952641D01*
X24403011Y-74957260D01*
X24403591Y-74961894D01*
X24404154Y-74966550D01*
X24404698Y-74971221D01*
X24405225Y-74975914D01*
X24405734Y-74980623D01*
X24406224Y-74985355D01*
X24406696Y-74990103D01*
X24407151Y-74994874D01*
X24407586Y-74999662D01*
X24408004Y-75004473D01*
X24408403Y-75009302D01*
X24408784Y-75014153D01*
X24409146Y-75019024D01*
X24409490Y-75023917D01*
X24409815Y-75028830D01*
X24410122Y-75033766D01*
X24410409Y-75038722D01*
X24410678Y-75043701D01*
X24410928Y-75048701D01*
X24411159Y-75053725D01*
X24411371Y-75058770D01*
X24411564Y-75063839D01*
X24411738Y-75068929D01*
X24411892Y-75074044D01*
X24412027Y-75079181D01*
X24412143Y-75084343D01*
X24412239Y-75089527D01*
X24412316Y-75094736D01*
X24412373Y-75099969D01*
X24412410Y-75105227D01*
X24412428Y-75112412D01*
X23812428Y-78362412D02*
X23812438Y-78357121D01*
X23812468Y-78351855D01*
X23812518Y-78346614D01*
X23812587Y-78341397D01*
X23812676Y-78336204D01*
X23812785Y-78331036D01*
X23812913Y-78325891D01*
X23813060Y-78320770D01*
X23813227Y-78315672D01*
X23813413Y-78310598D01*
X23813618Y-78305546D01*
X23813842Y-78300518D01*
X23814085Y-78295511D01*
X23814347Y-78290527D01*
X23814628Y-78285565D01*
X23814927Y-78280626D01*
X23815245Y-78275707D01*
X23815582Y-78270811D01*
X23815937Y-78265935D01*
X23816311Y-78261081D01*
X23816703Y-78256247D01*
X23817113Y-78251435D01*
X23817542Y-78246642D01*
X23817989Y-78241871D01*
X23818454Y-78237118D01*
X23818937Y-78232387D01*
X23819439Y-78227673D01*
X23819958Y-78222982D01*
X23820495Y-78218307D01*
X23821050Y-78213653D01*
X23821623Y-78209016D01*
X23822213Y-78204400D01*
X23822822Y-78199799D01*
X23823448Y-78195220D01*
X23824092Y-78190656D01*
X23824753Y-78186112D01*
X23825432Y-78181583D01*
X23826128Y-78177075D01*
X23826843Y-78172580D01*
X23827574Y-78168106D01*
X23829089Y-78159204D01*
X23830674Y-78150367D01*
X23832329Y-78141594D01*
X23834053Y-78132882D01*
X23835846Y-78124231D01*
X23837708Y-78115638D01*
X23839640Y-78107102D01*
X23841640Y-78098621D01*
X23843710Y-78090193D01*
X23845849Y-78081816D01*
X23848058Y-78073489D01*
X23850336Y-78065210D01*
X23852685Y-78056977D01*
X23855103Y-78048788D01*
X23857592Y-78040641D01*
X23860152Y-78032534D01*
X23862783Y-78024466D01*
X23865486Y-78016434D01*
X23868261Y-78008436D01*
X23871110Y-78000471D01*
X23874032Y-77992535D01*
X23877029Y-77984627D01*
X23880101Y-77976745D01*
X23883249Y-77968885D01*
X23886475Y-77961047D01*
X23889780Y-77953226D01*
X23893164Y-77945421D01*
X23896630Y-77937628D01*
X23900178Y-77929846D01*
X23903810Y-77922070D01*
X23907528Y-77914298D01*
X23911335Y-77906526D01*
X23915231Y-77898751D01*
X23919220Y-77890969D01*
X23923303Y-77883176D01*
X23927484Y-77875368D01*
X23931766Y-77867541D01*
X23936152Y-77859688D01*
X23940645Y-77851806D01*
X23945251Y-77843887D01*
X23949972Y-77835927D01*
X23954815Y-77827917D01*
X23959785Y-77819851D01*
X23964888Y-77811719D01*
X23970132Y-77803512D01*
X23975524Y-77795219D01*
X23981075Y-77786828D01*
X23986795Y-77778325D01*
X23992696Y-77769694D01*
X23998794Y-77760914D01*
X24005106Y-77751965D01*
X24011654Y-77742817D01*
X24018464Y-77733439D01*
X24025570Y-77723787D01*
X24033013Y-77713809D01*
X24040850Y-77703434D01*
X24049157Y-77692565D01*
X24058044Y-77681064D01*
X24067682Y-77668717D01*
X24078359Y-77655162D01*
X24090645Y-77639683D01*
X24106057Y-77620377D01*
X24120322Y-77602543D01*
X24134570Y-77584689D01*
X24142196Y-77575093D01*
X24149804Y-77565475D01*
X24155644Y-77558056D01*
X24161470Y-77550619D01*
X24166540Y-77544110D01*
X24171596Y-77537584D01*
X24176185Y-77531627D01*
X24180759Y-77525653D01*
X24185002Y-77520079D01*
X24189230Y-77514488D01*
X24193205Y-77509199D01*
X24197165Y-77503894D01*
X24200921Y-77498827D01*
X24204664Y-77493744D01*
X24208237Y-77488857D01*
X24211797Y-77483952D01*
X24215212Y-77479212D01*
X24218614Y-77474455D01*
X24221891Y-77469839D01*
X24225154Y-77465205D01*
X24228308Y-77460692D01*
X24231448Y-77456163D01*
X24234489Y-77451740D01*
X24237518Y-77447300D01*
X24240458Y-77442953D01*
X24243385Y-77438590D01*
X24246231Y-77434310D01*
X24249064Y-77430013D01*
X24251824Y-77425790D01*
X24254570Y-77421551D01*
X24257249Y-77417379D01*
X24259914Y-77413190D01*
X24262517Y-77409061D01*
X24265107Y-77404916D01*
X24267638Y-77400825D01*
X24270156Y-77396718D01*
X24272620Y-77392661D01*
X24275070Y-77388587D01*
X24277469Y-77384558D01*
X24279854Y-77380512D01*
X24282192Y-77376508D01*
X24284516Y-77372488D01*
X24286795Y-77368505D01*
X24289060Y-77364505D01*
X24291282Y-77360540D01*
X24293491Y-77356557D01*
X24295658Y-77352607D01*
X24297813Y-77348640D01*
X24299928Y-77344702D01*
X24302029Y-77340747D01*
X24304094Y-77336818D01*
X24306145Y-77332872D01*
X24308160Y-77328951D01*
X24310161Y-77325013D01*
X24312129Y-77321097D01*
X24314082Y-77317163D01*
X24316003Y-77313251D01*
X24317910Y-77309320D01*
X24319786Y-77305409D01*
X24321647Y-77301479D01*
X24323479Y-77297567D01*
X24325296Y-77293637D01*
X24327084Y-77289723D01*
X24328858Y-77285791D01*
X24330603Y-77281872D01*
X24332334Y-77277936D01*
X24334038Y-77274013D01*
X24335728Y-77270071D01*
X24337391Y-77266141D01*
X24339040Y-77262192D01*
X24340663Y-77258254D01*
X24342271Y-77254297D01*
X24343855Y-77250349D01*
X24345424Y-77246382D01*
X24346968Y-77242423D01*
X24348498Y-77238446D01*
X24350004Y-77234475D01*
X24351496Y-77230486D01*
X24352964Y-77226502D01*
X24354417Y-77222499D01*
X24355848Y-77218500D01*
X24357263Y-77214483D01*
X24358657Y-77210469D01*
X24360036Y-77206436D01*
X24361392Y-77202406D01*
X24362734Y-77198356D01*
X24364054Y-77194308D01*
X24365359Y-77190241D01*
X24366643Y-77186174D01*
X24367912Y-77182088D01*
X24369160Y-77178001D01*
X24370393Y-77173896D01*
X24371606Y-77169788D01*
X24372803Y-77165662D01*
X24373980Y-77161533D01*
X24375141Y-77157385D01*
X24376283Y-77153233D01*
X24377409Y-77149062D01*
X24378515Y-77144887D01*
X24379606Y-77140693D01*
X24380677Y-77136493D01*
X24381733Y-77132274D01*
X24382769Y-77128049D01*
X24383790Y-77123805D01*
X24384791Y-77119554D01*
X24385777Y-77115283D01*
X24386743Y-77111004D01*
X24387694Y-77106706D01*
X24388625Y-77102400D01*
X24389541Y-77098073D01*
X24390438Y-77093738D01*
X24391318Y-77089382D01*
X24392180Y-77085018D01*
X24393026Y-77080632D01*
X24393853Y-77076236D01*
X24394663Y-77071820D01*
X24395455Y-77067393D01*
X24396231Y-77062945D01*
X24396988Y-77058486D01*
X24397728Y-77054005D01*
X24398450Y-77049513D01*
X24399155Y-77044999D01*
X24399842Y-77040472D01*
X24400511Y-77035924D01*
X24401163Y-77031363D01*
X24401797Y-77026780D01*
X24402413Y-77022183D01*
X24403011Y-77017564D01*
X24403591Y-77012930D01*
X24404154Y-77008274D01*
X24404698Y-77003603D01*
X24405225Y-76998910D01*
X24405734Y-76994201D01*
X24406224Y-76989469D01*
X24406696Y-76984721D01*
X24407151Y-76979950D01*
X24407586Y-76975162D01*
X24408004Y-76970351D01*
X24408403Y-76965522D01*
X24408784Y-76960671D01*
X24409146Y-76955800D01*
X24409490Y-76950907D01*
X24409815Y-76945994D01*
X24410122Y-76941058D01*
X24410409Y-76936102D01*
X24410678Y-76931123D01*
X24410928Y-76926123D01*
X24411159Y-76921099D01*
X24411371Y-76916054D01*
X24411564Y-76910985D01*
X24411738Y-76905895D01*
X24411892Y-76900780D01*
X24412027Y-76895643D01*
X24412143Y-76890481D01*
X24412239Y-76885297D01*
X24412316Y-76880088D01*
X24412373Y-76874855D01*
X24412410Y-76869597D01*
X24412428Y-76862412D01*
D10*
X23812428Y-83612412D02*
X23812428Y-78362412D01*
D11*
X23812428Y-83612412D02*
X23812438Y-83617703D01*
X23812468Y-83622969D01*
X23812518Y-83628210D01*
X23812587Y-83633427D01*
X23812676Y-83638620D01*
X23812785Y-83643788D01*
X23812913Y-83648933D01*
X23813060Y-83654054D01*
X23813227Y-83659152D01*
X23813413Y-83664226D01*
X23813618Y-83669278D01*
X23813842Y-83674306D01*
X23814085Y-83679313D01*
X23814347Y-83684297D01*
X23814628Y-83689259D01*
X23814927Y-83694198D01*
X23815245Y-83699117D01*
X23815582Y-83704013D01*
X23815937Y-83708889D01*
X23816311Y-83713743D01*
X23816703Y-83718577D01*
X23817113Y-83723389D01*
X23817542Y-83728182D01*
X23817989Y-83732953D01*
X23818454Y-83737706D01*
X23818937Y-83742437D01*
X23819439Y-83747151D01*
X23819958Y-83751842D01*
X23820495Y-83756517D01*
X23821050Y-83761171D01*
X23821623Y-83765808D01*
X23822213Y-83770424D01*
X23822822Y-83775025D01*
X23823448Y-83779604D01*
X23824092Y-83784168D01*
X23824753Y-83788712D01*
X23825432Y-83793241D01*
X23826128Y-83797749D01*
X23826843Y-83802244D01*
X23827574Y-83806718D01*
X23829089Y-83815620D01*
X23830674Y-83824457D01*
X23832329Y-83833230D01*
X23834053Y-83841942D01*
X23835846Y-83850593D01*
X23837708Y-83859186D01*
X23839640Y-83867722D01*
X23841640Y-83876203D01*
X23843710Y-83884631D01*
X23845849Y-83893008D01*
X23848058Y-83901335D01*
X23850336Y-83909614D01*
X23852685Y-83917847D01*
X23855103Y-83926036D01*
X23857592Y-83934183D01*
X23860152Y-83942290D01*
X23862783Y-83950358D01*
X23865486Y-83958390D01*
X23868261Y-83966388D01*
X23871110Y-83974353D01*
X23874032Y-83982289D01*
X23877029Y-83990197D01*
X23880101Y-83998079D01*
X23883249Y-84005939D01*
X23886475Y-84013777D01*
X23889780Y-84021598D01*
X23893164Y-84029403D01*
X23896630Y-84037196D01*
X23900178Y-84044978D01*
X23903810Y-84052754D01*
X23907528Y-84060526D01*
X23911335Y-84068298D01*
X23915231Y-84076073D01*
X23919220Y-84083855D01*
X23923303Y-84091648D01*
X23927484Y-84099456D01*
X23931766Y-84107283D01*
X23936152Y-84115136D01*
X23940645Y-84123018D01*
X23945251Y-84130937D01*
X23949972Y-84138897D01*
X23954815Y-84146907D01*
X23959785Y-84154973D01*
X23964888Y-84163105D01*
X23970132Y-84171312D01*
X23975524Y-84179605D01*
X23981075Y-84187996D01*
X23986795Y-84196499D01*
X23992696Y-84205130D01*
X23998794Y-84213910D01*
X24005106Y-84222859D01*
X24011654Y-84232007D01*
X24018464Y-84241385D01*
X24025570Y-84251037D01*
X24033013Y-84261015D01*
X24040850Y-84271390D01*
X24049157Y-84282259D01*
X24058044Y-84293760D01*
X24067682Y-84306107D01*
X24078359Y-84319662D01*
X24090645Y-84335141D01*
X24106057Y-84354447D01*
X24120322Y-84372281D01*
X24134570Y-84390135D01*
X24142196Y-84399731D01*
X24149804Y-84409349D01*
X24155644Y-84416768D01*
X24161470Y-84424205D01*
X24166540Y-84430714D01*
X24171596Y-84437240D01*
X24176185Y-84443197D01*
X24180759Y-84449171D01*
X24185002Y-84454745D01*
X24189230Y-84460336D01*
X24193205Y-84465625D01*
X24197165Y-84470930D01*
X24200921Y-84475997D01*
X24204664Y-84481080D01*
X24208237Y-84485967D01*
X24211797Y-84490872D01*
X24215212Y-84495612D01*
X24218614Y-84500369D01*
X24221891Y-84504985D01*
X24225154Y-84509619D01*
X24228308Y-84514132D01*
X24231448Y-84518661D01*
X24234489Y-84523084D01*
X24237518Y-84527524D01*
X24240458Y-84531871D01*
X24243385Y-84536234D01*
X24246231Y-84540514D01*
X24249064Y-84544811D01*
X24251824Y-84549034D01*
X24254570Y-84553273D01*
X24257249Y-84557445D01*
X24259914Y-84561634D01*
X24262517Y-84565763D01*
X24265107Y-84569908D01*
X24267638Y-84573999D01*
X24270156Y-84578106D01*
X24272620Y-84582163D01*
X24275070Y-84586237D01*
X24277469Y-84590266D01*
X24279854Y-84594312D01*
X24282192Y-84598316D01*
X24284516Y-84602336D01*
X24286795Y-84606319D01*
X24289060Y-84610319D01*
X24291282Y-84614284D01*
X24293491Y-84618267D01*
X24295658Y-84622217D01*
X24297813Y-84626184D01*
X24299928Y-84630122D01*
X24302029Y-84634077D01*
X24304094Y-84638006D01*
X24306145Y-84641952D01*
X24308160Y-84645873D01*
X24310161Y-84649811D01*
X24312129Y-84653727D01*
X24314082Y-84657661D01*
X24316003Y-84661573D01*
X24317910Y-84665504D01*
X24319786Y-84669415D01*
X24321647Y-84673345D01*
X24323479Y-84677257D01*
X24325296Y-84681187D01*
X24327084Y-84685101D01*
X24328858Y-84689033D01*
X24330603Y-84692952D01*
X24332334Y-84696888D01*
X24334038Y-84700811D01*
X24335728Y-84704753D01*
X24337391Y-84708683D01*
X24339040Y-84712632D01*
X24340663Y-84716570D01*
X24342271Y-84720527D01*
X24343855Y-84724475D01*
X24345424Y-84728442D01*
X24346968Y-84732401D01*
X24348498Y-84736378D01*
X24350004Y-84740349D01*
X24351496Y-84744338D01*
X24352964Y-84748322D01*
X24354417Y-84752325D01*
X24355848Y-84756324D01*
X24357263Y-84760341D01*
X24358657Y-84764355D01*
X24360036Y-84768388D01*
X24361392Y-84772418D01*
X24362734Y-84776468D01*
X24364054Y-84780516D01*
X24365359Y-84784583D01*
X24366643Y-84788650D01*
X24367912Y-84792736D01*
X24369160Y-84796823D01*
X24370393Y-84800928D01*
X24371606Y-84805036D01*
X24372803Y-84809162D01*
X24373980Y-84813291D01*
X24375141Y-84817439D01*
X24376283Y-84821591D01*
X24377409Y-84825762D01*
X24378515Y-84829937D01*
X24379606Y-84834131D01*
X24380677Y-84838331D01*
X24381733Y-84842550D01*
X24382769Y-84846775D01*
X24383790Y-84851019D01*
X24384791Y-84855270D01*
X24385777Y-84859541D01*
X24386743Y-84863820D01*
X24387694Y-84868118D01*
X24388625Y-84872424D01*
X24389541Y-84876751D01*
X24390438Y-84881086D01*
X24391318Y-84885442D01*
X24392180Y-84889806D01*
X24393026Y-84894192D01*
X24393853Y-84898588D01*
X24394663Y-84903004D01*
X24395455Y-84907431D01*
X24396231Y-84911879D01*
X24396988Y-84916338D01*
X24397728Y-84920819D01*
X24398450Y-84925311D01*
X24399155Y-84929825D01*
X24399842Y-84934352D01*
X24400511Y-84938900D01*
X24401163Y-84943461D01*
X24401797Y-84948044D01*
X24402413Y-84952641D01*
X24403011Y-84957260D01*
X24403591Y-84961894D01*
X24404154Y-84966550D01*
X24404698Y-84971221D01*
X24405225Y-84975914D01*
X24405734Y-84980623D01*
X24406224Y-84985355D01*
X24406696Y-84990103D01*
X24407151Y-84994874D01*
X24407586Y-84999662D01*
X24408004Y-85004473D01*
X24408403Y-85009302D01*
X24408784Y-85014153D01*
X24409146Y-85019024D01*
X24409490Y-85023917D01*
X24409815Y-85028830D01*
X24410122Y-85033766D01*
X24410409Y-85038722D01*
X24410678Y-85043701D01*
X24410928Y-85048701D01*
X24411159Y-85053725D01*
X24411371Y-85058770D01*
X24411564Y-85063839D01*
X24411738Y-85068929D01*
X24411892Y-85074044D01*
X24412027Y-85079181D01*
X24412143Y-85084343D01*
X24412239Y-85089527D01*
X24412316Y-85094736D01*
X24412373Y-85099969D01*
X24412410Y-85105227D01*
X24412428Y-85112412D01*
X23812428Y-88412412D02*
X23812438Y-88407121D01*
X23812468Y-88401855D01*
X23812518Y-88396614D01*
X23812587Y-88391397D01*
X23812676Y-88386204D01*
X23812785Y-88381036D01*
X23812913Y-88375891D01*
X23813060Y-88370770D01*
X23813227Y-88365672D01*
X23813413Y-88360598D01*
X23813618Y-88355546D01*
X23813842Y-88350518D01*
X23814085Y-88345511D01*
X23814347Y-88340527D01*
X23814628Y-88335565D01*
X23814927Y-88330626D01*
X23815245Y-88325707D01*
X23815582Y-88320811D01*
X23815937Y-88315935D01*
X23816311Y-88311081D01*
X23816703Y-88306247D01*
X23817113Y-88301435D01*
X23817542Y-88296642D01*
X23817989Y-88291871D01*
X23818454Y-88287118D01*
X23818937Y-88282387D01*
X23819439Y-88277673D01*
X23819958Y-88272982D01*
X23820495Y-88268307D01*
X23821050Y-88263653D01*
X23821623Y-88259016D01*
X23822213Y-88254400D01*
X23822822Y-88249799D01*
X23823448Y-88245220D01*
X23824092Y-88240656D01*
X23824753Y-88236112D01*
X23825432Y-88231583D01*
X23826128Y-88227075D01*
X23826843Y-88222580D01*
X23827574Y-88218106D01*
X23829089Y-88209204D01*
X23830674Y-88200367D01*
X23832329Y-88191594D01*
X23834053Y-88182882D01*
X23835846Y-88174231D01*
X23837708Y-88165638D01*
X23839640Y-88157102D01*
X23841640Y-88148621D01*
X23843710Y-88140193D01*
X23845849Y-88131816D01*
X23848058Y-88123489D01*
X23850336Y-88115210D01*
X23852685Y-88106977D01*
X23855103Y-88098788D01*
X23857592Y-88090641D01*
X23860152Y-88082534D01*
X23862783Y-88074466D01*
X23865486Y-88066434D01*
X23868261Y-88058436D01*
X23871110Y-88050471D01*
X23874032Y-88042535D01*
X23877029Y-88034627D01*
X23880101Y-88026745D01*
X23883249Y-88018885D01*
X23886475Y-88011047D01*
X23889780Y-88003226D01*
X23893164Y-87995421D01*
X23896630Y-87987628D01*
X23900178Y-87979846D01*
X23903810Y-87972070D01*
X23907528Y-87964298D01*
X23911335Y-87956526D01*
X23915231Y-87948751D01*
X23919220Y-87940969D01*
X23923303Y-87933176D01*
X23927484Y-87925368D01*
X23931766Y-87917541D01*
X23936152Y-87909688D01*
X23940645Y-87901806D01*
X23945251Y-87893887D01*
X23949972Y-87885927D01*
X23954815Y-87877917D01*
X23959785Y-87869851D01*
X23964888Y-87861719D01*
X23970132Y-87853512D01*
X23975524Y-87845219D01*
X23981075Y-87836828D01*
X23986795Y-87828325D01*
X23992696Y-87819694D01*
X23998794Y-87810914D01*
X24005106Y-87801965D01*
X24011654Y-87792817D01*
X24018464Y-87783439D01*
X24025570Y-87773787D01*
X24033013Y-87763809D01*
X24040850Y-87753434D01*
X24049157Y-87742565D01*
X24058044Y-87731064D01*
X24067682Y-87718717D01*
X24078359Y-87705162D01*
X24090645Y-87689683D01*
X24106057Y-87670377D01*
X24120322Y-87652543D01*
X24134570Y-87634689D01*
X24142196Y-87625093D01*
X24149804Y-87615475D01*
X24155644Y-87608056D01*
X24161470Y-87600619D01*
X24166540Y-87594110D01*
X24171596Y-87587584D01*
X24176185Y-87581627D01*
X24180759Y-87575653D01*
X24185002Y-87570079D01*
X24189230Y-87564488D01*
X24193205Y-87559199D01*
X24197165Y-87553894D01*
X24200921Y-87548827D01*
X24204664Y-87543744D01*
X24208237Y-87538857D01*
X24211797Y-87533952D01*
X24215212Y-87529212D01*
X24218614Y-87524455D01*
X24221891Y-87519839D01*
X24225154Y-87515205D01*
X24228308Y-87510692D01*
X24231448Y-87506163D01*
X24234489Y-87501740D01*
X24237518Y-87497300D01*
X24240458Y-87492953D01*
X24243385Y-87488590D01*
X24246231Y-87484310D01*
X24249064Y-87480013D01*
X24251824Y-87475790D01*
X24254570Y-87471551D01*
X24257249Y-87467379D01*
X24259914Y-87463190D01*
X24262517Y-87459061D01*
X24265107Y-87454916D01*
X24267638Y-87450825D01*
X24270156Y-87446718D01*
X24272620Y-87442661D01*
X24275070Y-87438587D01*
X24277469Y-87434558D01*
X24279854Y-87430512D01*
X24282192Y-87426508D01*
X24284516Y-87422488D01*
X24286795Y-87418505D01*
X24289060Y-87414505D01*
X24291282Y-87410540D01*
X24293491Y-87406557D01*
X24295658Y-87402607D01*
X24297813Y-87398640D01*
X24299928Y-87394702D01*
X24302029Y-87390747D01*
X24304094Y-87386818D01*
X24306145Y-87382872D01*
X24308160Y-87378951D01*
X24310161Y-87375013D01*
X24312129Y-87371097D01*
X24314082Y-87367163D01*
X24316003Y-87363251D01*
X24317910Y-87359320D01*
X24319786Y-87355409D01*
X24321647Y-87351479D01*
X24323479Y-87347567D01*
X24325296Y-87343637D01*
X24327084Y-87339723D01*
X24328858Y-87335791D01*
X24330603Y-87331872D01*
X24332334Y-87327936D01*
X24334038Y-87324013D01*
X24335728Y-87320071D01*
X24337391Y-87316141D01*
X24339040Y-87312192D01*
X24340663Y-87308254D01*
X24342271Y-87304297D01*
X24343855Y-87300349D01*
X24345424Y-87296382D01*
X24346968Y-87292423D01*
X24348498Y-87288446D01*
X24350004Y-87284475D01*
X24351496Y-87280486D01*
X24352964Y-87276502D01*
X24354417Y-87272499D01*
X24355848Y-87268500D01*
X24357263Y-87264483D01*
X24358657Y-87260469D01*
X24360036Y-87256436D01*
X24361392Y-87252406D01*
X24362734Y-87248356D01*
X24364054Y-87244308D01*
X24365359Y-87240241D01*
X24366643Y-87236174D01*
X24367912Y-87232088D01*
X24369160Y-87228001D01*
X24370393Y-87223896D01*
X24371606Y-87219788D01*
X24372803Y-87215662D01*
X24373980Y-87211533D01*
X24375141Y-87207385D01*
X24376283Y-87203233D01*
X24377409Y-87199062D01*
X24378515Y-87194887D01*
X24379606Y-87190693D01*
X24380677Y-87186493D01*
X24381733Y-87182274D01*
X24382769Y-87178049D01*
X24383790Y-87173805D01*
X24384791Y-87169554D01*
X24385777Y-87165283D01*
X24386743Y-87161004D01*
X24387694Y-87156706D01*
X24388625Y-87152400D01*
X24389541Y-87148073D01*
X24390438Y-87143738D01*
X24391318Y-87139382D01*
X24392180Y-87135018D01*
X24393026Y-87130632D01*
X24393853Y-87126236D01*
X24394663Y-87121820D01*
X24395455Y-87117393D01*
X24396231Y-87112945D01*
X24396988Y-87108486D01*
X24397728Y-87104005D01*
X24398450Y-87099513D01*
X24399155Y-87094999D01*
X24399842Y-87090472D01*
X24400511Y-87085924D01*
X24401163Y-87081363D01*
X24401797Y-87076780D01*
X24402413Y-87072183D01*
X24403011Y-87067564D01*
X24403591Y-87062930D01*
X24404154Y-87058274D01*
X24404698Y-87053603D01*
X24405225Y-87048910D01*
X24405734Y-87044201D01*
X24406224Y-87039469D01*
X24406696Y-87034721D01*
X24407151Y-87029950D01*
X24407586Y-87025162D01*
X24408004Y-87020351D01*
X24408403Y-87015522D01*
X24408784Y-87010671D01*
X24409146Y-87005800D01*
X24409490Y-87000907D01*
X24409815Y-86995994D01*
X24410122Y-86991058D01*
X24410409Y-86986102D01*
X24410678Y-86981123D01*
X24410928Y-86976123D01*
X24411159Y-86971099D01*
X24411371Y-86966054D01*
X24411564Y-86960985D01*
X24411738Y-86955895D01*
X24411892Y-86950780D01*
X24412027Y-86945643D01*
X24412143Y-86940481D01*
X24412239Y-86935297D01*
X24412316Y-86930088D01*
X24412373Y-86924855D01*
X24412410Y-86919597D01*
X24412428Y-86912412D01*
D10*
X23812428Y-110212412D02*
X23812428Y-88412412D01*
X23812428Y-136912412D02*
X23812428Y-123162412D01*
X23812492Y-25003118D02*
G75*
G02*
X25003118Y-23812492I1190608J18D01*
G01*
X24412428Y-76862412D02*
X24412428Y-75112412D01*
X24412428Y-86912412D02*
X24412428Y-85112412D01*
D11*
X24812428Y-112212412D02*
X24812418Y-112206945D01*
X24812388Y-112201497D01*
X24812338Y-112196070D01*
X24812269Y-112190662D01*
X24812180Y-112185273D01*
X24812071Y-112179905D01*
X24811942Y-112174554D01*
X24811794Y-112169224D01*
X24811627Y-112163912D01*
X24811440Y-112158619D01*
X24811234Y-112153344D01*
X24811008Y-112148088D01*
X24810764Y-112142850D01*
X24810500Y-112137631D01*
X24810217Y-112132429D01*
X24809915Y-112127246D01*
X24809595Y-112122080D01*
X24809255Y-112116932D01*
X24808896Y-112111801D01*
X24808519Y-112106689D01*
X24808123Y-112101592D01*
X24807708Y-112096513D01*
X24807275Y-112091450D01*
X24806823Y-112086406D01*
X24806352Y-112081376D01*
X24805863Y-112076365D01*
X24805356Y-112071368D01*
X24804830Y-112066389D01*
X24804286Y-112061425D01*
X24803723Y-112056478D01*
X24803142Y-112051545D01*
X24802543Y-112046630D01*
X24801926Y-112041728D01*
X24801290Y-112036844D01*
X24800637Y-112031973D01*
X24799965Y-112027119D01*
X24799275Y-112022277D01*
X24798567Y-112017454D01*
X24797841Y-112012642D01*
X24797098Y-112007847D01*
X24796336Y-112003064D01*
X24795556Y-111998298D01*
X24794758Y-111993543D01*
X24793943Y-111988805D01*
X24792258Y-111979368D01*
X24790502Y-111969985D01*
X24788675Y-111960655D01*
X24786777Y-111951376D01*
X24784808Y-111942149D01*
X24782768Y-111932971D01*
X24780657Y-111923842D01*
X24778475Y-111914761D01*
X24776223Y-111905725D01*
X24773899Y-111896735D01*
X24771505Y-111887789D01*
X24769039Y-111878885D01*
X24766503Y-111870024D01*
X24763895Y-111861202D01*
X24761215Y-111852420D01*
X24758464Y-111843677D01*
X24755641Y-111834970D01*
X24752746Y-111826299D01*
X24749778Y-111817662D01*
X24746738Y-111809059D01*
X24743624Y-111800488D01*
X24740437Y-111791947D01*
X24737175Y-111783436D01*
X24733839Y-111774953D01*
X24730428Y-111766497D01*
X24726942Y-111758067D01*
X24723379Y-111749661D01*
X24719739Y-111741278D01*
X24716022Y-111732916D01*
X24712227Y-111724574D01*
X24708352Y-111716250D01*
X24704397Y-111707944D01*
X24700362Y-111699653D01*
X24696244Y-111691375D01*
X24692044Y-111683110D01*
X24687760Y-111674856D01*
X24683390Y-111666610D01*
X24678934Y-111658371D01*
X24674390Y-111650138D01*
X24669758Y-111641907D01*
X24665034Y-111633678D01*
X24660218Y-111625448D01*
X24655308Y-111617215D01*
X24650302Y-111608976D01*
X24645199Y-111600730D01*
X24639996Y-111592474D01*
X24634690Y-111584205D01*
X24629280Y-111575921D01*
X24623763Y-111567618D01*
X24618136Y-111559293D01*
X24612396Y-111550944D01*
X24606540Y-111542566D01*
X24600565Y-111534157D01*
X24594467Y-111525711D01*
X24588242Y-111517225D01*
X24581885Y-111508694D01*
X24575391Y-111500113D01*
X24568756Y-111491476D01*
X24561974Y-111482778D01*
X24555037Y-111474011D01*
X24547940Y-111465170D01*
X24540675Y-111456245D01*
X24533232Y-111447228D01*
X24525602Y-111438108D01*
X24517773Y-111428876D01*
X24509734Y-111419517D01*
X24501470Y-111410017D01*
X24492964Y-111400360D01*
X24484196Y-111390525D01*
X24475144Y-111380490D01*
X24465780Y-111370227D01*
X24456071Y-111359703D01*
X24445975Y-111348875D01*
X24435440Y-111337692D01*
X24424401Y-111326087D01*
X24412766Y-111313969D01*
X24400411Y-111301213D01*
X24387153Y-111287637D01*
X24372705Y-111272950D01*
X24356556Y-111256642D01*
X24337620Y-111237623D01*
X24312504Y-111212488D01*
X24283872Y-111183828D01*
X24269582Y-111169472D01*
X24255323Y-111155085D01*
X24241106Y-111140656D01*
X24234016Y-111133423D01*
X24226941Y-111126175D01*
X24219882Y-111118912D01*
X24212839Y-111111631D01*
X24205815Y-111104333D01*
X24198810Y-111097014D01*
X24191826Y-111089675D01*
X24184864Y-111082314D01*
X24177926Y-111074929D01*
X24171013Y-111067520D01*
X24164125Y-111060084D01*
X24157266Y-111052621D01*
X24150434Y-111045129D01*
X24143633Y-111037608D01*
X24136863Y-111030054D01*
X24130126Y-111022469D01*
X24123423Y-111014849D01*
X24116755Y-111007194D01*
X24110124Y-110999503D01*
X24103530Y-110991773D01*
X24096976Y-110984005D01*
X24090462Y-110976196D01*
X24083989Y-110968345D01*
X24077560Y-110960451D01*
X24071176Y-110952513D01*
X24064837Y-110944529D01*
X24058545Y-110936498D01*
X24052301Y-110928419D01*
X24046107Y-110920290D01*
X24039964Y-110912110D01*
X24033873Y-110903878D01*
X24027835Y-110895593D01*
X24021853Y-110887252D01*
X24015926Y-110878856D01*
X24012984Y-110874636D01*
X24010057Y-110870402D01*
X24007144Y-110866153D01*
X24004247Y-110861889D01*
X24001364Y-110857610D01*
X23998497Y-110853316D01*
X23995644Y-110849007D01*
X23992808Y-110844682D01*
X23989987Y-110840342D01*
X23987182Y-110835986D01*
X23984392Y-110831613D01*
X23981619Y-110827225D01*
X23978863Y-110822820D01*
X23976122Y-110818399D01*
X23973399Y-110813961D01*
X23970692Y-110809506D01*
X23968002Y-110805034D01*
X23965330Y-110800546D01*
X23962674Y-110796040D01*
X23960036Y-110791516D01*
X23957416Y-110786975D01*
X23954814Y-110782416D01*
X23952229Y-110777839D01*
X23949663Y-110773244D01*
X23947115Y-110768630D01*
X23944585Y-110763999D01*
X23942074Y-110759348D01*
X23939582Y-110754679D01*
X23937108Y-110749991D01*
X23934654Y-110745284D01*
X23932219Y-110740557D01*
X23929803Y-110735811D01*
X23927407Y-110731046D01*
X23925031Y-110726261D01*
X23922675Y-110721456D01*
X23920339Y-110716630D01*
X23918022Y-110711785D01*
X23915727Y-110706919D01*
X23913452Y-110702033D01*
X23911197Y-110697126D01*
X23909298Y-110692938D01*
X23907413Y-110688735D01*
X23905553Y-110684538D01*
X23903708Y-110680325D01*
X23901887Y-110676117D01*
X23900081Y-110671894D01*
X23898299Y-110667675D01*
X23896533Y-110663441D01*
X23894789Y-110659210D01*
X23893061Y-110654964D01*
X23891356Y-110650721D01*
X23889666Y-110646463D01*
X23887999Y-110642206D01*
X23886347Y-110637934D01*
X23884717Y-110633664D01*
X23883103Y-110629378D01*
X23881511Y-110625094D01*
X23879935Y-110620793D01*
X23878379Y-110616493D01*
X23876840Y-110612178D01*
X23875322Y-110607862D01*
X23873820Y-110603531D01*
X23872338Y-110599199D01*
X23870873Y-110594851D01*
X23869428Y-110590501D01*
X23867999Y-110586136D01*
X23866591Y-110581770D01*
X23865198Y-110577387D01*
X23863826Y-110573001D01*
X23862470Y-110568600D01*
X23861134Y-110564196D01*
X23859814Y-110559776D01*
X23858514Y-110555352D01*
X23857230Y-110550913D01*
X23855966Y-110546469D01*
X23854718Y-110542009D01*
X23853490Y-110537545D01*
X23852278Y-110533064D01*
X23851086Y-110528579D01*
X23849910Y-110524077D01*
X23848753Y-110519569D01*
X23847613Y-110515045D01*
X23846491Y-110510515D01*
X23845387Y-110505969D01*
X23844301Y-110501416D01*
X23843233Y-110496846D01*
X23842183Y-110492270D01*
X23841150Y-110487677D01*
X23840136Y-110483076D01*
X23839138Y-110478458D01*
X23838160Y-110473833D01*
X23837198Y-110469191D01*
X23836255Y-110464540D01*
X23835329Y-110459872D01*
X23834422Y-110455196D01*
X23833532Y-110450502D01*
X23832661Y-110445799D01*
X23831806Y-110441079D01*
X23830971Y-110436349D01*
X23830153Y-110431602D01*
X23829353Y-110426845D01*
X23828570Y-110422070D01*
X23827807Y-110417284D01*
X23827060Y-110412481D01*
X23826333Y-110407667D01*
X23825623Y-110402835D01*
X23824931Y-110397992D01*
X23824257Y-110393130D01*
X23823602Y-110388257D01*
X23822965Y-110383366D01*
X23822346Y-110378462D01*
X23821745Y-110373541D01*
X23821163Y-110368606D01*
X23820599Y-110363653D01*
X23820053Y-110358687D01*
X23819526Y-110353703D01*
X23819017Y-110348705D01*
X23818527Y-110343689D01*
X23818055Y-110338658D01*
X23817602Y-110333609D01*
X23817167Y-110328545D01*
X23816751Y-110323462D01*
X23816354Y-110318365D01*
X23815976Y-110313248D01*
X23815616Y-110308117D01*
X23815276Y-110302966D01*
X23814954Y-110297799D01*
X23814651Y-110292613D01*
X23814367Y-110287411D01*
X23814103Y-110282190D01*
X23813857Y-110276951D01*
X23813631Y-110271694D01*
X23813424Y-110266419D01*
X23813236Y-110261125D01*
X23813068Y-110255813D01*
X23812919Y-110250481D01*
X23812790Y-110245131D01*
X23812680Y-110239762D01*
X23812590Y-110234374D01*
X23812520Y-110228966D01*
X23812469Y-110223539D01*
X23812439Y-110218092D01*
X23812428Y-110212412D01*
X24812428Y-121162412D02*
X24812418Y-121167879D01*
X24812388Y-121173327D01*
X24812338Y-121178754D01*
X24812269Y-121184162D01*
X24812180Y-121189551D01*
X24812071Y-121194919D01*
X24811942Y-121200270D01*
X24811794Y-121205600D01*
X24811627Y-121210912D01*
X24811440Y-121216205D01*
X24811234Y-121221480D01*
X24811008Y-121226736D01*
X24810764Y-121231974D01*
X24810500Y-121237193D01*
X24810217Y-121242395D01*
X24809915Y-121247578D01*
X24809595Y-121252744D01*
X24809255Y-121257892D01*
X24808896Y-121263023D01*
X24808519Y-121268135D01*
X24808123Y-121273232D01*
X24807708Y-121278311D01*
X24807275Y-121283374D01*
X24806823Y-121288418D01*
X24806352Y-121293448D01*
X24805863Y-121298459D01*
X24805356Y-121303456D01*
X24804830Y-121308435D01*
X24804286Y-121313399D01*
X24803723Y-121318346D01*
X24803142Y-121323279D01*
X24802543Y-121328194D01*
X24801926Y-121333096D01*
X24801290Y-121337980D01*
X24800637Y-121342851D01*
X24799965Y-121347705D01*
X24799275Y-121352547D01*
X24798567Y-121357370D01*
X24797841Y-121362182D01*
X24797098Y-121366977D01*
X24796336Y-121371760D01*
X24795556Y-121376526D01*
X24794758Y-121381281D01*
X24793943Y-121386019D01*
X24792258Y-121395456D01*
X24790502Y-121404839D01*
X24788675Y-121414169D01*
X24786777Y-121423448D01*
X24784808Y-121432675D01*
X24782768Y-121441853D01*
X24780657Y-121450982D01*
X24778475Y-121460063D01*
X24776223Y-121469099D01*
X24773899Y-121478089D01*
X24771505Y-121487035D01*
X24769039Y-121495939D01*
X24766503Y-121504800D01*
X24763895Y-121513622D01*
X24761215Y-121522404D01*
X24758464Y-121531147D01*
X24755641Y-121539854D01*
X24752746Y-121548525D01*
X24749778Y-121557162D01*
X24746738Y-121565765D01*
X24743624Y-121574336D01*
X24740437Y-121582877D01*
X24737175Y-121591388D01*
X24733839Y-121599871D01*
X24730428Y-121608327D01*
X24726942Y-121616757D01*
X24723379Y-121625163D01*
X24719739Y-121633546D01*
X24716022Y-121641908D01*
X24712227Y-121650250D01*
X24708352Y-121658574D01*
X24704397Y-121666880D01*
X24700362Y-121675171D01*
X24696244Y-121683449D01*
X24692044Y-121691714D01*
X24687760Y-121699968D01*
X24683390Y-121708214D01*
X24678934Y-121716453D01*
X24674390Y-121724686D01*
X24669758Y-121732917D01*
X24665034Y-121741146D01*
X24660218Y-121749376D01*
X24655308Y-121757609D01*
X24650302Y-121765848D01*
X24645199Y-121774094D01*
X24639996Y-121782350D01*
X24634690Y-121790619D01*
X24629280Y-121798903D01*
X24623763Y-121807206D01*
X24618136Y-121815531D01*
X24612396Y-121823880D01*
X24606540Y-121832258D01*
X24600565Y-121840667D01*
X24594467Y-121849113D01*
X24588242Y-121857599D01*
X24581885Y-121866130D01*
X24575391Y-121874711D01*
X24568756Y-121883348D01*
X24561974Y-121892046D01*
X24555037Y-121900813D01*
X24547940Y-121909654D01*
X24540675Y-121918579D01*
X24533232Y-121927596D01*
X24525602Y-121936716D01*
X24517773Y-121945948D01*
X24509734Y-121955307D01*
X24501470Y-121964807D01*
X24492964Y-121974464D01*
X24484196Y-121984299D01*
X24475144Y-121994334D01*
X24465780Y-122004597D01*
X24456071Y-122015121D01*
X24445975Y-122025949D01*
X24435440Y-122037132D01*
X24424401Y-122048737D01*
X24412766Y-122060855D01*
X24400411Y-122073611D01*
X24387153Y-122087187D01*
X24372705Y-122101874D01*
X24356556Y-122118182D01*
X24337620Y-122137201D01*
X24312504Y-122162336D01*
X24283872Y-122190996D01*
X24269582Y-122205352D01*
X24255323Y-122219739D01*
X24241106Y-122234168D01*
X24234016Y-122241401D01*
X24226941Y-122248649D01*
X24219882Y-122255912D01*
X24212839Y-122263193D01*
X24205815Y-122270491D01*
X24198810Y-122277810D01*
X24191826Y-122285149D01*
X24184864Y-122292510D01*
X24177926Y-122299895D01*
X24171013Y-122307304D01*
X24164125Y-122314740D01*
X24157266Y-122322203D01*
X24150434Y-122329695D01*
X24143633Y-122337216D01*
X24136863Y-122344770D01*
X24130126Y-122352355D01*
X24123423Y-122359975D01*
X24116755Y-122367630D01*
X24110124Y-122375321D01*
X24103530Y-122383051D01*
X24096976Y-122390819D01*
X24090462Y-122398628D01*
X24083989Y-122406479D01*
X24077560Y-122414373D01*
X24071176Y-122422311D01*
X24064837Y-122430295D01*
X24058545Y-122438326D01*
X24052301Y-122446405D01*
X24046107Y-122454534D01*
X24039964Y-122462714D01*
X24033873Y-122470946D01*
X24027835Y-122479231D01*
X24021853Y-122487572D01*
X24015926Y-122495968D01*
X24012984Y-122500188D01*
X24010057Y-122504422D01*
X24007144Y-122508671D01*
X24004247Y-122512935D01*
X24001364Y-122517214D01*
X23998497Y-122521508D01*
X23995644Y-122525817D01*
X23992808Y-122530142D01*
X23989987Y-122534482D01*
X23987182Y-122538838D01*
X23984392Y-122543211D01*
X23981619Y-122547599D01*
X23978863Y-122552004D01*
X23976122Y-122556425D01*
X23973399Y-122560863D01*
X23970692Y-122565318D01*
X23968002Y-122569790D01*
X23965330Y-122574278D01*
X23962674Y-122578784D01*
X23960036Y-122583308D01*
X23957416Y-122587849D01*
X23954814Y-122592408D01*
X23952229Y-122596985D01*
X23949663Y-122601580D01*
X23947115Y-122606194D01*
X23944585Y-122610825D01*
X23942074Y-122615476D01*
X23939582Y-122620145D01*
X23937108Y-122624833D01*
X23934654Y-122629540D01*
X23932219Y-122634267D01*
X23929803Y-122639013D01*
X23927407Y-122643778D01*
X23925031Y-122648563D01*
X23922675Y-122653368D01*
X23920339Y-122658194D01*
X23918022Y-122663039D01*
X23915727Y-122667905D01*
X23913452Y-122672791D01*
X23911197Y-122677698D01*
X23909298Y-122681886D01*
X23907413Y-122686089D01*
X23905553Y-122690286D01*
X23903708Y-122694499D01*
X23901887Y-122698707D01*
X23900081Y-122702930D01*
X23898299Y-122707149D01*
X23896533Y-122711383D01*
X23894789Y-122715614D01*
X23893061Y-122719860D01*
X23891356Y-122724103D01*
X23889666Y-122728361D01*
X23887999Y-122732618D01*
X23886347Y-122736890D01*
X23884717Y-122741160D01*
X23883103Y-122745446D01*
X23881511Y-122749730D01*
X23879935Y-122754031D01*
X23878379Y-122758331D01*
X23876840Y-122762646D01*
X23875322Y-122766962D01*
X23873820Y-122771293D01*
X23872338Y-122775625D01*
X23870873Y-122779973D01*
X23869428Y-122784323D01*
X23867999Y-122788688D01*
X23866591Y-122793054D01*
X23865198Y-122797437D01*
X23863826Y-122801823D01*
X23862470Y-122806224D01*
X23861134Y-122810628D01*
X23859814Y-122815048D01*
X23858514Y-122819472D01*
X23857230Y-122823911D01*
X23855966Y-122828355D01*
X23854718Y-122832815D01*
X23853490Y-122837279D01*
X23852278Y-122841760D01*
X23851086Y-122846245D01*
X23849910Y-122850747D01*
X23848753Y-122855255D01*
X23847613Y-122859779D01*
X23846491Y-122864309D01*
X23845387Y-122868855D01*
X23844301Y-122873408D01*
X23843233Y-122877978D01*
X23842183Y-122882554D01*
X23841150Y-122887147D01*
X23840136Y-122891748D01*
X23839138Y-122896366D01*
X23838160Y-122900991D01*
X23837198Y-122905633D01*
X23836255Y-122910284D01*
X23835329Y-122914952D01*
X23834422Y-122919628D01*
X23833532Y-122924322D01*
X23832661Y-122929025D01*
X23831806Y-122933745D01*
X23830971Y-122938475D01*
X23830153Y-122943222D01*
X23829353Y-122947979D01*
X23828570Y-122952754D01*
X23827807Y-122957540D01*
X23827060Y-122962343D01*
X23826333Y-122967157D01*
X23825623Y-122971989D01*
X23824931Y-122976832D01*
X23824257Y-122981694D01*
X23823602Y-122986567D01*
X23822965Y-122991458D01*
X23822346Y-122996362D01*
X23821745Y-123001283D01*
X23821163Y-123006218D01*
X23820599Y-123011171D01*
X23820053Y-123016137D01*
X23819526Y-123021121D01*
X23819017Y-123026119D01*
X23818527Y-123031135D01*
X23818055Y-123036166D01*
X23817602Y-123041215D01*
X23817167Y-123046279D01*
X23816751Y-123051362D01*
X23816354Y-123056459D01*
X23815976Y-123061576D01*
X23815616Y-123066707D01*
X23815276Y-123071858D01*
X23814954Y-123077025D01*
X23814651Y-123082211D01*
X23814367Y-123087413D01*
X23814103Y-123092634D01*
X23813857Y-123097873D01*
X23813631Y-123103130D01*
X23813424Y-123108405D01*
X23813236Y-123113699D01*
X23813068Y-123119011D01*
X23812919Y-123124343D01*
X23812790Y-123129693D01*
X23812680Y-123135062D01*
X23812590Y-123140450D01*
X23812520Y-123145858D01*
X23812469Y-123151285D01*
X23812439Y-123156732D01*
X23812428Y-123162412D01*
D10*
X24812428Y-121162412D02*
X24812428Y-112212412D01*
X25003118Y-138112588D02*
G75*
G02*
X23812512Y-136921962I-18J1190588D01*
G01*
X25012428Y-23812412D02*
X38762428Y-23812412D01*
D11*
X40762428Y-24812412D02*
X40756961Y-24812402D01*
X40751513Y-24812372D01*
X40746086Y-24812322D01*
X40740678Y-24812253D01*
X40735289Y-24812164D01*
X40729921Y-24812055D01*
X40724570Y-24811926D01*
X40719240Y-24811778D01*
X40713928Y-24811611D01*
X40708635Y-24811424D01*
X40703360Y-24811218D01*
X40698104Y-24810992D01*
X40692866Y-24810748D01*
X40687647Y-24810484D01*
X40682445Y-24810201D01*
X40677262Y-24809899D01*
X40672096Y-24809579D01*
X40666948Y-24809239D01*
X40661817Y-24808880D01*
X40656705Y-24808503D01*
X40651608Y-24808107D01*
X40646529Y-24807692D01*
X40641466Y-24807259D01*
X40636422Y-24806807D01*
X40631392Y-24806336D01*
X40626381Y-24805847D01*
X40621384Y-24805340D01*
X40616405Y-24804814D01*
X40611441Y-24804270D01*
X40606494Y-24803707D01*
X40601561Y-24803126D01*
X40596646Y-24802527D01*
X40591744Y-24801910D01*
X40586860Y-24801274D01*
X40581989Y-24800621D01*
X40577135Y-24799949D01*
X40572293Y-24799259D01*
X40567470Y-24798551D01*
X40562658Y-24797825D01*
X40557863Y-24797082D01*
X40553080Y-24796320D01*
X40548314Y-24795540D01*
X40543559Y-24794742D01*
X40538821Y-24793927D01*
X40529384Y-24792242D01*
X40520001Y-24790486D01*
X40510671Y-24788659D01*
X40501392Y-24786761D01*
X40492165Y-24784792D01*
X40482987Y-24782752D01*
X40473858Y-24780641D01*
X40464777Y-24778459D01*
X40455741Y-24776207D01*
X40446751Y-24773883D01*
X40437805Y-24771489D01*
X40428901Y-24769023D01*
X40420040Y-24766487D01*
X40411218Y-24763879D01*
X40402436Y-24761199D01*
X40393693Y-24758448D01*
X40384986Y-24755625D01*
X40376315Y-24752730D01*
X40367678Y-24749762D01*
X40359075Y-24746722D01*
X40350504Y-24743608D01*
X40341963Y-24740421D01*
X40333452Y-24737159D01*
X40324969Y-24733823D01*
X40316513Y-24730412D01*
X40308083Y-24726926D01*
X40299677Y-24723363D01*
X40291294Y-24719723D01*
X40282932Y-24716006D01*
X40274590Y-24712211D01*
X40266266Y-24708336D01*
X40257960Y-24704381D01*
X40249669Y-24700346D01*
X40241391Y-24696228D01*
X40233126Y-24692028D01*
X40224872Y-24687744D01*
X40216626Y-24683374D01*
X40208387Y-24678918D01*
X40200154Y-24674374D01*
X40191923Y-24669742D01*
X40183694Y-24665018D01*
X40175464Y-24660202D01*
X40167231Y-24655292D01*
X40158992Y-24650286D01*
X40150746Y-24645183D01*
X40142490Y-24639980D01*
X40134221Y-24634674D01*
X40125937Y-24629264D01*
X40117634Y-24623747D01*
X40109309Y-24618120D01*
X40100960Y-24612380D01*
X40092582Y-24606524D01*
X40084173Y-24600549D01*
X40075727Y-24594451D01*
X40067241Y-24588226D01*
X40058710Y-24581869D01*
X40050129Y-24575375D01*
X40041492Y-24568740D01*
X40032794Y-24561958D01*
X40024027Y-24555021D01*
X40015186Y-24547924D01*
X40006261Y-24540659D01*
X39997244Y-24533216D01*
X39988124Y-24525586D01*
X39978892Y-24517757D01*
X39969533Y-24509718D01*
X39960033Y-24501454D01*
X39950376Y-24492948D01*
X39940541Y-24484180D01*
X39930506Y-24475128D01*
X39920243Y-24465764D01*
X39909719Y-24456055D01*
X39898891Y-24445959D01*
X39887708Y-24435424D01*
X39876103Y-24424385D01*
X39863985Y-24412750D01*
X39851229Y-24400395D01*
X39837653Y-24387137D01*
X39822966Y-24372689D01*
X39806658Y-24356540D01*
X39787639Y-24337604D01*
X39762504Y-24312488D01*
X39733844Y-24283856D01*
X39719488Y-24269566D01*
X39705101Y-24255307D01*
X39690672Y-24241090D01*
X39683439Y-24234000D01*
X39676191Y-24226925D01*
X39668928Y-24219866D01*
X39661647Y-24212823D01*
X39654349Y-24205799D01*
X39647030Y-24198794D01*
X39639691Y-24191810D01*
X39632330Y-24184848D01*
X39624945Y-24177910D01*
X39617536Y-24170997D01*
X39610100Y-24164109D01*
X39602637Y-24157250D01*
X39595145Y-24150418D01*
X39587624Y-24143617D01*
X39580070Y-24136847D01*
X39572485Y-24130110D01*
X39564865Y-24123407D01*
X39557210Y-24116739D01*
X39549519Y-24110108D01*
X39541789Y-24103514D01*
X39534021Y-24096960D01*
X39526212Y-24090446D01*
X39518361Y-24083973D01*
X39510467Y-24077544D01*
X39502529Y-24071160D01*
X39494545Y-24064821D01*
X39486514Y-24058529D01*
X39478435Y-24052285D01*
X39470306Y-24046091D01*
X39462126Y-24039948D01*
X39453894Y-24033857D01*
X39445609Y-24027819D01*
X39437268Y-24021837D01*
X39428872Y-24015910D01*
X39424652Y-24012968D01*
X39420418Y-24010041D01*
X39416169Y-24007128D01*
X39411905Y-24004231D01*
X39407626Y-24001348D01*
X39403332Y-23998481D01*
X39399023Y-23995628D01*
X39394698Y-23992792D01*
X39390358Y-23989971D01*
X39386002Y-23987166D01*
X39381629Y-23984376D01*
X39377241Y-23981603D01*
X39372836Y-23978847D01*
X39368415Y-23976106D01*
X39363977Y-23973383D01*
X39359522Y-23970676D01*
X39355050Y-23967986D01*
X39350562Y-23965314D01*
X39346056Y-23962658D01*
X39341532Y-23960020D01*
X39336991Y-23957400D01*
X39332432Y-23954798D01*
X39327855Y-23952213D01*
X39323260Y-23949647D01*
X39318646Y-23947099D01*
X39314015Y-23944569D01*
X39309364Y-23942058D01*
X39304695Y-23939566D01*
X39300007Y-23937092D01*
X39295300Y-23934638D01*
X39290573Y-23932203D01*
X39285827Y-23929787D01*
X39281062Y-23927391D01*
X39276277Y-23925015D01*
X39271472Y-23922659D01*
X39266646Y-23920323D01*
X39261801Y-23918006D01*
X39256935Y-23915711D01*
X39252049Y-23913436D01*
X39247142Y-23911181D01*
X39242954Y-23909282D01*
X39238751Y-23907397D01*
X39234554Y-23905537D01*
X39230341Y-23903692D01*
X39226133Y-23901871D01*
X39221910Y-23900065D01*
X39217691Y-23898283D01*
X39213457Y-23896517D01*
X39209226Y-23894773D01*
X39204980Y-23893045D01*
X39200737Y-23891340D01*
X39196479Y-23889650D01*
X39192222Y-23887983D01*
X39187950Y-23886331D01*
X39183680Y-23884701D01*
X39179394Y-23883087D01*
X39175110Y-23881495D01*
X39170809Y-23879918D01*
X39166509Y-23878363D01*
X39162194Y-23876824D01*
X39157878Y-23875306D01*
X39153547Y-23873804D01*
X39149215Y-23872322D01*
X39144867Y-23870857D01*
X39140517Y-23869412D01*
X39136152Y-23867983D01*
X39131785Y-23866575D01*
X39127403Y-23865182D01*
X39123017Y-23863810D01*
X39118616Y-23862454D01*
X39114212Y-23861118D01*
X39109792Y-23859798D01*
X39105368Y-23858498D01*
X39100929Y-23857214D01*
X39096485Y-23855950D01*
X39092025Y-23854702D01*
X39087561Y-23853474D01*
X39083080Y-23852262D01*
X39078595Y-23851070D01*
X39074093Y-23849894D01*
X39069585Y-23848737D01*
X39065061Y-23847597D01*
X39060531Y-23846475D01*
X39055985Y-23845371D01*
X39051432Y-23844285D01*
X39046862Y-23843217D01*
X39042286Y-23842167D01*
X39037693Y-23841134D01*
X39033092Y-23840120D01*
X39028474Y-23839122D01*
X39023849Y-23838144D01*
X39019207Y-23837182D01*
X39014556Y-23836239D01*
X39009888Y-23835313D01*
X39005212Y-23834406D01*
X39000518Y-23833516D01*
X38995815Y-23832645D01*
X38991095Y-23831790D01*
X38986365Y-23830955D01*
X38981618Y-23830137D01*
X38976861Y-23829337D01*
X38972086Y-23828554D01*
X38967300Y-23827791D01*
X38962497Y-23827044D01*
X38957683Y-23826317D01*
X38952851Y-23825607D01*
X38948008Y-23824915D01*
X38943146Y-23824241D01*
X38938273Y-23823586D01*
X38933382Y-23822949D01*
X38928478Y-23822330D01*
X38923557Y-23821729D01*
X38918622Y-23821147D01*
X38913669Y-23820583D01*
X38908703Y-23820037D01*
X38903719Y-23819510D01*
X38898721Y-23819001D01*
X38893705Y-23818511D01*
X38888674Y-23818039D01*
X38883625Y-23817586D01*
X38878561Y-23817151D01*
X38873478Y-23816735D01*
X38868381Y-23816338D01*
X38863264Y-23815960D01*
X38858133Y-23815600D01*
X38852982Y-23815260D01*
X38847815Y-23814938D01*
X38842629Y-23814635D01*
X38837427Y-23814351D01*
X38832206Y-23814087D01*
X38826967Y-23813841D01*
X38821710Y-23813615D01*
X38816435Y-23813408D01*
X38811141Y-23813220D01*
X38805829Y-23813052D01*
X38800497Y-23812903D01*
X38795147Y-23812774D01*
X38789778Y-23812664D01*
X38784390Y-23812574D01*
X38778982Y-23812504D01*
X38773555Y-23812453D01*
X38768108Y-23812423D01*
X38762428Y-23812412D01*
D10*
X40762428Y-24812412D02*
X49712428Y-24812412D01*
D11*
X49712428Y-24812412D02*
X49717895Y-24812402D01*
X49723343Y-24812372D01*
X49728770Y-24812322D01*
X49734178Y-24812253D01*
X49739567Y-24812164D01*
X49744935Y-24812055D01*
X49750286Y-24811926D01*
X49755616Y-24811778D01*
X49760928Y-24811611D01*
X49766221Y-24811424D01*
X49771496Y-24811218D01*
X49776752Y-24810992D01*
X49781990Y-24810748D01*
X49787209Y-24810484D01*
X49792411Y-24810201D01*
X49797594Y-24809899D01*
X49802760Y-24809579D01*
X49807908Y-24809239D01*
X49813039Y-24808880D01*
X49818151Y-24808503D01*
X49823248Y-24808107D01*
X49828327Y-24807692D01*
X49833390Y-24807259D01*
X49838434Y-24806807D01*
X49843464Y-24806336D01*
X49848475Y-24805847D01*
X49853472Y-24805340D01*
X49858451Y-24804814D01*
X49863415Y-24804270D01*
X49868362Y-24803707D01*
X49873295Y-24803126D01*
X49878210Y-24802527D01*
X49883112Y-24801910D01*
X49887996Y-24801274D01*
X49892867Y-24800621D01*
X49897721Y-24799949D01*
X49902563Y-24799259D01*
X49907386Y-24798551D01*
X49912198Y-24797825D01*
X49916993Y-24797082D01*
X49921776Y-24796320D01*
X49926542Y-24795540D01*
X49931297Y-24794742D01*
X49936035Y-24793927D01*
X49945472Y-24792242D01*
X49954855Y-24790486D01*
X49964185Y-24788659D01*
X49973464Y-24786761D01*
X49982691Y-24784792D01*
X49991869Y-24782752D01*
X50000998Y-24780641D01*
X50010079Y-24778459D01*
X50019115Y-24776207D01*
X50028105Y-24773883D01*
X50037051Y-24771489D01*
X50045955Y-24769023D01*
X50054816Y-24766487D01*
X50063638Y-24763879D01*
X50072420Y-24761199D01*
X50081163Y-24758448D01*
X50089870Y-24755625D01*
X50098541Y-24752730D01*
X50107178Y-24749762D01*
X50115781Y-24746722D01*
X50124352Y-24743608D01*
X50132893Y-24740421D01*
X50141404Y-24737159D01*
X50149887Y-24733823D01*
X50158343Y-24730412D01*
X50166773Y-24726926D01*
X50175179Y-24723363D01*
X50183562Y-24719723D01*
X50191924Y-24716006D01*
X50200266Y-24712211D01*
X50208590Y-24708336D01*
X50216896Y-24704381D01*
X50225187Y-24700346D01*
X50233465Y-24696228D01*
X50241730Y-24692028D01*
X50249984Y-24687744D01*
X50258230Y-24683374D01*
X50266469Y-24678918D01*
X50274702Y-24674374D01*
X50282933Y-24669742D01*
X50291162Y-24665018D01*
X50299392Y-24660202D01*
X50307625Y-24655292D01*
X50315864Y-24650286D01*
X50324110Y-24645183D01*
X50332366Y-24639980D01*
X50340635Y-24634674D01*
X50348919Y-24629264D01*
X50357222Y-24623747D01*
X50365547Y-24618120D01*
X50373896Y-24612380D01*
X50382274Y-24606524D01*
X50390683Y-24600549D01*
X50399129Y-24594451D01*
X50407615Y-24588226D01*
X50416146Y-24581869D01*
X50424727Y-24575375D01*
X50433364Y-24568740D01*
X50442062Y-24561958D01*
X50450829Y-24555021D01*
X50459670Y-24547924D01*
X50468595Y-24540659D01*
X50477612Y-24533216D01*
X50486732Y-24525586D01*
X50495964Y-24517757D01*
X50505323Y-24509718D01*
X50514823Y-24501454D01*
X50524480Y-24492948D01*
X50534315Y-24484180D01*
X50544350Y-24475128D01*
X50554613Y-24465764D01*
X50565137Y-24456055D01*
X50575965Y-24445959D01*
X50587148Y-24435424D01*
X50598753Y-24424385D01*
X50610871Y-24412750D01*
X50623627Y-24400395D01*
X50637203Y-24387137D01*
X50651890Y-24372689D01*
X50668198Y-24356540D01*
X50687217Y-24337604D01*
X50712352Y-24312488D01*
X50741012Y-24283856D01*
X50755368Y-24269566D01*
X50769755Y-24255307D01*
X50784184Y-24241090D01*
X50791417Y-24234000D01*
X50798665Y-24226925D01*
X50805928Y-24219866D01*
X50813209Y-24212823D01*
X50820507Y-24205799D01*
X50827826Y-24198794D01*
X50835165Y-24191810D01*
X50842526Y-24184848D01*
X50849911Y-24177910D01*
X50857320Y-24170997D01*
X50864756Y-24164109D01*
X50872219Y-24157250D01*
X50879711Y-24150418D01*
X50887232Y-24143617D01*
X50894786Y-24136847D01*
X50902371Y-24130110D01*
X50909991Y-24123407D01*
X50917646Y-24116739D01*
X50925337Y-24110108D01*
X50933067Y-24103514D01*
X50940835Y-24096960D01*
X50948644Y-24090446D01*
X50956495Y-24083973D01*
X50964389Y-24077544D01*
X50972327Y-24071160D01*
X50980311Y-24064821D01*
X50988342Y-24058529D01*
X50996421Y-24052285D01*
X51004550Y-24046091D01*
X51012730Y-24039948D01*
X51020962Y-24033857D01*
X51029247Y-24027819D01*
X51037588Y-24021837D01*
X51045984Y-24015910D01*
X51050204Y-24012968D01*
X51054438Y-24010041D01*
X51058687Y-24007128D01*
X51062951Y-24004231D01*
X51067230Y-24001348D01*
X51071524Y-23998481D01*
X51075833Y-23995628D01*
X51080158Y-23992792D01*
X51084498Y-23989971D01*
X51088854Y-23987166D01*
X51093227Y-23984376D01*
X51097615Y-23981603D01*
X51102020Y-23978847D01*
X51106441Y-23976106D01*
X51110879Y-23973383D01*
X51115334Y-23970676D01*
X51119806Y-23967986D01*
X51124294Y-23965314D01*
X51128800Y-23962658D01*
X51133324Y-23960020D01*
X51137865Y-23957400D01*
X51142424Y-23954798D01*
X51147001Y-23952213D01*
X51151596Y-23949647D01*
X51156210Y-23947099D01*
X51160841Y-23944569D01*
X51165492Y-23942058D01*
X51170161Y-23939566D01*
X51174849Y-23937092D01*
X51179556Y-23934638D01*
X51184283Y-23932203D01*
X51189029Y-23929787D01*
X51193794Y-23927391D01*
X51198579Y-23925015D01*
X51203384Y-23922659D01*
X51208210Y-23920323D01*
X51213055Y-23918006D01*
X51217921Y-23915711D01*
X51222807Y-23913436D01*
X51227714Y-23911181D01*
X51231902Y-23909282D01*
X51236105Y-23907397D01*
X51240302Y-23905537D01*
X51244515Y-23903692D01*
X51248723Y-23901871D01*
X51252946Y-23900065D01*
X51257165Y-23898283D01*
X51261399Y-23896517D01*
X51265630Y-23894773D01*
X51269876Y-23893045D01*
X51274119Y-23891340D01*
X51278377Y-23889650D01*
X51282634Y-23887983D01*
X51286906Y-23886331D01*
X51291176Y-23884701D01*
X51295462Y-23883087D01*
X51299746Y-23881495D01*
X51304047Y-23879918D01*
X51308347Y-23878363D01*
X51312662Y-23876824D01*
X51316978Y-23875306D01*
X51321309Y-23873804D01*
X51325641Y-23872322D01*
X51329989Y-23870857D01*
X51334339Y-23869412D01*
X51338704Y-23867983D01*
X51343071Y-23866575D01*
X51347453Y-23865182D01*
X51351839Y-23863810D01*
X51356240Y-23862454D01*
X51360644Y-23861118D01*
X51365064Y-23859798D01*
X51369488Y-23858498D01*
X51373927Y-23857214D01*
X51378371Y-23855950D01*
X51382831Y-23854702D01*
X51387295Y-23853474D01*
X51391776Y-23852262D01*
X51396261Y-23851070D01*
X51400763Y-23849894D01*
X51405271Y-23848737D01*
X51409795Y-23847597D01*
X51414325Y-23846475D01*
X51418871Y-23845371D01*
X51423424Y-23844285D01*
X51427994Y-23843217D01*
X51432570Y-23842167D01*
X51437163Y-23841134D01*
X51441764Y-23840120D01*
X51446382Y-23839122D01*
X51451007Y-23838144D01*
X51455649Y-23837182D01*
X51460300Y-23836239D01*
X51464968Y-23835313D01*
X51469644Y-23834406D01*
X51474338Y-23833516D01*
X51479041Y-23832645D01*
X51483761Y-23831790D01*
X51488491Y-23830955D01*
X51493238Y-23830137D01*
X51497995Y-23829337D01*
X51502770Y-23828554D01*
X51507556Y-23827791D01*
X51512359Y-23827044D01*
X51517173Y-23826317D01*
X51522005Y-23825607D01*
X51526849Y-23824915D01*
X51531710Y-23824241D01*
X51536583Y-23823586D01*
X51541474Y-23822949D01*
X51546378Y-23822330D01*
X51551299Y-23821729D01*
X51556234Y-23821147D01*
X51561187Y-23820583D01*
X51566153Y-23820037D01*
X51571137Y-23819510D01*
X51576135Y-23819001D01*
X51581151Y-23818511D01*
X51586182Y-23818039D01*
X51591231Y-23817586D01*
X51596295Y-23817151D01*
X51601378Y-23816735D01*
X51606475Y-23816338D01*
X51611592Y-23815960D01*
X51616723Y-23815600D01*
X51621874Y-23815260D01*
X51627041Y-23814938D01*
X51632227Y-23814635D01*
X51637429Y-23814351D01*
X51642650Y-23814087D01*
X51647889Y-23813841D01*
X51653146Y-23813615D01*
X51658421Y-23813408D01*
X51663715Y-23813220D01*
X51669027Y-23813052D01*
X51674359Y-23812903D01*
X51679709Y-23812774D01*
X51685078Y-23812664D01*
X51690466Y-23812574D01*
X51695874Y-23812504D01*
X51701301Y-23812453D01*
X51706748Y-23812423D01*
X51712428Y-23812412D01*
D10*
X51712428Y-23812412D02*
X117862428Y-23812412D01*
X117871946Y-23812492D02*
G75*
G02*
X119062508Y-25003118I-46J-1190608D01*
G01*
X117871946Y-138112588D02*
X25003118Y-138112588D01*
X119062572Y-25003118D02*
X119062572Y-136921962D01*
X119062572Y-136921962D02*
G75*
G02*
X117871946Y-138112672I-1190672J-38D01*
G01*
M02*
