ISO-10303-21;
HEADER;
FILE_DESCRIPTION(('FreeCAD Model'),'2;1');
FILE_NAME('Open CASCADE Shape Model','2026-08-30T16:31:28',(''),(''),
  'Open CASCADE STEP processor 7.9','FreeCAD','Unknown');
FILE_SCHEMA(('AUTOMOTIVE_DESIGN { 1 0 10303 214 1 1 1 1 }'));
ENDSEC;
DATA;
#1 = APPLICATION_PROTOCOL_DEFINITION('international standard',
  'automotive_design',2000,#2);
#2 = APPLICATION_CONTEXT(
  'core data for automotive mechanical design processes');
#3 = SHAPE_DEFINITION_REPRESENTATION(#4,#10);
#4 = PRODUCT_DEFINITION_SHAPE('','',#5);
#5 = PRODUCT_DEFINITION('design','',#6,#9);
#6 = PRODUCT_DEFINITION_FORMATION('','',#7);
#7 = PRODUCT('Unnamed','Unnamed','',(#8));
#8 = PRODUCT_CONTEXT('',#2,'mechanical');
#9 = PRODUCT_DEFINITION_CONTEXT('part definition',#2,'design');
#10 = SHAPE_REPRESENTATION('',(#11,#15,#19,#23),#27);
#11 = AXIS2_PLACEMENT_3D('',#12,#13,#14);
#12 = CARTESIAN_POINT('',(0.,0.,0.));
#13 = DIRECTION('',(0.,0.,1.));
#14 = DIRECTION('',(1.,0.,-0.));
#15 = AXIS2_PLACEMENT_3D('',#16,#17,#18);
#16 = CARTESIAN_POINT('',(0.,0.,0.));
#17 = DIRECTION('',(0.,0.,1.));
#18 = DIRECTION('',(1.,0.,0.));
#19 = AXIS2_PLACEMENT_3D('',#20,#21,#22);
#20 = CARTESIAN_POINT('',(0.,0.,0.));
#21 = DIRECTION('',(0.,0.,1.));
#22 = DIRECTION('',(1.,0.,0.));
#23 = AXIS2_PLACEMENT_3D('',#24,#25,#26);
#24 = CARTESIAN_POINT('',(0.,0.,0.));
#25 = DIRECTION('',(0.,0.,1.));
#26 = DIRECTION('',(1.,0.,0.));
#27 = ( GEOMETRIC_REPRESENTATION_CONTEXT(3) 
GLOBAL_UNCERTAINTY_ASSIGNED_CONTEXT((#31)) GLOBAL_UNIT_ASSIGNED_CONTEXT(
(#28,#29,#30)) REPRESENTATION_CONTEXT('Context #1',
  '3D Context with UNIT and UNCERTAINTY') );
#28 = ( LENGTH_UNIT() NAMED_UNIT(*) SI_UNIT(.MILLI.,.METRE.) );
#29 = ( NAMED_UNIT(*) PLANE_ANGLE_UNIT() SI_UNIT($,.RADIAN.) );
#30 = ( NAMED_UNIT(*) SI_UNIT($,.STERADIAN.) SOLID_ANGLE_UNIT() );
#31 = UNCERTAINTY_MEASURE_WITH_UNIT(LENGTH_MEASURE(1.E-07),#28,
  'distance_accuracy_value','confusion accuracy');
#32 = PRODUCT_RELATED_PRODUCT_CATEGORY('part',$,(#7));
#33 = SHAPE_DEFINITION_REPRESENTATION(#34,#40);
#34 = PRODUCT_DEFINITION_SHAPE('','',#35);
#35 = PRODUCT_DEFINITION('design','',#36,#39);
#36 = PRODUCT_DEFINITION_FORMATION('','',#37);
#37 = PRODUCT('Body004','Body004','',(#38));
#38 = PRODUCT_CONTEXT('',#2,'mechanical');
#39 = PRODUCT_DEFINITION_CONTEXT('part definition',#2,'design');
#40 = SHAPE_REPRESENTATION('',(#11,#41,#191,#341,#491,#641,#791),#941);
#41 = MANIFOLD_SOLID_BREP('',#42);
#42 = CLOSED_SHELL('',(#43,#83,#114,#145,#167,#179));
#43 = ADVANCED_FACE('',(#44),#78,.T.);
#44 = FACE_BOUND('',#45,.T.);
#45 = EDGE_LOOP('',(#46,#56,#64,#72));
#46 = ORIENTED_EDGE('',*,*,#47,.T.);
#47 = EDGE_CURVE('',#48,#50,#52,.T.);
#48 = VERTEX_POINT('',#49);
#49 = CARTESIAN_POINT('',(12.5,-3.5,0.));
#50 = VERTEX_POINT('',#51);
#51 = CARTESIAN_POINT('',(12.5,-3.5,-0.1));
#52 = LINE('',#53,#54);
#53 = CARTESIAN_POINT('',(12.5,-3.5,0.));
#54 = VECTOR('',#55,1.);
#55 = DIRECTION('',(-0.,-0.,-1.));
#56 = ORIENTED_EDGE('',*,*,#57,.T.);
#57 = EDGE_CURVE('',#50,#58,#60,.T.);
#58 = VERTEX_POINT('',#59);
#59 = CARTESIAN_POINT('',(12.5,-1.2,-0.1));
#60 = LINE('',#61,#62);
#61 = CARTESIAN_POINT('',(12.5,-3.5,-0.1));
#62 = VECTOR('',#63,1.);
#63 = DIRECTION('',(0.,1.,0.));
#64 = ORIENTED_EDGE('',*,*,#65,.F.);
#65 = EDGE_CURVE('',#66,#58,#68,.T.);
#66 = VERTEX_POINT('',#67);
#67 = CARTESIAN_POINT('',(12.5,-1.2,0.));
#68 = LINE('',#69,#70);
#69 = CARTESIAN_POINT('',(12.5,-1.2,0.));
#70 = VECTOR('',#71,1.);
#71 = DIRECTION('',(-0.,-0.,-1.));
#72 = ORIENTED_EDGE('',*,*,#73,.F.);
#73 = EDGE_CURVE('',#48,#66,#74,.T.);
#74 = LINE('',#75,#76);
#75 = CARTESIAN_POINT('',(12.5,-3.5,0.));
#76 = VECTOR('',#77,1.);
#77 = DIRECTION('',(0.,1.,0.));
#78 = PLANE('',#79);
#79 = AXIS2_PLACEMENT_3D('',#80,#81,#82);
#80 = CARTESIAN_POINT('',(12.5,-3.5,0.));
#81 = DIRECTION('',(1.,0.,0.));
#82 = DIRECTION('',(0.,1.,0.));
#83 = ADVANCED_FACE('',(#84),#109,.T.);
#84 = FACE_BOUND('',#85,.T.);
#85 = EDGE_LOOP('',(#86,#87,#95,#103));
#86 = ORIENTED_EDGE('',*,*,#65,.T.);
#87 = ORIENTED_EDGE('',*,*,#88,.T.);
#88 = EDGE_CURVE('',#58,#89,#91,.T.);
#89 = VERTEX_POINT('',#90);
#90 = CARTESIAN_POINT('',(11.,-1.2,-0.1));
#91 = LINE('',#92,#93);
#92 = CARTESIAN_POINT('',(12.5,-1.2,-0.1));
#93 = VECTOR('',#94,1.);
#94 = DIRECTION('',(-1.,0.,0.));
#95 = ORIENTED_EDGE('',*,*,#96,.F.);
#96 = EDGE_CURVE('',#97,#89,#99,.T.);
#97 = VERTEX_POINT('',#98);
#98 = CARTESIAN_POINT('',(11.,-1.2,0.));
#99 = LINE('',#100,#101);
#100 = CARTESIAN_POINT('',(11.,-1.2,0.));
#101 = VECTOR('',#102,1.);
#102 = DIRECTION('',(-0.,-0.,-1.));
#103 = ORIENTED_EDGE('',*,*,#104,.F.);
#104 = EDGE_CURVE('',#66,#97,#105,.T.);
#105 = LINE('',#106,#107);
#106 = CARTESIAN_POINT('',(12.5,-1.2,0.));
#107 = VECTOR('',#108,1.);
#108 = DIRECTION('',(-1.,0.,0.));
#109 = PLANE('',#110);
#110 = AXIS2_PLACEMENT_3D('',#111,#112,#113);
#111 = CARTESIAN_POINT('',(12.5,-1.2,0.));
#112 = DIRECTION('',(0.,1.,0.));
#113 = DIRECTION('',(-1.,0.,0.));
#114 = ADVANCED_FACE('',(#115),#140,.T.);
#115 = FACE_BOUND('',#116,.T.);
#116 = EDGE_LOOP('',(#117,#118,#126,#134));
#117 = ORIENTED_EDGE('',*,*,#96,.T.);
#118 = ORIENTED_EDGE('',*,*,#119,.T.);
#119 = EDGE_CURVE('',#89,#120,#122,.T.);
#120 = VERTEX_POINT('',#121);
#121 = CARTESIAN_POINT('',(11.,-3.5,-0.1));
#122 = LINE('',#123,#124);
#123 = CARTESIAN_POINT('',(11.,-1.2,-0.1));
#124 = VECTOR('',#125,1.);
#125 = DIRECTION('',(0.,-1.,0.));
#126 = ORIENTED_EDGE('',*,*,#127,.F.);
#127 = EDGE_CURVE('',#128,#120,#130,.T.);
#128 = VERTEX_POINT('',#129);
#129 = CARTESIAN_POINT('',(11.,-3.5,0.));
#130 = LINE('',#131,#132);
#131 = CARTESIAN_POINT('',(11.,-3.5,0.));
#132 = VECTOR('',#133,1.);
#133 = DIRECTION('',(-0.,-0.,-1.));
#134 = ORIENTED_EDGE('',*,*,#135,.F.);
#135 = EDGE_CURVE('',#97,#128,#136,.T.);
#136 = LINE('',#137,#138);
#137 = CARTESIAN_POINT('',(11.,-1.2,0.));
#138 = VECTOR('',#139,1.);
#139 = DIRECTION('',(0.,-1.,0.));
#140 = PLANE('',#141);
#141 = AXIS2_PLACEMENT_3D('',#142,#143,#144);
#142 = CARTESIAN_POINT('',(11.,-1.2,0.));
#143 = DIRECTION('',(-1.,0.,0.));
#144 = DIRECTION('',(0.,-1.,0.));
#145 = ADVANCED_FACE('',(#146),#162,.T.);
#146 = FACE_BOUND('',#147,.T.);
#147 = EDGE_LOOP('',(#148,#149,#155,#156));
#148 = ORIENTED_EDGE('',*,*,#127,.T.);
#149 = ORIENTED_EDGE('',*,*,#150,.T.);
#150 = EDGE_CURVE('',#120,#50,#151,.T.);
#151 = LINE('',#152,#153);
#152 = CARTESIAN_POINT('',(11.,-3.5,-0.1));
#153 = VECTOR('',#154,1.);
#154 = DIRECTION('',(1.,0.,0.));
#155 = ORIENTED_EDGE('',*,*,#47,.F.);
#156 = ORIENTED_EDGE('',*,*,#157,.F.);
#157 = EDGE_CURVE('',#128,#48,#158,.T.);
#158 = LINE('',#159,#160);
#159 = CARTESIAN_POINT('',(11.,-3.5,0.));
#160 = VECTOR('',#161,1.);
#161 = DIRECTION('',(1.,0.,0.));
#162 = PLANE('',#163);
#163 = AXIS2_PLACEMENT_3D('',#164,#165,#166);
#164 = CARTESIAN_POINT('',(11.,-3.5,0.));
#165 = DIRECTION('',(0.,-1.,0.));
#166 = DIRECTION('',(1.,0.,0.));
#167 = ADVANCED_FACE('',(#168),#174,.T.);
#168 = FACE_BOUND('',#169,.T.);
#169 = EDGE_LOOP('',(#170,#171,#172,#173));
#170 = ORIENTED_EDGE('',*,*,#73,.T.);
#171 = ORIENTED_EDGE('',*,*,#104,.T.);
#172 = ORIENTED_EDGE('',*,*,#135,.T.);
#173 = ORIENTED_EDGE('',*,*,#157,.T.);
#174 = PLANE('',#175);
#175 = AXIS2_PLACEMENT_3D('',#176,#177,#178);
#176 = CARTESIAN_POINT('',(8.,-2.35,0.));
#177 = DIRECTION('',(0.,0.,1.));
#178 = DIRECTION('',(1.,0.,0.));
#179 = ADVANCED_FACE('',(#180),#186,.F.);
#180 = FACE_BOUND('',#181,.F.);
#181 = EDGE_LOOP('',(#182,#183,#184,#185));
#182 = ORIENTED_EDGE('',*,*,#57,.T.);
#183 = ORIENTED_EDGE('',*,*,#88,.T.);
#184 = ORIENTED_EDGE('',*,*,#119,.T.);
#185 = ORIENTED_EDGE('',*,*,#150,.T.);
#186 = PLANE('',#187);
#187 = AXIS2_PLACEMENT_3D('',#188,#189,#190);
#188 = CARTESIAN_POINT('',(8.,-2.35,-0.1));
#189 = DIRECTION('',(0.,0.,1.));
#190 = DIRECTION('',(1.,0.,0.));
#191 = MANIFOLD_SOLID_BREP('',#192);
#192 = CLOSED_SHELL('',(#193,#233,#264,#295,#317,#329));
#193 = ADVANCED_FACE('',(#194),#228,.T.);
#194 = FACE_BOUND('',#195,.T.);
#195 = EDGE_LOOP('',(#196,#206,#214,#222));
#196 = ORIENTED_EDGE('',*,*,#197,.T.);
#197 = EDGE_CURVE('',#198,#200,#202,.T.);
#198 = VERTEX_POINT('',#199);
#199 = CARTESIAN_POINT('',(10.,-3.5,0.));
#200 = VERTEX_POINT('',#201);
#201 = CARTESIAN_POINT('',(10.,-3.5,-0.1));
#202 = LINE('',#203,#204);
#203 = CARTESIAN_POINT('',(10.,-3.5,0.));
#204 = VECTOR('',#205,1.);
#205 = DIRECTION('',(-0.,-0.,-1.));
#206 = ORIENTED_EDGE('',*,*,#207,.T.);
#207 = EDGE_CURVE('',#200,#208,#210,.T.);
#208 = VERTEX_POINT('',#209);
#209 = CARTESIAN_POINT('',(10.,-1.2,-0.1));
#210 = LINE('',#211,#212);
#211 = CARTESIAN_POINT('',(10.,-3.5,-0.1));
#212 = VECTOR('',#213,1.);
#213 = DIRECTION('',(0.,1.,0.));
#214 = ORIENTED_EDGE('',*,*,#215,.F.);
#215 = EDGE_CURVE('',#216,#208,#218,.T.);
#216 = VERTEX_POINT('',#217);
#217 = CARTESIAN_POINT('',(10.,-1.2,0.));
#218 = LINE('',#219,#220);
#219 = CARTESIAN_POINT('',(10.,-1.2,0.));
#220 = VECTOR('',#221,1.);
#221 = DIRECTION('',(-0.,-0.,-1.));
#222 = ORIENTED_EDGE('',*,*,#223,.F.);
#223 = EDGE_CURVE('',#198,#216,#224,.T.);
#224 = LINE('',#225,#226);
#225 = CARTESIAN_POINT('',(10.,-3.5,0.));
#226 = VECTOR('',#227,1.);
#227 = DIRECTION('',(0.,1.,0.));
#228 = PLANE('',#229);
#229 = AXIS2_PLACEMENT_3D('',#230,#231,#232);
#230 = CARTESIAN_POINT('',(10.,-3.5,0.));
#231 = DIRECTION('',(1.,0.,0.));
#232 = DIRECTION('',(0.,1.,0.));
#233 = ADVANCED_FACE('',(#234),#259,.T.);
#234 = FACE_BOUND('',#235,.T.);
#235 = EDGE_LOOP('',(#236,#237,#245,#253));
#236 = ORIENTED_EDGE('',*,*,#215,.T.);
#237 = ORIENTED_EDGE('',*,*,#238,.T.);
#238 = EDGE_CURVE('',#208,#239,#241,.T.);
#239 = VERTEX_POINT('',#240);
#240 = CARTESIAN_POINT('',(8.5,-1.2,-0.1));
#241 = LINE('',#242,#243);
#242 = CARTESIAN_POINT('',(10.,-1.2,-0.1));
#243 = VECTOR('',#244,1.);
#244 = DIRECTION('',(-1.,0.,0.));
#245 = ORIENTED_EDGE('',*,*,#246,.F.);
#246 = EDGE_CURVE('',#247,#239,#249,.T.);
#247 = VERTEX_POINT('',#248);
#248 = CARTESIAN_POINT('',(8.5,-1.2,0.));
#249 = LINE('',#250,#251);
#250 = CARTESIAN_POINT('',(8.5,-1.2,0.));
#251 = VECTOR('',#252,1.);
#252 = DIRECTION('',(-0.,-0.,-1.));
#253 = ORIENTED_EDGE('',*,*,#254,.F.);
#254 = EDGE_CURVE('',#216,#247,#255,.T.);
#255 = LINE('',#256,#257);
#256 = CARTESIAN_POINT('',(10.,-1.2,0.));
#257 = VECTOR('',#258,1.);
#258 = DIRECTION('',(-1.,0.,0.));
#259 = PLANE('',#260);
#260 = AXIS2_PLACEMENT_3D('',#261,#262,#263);
#261 = CARTESIAN_POINT('',(10.,-1.2,0.));
#262 = DIRECTION('',(0.,1.,0.));
#263 = DIRECTION('',(-1.,0.,0.));
#264 = ADVANCED_FACE('',(#265),#290,.T.);
#265 = FACE_BOUND('',#266,.T.);
#266 = EDGE_LOOP('',(#267,#268,#276,#284));
#267 = ORIENTED_EDGE('',*,*,#246,.T.);
#268 = ORIENTED_EDGE('',*,*,#269,.T.);
#269 = EDGE_CURVE('',#239,#270,#272,.T.);
#270 = VERTEX_POINT('',#271);
#271 = CARTESIAN_POINT('',(8.5,-3.5,-0.1));
#272 = LINE('',#273,#274);
#273 = CARTESIAN_POINT('',(8.5,-1.2,-0.1));
#274 = VECTOR('',#275,1.);
#275 = DIRECTION('',(0.,-1.,0.));
#276 = ORIENTED_EDGE('',*,*,#277,.F.);
#277 = EDGE_CURVE('',#278,#270,#280,.T.);
#278 = VERTEX_POINT('',#279);
#279 = CARTESIAN_POINT('',(8.5,-3.5,0.));
#280 = LINE('',#281,#282);
#281 = CARTESIAN_POINT('',(8.5,-3.5,0.));
#282 = VECTOR('',#283,1.);
#283 = DIRECTION('',(-0.,-0.,-1.));
#284 = ORIENTED_EDGE('',*,*,#285,.F.);
#285 = EDGE_CURVE('',#247,#278,#286,.T.);
#286 = LINE('',#287,#288);
#287 = CARTESIAN_POINT('',(8.5,-1.2,0.));
#288 = VECTOR('',#289,1.);
#289 = DIRECTION('',(0.,-1.,0.));
#290 = PLANE('',#291);
#291 = AXIS2_PLACEMENT_3D('',#292,#293,#294);
#292 = CARTESIAN_POINT('',(8.5,-1.2,0.));
#293 = DIRECTION('',(-1.,0.,0.));
#294 = DIRECTION('',(0.,-1.,0.));
#295 = ADVANCED_FACE('',(#296),#312,.T.);
#296 = FACE_BOUND('',#297,.T.);
#297 = EDGE_LOOP('',(#298,#299,#305,#306));
#298 = ORIENTED_EDGE('',*,*,#277,.T.);
#299 = ORIENTED_EDGE('',*,*,#300,.T.);
#300 = EDGE_CURVE('',#270,#200,#301,.T.);
#301 = LINE('',#302,#303);
#302 = CARTESIAN_POINT('',(8.5,-3.5,-0.1));
#303 = VECTOR('',#304,1.);
#304 = DIRECTION('',(1.,0.,0.));
#305 = ORIENTED_EDGE('',*,*,#197,.F.);
#306 = ORIENTED_EDGE('',*,*,#307,.F.);
#307 = EDGE_CURVE('',#278,#198,#308,.T.);
#308 = LINE('',#309,#310);
#309 = CARTESIAN_POINT('',(8.5,-3.5,0.));
#310 = VECTOR('',#311,1.);
#311 = DIRECTION('',(1.,0.,0.));
#312 = PLANE('',#313);
#313 = AXIS2_PLACEMENT_3D('',#314,#315,#316);
#314 = CARTESIAN_POINT('',(8.5,-3.5,0.));
#315 = DIRECTION('',(0.,-1.,0.));
#316 = DIRECTION('',(1.,0.,0.));
#317 = ADVANCED_FACE('',(#318),#324,.T.);
#318 = FACE_BOUND('',#319,.T.);
#319 = EDGE_LOOP('',(#320,#321,#322,#323));
#320 = ORIENTED_EDGE('',*,*,#223,.T.);
#321 = ORIENTED_EDGE('',*,*,#254,.T.);
#322 = ORIENTED_EDGE('',*,*,#285,.T.);
#323 = ORIENTED_EDGE('',*,*,#307,.T.);
#324 = PLANE('',#325);
#325 = AXIS2_PLACEMENT_3D('',#326,#327,#328);
#326 = CARTESIAN_POINT('',(8.,-2.35,0.));
#327 = DIRECTION('',(0.,0.,1.));
#328 = DIRECTION('',(1.,0.,0.));
#329 = ADVANCED_FACE('',(#330),#336,.F.);
#330 = FACE_BOUND('',#331,.F.);
#331 = EDGE_LOOP('',(#332,#333,#334,#335));
#332 = ORIENTED_EDGE('',*,*,#207,.T.);
#333 = ORIENTED_EDGE('',*,*,#238,.T.);
#334 = ORIENTED_EDGE('',*,*,#269,.T.);
#335 = ORIENTED_EDGE('',*,*,#300,.T.);
#336 = PLANE('',#337);
#337 = AXIS2_PLACEMENT_3D('',#338,#339,#340);
#338 = CARTESIAN_POINT('',(8.,-2.35,-0.1));
#339 = DIRECTION('',(0.,0.,1.));
#340 = DIRECTION('',(1.,0.,0.));
#341 = MANIFOLD_SOLID_BREP('',#342);
#342 = CLOSED_SHELL('',(#343,#383,#414,#445,#467,#479));
#343 = ADVANCED_FACE('',(#344),#378,.T.);
#344 = FACE_BOUND('',#345,.T.);
#345 = EDGE_LOOP('',(#346,#356,#364,#372));
#346 = ORIENTED_EDGE('',*,*,#347,.T.);
#347 = EDGE_CURVE('',#348,#350,#352,.T.);
#348 = VERTEX_POINT('',#349);
#349 = CARTESIAN_POINT('',(7.5,-3.5,0.));
#350 = VERTEX_POINT('',#351);
#351 = CARTESIAN_POINT('',(7.5,-3.5,-0.1));
#352 = LINE('',#353,#354);
#353 = CARTESIAN_POINT('',(7.5,-3.5,0.));
#354 = VECTOR('',#355,1.);
#355 = DIRECTION('',(-0.,-0.,-1.));
#356 = ORIENTED_EDGE('',*,*,#357,.T.);
#357 = EDGE_CURVE('',#350,#358,#360,.T.);
#358 = VERTEX_POINT('',#359);
#359 = CARTESIAN_POINT('',(7.5,-1.2,-0.1));
#360 = LINE('',#361,#362);
#361 = CARTESIAN_POINT('',(7.5,-3.5,-0.1));
#362 = VECTOR('',#363,1.);
#363 = DIRECTION('',(0.,1.,0.));
#364 = ORIENTED_EDGE('',*,*,#365,.F.);
#365 = EDGE_CURVE('',#366,#358,#368,.T.);
#366 = VERTEX_POINT('',#367);
#367 = CARTESIAN_POINT('',(7.5,-1.2,0.));
#368 = LINE('',#369,#370);
#369 = CARTESIAN_POINT('',(7.5,-1.2,0.));
#370 = VECTOR('',#371,1.);
#371 = DIRECTION('',(-0.,-0.,-1.));
#372 = ORIENTED_EDGE('',*,*,#373,.F.);
#373 = EDGE_CURVE('',#348,#366,#374,.T.);
#374 = LINE('',#375,#376);
#375 = CARTESIAN_POINT('',(7.5,-3.5,0.));
#376 = VECTOR('',#377,1.);
#377 = DIRECTION('',(0.,1.,0.));
#378 = PLANE('',#379);
#379 = AXIS2_PLACEMENT_3D('',#380,#381,#382);
#380 = CARTESIAN_POINT('',(7.5,-3.5,0.));
#381 = DIRECTION('',(1.,0.,0.));
#382 = DIRECTION('',(0.,1.,0.));
#383 = ADVANCED_FACE('',(#384),#409,.T.);
#384 = FACE_BOUND('',#385,.T.);
#385 = EDGE_LOOP('',(#386,#387,#395,#403));
#386 = ORIENTED_EDGE('',*,*,#365,.T.);
#387 = ORIENTED_EDGE('',*,*,#388,.T.);
#388 = EDGE_CURVE('',#358,#389,#391,.T.);
#389 = VERTEX_POINT('',#390);
#390 = CARTESIAN_POINT('',(6.,-1.2,-0.1));
#391 = LINE('',#392,#393);
#392 = CARTESIAN_POINT('',(7.5,-1.2,-0.1));
#393 = VECTOR('',#394,1.);
#394 = DIRECTION('',(-1.,0.,0.));
#395 = ORIENTED_EDGE('',*,*,#396,.F.);
#396 = EDGE_CURVE('',#397,#389,#399,.T.);
#397 = VERTEX_POINT('',#398);
#398 = CARTESIAN_POINT('',(6.,-1.2,0.));
#399 = LINE('',#400,#401);
#400 = CARTESIAN_POINT('',(6.,-1.2,0.));
#401 = VECTOR('',#402,1.);
#402 = DIRECTION('',(-0.,-0.,-1.));
#403 = ORIENTED_EDGE('',*,*,#404,.F.);
#404 = EDGE_CURVE('',#366,#397,#405,.T.);
#405 = LINE('',#406,#407);
#406 = CARTESIAN_POINT('',(7.5,-1.2,0.));
#407 = VECTOR('',#408,1.);
#408 = DIRECTION('',(-1.,0.,0.));
#409 = PLANE('',#410);
#410 = AXIS2_PLACEMENT_3D('',#411,#412,#413);
#411 = CARTESIAN_POINT('',(7.5,-1.2,0.));
#412 = DIRECTION('',(0.,1.,0.));
#413 = DIRECTION('',(-1.,0.,0.));
#414 = ADVANCED_FACE('',(#415),#440,.T.);
#415 = FACE_BOUND('',#416,.T.);
#416 = EDGE_LOOP('',(#417,#418,#426,#434));
#417 = ORIENTED_EDGE('',*,*,#396,.T.);
#418 = ORIENTED_EDGE('',*,*,#419,.T.);
#419 = EDGE_CURVE('',#389,#420,#422,.T.);
#420 = VERTEX_POINT('',#421);
#421 = CARTESIAN_POINT('',(6.,-3.5,-0.1));
#422 = LINE('',#423,#424);
#423 = CARTESIAN_POINT('',(6.,-1.2,-0.1));
#424 = VECTOR('',#425,1.);
#425 = DIRECTION('',(0.,-1.,0.));
#426 = ORIENTED_EDGE('',*,*,#427,.F.);
#427 = EDGE_CURVE('',#428,#420,#430,.T.);
#428 = VERTEX_POINT('',#429);
#429 = CARTESIAN_POINT('',(6.,-3.5,0.));
#430 = LINE('',#431,#432);
#431 = CARTESIAN_POINT('',(6.,-3.5,0.));
#432 = VECTOR('',#433,1.);
#433 = DIRECTION('',(-0.,-0.,-1.));
#434 = ORIENTED_EDGE('',*,*,#435,.F.);
#435 = EDGE_CURVE('',#397,#428,#436,.T.);
#436 = LINE('',#437,#438);
#437 = CARTESIAN_POINT('',(6.,-1.2,0.));
#438 = VECTOR('',#439,1.);
#439 = DIRECTION('',(0.,-1.,0.));
#440 = PLANE('',#441);
#441 = AXIS2_PLACEMENT_3D('',#442,#443,#444);
#442 = CARTESIAN_POINT('',(6.,-1.2,0.));
#443 = DIRECTION('',(-1.,0.,0.));
#444 = DIRECTION('',(0.,-1.,0.));
#445 = ADVANCED_FACE('',(#446),#462,.T.);
#446 = FACE_BOUND('',#447,.T.);
#447 = EDGE_LOOP('',(#448,#449,#455,#456));
#448 = ORIENTED_EDGE('',*,*,#427,.T.);
#449 = ORIENTED_EDGE('',*,*,#450,.T.);
#450 = EDGE_CURVE('',#420,#350,#451,.T.);
#451 = LINE('',#452,#453);
#452 = CARTESIAN_POINT('',(6.,-3.5,-0.1));
#453 = VECTOR('',#454,1.);
#454 = DIRECTION('',(1.,0.,0.));
#455 = ORIENTED_EDGE('',*,*,#347,.F.);
#456 = ORIENTED_EDGE('',*,*,#457,.F.);
#457 = EDGE_CURVE('',#428,#348,#458,.T.);
#458 = LINE('',#459,#460);
#459 = CARTESIAN_POINT('',(6.,-3.5,0.));
#460 = VECTOR('',#461,1.);
#461 = DIRECTION('',(1.,0.,0.));
#462 = PLANE('',#463);
#463 = AXIS2_PLACEMENT_3D('',#464,#465,#466);
#464 = CARTESIAN_POINT('',(6.,-3.5,0.));
#465 = DIRECTION('',(0.,-1.,0.));
#466 = DIRECTION('',(1.,0.,0.));
#467 = ADVANCED_FACE('',(#468),#474,.T.);
#468 = FACE_BOUND('',#469,.T.);
#469 = EDGE_LOOP('',(#470,#471,#472,#473));
#470 = ORIENTED_EDGE('',*,*,#373,.T.);
#471 = ORIENTED_EDGE('',*,*,#404,.T.);
#472 = ORIENTED_EDGE('',*,*,#435,.T.);
#473 = ORIENTED_EDGE('',*,*,#457,.T.);
#474 = PLANE('',#475);
#475 = AXIS2_PLACEMENT_3D('',#476,#477,#478);
#476 = CARTESIAN_POINT('',(8.,-2.35,0.));
#477 = DIRECTION('',(0.,0.,1.));
#478 = DIRECTION('',(1.,0.,0.));
#479 = ADVANCED_FACE('',(#480),#486,.F.);
#480 = FACE_BOUND('',#481,.F.);
#481 = EDGE_LOOP('',(#482,#483,#484,#485));
#482 = ORIENTED_EDGE('',*,*,#357,.T.);
#483 = ORIENTED_EDGE('',*,*,#388,.T.);
#484 = ORIENTED_EDGE('',*,*,#419,.T.);
#485 = ORIENTED_EDGE('',*,*,#450,.T.);
#486 = PLANE('',#487);
#487 = AXIS2_PLACEMENT_3D('',#488,#489,#490);
#488 = CARTESIAN_POINT('',(8.,-2.35,-0.1));
#489 = DIRECTION('',(0.,0.,1.));
#490 = DIRECTION('',(1.,0.,0.));
#491 = MANIFOLD_SOLID_BREP('',#492);
#492 = CLOSED_SHELL('',(#493,#533,#564,#595,#617,#629));
#493 = ADVANCED_FACE('',(#494),#528,.T.);
#494 = FACE_BOUND('',#495,.T.);
#495 = EDGE_LOOP('',(#496,#506,#514,#522));
#496 = ORIENTED_EDGE('',*,*,#497,.T.);
#497 = EDGE_CURVE('',#498,#500,#502,.T.);
#498 = VERTEX_POINT('',#499);
#499 = CARTESIAN_POINT('',(5.,-3.5,0.));
#500 = VERTEX_POINT('',#501);
#501 = CARTESIAN_POINT('',(5.,-3.5,-0.1));
#502 = LINE('',#503,#504);
#503 = CARTESIAN_POINT('',(5.,-3.5,0.));
#504 = VECTOR('',#505,1.);
#505 = DIRECTION('',(-0.,-0.,-1.));
#506 = ORIENTED_EDGE('',*,*,#507,.T.);
#507 = EDGE_CURVE('',#500,#508,#510,.T.);
#508 = VERTEX_POINT('',#509);
#509 = CARTESIAN_POINT('',(5.,-1.2,-0.1));
#510 = LINE('',#511,#512);
#511 = CARTESIAN_POINT('',(5.,-3.5,-0.1));
#512 = VECTOR('',#513,1.);
#513 = DIRECTION('',(0.,1.,0.));
#514 = ORIENTED_EDGE('',*,*,#515,.F.);
#515 = EDGE_CURVE('',#516,#508,#518,.T.);
#516 = VERTEX_POINT('',#517);
#517 = CARTESIAN_POINT('',(5.,-1.2,0.));
#518 = LINE('',#519,#520);
#519 = CARTESIAN_POINT('',(5.,-1.2,0.));
#520 = VECTOR('',#521,1.);
#521 = DIRECTION('',(-0.,-0.,-1.));
#522 = ORIENTED_EDGE('',*,*,#523,.F.);
#523 = EDGE_CURVE('',#498,#516,#524,.T.);
#524 = LINE('',#525,#526);
#525 = CARTESIAN_POINT('',(5.,-3.5,0.));
#526 = VECTOR('',#527,1.);
#527 = DIRECTION('',(0.,1.,0.));
#528 = PLANE('',#529);
#529 = AXIS2_PLACEMENT_3D('',#530,#531,#532);
#530 = CARTESIAN_POINT('',(5.,-3.5,0.));
#531 = DIRECTION('',(1.,0.,0.));
#532 = DIRECTION('',(0.,1.,0.));
#533 = ADVANCED_FACE('',(#534),#559,.T.);
#534 = FACE_BOUND('',#535,.T.);
#535 = EDGE_LOOP('',(#536,#537,#545,#553));
#536 = ORIENTED_EDGE('',*,*,#515,.T.);
#537 = ORIENTED_EDGE('',*,*,#538,.T.);
#538 = EDGE_CURVE('',#508,#539,#541,.T.);
#539 = VERTEX_POINT('',#540);
#540 = CARTESIAN_POINT('',(3.5,-1.2,-0.1));
#541 = LINE('',#542,#543);
#542 = CARTESIAN_POINT('',(5.,-1.2,-0.1));
#543 = VECTOR('',#544,1.);
#544 = DIRECTION('',(-1.,0.,0.));
#545 = ORIENTED_EDGE('',*,*,#546,.F.);
#546 = EDGE_CURVE('',#547,#539,#549,.T.);
#547 = VERTEX_POINT('',#548);
#548 = CARTESIAN_POINT('',(3.5,-1.2,0.));
#549 = LINE('',#550,#551);
#550 = CARTESIAN_POINT('',(3.5,-1.2,0.));
#551 = VECTOR('',#552,1.);
#552 = DIRECTION('',(-0.,-0.,-1.));
#553 = ORIENTED_EDGE('',*,*,#554,.F.);
#554 = EDGE_CURVE('',#516,#547,#555,.T.);
#555 = LINE('',#556,#557);
#556 = CARTESIAN_POINT('',(5.,-1.2,0.));
#557 = VECTOR('',#558,1.);
#558 = DIRECTION('',(-1.,0.,0.));
#559 = PLANE('',#560);
#560 = AXIS2_PLACEMENT_3D('',#561,#562,#563);
#561 = CARTESIAN_POINT('',(5.,-1.2,0.));
#562 = DIRECTION('',(0.,1.,0.));
#563 = DIRECTION('',(-1.,0.,0.));
#564 = ADVANCED_FACE('',(#565),#590,.T.);
#565 = FACE_BOUND('',#566,.T.);
#566 = EDGE_LOOP('',(#567,#568,#576,#584));
#567 = ORIENTED_EDGE('',*,*,#546,.T.);
#568 = ORIENTED_EDGE('',*,*,#569,.T.);
#569 = EDGE_CURVE('',#539,#570,#572,.T.);
#570 = VERTEX_POINT('',#571);
#571 = CARTESIAN_POINT('',(3.5,-3.5,-0.1));
#572 = LINE('',#573,#574);
#573 = CARTESIAN_POINT('',(3.5,-1.2,-0.1));
#574 = VECTOR('',#575,1.);
#575 = DIRECTION('',(0.,-1.,0.));
#576 = ORIENTED_EDGE('',*,*,#577,.F.);
#577 = EDGE_CURVE('',#578,#570,#580,.T.);
#578 = VERTEX_POINT('',#579);
#579 = CARTESIAN_POINT('',(3.5,-3.5,0.));
#580 = LINE('',#581,#582);
#581 = CARTESIAN_POINT('',(3.5,-3.5,0.));
#582 = VECTOR('',#583,1.);
#583 = DIRECTION('',(-0.,-0.,-1.));
#584 = ORIENTED_EDGE('',*,*,#585,.F.);
#585 = EDGE_CURVE('',#547,#578,#586,.T.);
#586 = LINE('',#587,#588);
#587 = CARTESIAN_POINT('',(3.5,-1.2,0.));
#588 = VECTOR('',#589,1.);
#589 = DIRECTION('',(0.,-1.,0.));
#590 = PLANE('',#591);
#591 = AXIS2_PLACEMENT_3D('',#592,#593,#594);
#592 = CARTESIAN_POINT('',(3.5,-1.2,0.));
#593 = DIRECTION('',(-1.,0.,0.));
#594 = DIRECTION('',(0.,-1.,0.));
#595 = ADVANCED_FACE('',(#596),#612,.T.);
#596 = FACE_BOUND('',#597,.T.);
#597 = EDGE_LOOP('',(#598,#599,#605,#606));
#598 = ORIENTED_EDGE('',*,*,#577,.T.);
#599 = ORIENTED_EDGE('',*,*,#600,.T.);
#600 = EDGE_CURVE('',#570,#500,#601,.T.);
#601 = LINE('',#602,#603);
#602 = CARTESIAN_POINT('',(3.5,-3.5,-0.1));
#603 = VECTOR('',#604,1.);
#604 = DIRECTION('',(1.,0.,0.));
#605 = ORIENTED_EDGE('',*,*,#497,.F.);
#606 = ORIENTED_EDGE('',*,*,#607,.F.);
#607 = EDGE_CURVE('',#578,#498,#608,.T.);
#608 = LINE('',#609,#610);
#609 = CARTESIAN_POINT('',(3.5,-3.5,0.));
#610 = VECTOR('',#611,1.);
#611 = DIRECTION('',(1.,0.,0.));
#612 = PLANE('',#613);
#613 = AXIS2_PLACEMENT_3D('',#614,#615,#616);
#614 = CARTESIAN_POINT('',(3.5,-3.5,0.));
#615 = DIRECTION('',(0.,-1.,0.));
#616 = DIRECTION('',(1.,0.,0.));
#617 = ADVANCED_FACE('',(#618),#624,.T.);
#618 = FACE_BOUND('',#619,.T.);
#619 = EDGE_LOOP('',(#620,#621,#622,#623));
#620 = ORIENTED_EDGE('',*,*,#523,.T.);
#621 = ORIENTED_EDGE('',*,*,#554,.T.);
#622 = ORIENTED_EDGE('',*,*,#585,.T.);
#623 = ORIENTED_EDGE('',*,*,#607,.T.);
#624 = PLANE('',#625);
#625 = AXIS2_PLACEMENT_3D('',#626,#627,#628);
#626 = CARTESIAN_POINT('',(8.,-2.35,0.));
#627 = DIRECTION('',(0.,0.,1.));
#628 = DIRECTION('',(1.,0.,0.));
#629 = ADVANCED_FACE('',(#630),#636,.F.);
#630 = FACE_BOUND('',#631,.F.);
#631 = EDGE_LOOP('',(#632,#633,#634,#635));
#632 = ORIENTED_EDGE('',*,*,#507,.T.);
#633 = ORIENTED_EDGE('',*,*,#538,.T.);
#634 = ORIENTED_EDGE('',*,*,#569,.T.);
#635 = ORIENTED_EDGE('',*,*,#600,.T.);
#636 = PLANE('',#637);
#637 = AXIS2_PLACEMENT_3D('',#638,#639,#640);
#638 = CARTESIAN_POINT('',(8.,-2.35,-0.1));
#639 = DIRECTION('',(0.,0.,1.));
#640 = DIRECTION('',(1.,0.,0.));
#641 = MANIFOLD_SOLID_BREP('',#642);
#642 = CLOSED_SHELL('',(#643,#683,#714,#745,#767,#779));
#643 = ADVANCED_FACE('',(#644),#678,.T.);
#644 = FACE_BOUND('',#645,.T.);
#645 = EDGE_LOOP('',(#646,#656,#664,#672));
#646 = ORIENTED_EDGE('',*,*,#647,.T.);
#647 = EDGE_CURVE('',#648,#650,#652,.T.);
#648 = VERTEX_POINT('',#649);
#649 = CARTESIAN_POINT('',(2.5,-3.5,0.));
#650 = VERTEX_POINT('',#651);
#651 = CARTESIAN_POINT('',(2.5,-3.5,-0.1));
#652 = LINE('',#653,#654);
#653 = CARTESIAN_POINT('',(2.5,-3.5,0.));
#654 = VECTOR('',#655,1.);
#655 = DIRECTION('',(-0.,-0.,-1.));
#656 = ORIENTED_EDGE('',*,*,#657,.T.);
#657 = EDGE_CURVE('',#650,#658,#660,.T.);
#658 = VERTEX_POINT('',#659);
#659 = CARTESIAN_POINT('',(2.5,-1.2,-0.1));
#660 = LINE('',#661,#662);
#661 = CARTESIAN_POINT('',(2.5,-3.5,-0.1));
#662 = VECTOR('',#663,1.);
#663 = DIRECTION('',(0.,1.,0.));
#664 = ORIENTED_EDGE('',*,*,#665,.F.);
#665 = EDGE_CURVE('',#666,#658,#668,.T.);
#666 = VERTEX_POINT('',#667);
#667 = CARTESIAN_POINT('',(2.5,-1.2,0.));
#668 = LINE('',#669,#670);
#669 = CARTESIAN_POINT('',(2.5,-1.2,0.));
#670 = VECTOR('',#671,1.);
#671 = DIRECTION('',(-0.,-0.,-1.));
#672 = ORIENTED_EDGE('',*,*,#673,.F.);
#673 = EDGE_CURVE('',#648,#666,#674,.T.);
#674 = LINE('',#675,#676);
#675 = CARTESIAN_POINT('',(2.5,-3.5,0.));
#676 = VECTOR('',#677,1.);
#677 = DIRECTION('',(0.,1.,0.));
#678 = PLANE('',#679);
#679 = AXIS2_PLACEMENT_3D('',#680,#681,#682);
#680 = CARTESIAN_POINT('',(2.5,-3.5,0.));
#681 = DIRECTION('',(1.,0.,0.));
#682 = DIRECTION('',(0.,1.,0.));
#683 = ADVANCED_FACE('',(#684),#709,.T.);
#684 = FACE_BOUND('',#685,.T.);
#685 = EDGE_LOOP('',(#686,#687,#695,#703));
#686 = ORIENTED_EDGE('',*,*,#665,.T.);
#687 = ORIENTED_EDGE('',*,*,#688,.T.);
#688 = EDGE_CURVE('',#658,#689,#691,.T.);
#689 = VERTEX_POINT('',#690);
#690 = CARTESIAN_POINT('',(1.,-1.2,-0.1));
#691 = LINE('',#692,#693);
#692 = CARTESIAN_POINT('',(2.5,-1.2,-0.1));
#693 = VECTOR('',#694,1.);
#694 = DIRECTION('',(-1.,0.,0.));
#695 = ORIENTED_EDGE('',*,*,#696,.F.);
#696 = EDGE_CURVE('',#697,#689,#699,.T.);
#697 = VERTEX_POINT('',#698);
#698 = CARTESIAN_POINT('',(1.,-1.2,0.));
#699 = LINE('',#700,#701);
#700 = CARTESIAN_POINT('',(1.,-1.2,0.));
#701 = VECTOR('',#702,1.);
#702 = DIRECTION('',(-0.,-0.,-1.));
#703 = ORIENTED_EDGE('',*,*,#704,.F.);
#704 = EDGE_CURVE('',#666,#697,#705,.T.);
#705 = LINE('',#706,#707);
#706 = CARTESIAN_POINT('',(2.5,-1.2,0.));
#707 = VECTOR('',#708,1.);
#708 = DIRECTION('',(-1.,0.,0.));
#709 = PLANE('',#710);
#710 = AXIS2_PLACEMENT_3D('',#711,#712,#713);
#711 = CARTESIAN_POINT('',(2.5,-1.2,0.));
#712 = DIRECTION('',(0.,1.,0.));
#713 = DIRECTION('',(-1.,0.,0.));
#714 = ADVANCED_FACE('',(#715),#740,.T.);
#715 = FACE_BOUND('',#716,.T.);
#716 = EDGE_LOOP('',(#717,#718,#726,#734));
#717 = ORIENTED_EDGE('',*,*,#696,.T.);
#718 = ORIENTED_EDGE('',*,*,#719,.T.);
#719 = EDGE_CURVE('',#689,#720,#722,.T.);
#720 = VERTEX_POINT('',#721);
#721 = CARTESIAN_POINT('',(1.,-3.5,-0.1));
#722 = LINE('',#723,#724);
#723 = CARTESIAN_POINT('',(1.,-1.2,-0.1));
#724 = VECTOR('',#725,1.);
#725 = DIRECTION('',(0.,-1.,0.));
#726 = ORIENTED_EDGE('',*,*,#727,.F.);
#727 = EDGE_CURVE('',#728,#720,#730,.T.);
#728 = VERTEX_POINT('',#729);
#729 = CARTESIAN_POINT('',(1.,-3.5,0.));
#730 = LINE('',#731,#732);
#731 = CARTESIAN_POINT('',(1.,-3.5,0.));
#732 = VECTOR('',#733,1.);
#733 = DIRECTION('',(-0.,-0.,-1.));
#734 = ORIENTED_EDGE('',*,*,#735,.F.);
#735 = EDGE_CURVE('',#697,#728,#736,.T.);
#736 = LINE('',#737,#738);
#737 = CARTESIAN_POINT('',(1.,-1.2,0.));
#738 = VECTOR('',#739,1.);
#739 = DIRECTION('',(0.,-1.,0.));
#740 = PLANE('',#741);
#741 = AXIS2_PLACEMENT_3D('',#742,#743,#744);
#742 = CARTESIAN_POINT('',(1.,-1.2,0.));
#743 = DIRECTION('',(-1.,0.,0.));
#744 = DIRECTION('',(0.,-1.,0.));
#745 = ADVANCED_FACE('',(#746),#762,.T.);
#746 = FACE_BOUND('',#747,.T.);
#747 = EDGE_LOOP('',(#748,#749,#755,#756));
#748 = ORIENTED_EDGE('',*,*,#727,.T.);
#749 = ORIENTED_EDGE('',*,*,#750,.T.);
#750 = EDGE_CURVE('',#720,#650,#751,.T.);
#751 = LINE('',#752,#753);
#752 = CARTESIAN_POINT('',(1.,-3.5,-0.1));
#753 = VECTOR('',#754,1.);
#754 = DIRECTION('',(1.,0.,0.));
#755 = ORIENTED_EDGE('',*,*,#647,.F.);
#756 = ORIENTED_EDGE('',*,*,#757,.F.);
#757 = EDGE_CURVE('',#728,#648,#758,.T.);
#758 = LINE('',#759,#760);
#759 = CARTESIAN_POINT('',(1.,-3.5,0.));
#760 = VECTOR('',#761,1.);
#761 = DIRECTION('',(1.,0.,0.));
#762 = PLANE('',#763);
#763 = AXIS2_PLACEMENT_3D('',#764,#765,#766);
#764 = CARTESIAN_POINT('',(1.,-3.5,0.));
#765 = DIRECTION('',(0.,-1.,0.));
#766 = DIRECTION('',(1.,0.,0.));
#767 = ADVANCED_FACE('',(#768),#774,.T.);
#768 = FACE_BOUND('',#769,.T.);
#769 = EDGE_LOOP('',(#770,#771,#772,#773));
#770 = ORIENTED_EDGE('',*,*,#673,.T.);
#771 = ORIENTED_EDGE('',*,*,#704,.T.);
#772 = ORIENTED_EDGE('',*,*,#735,.T.);
#773 = ORIENTED_EDGE('',*,*,#757,.T.);
#774 = PLANE('',#775);
#775 = AXIS2_PLACEMENT_3D('',#776,#777,#778);
#776 = CARTESIAN_POINT('',(8.,-2.35,0.));
#777 = DIRECTION('',(0.,0.,1.));
#778 = DIRECTION('',(1.,0.,0.));
#779 = ADVANCED_FACE('',(#780),#786,.F.);
#780 = FACE_BOUND('',#781,.F.);
#781 = EDGE_LOOP('',(#782,#783,#784,#785));
#782 = ORIENTED_EDGE('',*,*,#657,.T.);
#783 = ORIENTED_EDGE('',*,*,#688,.T.);
#784 = ORIENTED_EDGE('',*,*,#719,.T.);
#785 = ORIENTED_EDGE('',*,*,#750,.T.);
#786 = PLANE('',#787);
#787 = AXIS2_PLACEMENT_3D('',#788,#789,#790);
#788 = CARTESIAN_POINT('',(8.,-2.35,-0.1));
#789 = DIRECTION('',(0.,0.,1.));
#790 = DIRECTION('',(1.,0.,0.));
#791 = MANIFOLD_SOLID_BREP('',#792);
#792 = CLOSED_SHELL('',(#793,#833,#864,#895,#917,#929));
#793 = ADVANCED_FACE('',(#794),#828,.T.);
#794 = FACE_BOUND('',#795,.T.);
#795 = EDGE_LOOP('',(#796,#806,#814,#822));
#796 = ORIENTED_EDGE('',*,*,#797,.T.);
#797 = EDGE_CURVE('',#798,#800,#802,.T.);
#798 = VERTEX_POINT('',#799);
#799 = CARTESIAN_POINT('',(15.,-3.5,0.));
#800 = VERTEX_POINT('',#801);
#801 = CARTESIAN_POINT('',(15.,-3.5,-0.1));
#802 = LINE('',#803,#804);
#803 = CARTESIAN_POINT('',(15.,-3.5,0.));
#804 = VECTOR('',#805,1.);
#805 = DIRECTION('',(-0.,-0.,-1.));
#806 = ORIENTED_EDGE('',*,*,#807,.T.);
#807 = EDGE_CURVE('',#800,#808,#810,.T.);
#808 = VERTEX_POINT('',#809);
#809 = CARTESIAN_POINT('',(15.,-1.2,-0.1));
#810 = LINE('',#811,#812);
#811 = CARTESIAN_POINT('',(15.,-3.5,-0.1));
#812 = VECTOR('',#813,1.);
#813 = DIRECTION('',(0.,1.,0.));
#814 = ORIENTED_EDGE('',*,*,#815,.F.);
#815 = EDGE_CURVE('',#816,#808,#818,.T.);
#816 = VERTEX_POINT('',#817);
#817 = CARTESIAN_POINT('',(15.,-1.2,0.));
#818 = LINE('',#819,#820);
#819 = CARTESIAN_POINT('',(15.,-1.2,0.));
#820 = VECTOR('',#821,1.);
#821 = DIRECTION('',(-0.,-0.,-1.));
#822 = ORIENTED_EDGE('',*,*,#823,.F.);
#823 = EDGE_CURVE('',#798,#816,#824,.T.);
#824 = LINE('',#825,#826);
#825 = CARTESIAN_POINT('',(15.,-3.5,0.));
#826 = VECTOR('',#827,1.);
#827 = DIRECTION('',(0.,1.,0.));
#828 = PLANE('',#829);
#829 = AXIS2_PLACEMENT_3D('',#830,#831,#832);
#830 = CARTESIAN_POINT('',(15.,-3.5,0.));
#831 = DIRECTION('',(1.,0.,0.));
#832 = DIRECTION('',(0.,1.,0.));
#833 = ADVANCED_FACE('',(#834),#859,.T.);
#834 = FACE_BOUND('',#835,.T.);
#835 = EDGE_LOOP('',(#836,#837,#845,#853));
#836 = ORIENTED_EDGE('',*,*,#815,.T.);
#837 = ORIENTED_EDGE('',*,*,#838,.T.);
#838 = EDGE_CURVE('',#808,#839,#841,.T.);
#839 = VERTEX_POINT('',#840);
#840 = CARTESIAN_POINT('',(13.5,-1.2,-0.1));
#841 = LINE('',#842,#843);
#842 = CARTESIAN_POINT('',(15.,-1.2,-0.1));
#843 = VECTOR('',#844,1.);
#844 = DIRECTION('',(-1.,0.,0.));
#845 = ORIENTED_EDGE('',*,*,#846,.F.);
#846 = EDGE_CURVE('',#847,#839,#849,.T.);
#847 = VERTEX_POINT('',#848);
#848 = CARTESIAN_POINT('',(13.5,-1.2,0.));
#849 = LINE('',#850,#851);
#850 = CARTESIAN_POINT('',(13.5,-1.2,0.));
#851 = VECTOR('',#852,1.);
#852 = DIRECTION('',(-0.,-0.,-1.));
#853 = ORIENTED_EDGE('',*,*,#854,.F.);
#854 = EDGE_CURVE('',#816,#847,#855,.T.);
#855 = LINE('',#856,#857);
#856 = CARTESIAN_POINT('',(15.,-1.2,0.));
#857 = VECTOR('',#858,1.);
#858 = DIRECTION('',(-1.,0.,0.));
#859 = PLANE('',#860);
#860 = AXIS2_PLACEMENT_3D('',#861,#862,#863);
#861 = CARTESIAN_POINT('',(15.,-1.2,0.));
#862 = DIRECTION('',(0.,1.,0.));
#863 = DIRECTION('',(-1.,0.,0.));
#864 = ADVANCED_FACE('',(#865),#890,.T.);
#865 = FACE_BOUND('',#866,.T.);
#866 = EDGE_LOOP('',(#867,#868,#876,#884));
#867 = ORIENTED_EDGE('',*,*,#846,.T.);
#868 = ORIENTED_EDGE('',*,*,#869,.T.);
#869 = EDGE_CURVE('',#839,#870,#872,.T.);
#870 = VERTEX_POINT('',#871);
#871 = CARTESIAN_POINT('',(13.5,-3.5,-0.1));
#872 = LINE('',#873,#874);
#873 = CARTESIAN_POINT('',(13.5,-1.2,-0.1));
#874 = VECTOR('',#875,1.);
#875 = DIRECTION('',(0.,-1.,0.));
#876 = ORIENTED_EDGE('',*,*,#877,.F.);
#877 = EDGE_CURVE('',#878,#870,#880,.T.);
#878 = VERTEX_POINT('',#879);
#879 = CARTESIAN_POINT('',(13.5,-3.5,0.));
#880 = LINE('',#881,#882);
#881 = CARTESIAN_POINT('',(13.5,-3.5,0.));
#882 = VECTOR('',#883,1.);
#883 = DIRECTION('',(-0.,-0.,-1.));
#884 = ORIENTED_EDGE('',*,*,#885,.F.);
#885 = EDGE_CURVE('',#847,#878,#886,.T.);
#886 = LINE('',#887,#888);
#887 = CARTESIAN_POINT('',(13.5,-1.2,0.));
#888 = VECTOR('',#889,1.);
#889 = DIRECTION('',(0.,-1.,0.));
#890 = PLANE('',#891);
#891 = AXIS2_PLACEMENT_3D('',#892,#893,#894);
#892 = CARTESIAN_POINT('',(13.5,-1.2,0.));
#893 = DIRECTION('',(-1.,0.,0.));
#894 = DIRECTION('',(0.,-1.,0.));
#895 = ADVANCED_FACE('',(#896),#912,.T.);
#896 = FACE_BOUND('',#897,.T.);
#897 = EDGE_LOOP('',(#898,#899,#905,#906));
#898 = ORIENTED_EDGE('',*,*,#877,.T.);
#899 = ORIENTED_EDGE('',*,*,#900,.T.);
#900 = EDGE_CURVE('',#870,#800,#901,.T.);
#901 = LINE('',#902,#903);
#902 = CARTESIAN_POINT('',(13.5,-3.5,-0.1));
#903 = VECTOR('',#904,1.);
#904 = DIRECTION('',(1.,0.,0.));
#905 = ORIENTED_EDGE('',*,*,#797,.F.);
#906 = ORIENTED_EDGE('',*,*,#907,.F.);
#907 = EDGE_CURVE('',#878,#798,#908,.T.);
#908 = LINE('',#909,#910);
#909 = CARTESIAN_POINT('',(13.5,-3.5,0.));
#910 = VECTOR('',#911,1.);
#911 = DIRECTION('',(1.,0.,0.));
#912 = PLANE('',#913);
#913 = AXIS2_PLACEMENT_3D('',#914,#915,#916);
#914 = CARTESIAN_POINT('',(13.5,-3.5,0.));
#915 = DIRECTION('',(0.,-1.,0.));
#916 = DIRECTION('',(1.,0.,0.));
#917 = ADVANCED_FACE('',(#918),#924,.T.);
#918 = FACE_BOUND('',#919,.T.);
#919 = EDGE_LOOP('',(#920,#921,#922,#923));
#920 = ORIENTED_EDGE('',*,*,#823,.T.);
#921 = ORIENTED_EDGE('',*,*,#854,.T.);
#922 = ORIENTED_EDGE('',*,*,#885,.T.);
#923 = ORIENTED_EDGE('',*,*,#907,.T.);
#924 = PLANE('',#925);
#925 = AXIS2_PLACEMENT_3D('',#926,#927,#928);
#926 = CARTESIAN_POINT('',(8.,-2.35,0.));
#927 = DIRECTION('',(0.,0.,1.));
#928 = DIRECTION('',(1.,0.,0.));
#929 = ADVANCED_FACE('',(#930),#936,.F.);
#930 = FACE_BOUND('',#931,.F.);
#931 = EDGE_LOOP('',(#932,#933,#934,#935));
#932 = ORIENTED_EDGE('',*,*,#807,.T.);
#933 = ORIENTED_EDGE('',*,*,#838,.T.);
#934 = ORIENTED_EDGE('',*,*,#869,.T.);
#935 = ORIENTED_EDGE('',*,*,#900,.T.);
#936 = PLANE('',#937);
#937 = AXIS2_PLACEMENT_3D('',#938,#939,#940);
#938 = CARTESIAN_POINT('',(8.,-2.35,-0.1));
#939 = DIRECTION('',(0.,0.,1.));
#940 = DIRECTION('',(1.,0.,0.));
#941 = ( GEOMETRIC_REPRESENTATION_CONTEXT(3) 
GLOBAL_UNCERTAINTY_ASSIGNED_CONTEXT((#945)) GLOBAL_UNIT_ASSIGNED_CONTEXT
((#942,#943,#944)) REPRESENTATION_CONTEXT('Context #1',
  '3D Context with UNIT and UNCERTAINTY') );
#942 = ( LENGTH_UNIT() NAMED_UNIT(*) SI_UNIT(.MILLI.,.METRE.) );
#943 = ( NAMED_UNIT(*) PLANE_ANGLE_UNIT() SI_UNIT($,.RADIAN.) );
#944 = ( NAMED_UNIT(*) SI_UNIT($,.STERADIAN.) SOLID_ANGLE_UNIT() );
#945 = UNCERTAINTY_MEASURE_WITH_UNIT(LENGTH_MEASURE(1.E-07),#942,
  'distance_accuracy_value','confusion accuracy');
#946 = CONTEXT_DEPENDENT_SHAPE_REPRESENTATION(#947,#949);
#947 = ( REPRESENTATION_RELATIONSHIP('','',#40,#10) 
REPRESENTATION_RELATIONSHIP_WITH_TRANSFORMATION(#948) 
SHAPE_REPRESENTATION_RELATIONSHIP() );
#948 = ITEM_DEFINED_TRANSFORMATION('','',#11,#15);
#949 = PRODUCT_DEFINITION_SHAPE('Placement','Placement of an item',#950
  );
#950 = NEXT_ASSEMBLY_USAGE_OCCURRENCE('1','Body004','',#5,#35,$);
#951 = PRODUCT_RELATED_PRODUCT_CATEGORY('part',$,(#37));
#952 = SHAPE_DEFINITION_REPRESENTATION(#953,#959);
#953 = PRODUCT_DEFINITION_SHAPE('','',#954);
#954 = PRODUCT_DEFINITION('design','',#955,#958);
#955 = PRODUCT_DEFINITION_FORMATION('','',#956);
#956 = PRODUCT('pins','pins','',(#957));
#957 = PRODUCT_CONTEXT('',#2,'mechanical');
#958 = PRODUCT_DEFINITION_CONTEXT('part definition',#2,'design');
#959 = SHAPE_REPRESENTATION('',(#11,#960,#1013,#1066,#1119,#1172,#1225),
  #1278);
#960 = MANIFOLD_SOLID_BREP('',#961);
#961 = CLOSED_SHELL('',(#962,#995,#1004));
#962 = ADVANCED_FACE('',(#963),#990,.T.);
#963 = FACE_BOUND('',#964,.F.);
#964 = EDGE_LOOP('',(#965,#975,#982,#983));
#965 = ORIENTED_EDGE('',*,*,#966,.T.);
#966 = EDGE_CURVE('',#967,#969,#971,.T.);
#967 = VERTEX_POINT('',#968);
#968 = CARTESIAN_POINT('',(15.,2.864375403533E-16,1.29));
#969 = VERTEX_POINT('',#970);
#970 = CARTESIAN_POINT('',(15.,-1.E-01,1.29));
#971 = LINE('',#972,#973);
#972 = CARTESIAN_POINT('',(15.,2.864375403533E-16,1.29));
#973 = VECTOR('',#974,1.);
#974 = DIRECTION('',(0.,-1.,2.22044604925E-16));
#975 = ORIENTED_EDGE('',*,*,#976,.T.);
#976 = EDGE_CURVE('',#969,#969,#977,.T.);
#977 = CIRCLE('',#978,0.75);
#978 = AXIS2_PLACEMENT_3D('',#979,#980,#981);
#979 = CARTESIAN_POINT('',(14.25,-1.E-01,1.29));
#980 = DIRECTION('',(0.,-1.,2.22044604925E-16));
#981 = DIRECTION('',(1.,0.,0.));
#982 = ORIENTED_EDGE('',*,*,#966,.F.);
#983 = ORIENTED_EDGE('',*,*,#984,.F.);
#984 = EDGE_CURVE('',#967,#967,#985,.T.);
#985 = CIRCLE('',#986,0.75);
#986 = AXIS2_PLACEMENT_3D('',#987,#988,#989);
#987 = CARTESIAN_POINT('',(14.25,2.864375403533E-16,1.29));
#988 = DIRECTION('',(0.,-1.,2.22044604925E-16));
#989 = DIRECTION('',(1.,0.,0.));
#990 = CYLINDRICAL_SURFACE('',#991,0.75);
#991 = AXIS2_PLACEMENT_3D('',#992,#993,#994);
#992 = CARTESIAN_POINT('',(14.25,2.864375403533E-16,1.29));
#993 = DIRECTION('',(0.,1.,-2.22044604925E-16));
#994 = DIRECTION('',(1.,0.,0.));
#995 = ADVANCED_FACE('',(#996),#999,.T.);
#996 = FACE_BOUND('',#997,.F.);
#997 = EDGE_LOOP('',(#998));
#998 = ORIENTED_EDGE('',*,*,#984,.T.);
#999 = PLANE('',#1000);
#1000 = AXIS2_PLACEMENT_3D('',#1001,#1002,#1003);
#1001 = CARTESIAN_POINT('',(8.,2.864375403533E-16,1.29));
#1002 = DIRECTION('',(0.,1.,0.));
#1003 = DIRECTION('',(0.,0.,1.));
#1004 = ADVANCED_FACE('',(#1005),#1008,.F.);
#1005 = FACE_BOUND('',#1006,.T.);
#1006 = EDGE_LOOP('',(#1007));
#1007 = ORIENTED_EDGE('',*,*,#976,.T.);
#1008 = PLANE('',#1009);
#1009 = AXIS2_PLACEMENT_3D('',#1010,#1011,#1012);
#1010 = CARTESIAN_POINT('',(8.,-1.E-01,1.29));
#1011 = DIRECTION('',(0.,1.,0.));
#1012 = DIRECTION('',(0.,0.,1.));
#1013 = MANIFOLD_SOLID_BREP('',#1014);
#1014 = CLOSED_SHELL('',(#1015,#1048,#1057));
#1015 = ADVANCED_FACE('',(#1016),#1043,.T.);
#1016 = FACE_BOUND('',#1017,.F.);
#1017 = EDGE_LOOP('',(#1018,#1028,#1035,#1036));
#1018 = ORIENTED_EDGE('',*,*,#1019,.T.);
#1019 = EDGE_CURVE('',#1020,#1022,#1024,.T.);
#1020 = VERTEX_POINT('',#1021);
#1021 = CARTESIAN_POINT('',(12.5,2.864375403533E-16,1.29));
#1022 = VERTEX_POINT('',#1023);
#1023 = CARTESIAN_POINT('',(12.5,-1.E-01,1.29));
#1024 = LINE('',#1025,#1026);
#1025 = CARTESIAN_POINT('',(12.5,2.864375403533E-16,1.29));
#1026 = VECTOR('',#1027,1.);
#1027 = DIRECTION('',(0.,-1.,2.22044604925E-16));
#1028 = ORIENTED_EDGE('',*,*,#1029,.T.);
#1029 = EDGE_CURVE('',#1022,#1022,#1030,.T.);
#1030 = CIRCLE('',#1031,0.75);
#1031 = AXIS2_PLACEMENT_3D('',#1032,#1033,#1034);
#1032 = CARTESIAN_POINT('',(11.75,-1.E-01,1.29));
#1033 = DIRECTION('',(0.,-1.,2.22044604925E-16));
#1034 = DIRECTION('',(1.,0.,0.));
#1035 = ORIENTED_EDGE('',*,*,#1019,.F.);
#1036 = ORIENTED_EDGE('',*,*,#1037,.F.);
#1037 = EDGE_CURVE('',#1020,#1020,#1038,.T.);
#1038 = CIRCLE('',#1039,0.75);
#1039 = AXIS2_PLACEMENT_3D('',#1040,#1041,#1042);
#1040 = CARTESIAN_POINT('',(11.75,2.864375403533E-16,1.29));
#1041 = DIRECTION('',(0.,-1.,2.22044604925E-16));
#1042 = DIRECTION('',(1.,0.,0.));
#1043 = CYLINDRICAL_SURFACE('',#1044,0.75);
#1044 = AXIS2_PLACEMENT_3D('',#1045,#1046,#1047);
#1045 = CARTESIAN_POINT('',(11.75,2.864375403533E-16,1.29));
#1046 = DIRECTION('',(0.,1.,-2.22044604925E-16));
#1047 = DIRECTION('',(1.,0.,0.));
#1048 = ADVANCED_FACE('',(#1049),#1052,.T.);
#1049 = FACE_BOUND('',#1050,.F.);
#1050 = EDGE_LOOP('',(#1051));
#1051 = ORIENTED_EDGE('',*,*,#1037,.T.);
#1052 = PLANE('',#1053);
#1053 = AXIS2_PLACEMENT_3D('',#1054,#1055,#1056);
#1054 = CARTESIAN_POINT('',(8.,2.864375403533E-16,1.29));
#1055 = DIRECTION('',(0.,1.,0.));
#1056 = DIRECTION('',(0.,0.,1.));
#1057 = ADVANCED_FACE('',(#1058),#1061,.F.);
#1058 = FACE_BOUND('',#1059,.T.);
#1059 = EDGE_LOOP('',(#1060));
#1060 = ORIENTED_EDGE('',*,*,#1029,.T.);
#1061 = PLANE('',#1062);
#1062 = AXIS2_PLACEMENT_3D('',#1063,#1064,#1065);
#1063 = CARTESIAN_POINT('',(8.,-1.E-01,1.29));
#1064 = DIRECTION('',(0.,1.,0.));
#1065 = DIRECTION('',(0.,0.,1.));
#1066 = MANIFOLD_SOLID_BREP('',#1067);
#1067 = CLOSED_SHELL('',(#1068,#1101,#1110));
#1068 = ADVANCED_FACE('',(#1069),#1096,.T.);
#1069 = FACE_BOUND('',#1070,.F.);
#1070 = EDGE_LOOP('',(#1071,#1081,#1088,#1089));
#1071 = ORIENTED_EDGE('',*,*,#1072,.T.);
#1072 = EDGE_CURVE('',#1073,#1075,#1077,.T.);
#1073 = VERTEX_POINT('',#1074);
#1074 = CARTESIAN_POINT('',(10.,2.864375403533E-16,1.29));
#1075 = VERTEX_POINT('',#1076);
#1076 = CARTESIAN_POINT('',(10.,-1.E-01,1.29));
#1077 = LINE('',#1078,#1079);
#1078 = CARTESIAN_POINT('',(10.,2.864375403533E-16,1.29));
#1079 = VECTOR('',#1080,1.);
#1080 = DIRECTION('',(0.,-1.,2.22044604925E-16));
#1081 = ORIENTED_EDGE('',*,*,#1082,.T.);
#1082 = EDGE_CURVE('',#1075,#1075,#1083,.T.);
#1083 = CIRCLE('',#1084,0.75);
#1084 = AXIS2_PLACEMENT_3D('',#1085,#1086,#1087);
#1085 = CARTESIAN_POINT('',(9.25,-1.E-01,1.29));
#1086 = DIRECTION('',(0.,-1.,2.22044604925E-16));
#1087 = DIRECTION('',(1.,0.,0.));
#1088 = ORIENTED_EDGE('',*,*,#1072,.F.);
#1089 = ORIENTED_EDGE('',*,*,#1090,.F.);
#1090 = EDGE_CURVE('',#1073,#1073,#1091,.T.);
#1091 = CIRCLE('',#1092,0.75);
#1092 = AXIS2_PLACEMENT_3D('',#1093,#1094,#1095);
#1093 = CARTESIAN_POINT('',(9.25,2.864375403533E-16,1.29));
#1094 = DIRECTION('',(0.,-1.,2.22044604925E-16));
#1095 = DIRECTION('',(1.,0.,0.));
#1096 = CYLINDRICAL_SURFACE('',#1097,0.75);
#1097 = AXIS2_PLACEMENT_3D('',#1098,#1099,#1100);
#1098 = CARTESIAN_POINT('',(9.25,2.864375403533E-16,1.29));
#1099 = DIRECTION('',(0.,1.,-2.22044604925E-16));
#1100 = DIRECTION('',(1.,0.,0.));
#1101 = ADVANCED_FACE('',(#1102),#1105,.T.);
#1102 = FACE_BOUND('',#1103,.F.);
#1103 = EDGE_LOOP('',(#1104));
#1104 = ORIENTED_EDGE('',*,*,#1090,.T.);
#1105 = PLANE('',#1106);
#1106 = AXIS2_PLACEMENT_3D('',#1107,#1108,#1109);
#1107 = CARTESIAN_POINT('',(8.,2.864375403533E-16,1.29));
#1108 = DIRECTION('',(0.,1.,0.));
#1109 = DIRECTION('',(0.,0.,1.));
#1110 = ADVANCED_FACE('',(#1111),#1114,.F.);
#1111 = FACE_BOUND('',#1112,.T.);
#1112 = EDGE_LOOP('',(#1113));
#1113 = ORIENTED_EDGE('',*,*,#1082,.T.);
#1114 = PLANE('',#1115);
#1115 = AXIS2_PLACEMENT_3D('',#1116,#1117,#1118);
#1116 = CARTESIAN_POINT('',(8.,-1.E-01,1.29));
#1117 = DIRECTION('',(0.,1.,0.));
#1118 = DIRECTION('',(0.,0.,1.));
#1119 = MANIFOLD_SOLID_BREP('',#1120);
#1120 = CLOSED_SHELL('',(#1121,#1154,#1163));
#1121 = ADVANCED_FACE('',(#1122),#1149,.T.);
#1122 = FACE_BOUND('',#1123,.F.);
#1123 = EDGE_LOOP('',(#1124,#1134,#1141,#1142));
#1124 = ORIENTED_EDGE('',*,*,#1125,.T.);
#1125 = EDGE_CURVE('',#1126,#1128,#1130,.T.);
#1126 = VERTEX_POINT('',#1127);
#1127 = CARTESIAN_POINT('',(7.5,2.864375403533E-16,1.29));
#1128 = VERTEX_POINT('',#1129);
#1129 = CARTESIAN_POINT('',(7.5,-1.E-01,1.29));
#1130 = LINE('',#1131,#1132);
#1131 = CARTESIAN_POINT('',(7.5,2.864375403533E-16,1.29));
#1132 = VECTOR('',#1133,1.);
#1133 = DIRECTION('',(0.,-1.,2.22044604925E-16));
#1134 = ORIENTED_EDGE('',*,*,#1135,.T.);
#1135 = EDGE_CURVE('',#1128,#1128,#1136,.T.);
#1136 = CIRCLE('',#1137,0.75);
#1137 = AXIS2_PLACEMENT_3D('',#1138,#1139,#1140);
#1138 = CARTESIAN_POINT('',(6.75,-1.E-01,1.29));
#1139 = DIRECTION('',(0.,-1.,2.22044604925E-16));
#1140 = DIRECTION('',(1.,0.,0.));
#1141 = ORIENTED_EDGE('',*,*,#1125,.F.);
#1142 = ORIENTED_EDGE('',*,*,#1143,.F.);
#1143 = EDGE_CURVE('',#1126,#1126,#1144,.T.);
#1144 = CIRCLE('',#1145,0.75);
#1145 = AXIS2_PLACEMENT_3D('',#1146,#1147,#1148);
#1146 = CARTESIAN_POINT('',(6.75,2.864375403533E-16,1.29));
#1147 = DIRECTION('',(0.,-1.,2.22044604925E-16));
#1148 = DIRECTION('',(1.,0.,0.));
#1149 = CYLINDRICAL_SURFACE('',#1150,0.75);
#1150 = AXIS2_PLACEMENT_3D('',#1151,#1152,#1153);
#1151 = CARTESIAN_POINT('',(6.75,2.864375403533E-16,1.29));
#1152 = DIRECTION('',(0.,1.,-2.22044604925E-16));
#1153 = DIRECTION('',(1.,0.,0.));
#1154 = ADVANCED_FACE('',(#1155),#1158,.T.);
#1155 = FACE_BOUND('',#1156,.F.);
#1156 = EDGE_LOOP('',(#1157));
#1157 = ORIENTED_EDGE('',*,*,#1143,.T.);
#1158 = PLANE('',#1159);
#1159 = AXIS2_PLACEMENT_3D('',#1160,#1161,#1162);
#1160 = CARTESIAN_POINT('',(8.,2.864375403533E-16,1.29));
#1161 = DIRECTION('',(0.,1.,0.));
#1162 = DIRECTION('',(0.,0.,1.));
#1163 = ADVANCED_FACE('',(#1164),#1167,.F.);
#1164 = FACE_BOUND('',#1165,.T.);
#1165 = EDGE_LOOP('',(#1166));
#1166 = ORIENTED_EDGE('',*,*,#1135,.T.);
#1167 = PLANE('',#1168);
#1168 = AXIS2_PLACEMENT_3D('',#1169,#1170,#1171);
#1169 = CARTESIAN_POINT('',(8.,-1.E-01,1.29));
#1170 = DIRECTION('',(0.,1.,0.));
#1171 = DIRECTION('',(0.,0.,1.));
#1172 = MANIFOLD_SOLID_BREP('',#1173);
#1173 = CLOSED_SHELL('',(#1174,#1207,#1216));
#1174 = ADVANCED_FACE('',(#1175),#1202,.T.);
#1175 = FACE_BOUND('',#1176,.F.);
#1176 = EDGE_LOOP('',(#1177,#1187,#1194,#1195));
#1177 = ORIENTED_EDGE('',*,*,#1178,.T.);
#1178 = EDGE_CURVE('',#1179,#1181,#1183,.T.);
#1179 = VERTEX_POINT('',#1180);
#1180 = CARTESIAN_POINT('',(5.,2.864375403533E-16,1.29));
#1181 = VERTEX_POINT('',#1182);
#1182 = CARTESIAN_POINT('',(5.,-1.E-01,1.29));
#1183 = LINE('',#1184,#1185);
#1184 = CARTESIAN_POINT('',(5.,2.864375403533E-16,1.29));
#1185 = VECTOR('',#1186,1.);
#1186 = DIRECTION('',(0.,-1.,2.22044604925E-16));
#1187 = ORIENTED_EDGE('',*,*,#1188,.T.);
#1188 = EDGE_CURVE('',#1181,#1181,#1189,.T.);
#1189 = CIRCLE('',#1190,0.75);
#1190 = AXIS2_PLACEMENT_3D('',#1191,#1192,#1193);
#1191 = CARTESIAN_POINT('',(4.25,-1.E-01,1.29));
#1192 = DIRECTION('',(0.,-1.,2.22044604925E-16));
#1193 = DIRECTION('',(1.,0.,0.));
#1194 = ORIENTED_EDGE('',*,*,#1178,.F.);
#1195 = ORIENTED_EDGE('',*,*,#1196,.F.);
#1196 = EDGE_CURVE('',#1179,#1179,#1197,.T.);
#1197 = CIRCLE('',#1198,0.75);
#1198 = AXIS2_PLACEMENT_3D('',#1199,#1200,#1201);
#1199 = CARTESIAN_POINT('',(4.25,2.864375403533E-16,1.29));
#1200 = DIRECTION('',(0.,-1.,2.22044604925E-16));
#1201 = DIRECTION('',(1.,0.,0.));
#1202 = CYLINDRICAL_SURFACE('',#1203,0.75);
#1203 = AXIS2_PLACEMENT_3D('',#1204,#1205,#1206);
#1204 = CARTESIAN_POINT('',(4.25,2.864375403533E-16,1.29));
#1205 = DIRECTION('',(0.,1.,-2.22044604925E-16));
#1206 = DIRECTION('',(1.,0.,0.));
#1207 = ADVANCED_FACE('',(#1208),#1211,.T.);
#1208 = FACE_BOUND('',#1209,.F.);
#1209 = EDGE_LOOP('',(#1210));
#1210 = ORIENTED_EDGE('',*,*,#1196,.T.);
#1211 = PLANE('',#1212);
#1212 = AXIS2_PLACEMENT_3D('',#1213,#1214,#1215);
#1213 = CARTESIAN_POINT('',(8.,2.864375403533E-16,1.29));
#1214 = DIRECTION('',(0.,1.,0.));
#1215 = DIRECTION('',(0.,0.,1.));
#1216 = ADVANCED_FACE('',(#1217),#1220,.F.);
#1217 = FACE_BOUND('',#1218,.T.);
#1218 = EDGE_LOOP('',(#1219));
#1219 = ORIENTED_EDGE('',*,*,#1188,.T.);
#1220 = PLANE('',#1221);
#1221 = AXIS2_PLACEMENT_3D('',#1222,#1223,#1224);
#1222 = CARTESIAN_POINT('',(8.,-1.E-01,1.29));
#1223 = DIRECTION('',(0.,1.,0.));
#1224 = DIRECTION('',(0.,0.,1.));
#1225 = MANIFOLD_SOLID_BREP('',#1226);
#1226 = CLOSED_SHELL('',(#1227,#1260,#1269));
#1227 = ADVANCED_FACE('',(#1228),#1255,.T.);
#1228 = FACE_BOUND('',#1229,.F.);
#1229 = EDGE_LOOP('',(#1230,#1240,#1247,#1248));
#1230 = ORIENTED_EDGE('',*,*,#1231,.T.);
#1231 = EDGE_CURVE('',#1232,#1234,#1236,.T.);
#1232 = VERTEX_POINT('',#1233);
#1233 = CARTESIAN_POINT('',(2.5,2.864375403533E-16,1.29));
#1234 = VERTEX_POINT('',#1235);
#1235 = CARTESIAN_POINT('',(2.5,-1.E-01,1.29));
#1236 = LINE('',#1237,#1238);
#1237 = CARTESIAN_POINT('',(2.5,2.864375403533E-16,1.29));
#1238 = VECTOR('',#1239,1.);
#1239 = DIRECTION('',(0.,-1.,2.22044604925E-16));
#1240 = ORIENTED_EDGE('',*,*,#1241,.T.);
#1241 = EDGE_CURVE('',#1234,#1234,#1242,.T.);
#1242 = CIRCLE('',#1243,0.75);
#1243 = AXIS2_PLACEMENT_3D('',#1244,#1245,#1246);
#1244 = CARTESIAN_POINT('',(1.75,-1.E-01,1.29));
#1245 = DIRECTION('',(0.,-1.,2.22044604925E-16));
#1246 = DIRECTION('',(1.,0.,0.));
#1247 = ORIENTED_EDGE('',*,*,#1231,.F.);
#1248 = ORIENTED_EDGE('',*,*,#1249,.F.);
#1249 = EDGE_CURVE('',#1232,#1232,#1250,.T.);
#1250 = CIRCLE('',#1251,0.75);
#1251 = AXIS2_PLACEMENT_3D('',#1252,#1253,#1254);
#1252 = CARTESIAN_POINT('',(1.75,2.864375403533E-16,1.29));
#1253 = DIRECTION('',(0.,-1.,2.22044604925E-16));
#1254 = DIRECTION('',(1.,0.,0.));
#1255 = CYLINDRICAL_SURFACE('',#1256,0.75);
#1256 = AXIS2_PLACEMENT_3D('',#1257,#1258,#1259);
#1257 = CARTESIAN_POINT('',(1.75,2.864375403533E-16,1.29));
#1258 = DIRECTION('',(0.,1.,-2.22044604925E-16));
#1259 = DIRECTION('',(1.,0.,0.));
#1260 = ADVANCED_FACE('',(#1261),#1264,.T.);
#1261 = FACE_BOUND('',#1262,.F.);
#1262 = EDGE_LOOP('',(#1263));
#1263 = ORIENTED_EDGE('',*,*,#1249,.T.);
#1264 = PLANE('',#1265);
#1265 = AXIS2_PLACEMENT_3D('',#1266,#1267,#1268);
#1266 = CARTESIAN_POINT('',(8.,2.864375403533E-16,1.29));
#1267 = DIRECTION('',(0.,1.,0.));
#1268 = DIRECTION('',(0.,0.,1.));
#1269 = ADVANCED_FACE('',(#1270),#1273,.F.);
#1270 = FACE_BOUND('',#1271,.T.);
#1271 = EDGE_LOOP('',(#1272));
#1272 = ORIENTED_EDGE('',*,*,#1241,.T.);
#1273 = PLANE('',#1274);
#1274 = AXIS2_PLACEMENT_3D('',#1275,#1276,#1277);
#1275 = CARTESIAN_POINT('',(8.,-1.E-01,1.29));
#1276 = DIRECTION('',(0.,1.,0.));
#1277 = DIRECTION('',(0.,0.,1.));
#1278 = ( GEOMETRIC_REPRESENTATION_CONTEXT(3) 
GLOBAL_UNCERTAINTY_ASSIGNED_CONTEXT((#1282)) 
GLOBAL_UNIT_ASSIGNED_CONTEXT((#1279,#1280,#1281)) REPRESENTATION_CONTEXT
('Context #1','3D Context with UNIT and UNCERTAINTY') );
#1279 = ( LENGTH_UNIT() NAMED_UNIT(*) SI_UNIT(.MILLI.,.METRE.) );
#1280 = ( NAMED_UNIT(*) PLANE_ANGLE_UNIT() SI_UNIT($,.RADIAN.) );
#1281 = ( NAMED_UNIT(*) SI_UNIT($,.STERADIAN.) SOLID_ANGLE_UNIT() );
#1282 = UNCERTAINTY_MEASURE_WITH_UNIT(LENGTH_MEASURE(1.E-07),#1279,
  'distance_accuracy_value','confusion accuracy');
#1283 = CONTEXT_DEPENDENT_SHAPE_REPRESENTATION(#1284,#1286);
#1284 = ( REPRESENTATION_RELATIONSHIP('','',#959,#10) 
REPRESENTATION_RELATIONSHIP_WITH_TRANSFORMATION(#1285) 
SHAPE_REPRESENTATION_RELATIONSHIP() );
#1285 = ITEM_DEFINED_TRANSFORMATION('','',#11,#19);
#1286 = PRODUCT_DEFINITION_SHAPE('Placement','Placement of an item',
  #1287);
#1287 = NEXT_ASSEMBLY_USAGE_OCCURRENCE('2','pins','',#5,#954,$);
#1288 = PRODUCT_RELATED_PRODUCT_CATEGORY('part',$,(#956));
#1289 = SHAPE_DEFINITION_REPRESENTATION(#1290,#1296);
#1290 = PRODUCT_DEFINITION_SHAPE('','',#1291);
#1291 = PRODUCT_DEFINITION('design','',#1292,#1295);
#1292 = PRODUCT_DEFINITION_FORMATION('','',#1293);
#1293 = PRODUCT('Body','Body','',(#1294));
#1294 = PRODUCT_CONTEXT('',#2,'mechanical');
#1295 = PRODUCT_DEFINITION_CONTEXT('part definition',#2,'design');
#1296 = ADVANCED_BREP_SHAPE_REPRESENTATION('',(#11,#1297),#1989);
#1297 = MANIFOLD_SOLID_BREP('',#1298);
#1298 = CLOSED_SHELL('',(#1299,#1332,#1357,#1443,#1452,#1483,#1507,#1531
    ,#1555,#1579,#1603,#1627,#1710,#1735,#1751,#1776,#1801,#1826,#1851,
    #1876,#1901,#1926,#1935,#1944,#1953,#1962,#1971,#1980));
#1299 = ADVANCED_FACE('',(#1300),#1327,.T.);
#1300 = FACE_BOUND('',#1301,.T.);
#1301 = EDGE_LOOP('',(#1302,#1312,#1319,#1320));
#1302 = ORIENTED_EDGE('',*,*,#1303,.T.);
#1303 = EDGE_CURVE('',#1304,#1306,#1308,.T.);
#1304 = VERTEX_POINT('',#1305);
#1305 = CARTESIAN_POINT('',(3.25,-2.25,0.));
#1306 = VERTEX_POINT('',#1307);
#1307 = CARTESIAN_POINT('',(3.25,-2.25,-0.475));
#1308 = LINE('',#1309,#1310);
#1309 = CARTESIAN_POINT('',(3.25,-2.25,0.));
#1310 = VECTOR('',#1311,1.);
#1311 = DIRECTION('',(-0.,-0.,-1.));
#1312 = ORIENTED_EDGE('',*,*,#1313,.T.);
#1313 = EDGE_CURVE('',#1306,#1306,#1314,.T.);
#1314 = CIRCLE('',#1315,0.25);
#1315 = AXIS2_PLACEMENT_3D('',#1316,#1317,#1318);
#1316 = CARTESIAN_POINT('',(3.,-2.25,-0.475));
#1317 = DIRECTION('',(0.,0.,1.));
#1318 = DIRECTION('',(1.,0.,0.));
#1319 = ORIENTED_EDGE('',*,*,#1303,.F.);
#1320 = ORIENTED_EDGE('',*,*,#1321,.F.);
#1321 = EDGE_CURVE('',#1304,#1304,#1322,.T.);
#1322 = CIRCLE('',#1323,0.25);
#1323 = AXIS2_PLACEMENT_3D('',#1324,#1325,#1326);
#1324 = CARTESIAN_POINT('',(3.,-2.25,0.));
#1325 = DIRECTION('',(0.,0.,1.));
#1326 = DIRECTION('',(1.,0.,0.));
#1327 = CYLINDRICAL_SURFACE('',#1328,0.25);
#1328 = AXIS2_PLACEMENT_3D('',#1329,#1330,#1331);
#1329 = CARTESIAN_POINT('',(3.,-2.25,0.));
#1330 = DIRECTION('',(0.,0.,1.));
#1331 = DIRECTION('',(1.,0.,0.));
#1332 = ADVANCED_FACE('',(#1333),#1352,.T.);
#1333 = FACE_BOUND('',#1334,.F.);
#1334 = EDGE_LOOP('',(#1335,#1343,#1344,#1345));
#1335 = ORIENTED_EDGE('',*,*,#1336,.F.);
#1336 = EDGE_CURVE('',#1306,#1337,#1339,.T.);
#1337 = VERTEX_POINT('',#1338);
#1338 = CARTESIAN_POINT('',(3.175,-2.25,-0.55));
#1339 = LINE('',#1340,#1341);
#1340 = CARTESIAN_POINT('',(3.25,-2.25,-0.475));
#1341 = VECTOR('',#1342,1.);
#1342 = DIRECTION('',(-0.707106781187,-0.,-0.707106781187));
#1343 = ORIENTED_EDGE('',*,*,#1313,.T.);
#1344 = ORIENTED_EDGE('',*,*,#1336,.T.);
#1345 = ORIENTED_EDGE('',*,*,#1346,.F.);
#1346 = EDGE_CURVE('',#1337,#1337,#1347,.T.);
#1347 = CIRCLE('',#1348,0.175);
#1348 = AXIS2_PLACEMENT_3D('',#1349,#1350,#1351);
#1349 = CARTESIAN_POINT('',(3.,-2.25,-0.55));
#1350 = DIRECTION('',(0.,0.,1.));
#1351 = DIRECTION('',(1.,0.,0.));
#1352 = CONICAL_SURFACE('',#1353,0.25,0.785398163397);
#1353 = AXIS2_PLACEMENT_3D('',#1354,#1355,#1356);
#1354 = CARTESIAN_POINT('',(3.,-2.25,-0.475));
#1355 = DIRECTION('',(0.,0.,1.));
#1356 = DIRECTION('',(1.,0.,0.));
#1357 = ADVANCED_FACE('',(#1358,#1424,#1427),#1438,.F.);
#1358 = FACE_BOUND('',#1359,.F.);
#1359 = EDGE_LOOP('',(#1360,#1370,#1378,#1386,#1394,#1402,#1410,#1418));
#1360 = ORIENTED_EDGE('',*,*,#1361,.T.);
#1361 = EDGE_CURVE('',#1362,#1364,#1366,.T.);
#1362 = VERTEX_POINT('',#1363);
#1363 = CARTESIAN_POINT('',(0.,-3.5,0.));
#1364 = VERTEX_POINT('',#1365);
#1365 = CARTESIAN_POINT('',(16.,-3.5,0.));
#1366 = LINE('',#1367,#1368);
#1367 = CARTESIAN_POINT('',(0.,-3.5,0.));
#1368 = VECTOR('',#1369,1.);
#1369 = DIRECTION('',(1.,0.,0.));
#1370 = ORIENTED_EDGE('',*,*,#1371,.T.);
#1371 = EDGE_CURVE('',#1364,#1372,#1374,.T.);
#1372 = VERTEX_POINT('',#1373);
#1373 = CARTESIAN_POINT('',(16.,-1.,0.));
#1374 = LINE('',#1375,#1376);
#1375 = CARTESIAN_POINT('',(16.,-3.5,0.));
#1376 = VECTOR('',#1377,1.);
#1377 = DIRECTION('',(0.,1.,0.));
#1378 = ORIENTED_EDGE('',*,*,#1379,.T.);
#1379 = EDGE_CURVE('',#1372,#1380,#1382,.T.);
#1380 = VERTEX_POINT('',#1381);
#1381 = CARTESIAN_POINT('',(15.5,-1.,0.));
#1382 = LINE('',#1383,#1384);
#1383 = CARTESIAN_POINT('',(16.,-1.,0.));
#1384 = VECTOR('',#1385,1.);
#1385 = DIRECTION('',(-1.,0.,0.));
#1386 = ORIENTED_EDGE('',*,*,#1387,.T.);
#1387 = EDGE_CURVE('',#1380,#1388,#1390,.T.);
#1388 = VERTEX_POINT('',#1389);
#1389 = CARTESIAN_POINT('',(15.5,0.,0.));
#1390 = LINE('',#1391,#1392);
#1391 = CARTESIAN_POINT('',(15.5,-1.,0.));
#1392 = VECTOR('',#1393,1.);
#1393 = DIRECTION('',(0.,1.,0.));
#1394 = ORIENTED_EDGE('',*,*,#1395,.F.);
#1395 = EDGE_CURVE('',#1396,#1388,#1398,.T.);
#1396 = VERTEX_POINT('',#1397);
#1397 = CARTESIAN_POINT('',(0.5,0.,0.));
#1398 = LINE('',#1399,#1400);
#1399 = CARTESIAN_POINT('',(0.5,0.,0.));
#1400 = VECTOR('',#1401,1.);
#1401 = DIRECTION('',(1.,0.,0.));
#1402 = ORIENTED_EDGE('',*,*,#1403,.F.);
#1403 = EDGE_CURVE('',#1404,#1396,#1406,.T.);
#1404 = VERTEX_POINT('',#1405);
#1405 = CARTESIAN_POINT('',(0.5,-1.,0.));
#1406 = LINE('',#1407,#1408);
#1407 = CARTESIAN_POINT('',(0.5,-1.,0.));
#1408 = VECTOR('',#1409,1.);
#1409 = DIRECTION('',(0.,1.,0.));
#1410 = ORIENTED_EDGE('',*,*,#1411,.F.);
#1411 = EDGE_CURVE('',#1412,#1404,#1414,.T.);
#1412 = VERTEX_POINT('',#1413);
#1413 = CARTESIAN_POINT('',(0.,-1.,0.));
#1414 = LINE('',#1415,#1416);
#1415 = CARTESIAN_POINT('',(0.,-1.,0.));
#1416 = VECTOR('',#1417,1.);
#1417 = DIRECTION('',(1.,0.,0.));
#1418 = ORIENTED_EDGE('',*,*,#1419,.F.);
#1419 = EDGE_CURVE('',#1362,#1412,#1420,.T.);
#1420 = LINE('',#1421,#1422);
#1421 = CARTESIAN_POINT('',(0.,-3.5,0.));
#1422 = VECTOR('',#1423,1.);
#1423 = DIRECTION('',(0.,1.,0.));
#1424 = FACE_BOUND('',#1425,.F.);
#1425 = EDGE_LOOP('',(#1426));
#1426 = ORIENTED_EDGE('',*,*,#1321,.F.);
#1427 = FACE_BOUND('',#1428,.F.);
#1428 = EDGE_LOOP('',(#1429));
#1429 = ORIENTED_EDGE('',*,*,#1430,.F.);
#1430 = EDGE_CURVE('',#1431,#1431,#1433,.T.);
#1431 = VERTEX_POINT('',#1432);
#1432 = CARTESIAN_POINT('',(13.25,-2.25,0.));
#1433 = CIRCLE('',#1434,0.25);
#1434 = AXIS2_PLACEMENT_3D('',#1435,#1436,#1437);
#1435 = CARTESIAN_POINT('',(13.,-2.25,0.));
#1436 = DIRECTION('',(0.,0.,1.));
#1437 = DIRECTION('',(1.,0.,0.));
#1438 = PLANE('',#1439);
#1439 = AXIS2_PLACEMENT_3D('',#1440,#1441,#1442);
#1440 = CARTESIAN_POINT('',(8.,-1.775641025641,0.));
#1441 = DIRECTION('',(0.,0.,1.));
#1442 = DIRECTION('',(1.,0.,0.));
#1443 = ADVANCED_FACE('',(#1444),#1447,.F.);
#1444 = FACE_BOUND('',#1445,.F.);
#1445 = EDGE_LOOP('',(#1446));
#1446 = ORIENTED_EDGE('',*,*,#1346,.T.);
#1447 = PLANE('',#1448);
#1448 = AXIS2_PLACEMENT_3D('',#1449,#1450,#1451);
#1449 = CARTESIAN_POINT('',(8.,-2.25,-0.55));
#1450 = DIRECTION('',(0.,0.,1.));
#1451 = DIRECTION('',(1.,0.,0.));
#1452 = ADVANCED_FACE('',(#1453),#1478,.F.);
#1453 = FACE_BOUND('',#1454,.F.);
#1454 = EDGE_LOOP('',(#1455,#1463,#1471,#1477));
#1455 = ORIENTED_EDGE('',*,*,#1456,.T.);
#1456 = EDGE_CURVE('',#1362,#1457,#1459,.T.);
#1457 = VERTEX_POINT('',#1458);
#1458 = CARTESIAN_POINT('',(0.,-3.5,2.5));
#1459 = LINE('',#1460,#1461);
#1460 = CARTESIAN_POINT('',(0.,-3.5,0.));
#1461 = VECTOR('',#1462,1.);
#1462 = DIRECTION('',(0.,0.,1.));
#1463 = ORIENTED_EDGE('',*,*,#1464,.T.);
#1464 = EDGE_CURVE('',#1457,#1465,#1467,.T.);
#1465 = VERTEX_POINT('',#1466);
#1466 = CARTESIAN_POINT('',(16.,-3.5,2.5));
#1467 = LINE('',#1468,#1469);
#1468 = CARTESIAN_POINT('',(0.,-3.5,2.5));
#1469 = VECTOR('',#1470,1.);
#1470 = DIRECTION('',(1.,0.,0.));
#1471 = ORIENTED_EDGE('',*,*,#1472,.F.);
#1472 = EDGE_CURVE('',#1364,#1465,#1473,.T.);
#1473 = LINE('',#1474,#1475);
#1474 = CARTESIAN_POINT('',(16.,-3.5,0.));
#1475 = VECTOR('',#1476,1.);
#1476 = DIRECTION('',(0.,0.,1.));
#1477 = ORIENTED_EDGE('',*,*,#1361,.F.);
#1478 = PLANE('',#1479);
#1479 = AXIS2_PLACEMENT_3D('',#1480,#1481,#1482);
#1480 = CARTESIAN_POINT('',(0.,-3.5,0.));
#1481 = DIRECTION('',(0.,1.,0.));
#1482 = DIRECTION('',(1.,0.,0.));
#1483 = ADVANCED_FACE('',(#1484),#1502,.T.);
#1484 = FACE_BOUND('',#1485,.T.);
#1485 = EDGE_LOOP('',(#1486,#1487,#1495,#1501));
#1486 = ORIENTED_EDGE('',*,*,#1456,.T.);
#1487 = ORIENTED_EDGE('',*,*,#1488,.T.);
#1488 = EDGE_CURVE('',#1457,#1489,#1491,.T.);
#1489 = VERTEX_POINT('',#1490);
#1490 = CARTESIAN_POINT('',(0.,-1.,2.5));
#1491 = LINE('',#1492,#1493);
#1492 = CARTESIAN_POINT('',(0.,-3.5,2.5));
#1493 = VECTOR('',#1494,1.);
#1494 = DIRECTION('',(0.,1.,0.));
#1495 = ORIENTED_EDGE('',*,*,#1496,.F.);
#1496 = EDGE_CURVE('',#1412,#1489,#1497,.T.);
#1497 = LINE('',#1498,#1499);
#1498 = CARTESIAN_POINT('',(0.,-1.,0.));
#1499 = VECTOR('',#1500,1.);
#1500 = DIRECTION('',(0.,0.,1.));
#1501 = ORIENTED_EDGE('',*,*,#1419,.F.);
#1502 = PLANE('',#1503);
#1503 = AXIS2_PLACEMENT_3D('',#1504,#1505,#1506);
#1504 = CARTESIAN_POINT('',(0.,-3.5,0.));
#1505 = DIRECTION('',(-1.,0.,0.));
#1506 = DIRECTION('',(0.,1.,0.));
#1507 = ADVANCED_FACE('',(#1508),#1526,.F.);
#1508 = FACE_BOUND('',#1509,.F.);
#1509 = EDGE_LOOP('',(#1510,#1511,#1519,#1525));
#1510 = ORIENTED_EDGE('',*,*,#1472,.T.);
#1511 = ORIENTED_EDGE('',*,*,#1512,.T.);
#1512 = EDGE_CURVE('',#1465,#1513,#1515,.T.);
#1513 = VERTEX_POINT('',#1514);
#1514 = CARTESIAN_POINT('',(16.,-1.,2.5));
#1515 = LINE('',#1516,#1517);
#1516 = CARTESIAN_POINT('',(16.,-3.5,2.5));
#1517 = VECTOR('',#1518,1.);
#1518 = DIRECTION('',(0.,1.,0.));
#1519 = ORIENTED_EDGE('',*,*,#1520,.F.);
#1520 = EDGE_CURVE('',#1372,#1513,#1521,.T.);
#1521 = LINE('',#1522,#1523);
#1522 = CARTESIAN_POINT('',(16.,-1.,0.));
#1523 = VECTOR('',#1524,1.);
#1524 = DIRECTION('',(0.,0.,1.));
#1525 = ORIENTED_EDGE('',*,*,#1371,.F.);
#1526 = PLANE('',#1527);
#1527 = AXIS2_PLACEMENT_3D('',#1528,#1529,#1530);
#1528 = CARTESIAN_POINT('',(16.,-3.5,0.));
#1529 = DIRECTION('',(-1.,0.,0.));
#1530 = DIRECTION('',(0.,1.,0.));
#1531 = ADVANCED_FACE('',(#1532),#1550,.T.);
#1532 = FACE_BOUND('',#1533,.T.);
#1533 = EDGE_LOOP('',(#1534,#1535,#1543,#1549));
#1534 = ORIENTED_EDGE('',*,*,#1496,.T.);
#1535 = ORIENTED_EDGE('',*,*,#1536,.T.);
#1536 = EDGE_CURVE('',#1489,#1537,#1539,.T.);
#1537 = VERTEX_POINT('',#1538);
#1538 = CARTESIAN_POINT('',(0.5,-1.,2.5));
#1539 = LINE('',#1540,#1541);
#1540 = CARTESIAN_POINT('',(0.,-1.,2.5));
#1541 = VECTOR('',#1542,1.);
#1542 = DIRECTION('',(1.,0.,0.));
#1543 = ORIENTED_EDGE('',*,*,#1544,.F.);
#1544 = EDGE_CURVE('',#1404,#1537,#1545,.T.);
#1545 = LINE('',#1546,#1547);
#1546 = CARTESIAN_POINT('',(0.5,-1.,0.));
#1547 = VECTOR('',#1548,1.);
#1548 = DIRECTION('',(0.,0.,1.));
#1549 = ORIENTED_EDGE('',*,*,#1411,.F.);
#1550 = PLANE('',#1551);
#1551 = AXIS2_PLACEMENT_3D('',#1552,#1553,#1554);
#1552 = CARTESIAN_POINT('',(0.,-1.,0.));
#1553 = DIRECTION('',(0.,1.,0.));
#1554 = DIRECTION('',(1.,0.,0.));
#1555 = ADVANCED_FACE('',(#1556),#1574,.F.);
#1556 = FACE_BOUND('',#1557,.F.);
#1557 = EDGE_LOOP('',(#1558,#1559,#1567,#1573));
#1558 = ORIENTED_EDGE('',*,*,#1520,.T.);
#1559 = ORIENTED_EDGE('',*,*,#1560,.T.);
#1560 = EDGE_CURVE('',#1513,#1561,#1563,.T.);
#1561 = VERTEX_POINT('',#1562);
#1562 = CARTESIAN_POINT('',(15.5,-1.,2.5));
#1563 = LINE('',#1564,#1565);
#1564 = CARTESIAN_POINT('',(16.,-1.,2.5));
#1565 = VECTOR('',#1566,1.);
#1566 = DIRECTION('',(-1.,0.,0.));
#1567 = ORIENTED_EDGE('',*,*,#1568,.F.);
#1568 = EDGE_CURVE('',#1380,#1561,#1569,.T.);
#1569 = LINE('',#1570,#1571);
#1570 = CARTESIAN_POINT('',(15.5,-1.,0.));
#1571 = VECTOR('',#1572,1.);
#1572 = DIRECTION('',(0.,0.,1.));
#1573 = ORIENTED_EDGE('',*,*,#1379,.F.);
#1574 = PLANE('',#1575);
#1575 = AXIS2_PLACEMENT_3D('',#1576,#1577,#1578);
#1576 = CARTESIAN_POINT('',(16.,-1.,0.));
#1577 = DIRECTION('',(0.,-1.,0.));
#1578 = DIRECTION('',(-1.,0.,0.));
#1579 = ADVANCED_FACE('',(#1580),#1598,.T.);
#1580 = FACE_BOUND('',#1581,.T.);
#1581 = EDGE_LOOP('',(#1582,#1583,#1591,#1597));
#1582 = ORIENTED_EDGE('',*,*,#1544,.T.);
#1583 = ORIENTED_EDGE('',*,*,#1584,.T.);
#1584 = EDGE_CURVE('',#1537,#1585,#1587,.T.);
#1585 = VERTEX_POINT('',#1586);
#1586 = CARTESIAN_POINT('',(0.5,0.,2.5));
#1587 = LINE('',#1588,#1589);
#1588 = CARTESIAN_POINT('',(0.5,-1.,2.5));
#1589 = VECTOR('',#1590,1.);
#1590 = DIRECTION('',(0.,1.,0.));
#1591 = ORIENTED_EDGE('',*,*,#1592,.F.);
#1592 = EDGE_CURVE('',#1396,#1585,#1593,.T.);
#1593 = LINE('',#1594,#1595);
#1594 = CARTESIAN_POINT('',(0.5,0.,0.));
#1595 = VECTOR('',#1596,1.);
#1596 = DIRECTION('',(0.,0.,1.));
#1597 = ORIENTED_EDGE('',*,*,#1403,.F.);
#1598 = PLANE('',#1599);
#1599 = AXIS2_PLACEMENT_3D('',#1600,#1601,#1602);
#1600 = CARTESIAN_POINT('',(0.5,-1.,0.));
#1601 = DIRECTION('',(-1.,0.,0.));
#1602 = DIRECTION('',(0.,1.,0.));
#1603 = ADVANCED_FACE('',(#1604),#1622,.F.);
#1604 = FACE_BOUND('',#1605,.F.);
#1605 = EDGE_LOOP('',(#1606,#1607,#1615,#1621));
#1606 = ORIENTED_EDGE('',*,*,#1568,.T.);
#1607 = ORIENTED_EDGE('',*,*,#1608,.T.);
#1608 = EDGE_CURVE('',#1561,#1609,#1611,.T.);
#1609 = VERTEX_POINT('',#1610);
#1610 = CARTESIAN_POINT('',(15.5,0.,2.5));
#1611 = LINE('',#1612,#1613);
#1612 = CARTESIAN_POINT('',(15.5,-1.,2.5));
#1613 = VECTOR('',#1614,1.);
#1614 = DIRECTION('',(0.,1.,0.));
#1615 = ORIENTED_EDGE('',*,*,#1616,.F.);
#1616 = EDGE_CURVE('',#1388,#1609,#1617,.T.);
#1617 = LINE('',#1618,#1619);
#1618 = CARTESIAN_POINT('',(15.5,0.,0.));
#1619 = VECTOR('',#1620,1.);
#1620 = DIRECTION('',(0.,0.,1.));
#1621 = ORIENTED_EDGE('',*,*,#1387,.F.);
#1622 = PLANE('',#1623);
#1623 = AXIS2_PLACEMENT_3D('',#1624,#1625,#1626);
#1624 = CARTESIAN_POINT('',(15.5,-1.,0.));
#1625 = DIRECTION('',(-1.,0.,0.));
#1626 = DIRECTION('',(0.,1.,0.));
#1627 = ADVANCED_FACE('',(#1628,#1639,#1650,#1661,#1672,#1683,#1694),
  #1705,.T.);
#1628 = FACE_BOUND('',#1629,.T.);
#1629 = EDGE_LOOP('',(#1630,#1631,#1637,#1638));
#1630 = ORIENTED_EDGE('',*,*,#1592,.T.);
#1631 = ORIENTED_EDGE('',*,*,#1632,.T.);
#1632 = EDGE_CURVE('',#1585,#1609,#1633,.T.);
#1633 = LINE('',#1634,#1635);
#1634 = CARTESIAN_POINT('',(0.5,0.,2.5));
#1635 = VECTOR('',#1636,1.);
#1636 = DIRECTION('',(1.,0.,0.));
#1637 = ORIENTED_EDGE('',*,*,#1616,.F.);
#1638 = ORIENTED_EDGE('',*,*,#1395,.F.);
#1639 = FACE_BOUND('',#1640,.T.);
#1640 = EDGE_LOOP('',(#1641));
#1641 = ORIENTED_EDGE('',*,*,#1642,.F.);
#1642 = EDGE_CURVE('',#1643,#1643,#1645,.T.);
#1643 = VERTEX_POINT('',#1644);
#1644 = CARTESIAN_POINT('',(2.5,2.864375403533E-16,1.29));
#1645 = CIRCLE('',#1646,0.75);
#1646 = AXIS2_PLACEMENT_3D('',#1647,#1648,#1649);
#1647 = CARTESIAN_POINT('',(1.75,2.864375403533E-16,1.29));
#1648 = DIRECTION('',(0.,1.,-2.22044604925E-16));
#1649 = DIRECTION('',(1.,0.,0.));
#1650 = FACE_BOUND('',#1651,.T.);
#1651 = EDGE_LOOP('',(#1652));
#1652 = ORIENTED_EDGE('',*,*,#1653,.F.);
#1653 = EDGE_CURVE('',#1654,#1654,#1656,.T.);
#1654 = VERTEX_POINT('',#1655);
#1655 = CARTESIAN_POINT('',(5.,2.864375403533E-16,1.29));
#1656 = CIRCLE('',#1657,0.75);
#1657 = AXIS2_PLACEMENT_3D('',#1658,#1659,#1660);
#1658 = CARTESIAN_POINT('',(4.25,2.864375403533E-16,1.29));
#1659 = DIRECTION('',(0.,1.,-2.22044604925E-16));
#1660 = DIRECTION('',(1.,0.,0.));
#1661 = FACE_BOUND('',#1662,.T.);
#1662 = EDGE_LOOP('',(#1663));
#1663 = ORIENTED_EDGE('',*,*,#1664,.F.);
#1664 = EDGE_CURVE('',#1665,#1665,#1667,.T.);
#1665 = VERTEX_POINT('',#1666);
#1666 = CARTESIAN_POINT('',(7.5,2.864375403533E-16,1.29));
#1667 = CIRCLE('',#1668,0.75);
#1668 = AXIS2_PLACEMENT_3D('',#1669,#1670,#1671);
#1669 = CARTESIAN_POINT('',(6.75,2.864375403533E-16,1.29));
#1670 = DIRECTION('',(0.,1.,-2.22044604925E-16));
#1671 = DIRECTION('',(1.,0.,0.));
#1672 = FACE_BOUND('',#1673,.T.);
#1673 = EDGE_LOOP('',(#1674));
#1674 = ORIENTED_EDGE('',*,*,#1675,.F.);
#1675 = EDGE_CURVE('',#1676,#1676,#1678,.T.);
#1676 = VERTEX_POINT('',#1677);
#1677 = CARTESIAN_POINT('',(10.,2.864375403533E-16,1.29));
#1678 = CIRCLE('',#1679,0.75);
#1679 = AXIS2_PLACEMENT_3D('',#1680,#1681,#1682);
#1680 = CARTESIAN_POINT('',(9.25,2.864375403533E-16,1.29));
#1681 = DIRECTION('',(0.,1.,-2.22044604925E-16));
#1682 = DIRECTION('',(1.,0.,0.));
#1683 = FACE_BOUND('',#1684,.T.);
#1684 = EDGE_LOOP('',(#1685));
#1685 = ORIENTED_EDGE('',*,*,#1686,.F.);
#1686 = EDGE_CURVE('',#1687,#1687,#1689,.T.);
#1687 = VERTEX_POINT('',#1688);
#1688 = CARTESIAN_POINT('',(12.5,2.864375403533E-16,1.29));
#1689 = CIRCLE('',#1690,0.75);
#1690 = AXIS2_PLACEMENT_3D('',#1691,#1692,#1693);
#1691 = CARTESIAN_POINT('',(11.75,2.864375403533E-16,1.29));
#1692 = DIRECTION('',(0.,1.,-2.22044604925E-16));
#1693 = DIRECTION('',(1.,0.,0.));
#1694 = FACE_BOUND('',#1695,.T.);
#1695 = EDGE_LOOP('',(#1696));
#1696 = ORIENTED_EDGE('',*,*,#1697,.F.);
#1697 = EDGE_CURVE('',#1698,#1698,#1700,.T.);
#1698 = VERTEX_POINT('',#1699);
#1699 = CARTESIAN_POINT('',(15.,2.864375403533E-16,1.29));
#1700 = CIRCLE('',#1701,0.75);
#1701 = AXIS2_PLACEMENT_3D('',#1702,#1703,#1704);
#1702 = CARTESIAN_POINT('',(14.25,2.864375403533E-16,1.29));
#1703 = DIRECTION('',(0.,1.,-2.22044604925E-16));
#1704 = DIRECTION('',(1.,0.,0.));
#1705 = PLANE('',#1706);
#1706 = AXIS2_PLACEMENT_3D('',#1707,#1708,#1709);
#1707 = CARTESIAN_POINT('',(0.5,0.,0.));
#1708 = DIRECTION('',(0.,1.,0.));
#1709 = DIRECTION('',(1.,0.,0.));
#1710 = ADVANCED_FACE('',(#1711),#1730,.T.);
#1711 = FACE_BOUND('',#1712,.T.);
#1712 = EDGE_LOOP('',(#1713,#1721,#1728,#1729));
#1713 = ORIENTED_EDGE('',*,*,#1714,.T.);
#1714 = EDGE_CURVE('',#1431,#1715,#1717,.T.);
#1715 = VERTEX_POINT('',#1716);
#1716 = CARTESIAN_POINT('',(13.25,-2.25,-0.475));
#1717 = LINE('',#1718,#1719);
#1718 = CARTESIAN_POINT('',(13.25,-2.25,0.));
#1719 = VECTOR('',#1720,1.);
#1720 = DIRECTION('',(-0.,-0.,-1.));
#1721 = ORIENTED_EDGE('',*,*,#1722,.T.);
#1722 = EDGE_CURVE('',#1715,#1715,#1723,.T.);
#1723 = CIRCLE('',#1724,0.25);
#1724 = AXIS2_PLACEMENT_3D('',#1725,#1726,#1727);
#1725 = CARTESIAN_POINT('',(13.,-2.25,-0.475));
#1726 = DIRECTION('',(0.,0.,1.));
#1727 = DIRECTION('',(1.,0.,0.));
#1728 = ORIENTED_EDGE('',*,*,#1714,.F.);
#1729 = ORIENTED_EDGE('',*,*,#1430,.F.);
#1730 = CYLINDRICAL_SURFACE('',#1731,0.25);
#1731 = AXIS2_PLACEMENT_3D('',#1732,#1733,#1734);
#1732 = CARTESIAN_POINT('',(13.,-2.25,0.));
#1733 = DIRECTION('',(0.,0.,1.));
#1734 = DIRECTION('',(1.,0.,0.));
#1735 = ADVANCED_FACE('',(#1736),#1746,.T.);
#1736 = FACE_BOUND('',#1737,.T.);
#1737 = EDGE_LOOP('',(#1738,#1739,#1740,#1741,#1742,#1743,#1744,#1745));
#1738 = ORIENTED_EDGE('',*,*,#1464,.T.);
#1739 = ORIENTED_EDGE('',*,*,#1512,.T.);
#1740 = ORIENTED_EDGE('',*,*,#1560,.T.);
#1741 = ORIENTED_EDGE('',*,*,#1608,.T.);
#1742 = ORIENTED_EDGE('',*,*,#1632,.F.);
#1743 = ORIENTED_EDGE('',*,*,#1584,.F.);
#1744 = ORIENTED_EDGE('',*,*,#1536,.F.);
#1745 = ORIENTED_EDGE('',*,*,#1488,.F.);
#1746 = PLANE('',#1747);
#1747 = AXIS2_PLACEMENT_3D('',#1748,#1749,#1750);
#1748 = CARTESIAN_POINT('',(8.,-1.775641025641,2.5));
#1749 = DIRECTION('',(0.,0.,1.));
#1750 = DIRECTION('',(1.,0.,0.));
#1751 = ADVANCED_FACE('',(#1752),#1771,.F.);
#1752 = FACE_BOUND('',#1753,.T.);
#1753 = EDGE_LOOP('',(#1754,#1762,#1763,#1764));
#1754 = ORIENTED_EDGE('',*,*,#1755,.F.);
#1755 = EDGE_CURVE('',#1643,#1756,#1758,.T.);
#1756 = VERTEX_POINT('',#1757);
#1757 = CARTESIAN_POINT('',(2.5,-9.999999345502E-02,1.29));
#1758 = LINE('',#1759,#1760);
#1759 = CARTESIAN_POINT('',(2.5,2.864375403533E-16,1.29));
#1760 = VECTOR('',#1761,1.);
#1761 = DIRECTION('',(0.,-1.,2.22044604925E-16));
#1762 = ORIENTED_EDGE('',*,*,#1642,.T.);
#1763 = ORIENTED_EDGE('',*,*,#1755,.T.);
#1764 = ORIENTED_EDGE('',*,*,#1765,.F.);
#1765 = EDGE_CURVE('',#1756,#1756,#1766,.T.);
#1766 = CIRCLE('',#1767,0.75);
#1767 = AXIS2_PLACEMENT_3D('',#1768,#1769,#1770);
#1768 = CARTESIAN_POINT('',(1.75,-9.999999345502E-02,1.29));
#1769 = DIRECTION('',(0.,1.,-2.22044604925E-16));
#1770 = DIRECTION('',(1.,0.,0.));
#1771 = CYLINDRICAL_SURFACE('',#1772,0.75);
#1772 = AXIS2_PLACEMENT_3D('',#1773,#1774,#1775);
#1773 = CARTESIAN_POINT('',(1.75,2.864375403533E-16,1.29));
#1774 = DIRECTION('',(0.,-1.,2.22044604925E-16));
#1775 = DIRECTION('',(1.,0.,0.));
#1776 = ADVANCED_FACE('',(#1777),#1796,.F.);
#1777 = FACE_BOUND('',#1778,.T.);
#1778 = EDGE_LOOP('',(#1779,#1787,#1788,#1789));
#1779 = ORIENTED_EDGE('',*,*,#1780,.F.);
#1780 = EDGE_CURVE('',#1654,#1781,#1783,.T.);
#1781 = VERTEX_POINT('',#1782);
#1782 = CARTESIAN_POINT('',(5.,-9.999999345502E-02,1.29));
#1783 = LINE('',#1784,#1785);
#1784 = CARTESIAN_POINT('',(5.,2.864375403533E-16,1.29));
#1785 = VECTOR('',#1786,1.);
#1786 = DIRECTION('',(0.,-1.,2.22044604925E-16));
#1787 = ORIENTED_EDGE('',*,*,#1653,.T.);
#1788 = ORIENTED_EDGE('',*,*,#1780,.T.);
#1789 = ORIENTED_EDGE('',*,*,#1790,.F.);
#1790 = EDGE_CURVE('',#1781,#1781,#1791,.T.);
#1791 = CIRCLE('',#1792,0.75);
#1792 = AXIS2_PLACEMENT_3D('',#1793,#1794,#1795);
#1793 = CARTESIAN_POINT('',(4.25,-9.999999345502E-02,1.29));
#1794 = DIRECTION('',(0.,1.,-2.22044604925E-16));
#1795 = DIRECTION('',(1.,0.,0.));
#1796 = CYLINDRICAL_SURFACE('',#1797,0.75);
#1797 = AXIS2_PLACEMENT_3D('',#1798,#1799,#1800);
#1798 = CARTESIAN_POINT('',(4.25,2.864375403533E-16,1.29));
#1799 = DIRECTION('',(0.,-1.,2.22044604925E-16));
#1800 = DIRECTION('',(1.,0.,0.));
#1801 = ADVANCED_FACE('',(#1802),#1821,.F.);
#1802 = FACE_BOUND('',#1803,.T.);
#1803 = EDGE_LOOP('',(#1804,#1812,#1813,#1814));
#1804 = ORIENTED_EDGE('',*,*,#1805,.F.);
#1805 = EDGE_CURVE('',#1665,#1806,#1808,.T.);
#1806 = VERTEX_POINT('',#1807);
#1807 = CARTESIAN_POINT('',(7.5,-9.999999345502E-02,1.29));
#1808 = LINE('',#1809,#1810);
#1809 = CARTESIAN_POINT('',(7.5,2.864375403533E-16,1.29));
#1810 = VECTOR('',#1811,1.);
#1811 = DIRECTION('',(0.,-1.,2.22044604925E-16));
#1812 = ORIENTED_EDGE('',*,*,#1664,.T.);
#1813 = ORIENTED_EDGE('',*,*,#1805,.T.);
#1814 = ORIENTED_EDGE('',*,*,#1815,.F.);
#1815 = EDGE_CURVE('',#1806,#1806,#1816,.T.);
#1816 = CIRCLE('',#1817,0.75);
#1817 = AXIS2_PLACEMENT_3D('',#1818,#1819,#1820);
#1818 = CARTESIAN_POINT('',(6.75,-9.999999345502E-02,1.29));
#1819 = DIRECTION('',(0.,1.,-2.22044604925E-16));
#1820 = DIRECTION('',(1.,0.,0.));
#1821 = CYLINDRICAL_SURFACE('',#1822,0.75);
#1822 = AXIS2_PLACEMENT_3D('',#1823,#1824,#1825);
#1823 = CARTESIAN_POINT('',(6.75,2.864375403533E-16,1.29));
#1824 = DIRECTION('',(0.,-1.,2.22044604925E-16));
#1825 = DIRECTION('',(1.,0.,0.));
#1826 = ADVANCED_FACE('',(#1827),#1846,.F.);
#1827 = FACE_BOUND('',#1828,.T.);
#1828 = EDGE_LOOP('',(#1829,#1837,#1838,#1839));
#1829 = ORIENTED_EDGE('',*,*,#1830,.F.);
#1830 = EDGE_CURVE('',#1676,#1831,#1833,.T.);
#1831 = VERTEX_POINT('',#1832);
#1832 = CARTESIAN_POINT('',(10.,-9.999999345502E-02,1.29));
#1833 = LINE('',#1834,#1835);
#1834 = CARTESIAN_POINT('',(10.,2.864375403533E-16,1.29));
#1835 = VECTOR('',#1836,1.);
#1836 = DIRECTION('',(0.,-1.,2.22044604925E-16));
#1837 = ORIENTED_EDGE('',*,*,#1675,.T.);
#1838 = ORIENTED_EDGE('',*,*,#1830,.T.);
#1839 = ORIENTED_EDGE('',*,*,#1840,.F.);
#1840 = EDGE_CURVE('',#1831,#1831,#1841,.T.);
#1841 = CIRCLE('',#1842,0.75);
#1842 = AXIS2_PLACEMENT_3D('',#1843,#1844,#1845);
#1843 = CARTESIAN_POINT('',(9.25,-9.999999345502E-02,1.29));
#1844 = DIRECTION('',(0.,1.,-2.22044604925E-16));
#1845 = DIRECTION('',(1.,0.,0.));
#1846 = CYLINDRICAL_SURFACE('',#1847,0.75);
#1847 = AXIS2_PLACEMENT_3D('',#1848,#1849,#1850);
#1848 = CARTESIAN_POINT('',(9.25,2.864375403533E-16,1.29));
#1849 = DIRECTION('',(0.,-1.,2.22044604925E-16));
#1850 = DIRECTION('',(1.,0.,0.));
#1851 = ADVANCED_FACE('',(#1852),#1871,.F.);
#1852 = FACE_BOUND('',#1853,.T.);
#1853 = EDGE_LOOP('',(#1854,#1862,#1863,#1864));
#1854 = ORIENTED_EDGE('',*,*,#1855,.F.);
#1855 = EDGE_CURVE('',#1687,#1856,#1858,.T.);
#1856 = VERTEX_POINT('',#1857);
#1857 = CARTESIAN_POINT('',(12.5,-9.999999345502E-02,1.29));
#1858 = LINE('',#1859,#1860);
#1859 = CARTESIAN_POINT('',(12.5,2.864375403533E-16,1.29));
#1860 = VECTOR('',#1861,1.);
#1861 = DIRECTION('',(0.,-1.,2.22044604925E-16));
#1862 = ORIENTED_EDGE('',*,*,#1686,.T.);
#1863 = ORIENTED_EDGE('',*,*,#1855,.T.);
#1864 = ORIENTED_EDGE('',*,*,#1865,.F.);
#1865 = EDGE_CURVE('',#1856,#1856,#1866,.T.);
#1866 = CIRCLE('',#1867,0.75);
#1867 = AXIS2_PLACEMENT_3D('',#1868,#1869,#1870);
#1868 = CARTESIAN_POINT('',(11.75,-9.999999345502E-02,1.29));
#1869 = DIRECTION('',(0.,1.,-2.22044604925E-16));
#1870 = DIRECTION('',(1.,0.,0.));
#1871 = CYLINDRICAL_SURFACE('',#1872,0.75);
#1872 = AXIS2_PLACEMENT_3D('',#1873,#1874,#1875);
#1873 = CARTESIAN_POINT('',(11.75,2.864375403533E-16,1.29));
#1874 = DIRECTION('',(0.,-1.,2.22044604925E-16));
#1875 = DIRECTION('',(1.,0.,0.));
#1876 = ADVANCED_FACE('',(#1877),#1896,.F.);
#1877 = FACE_BOUND('',#1878,.T.);
#1878 = EDGE_LOOP('',(#1879,#1887,#1888,#1889));
#1879 = ORIENTED_EDGE('',*,*,#1880,.F.);
#1880 = EDGE_CURVE('',#1698,#1881,#1883,.T.);
#1881 = VERTEX_POINT('',#1882);
#1882 = CARTESIAN_POINT('',(15.,-9.999999345502E-02,1.29));
#1883 = LINE('',#1884,#1885);
#1884 = CARTESIAN_POINT('',(15.,2.864375403533E-16,1.29));
#1885 = VECTOR('',#1886,1.);
#1886 = DIRECTION('',(0.,-1.,2.22044604925E-16));
#1887 = ORIENTED_EDGE('',*,*,#1697,.T.);
#1888 = ORIENTED_EDGE('',*,*,#1880,.T.);
#1889 = ORIENTED_EDGE('',*,*,#1890,.F.);
#1890 = EDGE_CURVE('',#1881,#1881,#1891,.T.);
#1891 = CIRCLE('',#1892,0.75);
#1892 = AXIS2_PLACEMENT_3D('',#1893,#1894,#1895);
#1893 = CARTESIAN_POINT('',(14.25,-9.999999345502E-02,1.29));
#1894 = DIRECTION('',(0.,1.,-2.22044604925E-16));
#1895 = DIRECTION('',(1.,0.,0.));
#1896 = CYLINDRICAL_SURFACE('',#1897,0.75);
#1897 = AXIS2_PLACEMENT_3D('',#1898,#1899,#1900);
#1898 = CARTESIAN_POINT('',(14.25,2.864375403533E-16,1.29));
#1899 = DIRECTION('',(0.,-1.,2.22044604925E-16));
#1900 = DIRECTION('',(1.,0.,0.));
#1901 = ADVANCED_FACE('',(#1902),#1921,.T.);
#1902 = FACE_BOUND('',#1903,.F.);
#1903 = EDGE_LOOP('',(#1904,#1912,#1913,#1914));
#1904 = ORIENTED_EDGE('',*,*,#1905,.F.);
#1905 = EDGE_CURVE('',#1715,#1906,#1908,.T.);
#1906 = VERTEX_POINT('',#1907);
#1907 = CARTESIAN_POINT('',(13.175,-2.25,-0.55));
#1908 = LINE('',#1909,#1910);
#1909 = CARTESIAN_POINT('',(13.25,-2.25,-0.475));
#1910 = VECTOR('',#1911,1.);
#1911 = DIRECTION('',(-0.707106781187,-0.,-0.707106781187));
#1912 = ORIENTED_EDGE('',*,*,#1722,.T.);
#1913 = ORIENTED_EDGE('',*,*,#1905,.T.);
#1914 = ORIENTED_EDGE('',*,*,#1915,.F.);
#1915 = EDGE_CURVE('',#1906,#1906,#1916,.T.);
#1916 = CIRCLE('',#1917,0.175);
#1917 = AXIS2_PLACEMENT_3D('',#1918,#1919,#1920);
#1918 = CARTESIAN_POINT('',(13.,-2.25,-0.55));
#1919 = DIRECTION('',(0.,0.,1.));
#1920 = DIRECTION('',(1.,0.,0.));
#1921 = CONICAL_SURFACE('',#1922,0.25,0.785398163397);
#1922 = AXIS2_PLACEMENT_3D('',#1923,#1924,#1925);
#1923 = CARTESIAN_POINT('',(13.,-2.25,-0.475));
#1924 = DIRECTION('',(0.,0.,1.));
#1925 = DIRECTION('',(1.,0.,0.));
#1926 = ADVANCED_FACE('',(#1927),#1930,.F.);
#1927 = FACE_BOUND('',#1928,.T.);
#1928 = EDGE_LOOP('',(#1929));
#1929 = ORIENTED_EDGE('',*,*,#1765,.T.);
#1930 = PLANE('',#1931);
#1931 = AXIS2_PLACEMENT_3D('',#1932,#1933,#1934);
#1932 = CARTESIAN_POINT('',(1.75,-9.999999345502E-02,1.29));
#1933 = DIRECTION('',(0.,-1.,2.22044604925E-16));
#1934 = DIRECTION('',(-1.,-0.,-0.));
#1935 = ADVANCED_FACE('',(#1936),#1939,.F.);
#1936 = FACE_BOUND('',#1937,.T.);
#1937 = EDGE_LOOP('',(#1938));
#1938 = ORIENTED_EDGE('',*,*,#1790,.T.);
#1939 = PLANE('',#1940);
#1940 = AXIS2_PLACEMENT_3D('',#1941,#1942,#1943);
#1941 = CARTESIAN_POINT('',(4.25,-9.999999345502E-02,1.29));
#1942 = DIRECTION('',(0.,-1.,2.22044604925E-16));
#1943 = DIRECTION('',(-1.,-0.,-0.));
#1944 = ADVANCED_FACE('',(#1945),#1948,.F.);
#1945 = FACE_BOUND('',#1946,.T.);
#1946 = EDGE_LOOP('',(#1947));
#1947 = ORIENTED_EDGE('',*,*,#1815,.T.);
#1948 = PLANE('',#1949);
#1949 = AXIS2_PLACEMENT_3D('',#1950,#1951,#1952);
#1950 = CARTESIAN_POINT('',(6.75,-9.999999345502E-02,1.29));
#1951 = DIRECTION('',(0.,-1.,2.22044604925E-16));
#1952 = DIRECTION('',(-1.,-0.,-0.));
#1953 = ADVANCED_FACE('',(#1954),#1957,.F.);
#1954 = FACE_BOUND('',#1955,.T.);
#1955 = EDGE_LOOP('',(#1956));
#1956 = ORIENTED_EDGE('',*,*,#1840,.T.);
#1957 = PLANE('',#1958);
#1958 = AXIS2_PLACEMENT_3D('',#1959,#1960,#1961);
#1959 = CARTESIAN_POINT('',(9.25,-9.999999345502E-02,1.29));
#1960 = DIRECTION('',(0.,-1.,2.22044604925E-16));
#1961 = DIRECTION('',(-1.,-0.,-0.));
#1962 = ADVANCED_FACE('',(#1963),#1966,.F.);
#1963 = FACE_BOUND('',#1964,.T.);
#1964 = EDGE_LOOP('',(#1965));
#1965 = ORIENTED_EDGE('',*,*,#1865,.T.);
#1966 = PLANE('',#1967);
#1967 = AXIS2_PLACEMENT_3D('',#1968,#1969,#1970);
#1968 = CARTESIAN_POINT('',(11.75,-9.999999345502E-02,1.29));
#1969 = DIRECTION('',(0.,-1.,2.22044604925E-16));
#1970 = DIRECTION('',(-1.,-0.,-0.));
#1971 = ADVANCED_FACE('',(#1972),#1975,.F.);
#1972 = FACE_BOUND('',#1973,.T.);
#1973 = EDGE_LOOP('',(#1974));
#1974 = ORIENTED_EDGE('',*,*,#1890,.T.);
#1975 = PLANE('',#1976);
#1976 = AXIS2_PLACEMENT_3D('',#1977,#1978,#1979);
#1977 = CARTESIAN_POINT('',(14.25,-9.999999345502E-02,1.29));
#1978 = DIRECTION('',(0.,-1.,2.22044604925E-16));
#1979 = DIRECTION('',(-1.,-0.,-0.));
#1980 = ADVANCED_FACE('',(#1981),#1984,.F.);
#1981 = FACE_BOUND('',#1982,.F.);
#1982 = EDGE_LOOP('',(#1983));
#1983 = ORIENTED_EDGE('',*,*,#1915,.T.);
#1984 = PLANE('',#1985);
#1985 = AXIS2_PLACEMENT_3D('',#1986,#1987,#1988);
#1986 = CARTESIAN_POINT('',(8.,-2.25,-0.55));
#1987 = DIRECTION('',(0.,0.,1.));
#1988 = DIRECTION('',(1.,0.,0.));
#1989 = ( GEOMETRIC_REPRESENTATION_CONTEXT(3) 
GLOBAL_UNCERTAINTY_ASSIGNED_CONTEXT((#1993)) 
GLOBAL_UNIT_ASSIGNED_CONTEXT((#1990,#1991,#1992)) REPRESENTATION_CONTEXT
('Context #1','3D Context with UNIT and UNCERTAINTY') );
#1990 = ( LENGTH_UNIT() NAMED_UNIT(*) SI_UNIT(.MILLI.,.METRE.) );
#1991 = ( NAMED_UNIT(*) PLANE_ANGLE_UNIT() SI_UNIT($,.RADIAN.) );
#1992 = ( NAMED_UNIT(*) SI_UNIT($,.STERADIAN.) SOLID_ANGLE_UNIT() );
#1993 = UNCERTAINTY_MEASURE_WITH_UNIT(LENGTH_MEASURE(1.E-07),#1990,
  'distance_accuracy_value','confusion accuracy');
#1994 = CONTEXT_DEPENDENT_SHAPE_REPRESENTATION(#1995,#1997);
#1995 = ( REPRESENTATION_RELATIONSHIP('','',#1296,#10) 
REPRESENTATION_RELATIONSHIP_WITH_TRANSFORMATION(#1996) 
SHAPE_REPRESENTATION_RELATIONSHIP() );
#1996 = ITEM_DEFINED_TRANSFORMATION('','',#11,#23);
#1997 = PRODUCT_DEFINITION_SHAPE('Placement','Placement of an item',
  #1998);
#1998 = NEXT_ASSEMBLY_USAGE_OCCURRENCE('3','Body','',#5,#1291,$);
#1999 = PRODUCT_RELATED_PRODUCT_CATEGORY('part',$,(#1293));
#2000 = MECHANICAL_DESIGN_GEOMETRIC_PRESENTATION_REPRESENTATION('',(
    #2001),#1989);
#2001 = STYLED_ITEM('color',(#2002),#1297);
#2002 = PRESENTATION_STYLE_ASSIGNMENT((#2003,#2009));
#2003 = SURFACE_STYLE_USAGE(.BOTH.,#2004);
#2004 = SURFACE_SIDE_STYLE('',(#2005));
#2005 = SURFACE_STYLE_FILL_AREA(#2006);
#2006 = FILL_AREA_STYLE('',(#2007));
#2007 = FILL_AREA_STYLE_COLOUR('',#2008);
#2008 = COLOUR_RGB('',8.235294228292E-02,8.235294228292E-02,
  8.235294228292E-02);
#2009 = CURVE_STYLE('',#2010,POSITIVE_LENGTH_MEASURE(0.1),#2011);
#2010 = DRAUGHTING_PRE_DEFINED_CURVE_FONT('continuous');
#2011 = COLOUR_RGB('',9.803921802644E-02,9.803921802644E-02,
  9.803921802644E-02);
#2012 = MECHANICAL_DESIGN_GEOMETRIC_PRESENTATION_REPRESENTATION('',(
    #2013,#2023,#2032,#2041,#2050,#2059),#1278);
#2013 = STYLED_ITEM('color',(#2014),#960);
#2014 = PRESENTATION_STYLE_ASSIGNMENT((#2015,#2021));
#2015 = SURFACE_STYLE_USAGE(.BOTH.,#2016);
#2016 = SURFACE_SIDE_STYLE('',(#2017));
#2017 = SURFACE_STYLE_FILL_AREA(#2018);
#2018 = FILL_AREA_STYLE('',(#2019));
#2019 = FILL_AREA_STYLE_COLOUR('',#2020);
#2020 = COLOUR_RGB('',0.949020030763,0.796078027929,3.921569927596E-02);
#2021 = CURVE_STYLE('',#2022,POSITIVE_LENGTH_MEASURE(0.1),#2011);
#2022 = DRAUGHTING_PRE_DEFINED_CURVE_FONT('continuous');
#2023 = STYLED_ITEM('color',(#2024),#1013);
#2024 = PRESENTATION_STYLE_ASSIGNMENT((#2025,#2030));
#2025 = SURFACE_STYLE_USAGE(.BOTH.,#2026);
#2026 = SURFACE_SIDE_STYLE('',(#2027));
#2027 = SURFACE_STYLE_FILL_AREA(#2028);
#2028 = FILL_AREA_STYLE('',(#2029));
#2029 = FILL_AREA_STYLE_COLOUR('',#2020);
#2030 = CURVE_STYLE('',#2031,POSITIVE_LENGTH_MEASURE(0.1),#2011);
#2031 = DRAUGHTING_PRE_DEFINED_CURVE_FONT('continuous');
#2032 = STYLED_ITEM('color',(#2033),#1066);
#2033 = PRESENTATION_STYLE_ASSIGNMENT((#2034,#2039));
#2034 = SURFACE_STYLE_USAGE(.BOTH.,#2035);
#2035 = SURFACE_SIDE_STYLE('',(#2036));
#2036 = SURFACE_STYLE_FILL_AREA(#2037);
#2037 = FILL_AREA_STYLE('',(#2038));
#2038 = FILL_AREA_STYLE_COLOUR('',#2020);
#2039 = CURVE_STYLE('',#2040,POSITIVE_LENGTH_MEASURE(0.1),#2011);
#2040 = DRAUGHTING_PRE_DEFINED_CURVE_FONT('continuous');
#2041 = STYLED_ITEM('color',(#2042),#1119);
#2042 = PRESENTATION_STYLE_ASSIGNMENT((#2043,#2048));
#2043 = SURFACE_STYLE_USAGE(.BOTH.,#2044);
#2044 = SURFACE_SIDE_STYLE('',(#2045));
#2045 = SURFACE_STYLE_FILL_AREA(#2046);
#2046 = FILL_AREA_STYLE('',(#2047));
#2047 = FILL_AREA_STYLE_COLOUR('',#2020);
#2048 = CURVE_STYLE('',#2049,POSITIVE_LENGTH_MEASURE(0.1),#2011);
#2049 = DRAUGHTING_PRE_DEFINED_CURVE_FONT('continuous');
#2050 = STYLED_ITEM('color',(#2051),#1172);
#2051 = PRESENTATION_STYLE_ASSIGNMENT((#2052,#2057));
#2052 = SURFACE_STYLE_USAGE(.BOTH.,#2053);
#2053 = SURFACE_SIDE_STYLE('',(#2054));
#2054 = SURFACE_STYLE_FILL_AREA(#2055);
#2055 = FILL_AREA_STYLE('',(#2056));
#2056 = FILL_AREA_STYLE_COLOUR('',#2020);
#2057 = CURVE_STYLE('',#2058,POSITIVE_LENGTH_MEASURE(0.1),#2011);
#2058 = DRAUGHTING_PRE_DEFINED_CURVE_FONT('continuous');
#2059 = STYLED_ITEM('color',(#2060),#1225);
#2060 = PRESENTATION_STYLE_ASSIGNMENT((#2061,#2066));
#2061 = SURFACE_STYLE_USAGE(.BOTH.,#2062);
#2062 = SURFACE_SIDE_STYLE('',(#2063));
#2063 = SURFACE_STYLE_FILL_AREA(#2064);
#2064 = FILL_AREA_STYLE('',(#2065));
#2065 = FILL_AREA_STYLE_COLOUR('',#2020);
#2066 = CURVE_STYLE('',#2067,POSITIVE_LENGTH_MEASURE(0.1),#2011);
#2067 = DRAUGHTING_PRE_DEFINED_CURVE_FONT('continuous');
#2068 = MECHANICAL_DESIGN_GEOMETRIC_PRESENTATION_REPRESENTATION('',(
    #2069,#2079,#2088,#2097,#2106,#2115),#941);
#2069 = STYLED_ITEM('color',(#2070),#41);
#2070 = PRESENTATION_STYLE_ASSIGNMENT((#2071,#2077));
#2071 = SURFACE_STYLE_USAGE(.BOTH.,#2072);
#2072 = SURFACE_SIDE_STYLE('',(#2073));
#2073 = SURFACE_STYLE_FILL_AREA(#2074);
#2074 = FILL_AREA_STYLE('',(#2075));
#2075 = FILL_AREA_STYLE_COLOUR('',#2076);
#2076 = COLOUR_RGB('',0.949020030763,0.729412028209,0.);
#2077 = CURVE_STYLE('',#2078,POSITIVE_LENGTH_MEASURE(0.1),#2011);
#2078 = DRAUGHTING_PRE_DEFINED_CURVE_FONT('continuous');
#2079 = STYLED_ITEM('color',(#2080),#191);
#2080 = PRESENTATION_STYLE_ASSIGNMENT((#2081,#2086));
#2081 = SURFACE_STYLE_USAGE(.BOTH.,#2082);
#2082 = SURFACE_SIDE_STYLE('',(#2083));
#2083 = SURFACE_STYLE_FILL_AREA(#2084);
#2084 = FILL_AREA_STYLE('',(#2085));
#2085 = FILL_AREA_STYLE_COLOUR('',#2076);
#2086 = CURVE_STYLE('',#2087,POSITIVE_LENGTH_MEASURE(0.1),#2011);
#2087 = DRAUGHTING_PRE_DEFINED_CURVE_FONT('continuous');
#2088 = STYLED_ITEM('color',(#2089),#341);
#2089 = PRESENTATION_STYLE_ASSIGNMENT((#2090,#2095));
#2090 = SURFACE_STYLE_USAGE(.BOTH.,#2091);
#2091 = SURFACE_SIDE_STYLE('',(#2092));
#2092 = SURFACE_STYLE_FILL_AREA(#2093);
#2093 = FILL_AREA_STYLE('',(#2094));
#2094 = FILL_AREA_STYLE_COLOUR('',#2076);
#2095 = CURVE_STYLE('',#2096,POSITIVE_LENGTH_MEASURE(0.1),#2011);
#2096 = DRAUGHTING_PRE_DEFINED_CURVE_FONT('continuous');
#2097 = STYLED_ITEM('color',(#2098),#491);
#2098 = PRESENTATION_STYLE_ASSIGNMENT((#2099,#2104));
#2099 = SURFACE_STYLE_USAGE(.BOTH.,#2100);
#2100 = SURFACE_SIDE_STYLE('',(#2101));
#2101 = SURFACE_STYLE_FILL_AREA(#2102);
#2102 = FILL_AREA_STYLE('',(#2103));
#2103 = FILL_AREA_STYLE_COLOUR('',#2076);
#2104 = CURVE_STYLE('',#2105,POSITIVE_LENGTH_MEASURE(0.1),#2011);
#2105 = DRAUGHTING_PRE_DEFINED_CURVE_FONT('continuous');
#2106 = STYLED_ITEM('color',(#2107),#641);
#2107 = PRESENTATION_STYLE_ASSIGNMENT((#2108,#2113));
#2108 = SURFACE_STYLE_USAGE(.BOTH.,#2109);
#2109 = SURFACE_SIDE_STYLE('',(#2110));
#2110 = SURFACE_STYLE_FILL_AREA(#2111);
#2111 = FILL_AREA_STYLE('',(#2112));
#2112 = FILL_AREA_STYLE_COLOUR('',#2076);
#2113 = CURVE_STYLE('',#2114,POSITIVE_LENGTH_MEASURE(0.1),#2011);
#2114 = DRAUGHTING_PRE_DEFINED_CURVE_FONT('continuous');
#2115 = STYLED_ITEM('color',(#2116),#791);
#2116 = PRESENTATION_STYLE_ASSIGNMENT((#2117,#2122));
#2117 = SURFACE_STYLE_USAGE(.BOTH.,#2118);
#2118 = SURFACE_SIDE_STYLE('',(#2119));
#2119 = SURFACE_STYLE_FILL_AREA(#2120);
#2120 = FILL_AREA_STYLE('',(#2121));
#2121 = FILL_AREA_STYLE_COLOUR('',#2076);
#2122 = CURVE_STYLE('',#2123,POSITIVE_LENGTH_MEASURE(0.1),#2011);
#2123 = DRAUGHTING_PRE_DEFINED_CURVE_FONT('continuous');
ENDSEC;
END-ISO-10303-21;
