ISO-10303-21;
HEADER;
FILE_DESCRIPTION(('FreeCAD Model'),'2;1');
FILE_NAME('Open CASCADE Shape Model','2026-08-30T16:33:48',(''),(''),
  'Open CASCADE STEP processor 7.9','FreeCAD','Unknown');
FILE_SCHEMA(('AUTOMOTIVE_DESIGN { 1 0 10303 214 1 1 1 1 }'));
ENDSEC;
DATA;
#1 = APPLICATION_PROTOCOL_DEFINITION('international standard',
  'automotive_design',2000,#2);
#2 = APPLICATION_CONTEXT(
  'core data for automotive mechanical design processes');
#3 = SHAPE_DEFINITION_REPRESENTATION(#4,#10);
#4 = PRODUCT_DEFINITION_SHAPE('','',#5);
#5 = PRODUCT_DEFINITION('design','',#6,#9);
#6 = PRODUCT_DEFINITION_FORMATION('','',#7);
#7 = PRODUCT('PG_2_5_6P_5_5H_SM_RA','PG_2_5_6P_5_5H_SM_RA','',(#8));
#8 = PRODUCT_CONTEXT('',#2,'mechanical');
#9 = PRODUCT_DEFINITION_CONTEXT('part definition',#2,'design');
#10 = SHAPE_REPRESENTATION('',(#11,#15,#19,#23),#27);
#11 = AXIS2_PLACEMENT_3D('',#12,#13,#14);
#12 = CARTESIAN_POINT('',(0.,0.,0.));
#13 = DIRECTION('',(0.,0.,1.));
#14 = DIRECTION('',(1.,0.,-0.));
#15 = AXIS2_PLACEMENT_3D('',#16,#17,#18);
#16 = CARTESIAN_POINT('',(0.,0.,0.));
#17 = DIRECTION('',(0.,0.,1.));
#18 = DIRECTION('',(1.,0.,0.));
#19 = AXIS2_PLACEMENT_3D('',#20,#21,#22);
#20 = CARTESIAN_POINT('',(0.,0.,0.));
#21 = DIRECTION('',(0.,0.,1.));
#22 = DIRECTION('',(1.,0.,0.));
#23 = AXIS2_PLACEMENT_3D('',#24,#25,#26);
#24 = CARTESIAN_POINT('',(0.,0.,0.));
#25 = DIRECTION('',(0.,0.,1.));
#26 = DIRECTION('',(1.,0.,0.));
#27 = ( GEOMETRIC_REPRESENTATION_CONTEXT(3) 
GLOBAL_UNCERTAINTY_ASSIGNED_CONTEXT((#31)) GLOBAL_UNIT_ASSIGNED_CONTEXT(
(#28,#29,#30)) REPRESENTATION_CONTEXT('Context #1',
  '3D Context with UNIT and UNCERTAINTY') );
#28 = ( LENGTH_UNIT() NAMED_UNIT(*) SI_UNIT(.MILLI.,.METRE.) );
#29 = ( NAMED_UNIT(*) PLANE_ANGLE_UNIT() SI_UNIT($,.RADIAN.) );
#30 = ( NAMED_UNIT(*) SI_UNIT($,.STERADIAN.) SOLID_ANGLE_UNIT() );
#31 = UNCERTAINTY_MEASURE_WITH_UNIT(LENGTH_MEASURE(1.E-07),#28,
  'distance_accuracy_value','confusion accuracy');
#32 = PRODUCT_RELATED_PRODUCT_CATEGORY('part',$,(#7));
#33 = SHAPE_DEFINITION_REPRESENTATION(#34,#40);
#34 = PRODUCT_DEFINITION_SHAPE('','',#35);
#35 = PRODUCT_DEFINITION('design','',#36,#39);
#36 = PRODUCT_DEFINITION_FORMATION('','',#37);
#37 = PRODUCT('Body004','Body004','',(#38));
#38 = PRODUCT_CONTEXT('',#2,'mechanical');
#39 = PRODUCT_DEFINITION_CONTEXT('part definition',#2,'design');
#40 = SHAPE_REPRESENTATION('',(#11,#41,#191,#341,#491,#641,#791),#941);
#41 = MANIFOLD_SOLID_BREP('',#42);
#42 = CLOSED_SHELL('',(#43,#83,#114,#145,#167,#179));
#43 = ADVANCED_FACE('',(#44),#78,.T.);
#44 = FACE_BOUND('',#45,.T.);
#45 = EDGE_LOOP('',(#46,#56,#64,#72));
#46 = ORIENTED_EDGE('',*,*,#47,.T.);
#47 = EDGE_CURVE('',#48,#50,#52,.T.);
#48 = VERTEX_POINT('',#49);
#49 = CARTESIAN_POINT('',(12.5,-3.5,0.));
#50 = VERTEX_POINT('',#51);
#51 = CARTESIAN_POINT('',(12.5,-3.5,-0.1));
#52 = LINE('',#53,#54);
#53 = CARTESIAN_POINT('',(12.5,-3.5,0.));
#54 = VECTOR('',#55,1.);
#55 = DIRECTION('',(-0.,-0.,-1.));
#56 = ORIENTED_EDGE('',*,*,#57,.T.);
#57 = EDGE_CURVE('',#50,#58,#60,.T.);
#58 = VERTEX_POINT('',#59);
#59 = CARTESIAN_POINT('',(12.5,-1.2,-0.1));
#60 = LINE('',#61,#62);
#61 = CARTESIAN_POINT('',(12.5,-3.5,-0.1));
#62 = VECTOR('',#63,1.);
#63 = DIRECTION('',(0.,1.,0.));
#64 = ORIENTED_EDGE('',*,*,#65,.F.);
#65 = EDGE_CURVE('',#66,#58,#68,.T.);
#66 = VERTEX_POINT('',#67);
#67 = CARTESIAN_POINT('',(12.5,-1.2,0.));
#68 = LINE('',#69,#70);
#69 = CARTESIAN_POINT('',(12.5,-1.2,0.));
#70 = VECTOR('',#71,1.);
#71 = DIRECTION('',(-0.,-0.,-1.));
#72 = ORIENTED_EDGE('',*,*,#73,.F.);
#73 = EDGE_CURVE('',#48,#66,#74,.T.);
#74 = LINE('',#75,#76);
#75 = CARTESIAN_POINT('',(12.5,-3.5,0.));
#76 = VECTOR('',#77,1.);
#77 = DIRECTION('',(0.,1.,0.));
#78 = PLANE('',#79);
#79 = AXIS2_PLACEMENT_3D('',#80,#81,#82);
#80 = CARTESIAN_POINT('',(12.5,-3.5,0.));
#81 = DIRECTION('',(1.,0.,0.));
#82 = DIRECTION('',(-0.,1.,0.));
#83 = ADVANCED_FACE('',(#84),#109,.T.);
#84 = FACE_BOUND('',#85,.T.);
#85 = EDGE_LOOP('',(#86,#87,#95,#103));
#86 = ORIENTED_EDGE('',*,*,#65,.T.);
#87 = ORIENTED_EDGE('',*,*,#88,.T.);
#88 = EDGE_CURVE('',#58,#89,#91,.T.);
#89 = VERTEX_POINT('',#90);
#90 = CARTESIAN_POINT('',(11.,-1.2,-0.1));
#91 = LINE('',#92,#93);
#92 = CARTESIAN_POINT('',(12.5,-1.2,-0.1));
#93 = VECTOR('',#94,1.);
#94 = DIRECTION('',(-1.,0.,0.));
#95 = ORIENTED_EDGE('',*,*,#96,.F.);
#96 = EDGE_CURVE('',#97,#89,#99,.T.);
#97 = VERTEX_POINT('',#98);
#98 = CARTESIAN_POINT('',(11.,-1.2,0.));
#99 = LINE('',#100,#101);
#100 = CARTESIAN_POINT('',(11.,-1.2,0.));
#101 = VECTOR('',#102,1.);
#102 = DIRECTION('',(-0.,-0.,-1.));
#103 = ORIENTED_EDGE('',*,*,#104,.F.);
#104 = EDGE_CURVE('',#66,#97,#105,.T.);
#105 = LINE('',#106,#107);
#106 = CARTESIAN_POINT('',(12.5,-1.2,0.));
#107 = VECTOR('',#108,1.);
#108 = DIRECTION('',(-1.,0.,0.));
#109 = PLANE('',#110);
#110 = AXIS2_PLACEMENT_3D('',#111,#112,#113);
#111 = CARTESIAN_POINT('',(12.5,-1.2,0.));
#112 = DIRECTION('',(0.,1.,0.));
#113 = DIRECTION('',(-1.,0.,0.));
#114 = ADVANCED_FACE('',(#115),#140,.T.);
#115 = FACE_BOUND('',#116,.T.);
#116 = EDGE_LOOP('',(#117,#118,#126,#134));
#117 = ORIENTED_EDGE('',*,*,#96,.T.);
#118 = ORIENTED_EDGE('',*,*,#119,.T.);
#119 = EDGE_CURVE('',#89,#120,#122,.T.);
#120 = VERTEX_POINT('',#121);
#121 = CARTESIAN_POINT('',(11.,-3.5,-0.1));
#122 = LINE('',#123,#124);
#123 = CARTESIAN_POINT('',(11.,-1.2,-0.1));
#124 = VECTOR('',#125,1.);
#125 = DIRECTION('',(0.,-1.,0.));
#126 = ORIENTED_EDGE('',*,*,#127,.F.);
#127 = EDGE_CURVE('',#128,#120,#130,.T.);
#128 = VERTEX_POINT('',#129);
#129 = CARTESIAN_POINT('',(11.,-3.5,0.));
#130 = LINE('',#131,#132);
#131 = CARTESIAN_POINT('',(11.,-3.5,0.));
#132 = VECTOR('',#133,1.);
#133 = DIRECTION('',(-0.,-0.,-1.));
#134 = ORIENTED_EDGE('',*,*,#135,.F.);
#135 = EDGE_CURVE('',#97,#128,#136,.T.);
#136 = LINE('',#137,#138);
#137 = CARTESIAN_POINT('',(11.,-1.2,0.));
#138 = VECTOR('',#139,1.);
#139 = DIRECTION('',(0.,-1.,0.));
#140 = PLANE('',#141);
#141 = AXIS2_PLACEMENT_3D('',#142,#143,#144);
#142 = CARTESIAN_POINT('',(11.,-1.2,0.));
#143 = DIRECTION('',(-1.,0.,0.));
#144 = DIRECTION('',(0.,-1.,0.));
#145 = ADVANCED_FACE('',(#146),#162,.T.);
#146 = FACE_BOUND('',#147,.T.);
#147 = EDGE_LOOP('',(#148,#149,#155,#156));
#148 = ORIENTED_EDGE('',*,*,#127,.T.);
#149 = ORIENTED_EDGE('',*,*,#150,.T.);
#150 = EDGE_CURVE('',#120,#50,#151,.T.);
#151 = LINE('',#152,#153);
#152 = CARTESIAN_POINT('',(11.,-3.5,-0.1));
#153 = VECTOR('',#154,1.);
#154 = DIRECTION('',(1.,0.,0.));
#155 = ORIENTED_EDGE('',*,*,#47,.F.);
#156 = ORIENTED_EDGE('',*,*,#157,.F.);
#157 = EDGE_CURVE('',#128,#48,#158,.T.);
#158 = LINE('',#159,#160);
#159 = CARTESIAN_POINT('',(11.,-3.5,0.));
#160 = VECTOR('',#161,1.);
#161 = DIRECTION('',(1.,0.,0.));
#162 = PLANE('',#163);
#163 = AXIS2_PLACEMENT_3D('',#164,#165,#166);
#164 = CARTESIAN_POINT('',(11.,-3.5,0.));
#165 = DIRECTION('',(0.,-1.,0.));
#166 = DIRECTION('',(1.,0.,0.));
#167 = ADVANCED_FACE('',(#168),#174,.T.);
#168 = FACE_BOUND('',#169,.T.);
#169 = EDGE_LOOP('',(#170,#171,#172,#173));
#170 = ORIENTED_EDGE('',*,*,#73,.T.);
#171 = ORIENTED_EDGE('',*,*,#104,.T.);
#172 = ORIENTED_EDGE('',*,*,#135,.T.);
#173 = ORIENTED_EDGE('',*,*,#157,.T.);
#174 = PLANE('',#175);
#175 = AXIS2_PLACEMENT_3D('',#176,#177,#178);
#176 = CARTESIAN_POINT('',(8.,-2.35,0.));
#177 = DIRECTION('',(0.,0.,1.));
#178 = DIRECTION('',(1.,0.,0.));
#179 = ADVANCED_FACE('',(#180),#186,.F.);
#180 = FACE_BOUND('',#181,.F.);
#181 = EDGE_LOOP('',(#182,#183,#184,#185));
#182 = ORIENTED_EDGE('',*,*,#57,.T.);
#183 = ORIENTED_EDGE('',*,*,#88,.T.);
#184 = ORIENTED_EDGE('',*,*,#119,.T.);
#185 = ORIENTED_EDGE('',*,*,#150,.T.);
#186 = PLANE('',#187);
#187 = AXIS2_PLACEMENT_3D('',#188,#189,#190);
#188 = CARTESIAN_POINT('',(8.,-2.35,-0.1));
#189 = DIRECTION('',(0.,0.,1.));
#190 = DIRECTION('',(1.,0.,0.));
#191 = MANIFOLD_SOLID_BREP('',#192);
#192 = CLOSED_SHELL('',(#193,#233,#264,#295,#317,#329));
#193 = ADVANCED_FACE('',(#194),#228,.T.);
#194 = FACE_BOUND('',#195,.T.);
#195 = EDGE_LOOP('',(#196,#206,#214,#222));
#196 = ORIENTED_EDGE('',*,*,#197,.T.);
#197 = EDGE_CURVE('',#198,#200,#202,.T.);
#198 = VERTEX_POINT('',#199);
#199 = CARTESIAN_POINT('',(10.,-3.5,0.));
#200 = VERTEX_POINT('',#201);
#201 = CARTESIAN_POINT('',(10.,-3.5,-0.1));
#202 = LINE('',#203,#204);
#203 = CARTESIAN_POINT('',(10.,-3.5,0.));
#204 = VECTOR('',#205,1.);
#205 = DIRECTION('',(-0.,-0.,-1.));
#206 = ORIENTED_EDGE('',*,*,#207,.T.);
#207 = EDGE_CURVE('',#200,#208,#210,.T.);
#208 = VERTEX_POINT('',#209);
#209 = CARTESIAN_POINT('',(10.,-1.2,-0.1));
#210 = LINE('',#211,#212);
#211 = CARTESIAN_POINT('',(10.,-3.5,-0.1));
#212 = VECTOR('',#213,1.);
#213 = DIRECTION('',(0.,1.,0.));
#214 = ORIENTED_EDGE('',*,*,#215,.F.);
#215 = EDGE_CURVE('',#216,#208,#218,.T.);
#216 = VERTEX_POINT('',#217);
#217 = CARTESIAN_POINT('',(10.,-1.2,0.));
#218 = LINE('',#219,#220);
#219 = CARTESIAN_POINT('',(10.,-1.2,0.));
#220 = VECTOR('',#221,1.);
#221 = DIRECTION('',(-0.,-0.,-1.));
#222 = ORIENTED_EDGE('',*,*,#223,.F.);
#223 = EDGE_CURVE('',#198,#216,#224,.T.);
#224 = LINE('',#225,#226);
#225 = CARTESIAN_POINT('',(10.,-3.5,0.));
#226 = VECTOR('',#227,1.);
#227 = DIRECTION('',(0.,1.,0.));
#228 = PLANE('',#229);
#229 = AXIS2_PLACEMENT_3D('',#230,#231,#232);
#230 = CARTESIAN_POINT('',(10.,-3.5,0.));
#231 = DIRECTION('',(1.,0.,0.));
#232 = DIRECTION('',(-0.,1.,0.));
#233 = ADVANCED_FACE('',(#234),#259,.T.);
#234 = FACE_BOUND('',#235,.T.);
#235 = EDGE_LOOP('',(#236,#237,#245,#253));
#236 = ORIENTED_EDGE('',*,*,#215,.T.);
#237 = ORIENTED_EDGE('',*,*,#238,.T.);
#238 = EDGE_CURVE('',#208,#239,#241,.T.);
#239 = VERTEX_POINT('',#240);
#240 = CARTESIAN_POINT('',(8.5,-1.2,-0.1));
#241 = LINE('',#242,#243);
#242 = CARTESIAN_POINT('',(10.,-1.2,-0.1));
#243 = VECTOR('',#244,1.);
#244 = DIRECTION('',(-1.,0.,0.));
#245 = ORIENTED_EDGE('',*,*,#246,.F.);
#246 = EDGE_CURVE('',#247,#239,#249,.T.);
#247 = VERTEX_POINT('',#248);
#248 = CARTESIAN_POINT('',(8.5,-1.2,0.));
#249 = LINE('',#250,#251);
#250 = CARTESIAN_POINT('',(8.5,-1.2,0.));
#251 = VECTOR('',#252,1.);
#252 = DIRECTION('',(-0.,-0.,-1.));
#253 = ORIENTED_EDGE('',*,*,#254,.F.);
#254 = EDGE_CURVE('',#216,#247,#255,.T.);
#255 = LINE('',#256,#257);
#256 = CARTESIAN_POINT('',(10.,-1.2,0.));
#257 = VECTOR('',#258,1.);
#258 = DIRECTION('',(-1.,0.,0.));
#259 = PLANE('',#260);
#260 = AXIS2_PLACEMENT_3D('',#261,#262,#263);
#261 = CARTESIAN_POINT('',(10.,-1.2,0.));
#262 = DIRECTION('',(0.,1.,0.));
#263 = DIRECTION('',(-1.,0.,0.));
#264 = ADVANCED_FACE('',(#265),#290,.T.);
#265 = FACE_BOUND('',#266,.T.);
#266 = EDGE_LOOP('',(#267,#268,#276,#284));
#267 = ORIENTED_EDGE('',*,*,#246,.T.);
#268 = ORIENTED_EDGE('',*,*,#269,.T.);
#269 = EDGE_CURVE('',#239,#270,#272,.T.);
#270 = VERTEX_POINT('',#271);
#271 = CARTESIAN_POINT('',(8.5,-3.5,-0.1));
#272 = LINE('',#273,#274);
#273 = CARTESIAN_POINT('',(8.5,-1.2,-0.1));
#274 = VECTOR('',#275,1.);
#275 = DIRECTION('',(0.,-1.,0.));
#276 = ORIENTED_EDGE('',*,*,#277,.F.);
#277 = EDGE_CURVE('',#278,#270,#280,.T.);
#278 = VERTEX_POINT('',#279);
#279 = CARTESIAN_POINT('',(8.5,-3.5,0.));
#280 = LINE('',#281,#282);
#281 = CARTESIAN_POINT('',(8.5,-3.5,0.));
#282 = VECTOR('',#283,1.);
#283 = DIRECTION('',(-0.,-0.,-1.));
#284 = ORIENTED_EDGE('',*,*,#285,.F.);
#285 = EDGE_CURVE('',#247,#278,#286,.T.);
#286 = LINE('',#287,#288);
#287 = CARTESIAN_POINT('',(8.5,-1.2,0.));
#288 = VECTOR('',#289,1.);
#289 = DIRECTION('',(0.,-1.,0.));
#290 = PLANE('',#291);
#291 = AXIS2_PLACEMENT_3D('',#292,#293,#294);
#292 = CARTESIAN_POINT('',(8.5,-1.2,0.));
#293 = DIRECTION('',(-1.,0.,0.));
#294 = DIRECTION('',(0.,-1.,0.));
#295 = ADVANCED_FACE('',(#296),#312,.T.);
#296 = FACE_BOUND('',#297,.T.);
#297 = EDGE_LOOP('',(#298,#299,#305,#306));
#298 = ORIENTED_EDGE('',*,*,#277,.T.);
#299 = ORIENTED_EDGE('',*,*,#300,.T.);
#300 = EDGE_CURVE('',#270,#200,#301,.T.);
#301 = LINE('',#302,#303);
#302 = CARTESIAN_POINT('',(8.5,-3.5,-0.1));
#303 = VECTOR('',#304,1.);
#304 = DIRECTION('',(1.,0.,0.));
#305 = ORIENTED_EDGE('',*,*,#197,.F.);
#306 = ORIENTED_EDGE('',*,*,#307,.F.);
#307 = EDGE_CURVE('',#278,#198,#308,.T.);
#308 = LINE('',#309,#310);
#309 = CARTESIAN_POINT('',(8.5,-3.5,0.));
#310 = VECTOR('',#311,1.);
#311 = DIRECTION('',(1.,0.,0.));
#312 = PLANE('',#313);
#313 = AXIS2_PLACEMENT_3D('',#314,#315,#316);
#314 = CARTESIAN_POINT('',(8.5,-3.5,0.));
#315 = DIRECTION('',(0.,-1.,0.));
#316 = DIRECTION('',(1.,0.,0.));
#317 = ADVANCED_FACE('',(#318),#324,.T.);
#318 = FACE_BOUND('',#319,.T.);
#319 = EDGE_LOOP('',(#320,#321,#322,#323));
#320 = ORIENTED_EDGE('',*,*,#223,.T.);
#321 = ORIENTED_EDGE('',*,*,#254,.T.);
#322 = ORIENTED_EDGE('',*,*,#285,.T.);
#323 = ORIENTED_EDGE('',*,*,#307,.T.);
#324 = PLANE('',#325);
#325 = AXIS2_PLACEMENT_3D('',#326,#327,#328);
#326 = CARTESIAN_POINT('',(8.,-2.35,0.));
#327 = DIRECTION('',(0.,0.,1.));
#328 = DIRECTION('',(1.,0.,0.));
#329 = ADVANCED_FACE('',(#330),#336,.F.);
#330 = FACE_BOUND('',#331,.F.);
#331 = EDGE_LOOP('',(#332,#333,#334,#335));
#332 = ORIENTED_EDGE('',*,*,#207,.T.);
#333 = ORIENTED_EDGE('',*,*,#238,.T.);
#334 = ORIENTED_EDGE('',*,*,#269,.T.);
#335 = ORIENTED_EDGE('',*,*,#300,.T.);
#336 = PLANE('',#337);
#337 = AXIS2_PLACEMENT_3D('',#338,#339,#340);
#338 = CARTESIAN_POINT('',(8.,-2.35,-0.1));
#339 = DIRECTION('',(0.,0.,1.));
#340 = DIRECTION('',(1.,0.,0.));
#341 = MANIFOLD_SOLID_BREP('',#342);
#342 = CLOSED_SHELL('',(#343,#383,#414,#445,#467,#479));
#343 = ADVANCED_FACE('',(#344),#378,.T.);
#344 = FACE_BOUND('',#345,.T.);
#345 = EDGE_LOOP('',(#346,#356,#364,#372));
#346 = ORIENTED_EDGE('',*,*,#347,.T.);
#347 = EDGE_CURVE('',#348,#350,#352,.T.);
#348 = VERTEX_POINT('',#349);
#349 = CARTESIAN_POINT('',(7.5,-3.5,0.));
#350 = VERTEX_POINT('',#351);
#351 = CARTESIAN_POINT('',(7.5,-3.5,-0.1));
#352 = LINE('',#353,#354);
#353 = CARTESIAN_POINT('',(7.5,-3.5,0.));
#354 = VECTOR('',#355,1.);
#355 = DIRECTION('',(-0.,-0.,-1.));
#356 = ORIENTED_EDGE('',*,*,#357,.T.);
#357 = EDGE_CURVE('',#350,#358,#360,.T.);
#358 = VERTEX_POINT('',#359);
#359 = CARTESIAN_POINT('',(7.5,-1.2,-0.1));
#360 = LINE('',#361,#362);
#361 = CARTESIAN_POINT('',(7.5,-3.5,-0.1));
#362 = VECTOR('',#363,1.);
#363 = DIRECTION('',(0.,1.,0.));
#364 = ORIENTED_EDGE('',*,*,#365,.F.);
#365 = EDGE_CURVE('',#366,#358,#368,.T.);
#366 = VERTEX_POINT('',#367);
#367 = CARTESIAN_POINT('',(7.5,-1.2,0.));
#368 = LINE('',#369,#370);
#369 = CARTESIAN_POINT('',(7.5,-1.2,0.));
#370 = VECTOR('',#371,1.);
#371 = DIRECTION('',(-0.,-0.,-1.));
#372 = ORIENTED_EDGE('',*,*,#373,.F.);
#373 = EDGE_CURVE('',#348,#366,#374,.T.);
#374 = LINE('',#375,#376);
#375 = CARTESIAN_POINT('',(7.5,-3.5,0.));
#376 = VECTOR('',#377,1.);
#377 = DIRECTION('',(0.,1.,0.));
#378 = PLANE('',#379);
#379 = AXIS2_PLACEMENT_3D('',#380,#381,#382);
#380 = CARTESIAN_POINT('',(7.5,-3.5,0.));
#381 = DIRECTION('',(1.,0.,0.));
#382 = DIRECTION('',(-0.,1.,0.));
#383 = ADVANCED_FACE('',(#384),#409,.T.);
#384 = FACE_BOUND('',#385,.T.);
#385 = EDGE_LOOP('',(#386,#387,#395,#403));
#386 = ORIENTED_EDGE('',*,*,#365,.T.);
#387 = ORIENTED_EDGE('',*,*,#388,.T.);
#388 = EDGE_CURVE('',#358,#389,#391,.T.);
#389 = VERTEX_POINT('',#390);
#390 = CARTESIAN_POINT('',(6.,-1.2,-0.1));
#391 = LINE('',#392,#393);
#392 = CARTESIAN_POINT('',(7.5,-1.2,-0.1));
#393 = VECTOR('',#394,1.);
#394 = DIRECTION('',(-1.,0.,0.));
#395 = ORIENTED_EDGE('',*,*,#396,.F.);
#396 = EDGE_CURVE('',#397,#389,#399,.T.);
#397 = VERTEX_POINT('',#398);
#398 = CARTESIAN_POINT('',(6.,-1.2,0.));
#399 = LINE('',#400,#401);
#400 = CARTESIAN_POINT('',(6.,-1.2,0.));
#401 = VECTOR('',#402,1.);
#402 = DIRECTION('',(-0.,-0.,-1.));
#403 = ORIENTED_EDGE('',*,*,#404,.F.);
#404 = EDGE_CURVE('',#366,#397,#405,.T.);
#405 = LINE('',#406,#407);
#406 = CARTESIAN_POINT('',(7.5,-1.2,0.));
#407 = VECTOR('',#408,1.);
#408 = DIRECTION('',(-1.,0.,0.));
#409 = PLANE('',#410);
#410 = AXIS2_PLACEMENT_3D('',#411,#412,#413);
#411 = CARTESIAN_POINT('',(7.5,-1.2,0.));
#412 = DIRECTION('',(0.,1.,0.));
#413 = DIRECTION('',(-1.,0.,0.));
#414 = ADVANCED_FACE('',(#415),#440,.T.);
#415 = FACE_BOUND('',#416,.T.);
#416 = EDGE_LOOP('',(#417,#418,#426,#434));
#417 = ORIENTED_EDGE('',*,*,#396,.T.);
#418 = ORIENTED_EDGE('',*,*,#419,.T.);
#419 = EDGE_CURVE('',#389,#420,#422,.T.);
#420 = VERTEX_POINT('',#421);
#421 = CARTESIAN_POINT('',(6.,-3.5,-0.1));
#422 = LINE('',#423,#424);
#423 = CARTESIAN_POINT('',(6.,-1.2,-0.1));
#424 = VECTOR('',#425,1.);
#425 = DIRECTION('',(0.,-1.,0.));
#426 = ORIENTED_EDGE('',*,*,#427,.F.);
#427 = EDGE_CURVE('',#428,#420,#430,.T.);
#428 = VERTEX_POINT('',#429);
#429 = CARTESIAN_POINT('',(6.,-3.5,0.));
#430 = LINE('',#431,#432);
#431 = CARTESIAN_POINT('',(6.,-3.5,0.));
#432 = VECTOR('',#433,1.);
#433 = DIRECTION('',(-0.,-0.,-1.));
#434 = ORIENTED_EDGE('',*,*,#435,.F.);
#435 = EDGE_CURVE('',#397,#428,#436,.T.);
#436 = LINE('',#437,#438);
#437 = CARTESIAN_POINT('',(6.,-1.2,0.));
#438 = VECTOR('',#439,1.);
#439 = DIRECTION('',(0.,-1.,0.));
#440 = PLANE('',#441);
#441 = AXIS2_PLACEMENT_3D('',#442,#443,#444);
#442 = CARTESIAN_POINT('',(6.,-1.2,0.));
#443 = DIRECTION('',(-1.,0.,0.));
#444 = DIRECTION('',(0.,-1.,0.));
#445 = ADVANCED_FACE('',(#446),#462,.T.);
#446 = FACE_BOUND('',#447,.T.);
#447 = EDGE_LOOP('',(#448,#449,#455,#456));
#448 = ORIENTED_EDGE('',*,*,#427,.T.);
#449 = ORIENTED_EDGE('',*,*,#450,.T.);
#450 = EDGE_CURVE('',#420,#350,#451,.T.);
#451 = LINE('',#452,#453);
#452 = CARTESIAN_POINT('',(6.,-3.5,-0.1));
#453 = VECTOR('',#454,1.);
#454 = DIRECTION('',(1.,0.,0.));
#455 = ORIENTED_EDGE('',*,*,#347,.F.);
#456 = ORIENTED_EDGE('',*,*,#457,.F.);
#457 = EDGE_CURVE('',#428,#348,#458,.T.);
#458 = LINE('',#459,#460);
#459 = CARTESIAN_POINT('',(6.,-3.5,0.));
#460 = VECTOR('',#461,1.);
#461 = DIRECTION('',(1.,0.,0.));
#462 = PLANE('',#463);
#463 = AXIS2_PLACEMENT_3D('',#464,#465,#466);
#464 = CARTESIAN_POINT('',(6.,-3.5,0.));
#465 = DIRECTION('',(0.,-1.,0.));
#466 = DIRECTION('',(1.,0.,0.));
#467 = ADVANCED_FACE('',(#468),#474,.T.);
#468 = FACE_BOUND('',#469,.T.);
#469 = EDGE_LOOP('',(#470,#471,#472,#473));
#470 = ORIENTED_EDGE('',*,*,#373,.T.);
#471 = ORIENTED_EDGE('',*,*,#404,.T.);
#472 = ORIENTED_EDGE('',*,*,#435,.T.);
#473 = ORIENTED_EDGE('',*,*,#457,.T.);
#474 = PLANE('',#475);
#475 = AXIS2_PLACEMENT_3D('',#476,#477,#478);
#476 = CARTESIAN_POINT('',(8.,-2.35,0.));
#477 = DIRECTION('',(0.,0.,1.));
#478 = DIRECTION('',(1.,0.,0.));
#479 = ADVANCED_FACE('',(#480),#486,.F.);
#480 = FACE_BOUND('',#481,.F.);
#481 = EDGE_LOOP('',(#482,#483,#484,#485));
#482 = ORIENTED_EDGE('',*,*,#357,.T.);
#483 = ORIENTED_EDGE('',*,*,#388,.T.);
#484 = ORIENTED_EDGE('',*,*,#419,.T.);
#485 = ORIENTED_EDGE('',*,*,#450,.T.);
#486 = PLANE('',#487);
#487 = AXIS2_PLACEMENT_3D('',#488,#489,#490);
#488 = CARTESIAN_POINT('',(8.,-2.35,-0.1));
#489 = DIRECTION('',(0.,0.,1.));
#490 = DIRECTION('',(1.,0.,0.));
#491 = MANIFOLD_SOLID_BREP('',#492);
#492 = CLOSED_SHELL('',(#493,#533,#564,#595,#617,#629));
#493 = ADVANCED_FACE('',(#494),#528,.T.);
#494 = FACE_BOUND('',#495,.T.);
#495 = EDGE_LOOP('',(#496,#506,#514,#522));
#496 = ORIENTED_EDGE('',*,*,#497,.T.);
#497 = EDGE_CURVE('',#498,#500,#502,.T.);
#498 = VERTEX_POINT('',#499);
#499 = CARTESIAN_POINT('',(5.,-3.5,0.));
#500 = VERTEX_POINT('',#501);
#501 = CARTESIAN_POINT('',(5.,-3.5,-0.1));
#502 = LINE('',#503,#504);
#503 = CARTESIAN_POINT('',(5.,-3.5,0.));
#504 = VECTOR('',#505,1.);
#505 = DIRECTION('',(-0.,-0.,-1.));
#506 = ORIENTED_EDGE('',*,*,#507,.T.);
#507 = EDGE_CURVE('',#500,#508,#510,.T.);
#508 = VERTEX_POINT('',#509);
#509 = CARTESIAN_POINT('',(5.,-1.2,-0.1));
#510 = LINE('',#511,#512);
#511 = CARTESIAN_POINT('',(5.,-3.5,-0.1));
#512 = VECTOR('',#513,1.);
#513 = DIRECTION('',(0.,1.,0.));
#514 = ORIENTED_EDGE('',*,*,#515,.F.);
#515 = EDGE_CURVE('',#516,#508,#518,.T.);
#516 = VERTEX_POINT('',#517);
#517 = CARTESIAN_POINT('',(5.,-1.2,0.));
#518 = LINE('',#519,#520);
#519 = CARTESIAN_POINT('',(5.,-1.2,0.));
#520 = VECTOR('',#521,1.);
#521 = DIRECTION('',(-0.,-0.,-1.));
#522 = ORIENTED_EDGE('',*,*,#523,.F.);
#523 = EDGE_CURVE('',#498,#516,#524,.T.);
#524 = LINE('',#525,#526);
#525 = CARTESIAN_POINT('',(5.,-3.5,0.));
#526 = VECTOR('',#527,1.);
#527 = DIRECTION('',(0.,1.,0.));
#528 = PLANE('',#529);
#529 = AXIS2_PLACEMENT_3D('',#530,#531,#532);
#530 = CARTESIAN_POINT('',(5.,-3.5,0.));
#531 = DIRECTION('',(1.,0.,0.));
#532 = DIRECTION('',(-0.,1.,0.));
#533 = ADVANCED_FACE('',(#534),#559,.T.);
#534 = FACE_BOUND('',#535,.T.);
#535 = EDGE_LOOP('',(#536,#537,#545,#553));
#536 = ORIENTED_EDGE('',*,*,#515,.T.);
#537 = ORIENTED_EDGE('',*,*,#538,.T.);
#538 = EDGE_CURVE('',#508,#539,#541,.T.);
#539 = VERTEX_POINT('',#540);
#540 = CARTESIAN_POINT('',(3.5,-1.2,-0.1));
#541 = LINE('',#542,#543);
#542 = CARTESIAN_POINT('',(5.,-1.2,-0.1));
#543 = VECTOR('',#544,1.);
#544 = DIRECTION('',(-1.,0.,0.));
#545 = ORIENTED_EDGE('',*,*,#546,.F.);
#546 = EDGE_CURVE('',#547,#539,#549,.T.);
#547 = VERTEX_POINT('',#548);
#548 = CARTESIAN_POINT('',(3.5,-1.2,0.));
#549 = LINE('',#550,#551);
#550 = CARTESIAN_POINT('',(3.5,-1.2,0.));
#551 = VECTOR('',#552,1.);
#552 = DIRECTION('',(-0.,-0.,-1.));
#553 = ORIENTED_EDGE('',*,*,#554,.F.);
#554 = EDGE_CURVE('',#516,#547,#555,.T.);
#555 = LINE('',#556,#557);
#556 = CARTESIAN_POINT('',(5.,-1.2,0.));
#557 = VECTOR('',#558,1.);
#558 = DIRECTION('',(-1.,0.,0.));
#559 = PLANE('',#560);
#560 = AXIS2_PLACEMENT_3D('',#561,#562,#563);
#561 = CARTESIAN_POINT('',(5.,-1.2,0.));
#562 = DIRECTION('',(0.,1.,0.));
#563 = DIRECTION('',(-1.,0.,0.));
#564 = ADVANCED_FACE('',(#565),#590,.T.);
#565 = FACE_BOUND('',#566,.T.);
#566 = EDGE_LOOP('',(#567,#568,#576,#584));
#567 = ORIENTED_EDGE('',*,*,#546,.T.);
#568 = ORIENTED_EDGE('',*,*,#569,.T.);
#569 = EDGE_CURVE('',#539,#570,#572,.T.);
#570 = VERTEX_POINT('',#571);
#571 = CARTESIAN_POINT('',(3.5,-3.5,-0.1));
#572 = LINE('',#573,#574);
#573 = CARTESIAN_POINT('',(3.5,-1.2,-0.1));
#574 = VECTOR('',#575,1.);
#575 = DIRECTION('',(0.,-1.,0.));
#576 = ORIENTED_EDGE('',*,*,#577,.F.);
#577 = EDGE_CURVE('',#578,#570,#580,.T.);
#578 = VERTEX_POINT('',#579);
#579 = CARTESIAN_POINT('',(3.5,-3.5,0.));
#580 = LINE('',#581,#582);
#581 = CARTESIAN_POINT('',(3.5,-3.5,0.));
#582 = VECTOR('',#583,1.);
#583 = DIRECTION('',(-0.,-0.,-1.));
#584 = ORIENTED_EDGE('',*,*,#585,.F.);
#585 = EDGE_CURVE('',#547,#578,#586,.T.);
#586 = LINE('',#587,#588);
#587 = CARTESIAN_POINT('',(3.5,-1.2,0.));
#588 = VECTOR('',#589,1.);
#589 = DIRECTION('',(0.,-1.,0.));
#590 = PLANE('',#591);
#591 = AXIS2_PLACEMENT_3D('',#592,#593,#594);
#592 = CARTESIAN_POINT('',(3.5,-1.2,0.));
#593 = DIRECTION('',(-1.,0.,0.));
#594 = DIRECTION('',(0.,-1.,0.));
#595 = ADVANCED_FACE('',(#596),#612,.T.);
#596 = FACE_BOUND('',#597,.T.);
#597 = EDGE_LOOP('',(#598,#599,#605,#606));
#598 = ORIENTED_EDGE('',*,*,#577,.T.);
#599 = ORIENTED_EDGE('',*,*,#600,.T.);
#600 = EDGE_CURVE('',#570,#500,#601,.T.);
#601 = LINE('',#602,#603);
#602 = CARTESIAN_POINT('',(3.5,-3.5,-0.1));
#603 = VECTOR('',#604,1.);
#604 = DIRECTION('',(1.,0.,0.));
#605 = ORIENTED_EDGE('',*,*,#497,.F.);
#606 = ORIENTED_EDGE('',*,*,#607,.F.);
#607 = EDGE_CURVE('',#578,#498,#608,.T.);
#608 = LINE('',#609,#610);
#609 = CARTESIAN_POINT('',(3.5,-3.5,0.));
#610 = VECTOR('',#611,1.);
#611 = DIRECTION('',(1.,0.,0.));
#612 = PLANE('',#613);
#613 = AXIS2_PLACEMENT_3D('',#614,#615,#616);
#614 = CARTESIAN_POINT('',(3.5,-3.5,0.));
#615 = DIRECTION('',(0.,-1.,0.));
#616 = DIRECTION('',(1.,0.,0.));
#617 = ADVANCED_FACE('',(#618),#624,.T.);
#618 = FACE_BOUND('',#619,.T.);
#619 = EDGE_LOOP('',(#620,#621,#622,#623));
#620 = ORIENTED_EDGE('',*,*,#523,.T.);
#621 = ORIENTED_EDGE('',*,*,#554,.T.);
#622 = ORIENTED_EDGE('',*,*,#585,.T.);
#623 = ORIENTED_EDGE('',*,*,#607,.T.);
#624 = PLANE('',#625);
#625 = AXIS2_PLACEMENT_3D('',#626,#627,#628);
#626 = CARTESIAN_POINT('',(8.,-2.35,0.));
#627 = DIRECTION('',(0.,0.,1.));
#628 = DIRECTION('',(1.,0.,0.));
#629 = ADVANCED_FACE('',(#630),#636,.F.);
#630 = FACE_BOUND('',#631,.F.);
#631 = EDGE_LOOP('',(#632,#633,#634,#635));
#632 = ORIENTED_EDGE('',*,*,#507,.T.);
#633 = ORIENTED_EDGE('',*,*,#538,.T.);
#634 = ORIENTED_EDGE('',*,*,#569,.T.);
#635 = ORIENTED_EDGE('',*,*,#600,.T.);
#636 = PLANE('',#637);
#637 = AXIS2_PLACEMENT_3D('',#638,#639,#640);
#638 = CARTESIAN_POINT('',(8.,-2.35,-0.1));
#639 = DIRECTION('',(0.,0.,1.));
#640 = DIRECTION('',(1.,0.,0.));
#641 = MANIFOLD_SOLID_BREP('',#642);
#642 = CLOSED_SHELL('',(#643,#683,#714,#745,#767,#779));
#643 = ADVANCED_FACE('',(#644),#678,.T.);
#644 = FACE_BOUND('',#645,.T.);
#645 = EDGE_LOOP('',(#646,#656,#664,#672));
#646 = ORIENTED_EDGE('',*,*,#647,.T.);
#647 = EDGE_CURVE('',#648,#650,#652,.T.);
#648 = VERTEX_POINT('',#649);
#649 = CARTESIAN_POINT('',(2.5,-3.5,0.));
#650 = VERTEX_POINT('',#651);
#651 = CARTESIAN_POINT('',(2.5,-3.5,-0.1));
#652 = LINE('',#653,#654);
#653 = CARTESIAN_POINT('',(2.5,-3.5,0.));
#654 = VECTOR('',#655,1.);
#655 = DIRECTION('',(-0.,-0.,-1.));
#656 = ORIENTED_EDGE('',*,*,#657,.T.);
#657 = EDGE_CURVE('',#650,#658,#660,.T.);
#658 = VERTEX_POINT('',#659);
#659 = CARTESIAN_POINT('',(2.5,-1.2,-0.1));
#660 = LINE('',#661,#662);
#661 = CARTESIAN_POINT('',(2.5,-3.5,-0.1));
#662 = VECTOR('',#663,1.);
#663 = DIRECTION('',(0.,1.,0.));
#664 = ORIENTED_EDGE('',*,*,#665,.F.);
#665 = EDGE_CURVE('',#666,#658,#668,.T.);
#666 = VERTEX_POINT('',#667);
#667 = CARTESIAN_POINT('',(2.5,-1.2,0.));
#668 = LINE('',#669,#670);
#669 = CARTESIAN_POINT('',(2.5,-1.2,0.));
#670 = VECTOR('',#671,1.);
#671 = DIRECTION('',(-0.,-0.,-1.));
#672 = ORIENTED_EDGE('',*,*,#673,.F.);
#673 = EDGE_CURVE('',#648,#666,#674,.T.);
#674 = LINE('',#675,#676);
#675 = CARTESIAN_POINT('',(2.5,-3.5,0.));
#676 = VECTOR('',#677,1.);
#677 = DIRECTION('',(0.,1.,0.));
#678 = PLANE('',#679);
#679 = AXIS2_PLACEMENT_3D('',#680,#681,#682);
#680 = CARTESIAN_POINT('',(2.5,-3.5,0.));
#681 = DIRECTION('',(1.,0.,0.));
#682 = DIRECTION('',(-0.,1.,0.));
#683 = ADVANCED_FACE('',(#684),#709,.T.);
#684 = FACE_BOUND('',#685,.T.);
#685 = EDGE_LOOP('',(#686,#687,#695,#703));
#686 = ORIENTED_EDGE('',*,*,#665,.T.);
#687 = ORIENTED_EDGE('',*,*,#688,.T.);
#688 = EDGE_CURVE('',#658,#689,#691,.T.);
#689 = VERTEX_POINT('',#690);
#690 = CARTESIAN_POINT('',(1.,-1.2,-0.1));
#691 = LINE('',#692,#693);
#692 = CARTESIAN_POINT('',(2.5,-1.2,-0.1));
#693 = VECTOR('',#694,1.);
#694 = DIRECTION('',(-1.,0.,0.));
#695 = ORIENTED_EDGE('',*,*,#696,.F.);
#696 = EDGE_CURVE('',#697,#689,#699,.T.);
#697 = VERTEX_POINT('',#698);
#698 = CARTESIAN_POINT('',(1.,-1.2,0.));
#699 = LINE('',#700,#701);
#700 = CARTESIAN_POINT('',(1.,-1.2,0.));
#701 = VECTOR('',#702,1.);
#702 = DIRECTION('',(-0.,-0.,-1.));
#703 = ORIENTED_EDGE('',*,*,#704,.F.);
#704 = EDGE_CURVE('',#666,#697,#705,.T.);
#705 = LINE('',#706,#707);
#706 = CARTESIAN_POINT('',(2.5,-1.2,0.));
#707 = VECTOR('',#708,1.);
#708 = DIRECTION('',(-1.,0.,0.));
#709 = PLANE('',#710);
#710 = AXIS2_PLACEMENT_3D('',#711,#712,#713);
#711 = CARTESIAN_POINT('',(2.5,-1.2,0.));
#712 = DIRECTION('',(0.,1.,0.));
#713 = DIRECTION('',(-1.,0.,0.));
#714 = ADVANCED_FACE('',(#715),#740,.T.);
#715 = FACE_BOUND('',#716,.T.);
#716 = EDGE_LOOP('',(#717,#718,#726,#734));
#717 = ORIENTED_EDGE('',*,*,#696,.T.);
#718 = ORIENTED_EDGE('',*,*,#719,.T.);
#719 = EDGE_CURVE('',#689,#720,#722,.T.);
#720 = VERTEX_POINT('',#721);
#721 = CARTESIAN_POINT('',(1.,-3.5,-0.1));
#722 = LINE('',#723,#724);
#723 = CARTESIAN_POINT('',(1.,-1.2,-0.1));
#724 = VECTOR('',#725,1.);
#725 = DIRECTION('',(0.,-1.,0.));
#726 = ORIENTED_EDGE('',*,*,#727,.F.);
#727 = EDGE_CURVE('',#728,#720,#730,.T.);
#728 = VERTEX_POINT('',#729);
#729 = CARTESIAN_POINT('',(1.,-3.5,0.));
#730 = LINE('',#731,#732);
#731 = CARTESIAN_POINT('',(1.,-3.5,0.));
#732 = VECTOR('',#733,1.);
#733 = DIRECTION('',(-0.,-0.,-1.));
#734 = ORIENTED_EDGE('',*,*,#735,.F.);
#735 = EDGE_CURVE('',#697,#728,#736,.T.);
#736 = LINE('',#737,#738);
#737 = CARTESIAN_POINT('',(1.,-1.2,0.));
#738 = VECTOR('',#739,1.);
#739 = DIRECTION('',(0.,-1.,0.));
#740 = PLANE('',#741);
#741 = AXIS2_PLACEMENT_3D('',#742,#743,#744);
#742 = CARTESIAN_POINT('',(1.,-1.2,0.));
#743 = DIRECTION('',(-1.,0.,0.));
#744 = DIRECTION('',(0.,-1.,0.));
#745 = ADVANCED_FACE('',(#746),#762,.T.);
#746 = FACE_BOUND('',#747,.T.);
#747 = EDGE_LOOP('',(#748,#749,#755,#756));
#748 = ORIENTED_EDGE('',*,*,#727,.T.);
#749 = ORIENTED_EDGE('',*,*,#750,.T.);
#750 = EDGE_CURVE('',#720,#650,#751,.T.);
#751 = LINE('',#752,#753);
#752 = CARTESIAN_POINT('',(1.,-3.5,-0.1));
#753 = VECTOR('',#754,1.);
#754 = DIRECTION('',(1.,0.,0.));
#755 = ORIENTED_EDGE('',*,*,#647,.F.);
#756 = ORIENTED_EDGE('',*,*,#757,.F.);
#757 = EDGE_CURVE('',#728,#648,#758,.T.);
#758 = LINE('',#759,#760);
#759 = CARTESIAN_POINT('',(1.,-3.5,0.));
#760 = VECTOR('',#761,1.);
#761 = DIRECTION('',(1.,0.,0.));
#762 = PLANE('',#763);
#763 = AXIS2_PLACEMENT_3D('',#764,#765,#766);
#764 = CARTESIAN_POINT('',(1.,-3.5,0.));
#765 = DIRECTION('',(0.,-1.,0.));
#766 = DIRECTION('',(1.,0.,0.));
#767 = ADVANCED_FACE('',(#768),#774,.T.);
#768 = FACE_BOUND('',#769,.T.);
#769 = EDGE_LOOP('',(#770,#771,#772,#773));
#770 = ORIENTED_EDGE('',*,*,#673,.T.);
#771 = ORIENTED_EDGE('',*,*,#704,.T.);
#772 = ORIENTED_EDGE('',*,*,#735,.T.);
#773 = ORIENTED_EDGE('',*,*,#757,.T.);
#774 = PLANE('',#775);
#775 = AXIS2_PLACEMENT_3D('',#776,#777,#778);
#776 = CARTESIAN_POINT('',(8.,-2.35,0.));
#777 = DIRECTION('',(0.,0.,1.));
#778 = DIRECTION('',(1.,0.,0.));
#779 = ADVANCED_FACE('',(#780),#786,.F.);
#780 = FACE_BOUND('',#781,.F.);
#781 = EDGE_LOOP('',(#782,#783,#784,#785));
#782 = ORIENTED_EDGE('',*,*,#657,.T.);
#783 = ORIENTED_EDGE('',*,*,#688,.T.);
#784 = ORIENTED_EDGE('',*,*,#719,.T.);
#785 = ORIENTED_EDGE('',*,*,#750,.T.);
#786 = PLANE('',#787);
#787 = AXIS2_PLACEMENT_3D('',#788,#789,#790);
#788 = CARTESIAN_POINT('',(8.,-2.35,-0.1));
#789 = DIRECTION('',(0.,0.,1.));
#790 = DIRECTION('',(1.,0.,0.));
#791 = MANIFOLD_SOLID_BREP('',#792);
#792 = CLOSED_SHELL('',(#793,#833,#864,#895,#917,#929));
#793 = ADVANCED_FACE('',(#794),#828,.T.);
#794 = FACE_BOUND('',#795,.T.);
#795 = EDGE_LOOP('',(#796,#806,#814,#822));
#796 = ORIENTED_EDGE('',*,*,#797,.T.);
#797 = EDGE_CURVE('',#798,#800,#802,.T.);
#798 = VERTEX_POINT('',#799);
#799 = CARTESIAN_POINT('',(15.,-3.5,0.));
#800 = VERTEX_POINT('',#801);
#801 = CARTESIAN_POINT('',(15.,-3.5,-0.1));
#802 = LINE('',#803,#804);
#803 = CARTESIAN_POINT('',(15.,-3.5,0.));
#804 = VECTOR('',#805,1.);
#805 = DIRECTION('',(-0.,-0.,-1.));
#806 = ORIENTED_EDGE('',*,*,#807,.T.);
#807 = EDGE_CURVE('',#800,#808,#810,.T.);
#808 = VERTEX_POINT('',#809);
#809 = CARTESIAN_POINT('',(15.,-1.2,-0.1));
#810 = LINE('',#811,#812);
#811 = CARTESIAN_POINT('',(15.,-3.5,-0.1));
#812 = VECTOR('',#813,1.);
#813 = DIRECTION('',(0.,1.,0.));
#814 = ORIENTED_EDGE('',*,*,#815,.F.);
#815 = EDGE_CURVE('',#816,#808,#818,.T.);
#816 = VERTEX_POINT('',#817);
#817 = CARTESIAN_POINT('',(15.,-1.2,0.));
#818 = LINE('',#819,#820);
#819 = CARTESIAN_POINT('',(15.,-1.2,0.));
#820 = VECTOR('',#821,1.);
#821 = DIRECTION('',(-0.,-0.,-1.));
#822 = ORIENTED_EDGE('',*,*,#823,.F.);
#823 = EDGE_CURVE('',#798,#816,#824,.T.);
#824 = LINE('',#825,#826);
#825 = CARTESIAN_POINT('',(15.,-3.5,0.));
#826 = VECTOR('',#827,1.);
#827 = DIRECTION('',(0.,1.,0.));
#828 = PLANE('',#829);
#829 = AXIS2_PLACEMENT_3D('',#830,#831,#832);
#830 = CARTESIAN_POINT('',(15.,-3.5,0.));
#831 = DIRECTION('',(1.,0.,0.));
#832 = DIRECTION('',(-0.,1.,0.));
#833 = ADVANCED_FACE('',(#834),#859,.T.);
#834 = FACE_BOUND('',#835,.T.);
#835 = EDGE_LOOP('',(#836,#837,#845,#853));
#836 = ORIENTED_EDGE('',*,*,#815,.T.);
#837 = ORIENTED_EDGE('',*,*,#838,.T.);
#838 = EDGE_CURVE('',#808,#839,#841,.T.);
#839 = VERTEX_POINT('',#840);
#840 = CARTESIAN_POINT('',(13.5,-1.2,-0.1));
#841 = LINE('',#842,#843);
#842 = CARTESIAN_POINT('',(15.,-1.2,-0.1));
#843 = VECTOR('',#844,1.);
#844 = DIRECTION('',(-1.,0.,0.));
#845 = ORIENTED_EDGE('',*,*,#846,.F.);
#846 = EDGE_CURVE('',#847,#839,#849,.T.);
#847 = VERTEX_POINT('',#848);
#848 = CARTESIAN_POINT('',(13.5,-1.2,0.));
#849 = LINE('',#850,#851);
#850 = CARTESIAN_POINT('',(13.5,-1.2,0.));
#851 = VECTOR('',#852,1.);
#852 = DIRECTION('',(-0.,-0.,-1.));
#853 = ORIENTED_EDGE('',*,*,#854,.F.);
#854 = EDGE_CURVE('',#816,#847,#855,.T.);
#855 = LINE('',#856,#857);
#856 = CARTESIAN_POINT('',(15.,-1.2,0.));
#857 = VECTOR('',#858,1.);
#858 = DIRECTION('',(-1.,0.,0.));
#859 = PLANE('',#860);
#860 = AXIS2_PLACEMENT_3D('',#861,#862,#863);
#861 = CARTESIAN_POINT('',(15.,-1.2,0.));
#862 = DIRECTION('',(0.,1.,0.));
#863 = DIRECTION('',(-1.,0.,0.));
#864 = ADVANCED_FACE('',(#865),#890,.T.);
#865 = FACE_BOUND('',#866,.T.);
#866 = EDGE_LOOP('',(#867,#868,#876,#884));
#867 = ORIENTED_EDGE('',*,*,#846,.T.);
#868 = ORIENTED_EDGE('',*,*,#869,.T.);
#869 = EDGE_CURVE('',#839,#870,#872,.T.);
#870 = VERTEX_POINT('',#871);
#871 = CARTESIAN_POINT('',(13.5,-3.5,-0.1));
#872 = LINE('',#873,#874);
#873 = CARTESIAN_POINT('',(13.5,-1.2,-0.1));
#874 = VECTOR('',#875,1.);
#875 = DIRECTION('',(0.,-1.,0.));
#876 = ORIENTED_EDGE('',*,*,#877,.F.);
#877 = EDGE_CURVE('',#878,#870,#880,.T.);
#878 = VERTEX_POINT('',#879);
#879 = CARTESIAN_POINT('',(13.5,-3.5,0.));
#880 = LINE('',#881,#882);
#881 = CARTESIAN_POINT('',(13.5,-3.5,0.));
#882 = VECTOR('',#883,1.);
#883 = DIRECTION('',(-0.,-0.,-1.));
#884 = ORIENTED_EDGE('',*,*,#885,.F.);
#885 = EDGE_CURVE('',#847,#878,#886,.T.);
#886 = LINE('',#887,#888);
#887 = CARTESIAN_POINT('',(13.5,-1.2,0.));
#888 = VECTOR('',#889,1.);
#889 = DIRECTION('',(0.,-1.,0.));
#890 = PLANE('',#891);
#891 = AXIS2_PLACEMENT_3D('',#892,#893,#894);
#892 = CARTESIAN_POINT('',(13.5,-1.2,0.));
#893 = DIRECTION('',(-1.,0.,0.));
#894 = DIRECTION('',(0.,-1.,0.));
#895 = ADVANCED_FACE('',(#896),#912,.T.);
#896 = FACE_BOUND('',#897,.T.);
#897 = EDGE_LOOP('',(#898,#899,#905,#906));
#898 = ORIENTED_EDGE('',*,*,#877,.T.);
#899 = ORIENTED_EDGE('',*,*,#900,.T.);
#900 = EDGE_CURVE('',#870,#800,#901,.T.);
#901 = LINE('',#902,#903);
#902 = CARTESIAN_POINT('',(13.5,-3.5,-0.1));
#903 = VECTOR('',#904,1.);
#904 = DIRECTION('',(1.,0.,0.));
#905 = ORIENTED_EDGE('',*,*,#797,.F.);
#906 = ORIENTED_EDGE('',*,*,#907,.F.);
#907 = EDGE_CURVE('',#878,#798,#908,.T.);
#908 = LINE('',#909,#910);
#909 = CARTESIAN_POINT('',(13.5,-3.5,0.));
#910 = VECTOR('',#911,1.);
#911 = DIRECTION('',(1.,0.,0.));
#912 = PLANE('',#913);
#913 = AXIS2_PLACEMENT_3D('',#914,#915,#916);
#914 = CARTESIAN_POINT('',(13.5,-3.5,0.));
#915 = DIRECTION('',(0.,-1.,0.));
#916 = DIRECTION('',(1.,0.,0.));
#917 = ADVANCED_FACE('',(#918),#924,.T.);
#918 = FACE_BOUND('',#919,.T.);
#919 = EDGE_LOOP('',(#920,#921,#922,#923));
#920 = ORIENTED_EDGE('',*,*,#823,.T.);
#921 = ORIENTED_EDGE('',*,*,#854,.T.);
#922 = ORIENTED_EDGE('',*,*,#885,.T.);
#923 = ORIENTED_EDGE('',*,*,#907,.T.);
#924 = PLANE('',#925);
#925 = AXIS2_PLACEMENT_3D('',#926,#927,#928);
#926 = CARTESIAN_POINT('',(8.,-2.35,0.));
#927 = DIRECTION('',(0.,0.,1.));
#928 = DIRECTION('',(1.,0.,0.));
#929 = ADVANCED_FACE('',(#930),#936,.F.);
#930 = FACE_BOUND('',#931,.F.);
#931 = EDGE_LOOP('',(#932,#933,#934,#935));
#932 = ORIENTED_EDGE('',*,*,#807,.T.);
#933 = ORIENTED_EDGE('',*,*,#838,.T.);
#934 = ORIENTED_EDGE('',*,*,#869,.T.);
#935 = ORIENTED_EDGE('',*,*,#900,.T.);
#936 = PLANE('',#937);
#937 = AXIS2_PLACEMENT_3D('',#938,#939,#940);
#938 = CARTESIAN_POINT('',(8.,-2.35,-0.1));
#939 = DIRECTION('',(0.,0.,1.));
#940 = DIRECTION('',(1.,0.,0.));
#941 = ( GEOMETRIC_REPRESENTATION_CONTEXT(3) 
GLOBAL_UNCERTAINTY_ASSIGNED_CONTEXT((#945)) GLOBAL_UNIT_ASSIGNED_CONTEXT
((#942,#943,#944)) REPRESENTATION_CONTEXT('Context #1',
  '3D Context with UNIT and UNCERTAINTY') );
#942 = ( LENGTH_UNIT() NAMED_UNIT(*) SI_UNIT(.MILLI.,.METRE.) );
#943 = ( NAMED_UNIT(*) PLANE_ANGLE_UNIT() SI_UNIT($,.RADIAN.) );
#944 = ( NAMED_UNIT(*) SI_UNIT($,.STERADIAN.) SOLID_ANGLE_UNIT() );
#945 = UNCERTAINTY_MEASURE_WITH_UNIT(LENGTH_MEASURE(1.E-07),#942,
  'distance_accuracy_value','confusion accuracy');
#946 = CONTEXT_DEPENDENT_SHAPE_REPRESENTATION(#947,#949);
#947 = ( REPRESENTATION_RELATIONSHIP('','',#40,#10) 
REPRESENTATION_RELATIONSHIP_WITH_TRANSFORMATION(#948) 
SHAPE_REPRESENTATION_RELATIONSHIP() );
#948 = ITEM_DEFINED_TRANSFORMATION('','',#11,#15);
#949 = PRODUCT_DEFINITION_SHAPE('Placement','Placement of an item',#950
  );
#950 = NEXT_ASSEMBLY_USAGE_OCCURRENCE('4','Body004','',#5,#35,$);
#951 = PRODUCT_RELATED_PRODUCT_CATEGORY('part',$,(#37));
#952 = SHAPE_DEFINITION_REPRESENTATION(#953,#959);
#953 = PRODUCT_DEFINITION_SHAPE('','',#954);
#954 = PRODUCT_DEFINITION('design','',#955,#958);
#955 = PRODUCT_DEFINITION_FORMATION('','',#956);
#956 = PRODUCT('pins','pins','',(#957));
#957 = PRODUCT_CONTEXT('',#2,'mechanical');
#958 = PRODUCT_DEFINITION_CONTEXT('part definition',#2,'design');
#959 = SHAPE_REPRESENTATION('',(#11,#960,#1023,#1086,#1149,#1212,#1275),
  #1338);
#960 = MANIFOLD_SOLID_BREP('',#961);
#961 = CLOSED_SHELL('',(#962,#995,#1004));
#962 = ADVANCED_FACE('',(#963),#990,.T.);
#963 = FACE_BOUND('',#964,.T.);
#964 = EDGE_LOOP('',(#965,#974,#982,#989));
#965 = ORIENTED_EDGE('',*,*,#966,.F.);
#966 = EDGE_CURVE('',#967,#967,#969,.T.);
#967 = VERTEX_POINT('',#968);
#968 = CARTESIAN_POINT('',(14.705,0.,1.29));
#969 = CIRCLE('',#970,0.455);
#970 = AXIS2_PLACEMENT_3D('',#971,#972,#973);
#971 = CARTESIAN_POINT('',(14.25,0.,1.29));
#972 = DIRECTION('',(0.,-1.,0.));
#973 = DIRECTION('',(1.,0.,0.));
#974 = ORIENTED_EDGE('',*,*,#975,.T.);
#975 = EDGE_CURVE('',#967,#976,#978,.T.);
#976 = VERTEX_POINT('',#977);
#977 = CARTESIAN_POINT('',(14.705,1.545,1.29));
#978 = LINE('',#979,#980);
#979 = CARTESIAN_POINT('',(14.705,2.9E-16,1.29));
#980 = VECTOR('',#981,1.);
#981 = DIRECTION('',(0.,1.,-2.2E-16));
#982 = ORIENTED_EDGE('',*,*,#983,.F.);
#983 = EDGE_CURVE('',#976,#976,#984,.T.);
#984 = CIRCLE('',#985,0.455);
#985 = AXIS2_PLACEMENT_3D('',#986,#987,#988);
#986 = CARTESIAN_POINT('',(14.25,1.545,1.29));
#987 = DIRECTION('',(-0.,1.,0.));
#988 = DIRECTION('',(1.,0.,0.));
#989 = ORIENTED_EDGE('',*,*,#975,.F.);
#990 = CYLINDRICAL_SURFACE('',#991,0.455);
#991 = AXIS2_PLACEMENT_3D('',#992,#993,#994);
#992 = CARTESIAN_POINT('',(14.25,2.9E-16,1.29));
#993 = DIRECTION('',(0.,-1.,2.2E-16));
#994 = DIRECTION('',(1.,0.,0.));
#995 = ADVANCED_FACE('',(#996),#999,.F.);
#996 = FACE_BOUND('',#997,.T.);
#997 = EDGE_LOOP('',(#998));
#998 = ORIENTED_EDGE('',*,*,#966,.T.);
#999 = PLANE('',#1000);
#1000 = AXIS2_PLACEMENT_3D('',#1001,#1002,#1003);
#1001 = CARTESIAN_POINT('',(8.,2.9E-16,1.29));
#1002 = DIRECTION('',(0.,1.,0.));
#1003 = DIRECTION('',(0.,0.,1.));
#1004 = ADVANCED_FACE('',(#1005),#1018,.T.);
#1005 = FACE_BOUND('',#1006,.T.);
#1006 = EDGE_LOOP('',(#1007,#1016,#1017));
#1007 = ORIENTED_EDGE('',*,*,#1008,.F.);
#1008 = EDGE_CURVE('',#976,#1009,#1011,.T.);
#1009 = VERTEX_POINT('',#1010);
#1010 = CARTESIAN_POINT('',(14.25,2.,1.29));
#1011 = CIRCLE('',#1012,0.455);
#1012 = AXIS2_PLACEMENT_3D('',#1013,#1014,#1015);
#1013 = CARTESIAN_POINT('',(14.25,1.545,1.29));
#1014 = DIRECTION('',(0.,0.,1.));
#1015 = DIRECTION('',(-1.,0.,0.));
#1016 = ORIENTED_EDGE('',*,*,#983,.T.);
#1017 = ORIENTED_EDGE('',*,*,#1008,.T.);
#1018 = SPHERICAL_SURFACE('',#1019,0.455);
#1019 = AXIS2_PLACEMENT_3D('',#1020,#1021,#1022);
#1020 = CARTESIAN_POINT('',(14.25,1.545,1.29));
#1021 = DIRECTION('',(0.,1.,0.));
#1022 = DIRECTION('',(1.,0.,0.));
#1023 = MANIFOLD_SOLID_BREP('',#1024);
#1024 = CLOSED_SHELL('',(#1025,#1058,#1067));
#1025 = ADVANCED_FACE('',(#1026),#1053,.T.);
#1026 = FACE_BOUND('',#1027,.T.);
#1027 = EDGE_LOOP('',(#1028,#1037,#1045,#1052));
#1028 = ORIENTED_EDGE('',*,*,#1029,.F.);
#1029 = EDGE_CURVE('',#1030,#1030,#1032,.T.);
#1030 = VERTEX_POINT('',#1031);
#1031 = CARTESIAN_POINT('',(12.205,0.,1.29));
#1032 = CIRCLE('',#1033,0.455);
#1033 = AXIS2_PLACEMENT_3D('',#1034,#1035,#1036);
#1034 = CARTESIAN_POINT('',(11.75,0.,1.29));
#1035 = DIRECTION('',(0.,-1.,0.));
#1036 = DIRECTION('',(1.,0.,0.));
#1037 = ORIENTED_EDGE('',*,*,#1038,.T.);
#1038 = EDGE_CURVE('',#1030,#1039,#1041,.T.);
#1039 = VERTEX_POINT('',#1040);
#1040 = CARTESIAN_POINT('',(12.205,1.545,1.29));
#1041 = LINE('',#1042,#1043);
#1042 = CARTESIAN_POINT('',(12.205,2.9E-16,1.29));
#1043 = VECTOR('',#1044,1.);
#1044 = DIRECTION('',(0.,1.,-2.2E-16));
#1045 = ORIENTED_EDGE('',*,*,#1046,.F.);
#1046 = EDGE_CURVE('',#1039,#1039,#1047,.T.);
#1047 = CIRCLE('',#1048,0.455);
#1048 = AXIS2_PLACEMENT_3D('',#1049,#1050,#1051);
#1049 = CARTESIAN_POINT('',(11.75,1.545,1.29));
#1050 = DIRECTION('',(-0.,1.,0.));
#1051 = DIRECTION('',(1.,0.,0.));
#1052 = ORIENTED_EDGE('',*,*,#1038,.F.);
#1053 = CYLINDRICAL_SURFACE('',#1054,0.455);
#1054 = AXIS2_PLACEMENT_3D('',#1055,#1056,#1057);
#1055 = CARTESIAN_POINT('',(11.75,2.9E-16,1.29));
#1056 = DIRECTION('',(0.,-1.,2.2E-16));
#1057 = DIRECTION('',(1.,0.,0.));
#1058 = ADVANCED_FACE('',(#1059),#1062,.F.);
#1059 = FACE_BOUND('',#1060,.T.);
#1060 = EDGE_LOOP('',(#1061));
#1061 = ORIENTED_EDGE('',*,*,#1029,.T.);
#1062 = PLANE('',#1063);
#1063 = AXIS2_PLACEMENT_3D('',#1064,#1065,#1066);
#1064 = CARTESIAN_POINT('',(8.,2.9E-16,1.29));
#1065 = DIRECTION('',(0.,1.,0.));
#1066 = DIRECTION('',(0.,0.,1.));
#1067 = ADVANCED_FACE('',(#1068),#1081,.T.);
#1068 = FACE_BOUND('',#1069,.T.);
#1069 = EDGE_LOOP('',(#1070,#1079,#1080));
#1070 = ORIENTED_EDGE('',*,*,#1071,.F.);
#1071 = EDGE_CURVE('',#1039,#1072,#1074,.T.);
#1072 = VERTEX_POINT('',#1073);
#1073 = CARTESIAN_POINT('',(11.75,2.,1.29));
#1074 = CIRCLE('',#1075,0.455);
#1075 = AXIS2_PLACEMENT_3D('',#1076,#1077,#1078);
#1076 = CARTESIAN_POINT('',(11.75,1.545,1.29));
#1077 = DIRECTION('',(0.,0.,1.));
#1078 = DIRECTION('',(-1.,0.,0.));
#1079 = ORIENTED_EDGE('',*,*,#1046,.T.);
#1080 = ORIENTED_EDGE('',*,*,#1071,.T.);
#1081 = SPHERICAL_SURFACE('',#1082,0.455);
#1082 = AXIS2_PLACEMENT_3D('',#1083,#1084,#1085);
#1083 = CARTESIAN_POINT('',(11.75,1.545,1.29));
#1084 = DIRECTION('',(0.,1.,0.));
#1085 = DIRECTION('',(1.,0.,0.));
#1086 = MANIFOLD_SOLID_BREP('',#1087);
#1087 = CLOSED_SHELL('',(#1088,#1121,#1130));
#1088 = ADVANCED_FACE('',(#1089),#1116,.T.);
#1089 = FACE_BOUND('',#1090,.T.);
#1090 = EDGE_LOOP('',(#1091,#1100,#1108,#1115));
#1091 = ORIENTED_EDGE('',*,*,#1092,.F.);
#1092 = EDGE_CURVE('',#1093,#1093,#1095,.T.);
#1093 = VERTEX_POINT('',#1094);
#1094 = CARTESIAN_POINT('',(9.705,0.,1.29));
#1095 = CIRCLE('',#1096,0.455);
#1096 = AXIS2_PLACEMENT_3D('',#1097,#1098,#1099);
#1097 = CARTESIAN_POINT('',(9.25,0.,1.29));
#1098 = DIRECTION('',(0.,-1.,0.));
#1099 = DIRECTION('',(1.,0.,0.));
#1100 = ORIENTED_EDGE('',*,*,#1101,.T.);
#1101 = EDGE_CURVE('',#1093,#1102,#1104,.T.);
#1102 = VERTEX_POINT('',#1103);
#1103 = CARTESIAN_POINT('',(9.705,1.545,1.29));
#1104 = LINE('',#1105,#1106);
#1105 = CARTESIAN_POINT('',(9.705,2.9E-16,1.29));
#1106 = VECTOR('',#1107,1.);
#1107 = DIRECTION('',(0.,1.,-2.2E-16));
#1108 = ORIENTED_EDGE('',*,*,#1109,.F.);
#1109 = EDGE_CURVE('',#1102,#1102,#1110,.T.);
#1110 = CIRCLE('',#1111,0.455);
#1111 = AXIS2_PLACEMENT_3D('',#1112,#1113,#1114);
#1112 = CARTESIAN_POINT('',(9.25,1.545,1.29));
#1113 = DIRECTION('',(-0.,1.,0.));
#1114 = DIRECTION('',(1.,0.,0.));
#1115 = ORIENTED_EDGE('',*,*,#1101,.F.);
#1116 = CYLINDRICAL_SURFACE('',#1117,0.455);
#1117 = AXIS2_PLACEMENT_3D('',#1118,#1119,#1120);
#1118 = CARTESIAN_POINT('',(9.25,2.9E-16,1.29));
#1119 = DIRECTION('',(0.,-1.,2.2E-16));
#1120 = DIRECTION('',(1.,0.,0.));
#1121 = ADVANCED_FACE('',(#1122),#1125,.F.);
#1122 = FACE_BOUND('',#1123,.T.);
#1123 = EDGE_LOOP('',(#1124));
#1124 = ORIENTED_EDGE('',*,*,#1092,.T.);
#1125 = PLANE('',#1126);
#1126 = AXIS2_PLACEMENT_3D('',#1127,#1128,#1129);
#1127 = CARTESIAN_POINT('',(8.,2.9E-16,1.29));
#1128 = DIRECTION('',(0.,1.,0.));
#1129 = DIRECTION('',(0.,0.,1.));
#1130 = ADVANCED_FACE('',(#1131),#1144,.T.);
#1131 = FACE_BOUND('',#1132,.T.);
#1132 = EDGE_LOOP('',(#1133,#1142,#1143));
#1133 = ORIENTED_EDGE('',*,*,#1134,.F.);
#1134 = EDGE_CURVE('',#1102,#1135,#1137,.T.);
#1135 = VERTEX_POINT('',#1136);
#1136 = CARTESIAN_POINT('',(9.25,2.,1.29));
#1137 = CIRCLE('',#1138,0.455);
#1138 = AXIS2_PLACEMENT_3D('',#1139,#1140,#1141);
#1139 = CARTESIAN_POINT('',(9.25,1.545,1.29));
#1140 = DIRECTION('',(0.,0.,1.));
#1141 = DIRECTION('',(-1.,0.,0.));
#1142 = ORIENTED_EDGE('',*,*,#1109,.T.);
#1143 = ORIENTED_EDGE('',*,*,#1134,.T.);
#1144 = SPHERICAL_SURFACE('',#1145,0.455);
#1145 = AXIS2_PLACEMENT_3D('',#1146,#1147,#1148);
#1146 = CARTESIAN_POINT('',(9.25,1.545,1.29));
#1147 = DIRECTION('',(0.,1.,0.));
#1148 = DIRECTION('',(1.,0.,0.));
#1149 = MANIFOLD_SOLID_BREP('',#1150);
#1150 = CLOSED_SHELL('',(#1151,#1184,#1193));
#1151 = ADVANCED_FACE('',(#1152),#1179,.T.);
#1152 = FACE_BOUND('',#1153,.T.);
#1153 = EDGE_LOOP('',(#1154,#1163,#1171,#1178));
#1154 = ORIENTED_EDGE('',*,*,#1155,.F.);
#1155 = EDGE_CURVE('',#1156,#1156,#1158,.T.);
#1156 = VERTEX_POINT('',#1157);
#1157 = CARTESIAN_POINT('',(7.205,0.,1.29));
#1158 = CIRCLE('',#1159,0.455);
#1159 = AXIS2_PLACEMENT_3D('',#1160,#1161,#1162);
#1160 = CARTESIAN_POINT('',(6.75,0.,1.29));
#1161 = DIRECTION('',(0.,-1.,0.));
#1162 = DIRECTION('',(1.,0.,0.));
#1163 = ORIENTED_EDGE('',*,*,#1164,.T.);
#1164 = EDGE_CURVE('',#1156,#1165,#1167,.T.);
#1165 = VERTEX_POINT('',#1166);
#1166 = CARTESIAN_POINT('',(7.205,1.545,1.29));
#1167 = LINE('',#1168,#1169);
#1168 = CARTESIAN_POINT('',(7.205,2.9E-16,1.29));
#1169 = VECTOR('',#1170,1.);
#1170 = DIRECTION('',(0.,1.,-2.2E-16));
#1171 = ORIENTED_EDGE('',*,*,#1172,.F.);
#1172 = EDGE_CURVE('',#1165,#1165,#1173,.T.);
#1173 = CIRCLE('',#1174,0.455);
#1174 = AXIS2_PLACEMENT_3D('',#1175,#1176,#1177);
#1175 = CARTESIAN_POINT('',(6.75,1.545,1.29));
#1176 = DIRECTION('',(-0.,1.,0.));
#1177 = DIRECTION('',(1.,0.,0.));
#1178 = ORIENTED_EDGE('',*,*,#1164,.F.);
#1179 = CYLINDRICAL_SURFACE('',#1180,0.455);
#1180 = AXIS2_PLACEMENT_3D('',#1181,#1182,#1183);
#1181 = CARTESIAN_POINT('',(6.75,2.9E-16,1.29));
#1182 = DIRECTION('',(0.,-1.,2.2E-16));
#1183 = DIRECTION('',(1.,0.,0.));
#1184 = ADVANCED_FACE('',(#1185),#1188,.F.);
#1185 = FACE_BOUND('',#1186,.T.);
#1186 = EDGE_LOOP('',(#1187));
#1187 = ORIENTED_EDGE('',*,*,#1155,.T.);
#1188 = PLANE('',#1189);
#1189 = AXIS2_PLACEMENT_3D('',#1190,#1191,#1192);
#1190 = CARTESIAN_POINT('',(8.,2.9E-16,1.29));
#1191 = DIRECTION('',(0.,1.,0.));
#1192 = DIRECTION('',(0.,0.,1.));
#1193 = ADVANCED_FACE('',(#1194),#1207,.T.);
#1194 = FACE_BOUND('',#1195,.T.);
#1195 = EDGE_LOOP('',(#1196,#1205,#1206));
#1196 = ORIENTED_EDGE('',*,*,#1197,.F.);
#1197 = EDGE_CURVE('',#1165,#1198,#1200,.T.);
#1198 = VERTEX_POINT('',#1199);
#1199 = CARTESIAN_POINT('',(6.75,2.,1.29));
#1200 = CIRCLE('',#1201,0.455);
#1201 = AXIS2_PLACEMENT_3D('',#1202,#1203,#1204);
#1202 = CARTESIAN_POINT('',(6.75,1.545,1.29));
#1203 = DIRECTION('',(0.,0.,1.));
#1204 = DIRECTION('',(-1.,0.,0.));
#1205 = ORIENTED_EDGE('',*,*,#1172,.T.);
#1206 = ORIENTED_EDGE('',*,*,#1197,.T.);
#1207 = SPHERICAL_SURFACE('',#1208,0.455);
#1208 = AXIS2_PLACEMENT_3D('',#1209,#1210,#1211);
#1209 = CARTESIAN_POINT('',(6.75,1.545,1.29));
#1210 = DIRECTION('',(0.,1.,0.));
#1211 = DIRECTION('',(1.,0.,0.));
#1212 = MANIFOLD_SOLID_BREP('',#1213);
#1213 = CLOSED_SHELL('',(#1214,#1247,#1256));
#1214 = ADVANCED_FACE('',(#1215),#1242,.T.);
#1215 = FACE_BOUND('',#1216,.T.);
#1216 = EDGE_LOOP('',(#1217,#1226,#1234,#1241));
#1217 = ORIENTED_EDGE('',*,*,#1218,.F.);
#1218 = EDGE_CURVE('',#1219,#1219,#1221,.T.);
#1219 = VERTEX_POINT('',#1220);
#1220 = CARTESIAN_POINT('',(4.705,0.,1.29));
#1221 = CIRCLE('',#1222,0.455);
#1222 = AXIS2_PLACEMENT_3D('',#1223,#1224,#1225);
#1223 = CARTESIAN_POINT('',(4.25,0.,1.29));
#1224 = DIRECTION('',(0.,-1.,0.));
#1225 = DIRECTION('',(1.,0.,0.));
#1226 = ORIENTED_EDGE('',*,*,#1227,.T.);
#1227 = EDGE_CURVE('',#1219,#1228,#1230,.T.);
#1228 = VERTEX_POINT('',#1229);
#1229 = CARTESIAN_POINT('',(4.705,1.545,1.29));
#1230 = LINE('',#1231,#1232);
#1231 = CARTESIAN_POINT('',(4.705,2.9E-16,1.29));
#1232 = VECTOR('',#1233,1.);
#1233 = DIRECTION('',(0.,1.,-2.2E-16));
#1234 = ORIENTED_EDGE('',*,*,#1235,.F.);
#1235 = EDGE_CURVE('',#1228,#1228,#1236,.T.);
#1236 = CIRCLE('',#1237,0.455);
#1237 = AXIS2_PLACEMENT_3D('',#1238,#1239,#1240);
#1238 = CARTESIAN_POINT('',(4.25,1.545,1.29));
#1239 = DIRECTION('',(-0.,1.,0.));
#1240 = DIRECTION('',(1.,0.,0.));
#1241 = ORIENTED_EDGE('',*,*,#1227,.F.);
#1242 = CYLINDRICAL_SURFACE('',#1243,0.455);
#1243 = AXIS2_PLACEMENT_3D('',#1244,#1245,#1246);
#1244 = CARTESIAN_POINT('',(4.25,2.9E-16,1.29));
#1245 = DIRECTION('',(0.,-1.,2.2E-16));
#1246 = DIRECTION('',(1.,0.,0.));
#1247 = ADVANCED_FACE('',(#1248),#1251,.F.);
#1248 = FACE_BOUND('',#1249,.T.);
#1249 = EDGE_LOOP('',(#1250));
#1250 = ORIENTED_EDGE('',*,*,#1218,.T.);
#1251 = PLANE('',#1252);
#1252 = AXIS2_PLACEMENT_3D('',#1253,#1254,#1255);
#1253 = CARTESIAN_POINT('',(8.,2.9E-16,1.29));
#1254 = DIRECTION('',(0.,1.,0.));
#1255 = DIRECTION('',(0.,0.,1.));
#1256 = ADVANCED_FACE('',(#1257),#1270,.T.);
#1257 = FACE_BOUND('',#1258,.T.);
#1258 = EDGE_LOOP('',(#1259,#1268,#1269));
#1259 = ORIENTED_EDGE('',*,*,#1260,.F.);
#1260 = EDGE_CURVE('',#1228,#1261,#1263,.T.);
#1261 = VERTEX_POINT('',#1262);
#1262 = CARTESIAN_POINT('',(4.25,2.,1.29));
#1263 = CIRCLE('',#1264,0.455);
#1264 = AXIS2_PLACEMENT_3D('',#1265,#1266,#1267);
#1265 = CARTESIAN_POINT('',(4.25,1.545,1.29));
#1266 = DIRECTION('',(0.,0.,1.));
#1267 = DIRECTION('',(1.,0.,0.));
#1268 = ORIENTED_EDGE('',*,*,#1235,.T.);
#1269 = ORIENTED_EDGE('',*,*,#1260,.T.);
#1270 = SPHERICAL_SURFACE('',#1271,0.455);
#1271 = AXIS2_PLACEMENT_3D('',#1272,#1273,#1274);
#1272 = CARTESIAN_POINT('',(4.25,1.545,1.29));
#1273 = DIRECTION('',(0.,1.,0.));
#1274 = DIRECTION('',(1.,0.,0.));
#1275 = MANIFOLD_SOLID_BREP('',#1276);
#1276 = CLOSED_SHELL('',(#1277,#1310,#1319));
#1277 = ADVANCED_FACE('',(#1278),#1305,.T.);
#1278 = FACE_BOUND('',#1279,.T.);
#1279 = EDGE_LOOP('',(#1280,#1289,#1297,#1304));
#1280 = ORIENTED_EDGE('',*,*,#1281,.F.);
#1281 = EDGE_CURVE('',#1282,#1282,#1284,.T.);
#1282 = VERTEX_POINT('',#1283);
#1283 = CARTESIAN_POINT('',(2.205,0.,1.29));
#1284 = CIRCLE('',#1285,0.455);
#1285 = AXIS2_PLACEMENT_3D('',#1286,#1287,#1288);
#1286 = CARTESIAN_POINT('',(1.75,0.,1.29));
#1287 = DIRECTION('',(0.,-1.,0.));
#1288 = DIRECTION('',(1.,0.,0.));
#1289 = ORIENTED_EDGE('',*,*,#1290,.T.);
#1290 = EDGE_CURVE('',#1282,#1291,#1293,.T.);
#1291 = VERTEX_POINT('',#1292);
#1292 = CARTESIAN_POINT('',(2.205,1.545,1.29));
#1293 = LINE('',#1294,#1295);
#1294 = CARTESIAN_POINT('',(2.205,2.9E-16,1.29));
#1295 = VECTOR('',#1296,1.);
#1296 = DIRECTION('',(0.,1.,-2.2E-16));
#1297 = ORIENTED_EDGE('',*,*,#1298,.F.);
#1298 = EDGE_CURVE('',#1291,#1291,#1299,.T.);
#1299 = CIRCLE('',#1300,0.455);
#1300 = AXIS2_PLACEMENT_3D('',#1301,#1302,#1303);
#1301 = CARTESIAN_POINT('',(1.75,1.545,1.29));
#1302 = DIRECTION('',(-0.,1.,0.));
#1303 = DIRECTION('',(1.,0.,0.));
#1304 = ORIENTED_EDGE('',*,*,#1290,.F.);
#1305 = CYLINDRICAL_SURFACE('',#1306,0.455);
#1306 = AXIS2_PLACEMENT_3D('',#1307,#1308,#1309);
#1307 = CARTESIAN_POINT('',(1.75,2.9E-16,1.29));
#1308 = DIRECTION('',(0.,-1.,2.2E-16));
#1309 = DIRECTION('',(1.,0.,0.));
#1310 = ADVANCED_FACE('',(#1311),#1314,.F.);
#1311 = FACE_BOUND('',#1312,.T.);
#1312 = EDGE_LOOP('',(#1313));
#1313 = ORIENTED_EDGE('',*,*,#1281,.T.);
#1314 = PLANE('',#1315);
#1315 = AXIS2_PLACEMENT_3D('',#1316,#1317,#1318);
#1316 = CARTESIAN_POINT('',(8.,2.9E-16,1.29));
#1317 = DIRECTION('',(0.,1.,0.));
#1318 = DIRECTION('',(0.,0.,1.));
#1319 = ADVANCED_FACE('',(#1320),#1333,.T.);
#1320 = FACE_BOUND('',#1321,.T.);
#1321 = EDGE_LOOP('',(#1322,#1331,#1332));
#1322 = ORIENTED_EDGE('',*,*,#1323,.F.);
#1323 = EDGE_CURVE('',#1291,#1324,#1326,.T.);
#1324 = VERTEX_POINT('',#1325);
#1325 = CARTESIAN_POINT('',(1.75,2.,1.29));
#1326 = CIRCLE('',#1327,0.455);
#1327 = AXIS2_PLACEMENT_3D('',#1328,#1329,#1330);
#1328 = CARTESIAN_POINT('',(1.75,1.545,1.29));
#1329 = DIRECTION('',(0.,0.,1.));
#1330 = DIRECTION('',(-1.,0.,0.));
#1331 = ORIENTED_EDGE('',*,*,#1298,.T.);
#1332 = ORIENTED_EDGE('',*,*,#1323,.T.);
#1333 = SPHERICAL_SURFACE('',#1334,0.455);
#1334 = AXIS2_PLACEMENT_3D('',#1335,#1336,#1337);
#1335 = CARTESIAN_POINT('',(1.75,1.545,1.29));
#1336 = DIRECTION('',(0.,1.,0.));
#1337 = DIRECTION('',(1.,0.,0.));
#1338 = ( GEOMETRIC_REPRESENTATION_CONTEXT(3) 
GLOBAL_UNCERTAINTY_ASSIGNED_CONTEXT((#1342)) 
GLOBAL_UNIT_ASSIGNED_CONTEXT((#1339,#1340,#1341)) REPRESENTATION_CONTEXT
('Context #1','3D Context with UNIT and UNCERTAINTY') );
#1339 = ( LENGTH_UNIT() NAMED_UNIT(*) SI_UNIT(.MILLI.,.METRE.) );
#1340 = ( NAMED_UNIT(*) PLANE_ANGLE_UNIT() SI_UNIT($,.RADIAN.) );
#1341 = ( NAMED_UNIT(*) SI_UNIT($,.STERADIAN.) SOLID_ANGLE_UNIT() );
#1342 = UNCERTAINTY_MEASURE_WITH_UNIT(LENGTH_MEASURE(1.E-07),#1339,
  'distance_accuracy_value','confusion accuracy');
#1343 = CONTEXT_DEPENDENT_SHAPE_REPRESENTATION(#1344,#1346);
#1344 = ( REPRESENTATION_RELATIONSHIP('','',#959,#10) 
REPRESENTATION_RELATIONSHIP_WITH_TRANSFORMATION(#1345) 
SHAPE_REPRESENTATION_RELATIONSHIP() );
#1345 = ITEM_DEFINED_TRANSFORMATION('','',#11,#19);
#1346 = PRODUCT_DEFINITION_SHAPE('Placement','Placement of an item',
  #1347);
#1347 = NEXT_ASSEMBLY_USAGE_OCCURRENCE('5','pins','',#5,#954,$);
#1348 = PRODUCT_RELATED_PRODUCT_CATEGORY('part',$,(#956));
#1349 = SHAPE_DEFINITION_REPRESENTATION(#1350,#1356);
#1350 = PRODUCT_DEFINITION_SHAPE('','',#1351);
#1351 = PRODUCT_DEFINITION('design','',#1352,#1355);
#1352 = PRODUCT_DEFINITION_FORMATION('','',#1353);
#1353 = PRODUCT('Body','Body','',(#1354));
#1354 = PRODUCT_CONTEXT('',#2,'mechanical');
#1355 = PRODUCT_DEFINITION_CONTEXT('part definition',#2,'design');
#1356 = ADVANCED_BREP_SHAPE_REPRESENTATION('',(#11,#1357),#1779);
#1357 = MANIFOLD_SOLID_BREP('',#1358);
#1358 = CLOSED_SHELL('',(#1359,#1392,#1417,#1503,#1512,#1543,#1567,#1591
    ,#1615,#1639,#1663,#1687,#1704,#1729,#1745,#1770));
#1359 = ADVANCED_FACE('',(#1360),#1387,.T.);
#1360 = FACE_BOUND('',#1361,.T.);
#1361 = EDGE_LOOP('',(#1362,#1372,#1379,#1380));
#1362 = ORIENTED_EDGE('',*,*,#1363,.T.);
#1363 = EDGE_CURVE('',#1364,#1366,#1368,.T.);
#1364 = VERTEX_POINT('',#1365);
#1365 = CARTESIAN_POINT('',(3.25,-2.25,0.));
#1366 = VERTEX_POINT('',#1367);
#1367 = CARTESIAN_POINT('',(3.25,-2.25,-0.475));
#1368 = LINE('',#1369,#1370);
#1369 = CARTESIAN_POINT('',(3.25,-2.25,0.));
#1370 = VECTOR('',#1371,1.);
#1371 = DIRECTION('',(-0.,-0.,-1.));
#1372 = ORIENTED_EDGE('',*,*,#1373,.T.);
#1373 = EDGE_CURVE('',#1366,#1366,#1374,.T.);
#1374 = CIRCLE('',#1375,0.25);
#1375 = AXIS2_PLACEMENT_3D('',#1376,#1377,#1378);
#1376 = CARTESIAN_POINT('',(3.,-2.25,-0.475));
#1377 = DIRECTION('',(0.,0.,1.));
#1378 = DIRECTION('',(1.,0.,-0.));
#1379 = ORIENTED_EDGE('',*,*,#1363,.F.);
#1380 = ORIENTED_EDGE('',*,*,#1381,.F.);
#1381 = EDGE_CURVE('',#1364,#1364,#1382,.T.);
#1382 = CIRCLE('',#1383,0.25);
#1383 = AXIS2_PLACEMENT_3D('',#1384,#1385,#1386);
#1384 = CARTESIAN_POINT('',(3.,-2.25,0.));
#1385 = DIRECTION('',(0.,0.,1.));
#1386 = DIRECTION('',(1.,0.,0.));
#1387 = CYLINDRICAL_SURFACE('',#1388,0.25);
#1388 = AXIS2_PLACEMENT_3D('',#1389,#1390,#1391);
#1389 = CARTESIAN_POINT('',(3.,-2.25,0.));
#1390 = DIRECTION('',(0.,0.,1.));
#1391 = DIRECTION('',(1.,0.,0.));
#1392 = ADVANCED_FACE('',(#1393),#1412,.T.);
#1393 = FACE_BOUND('',#1394,.F.);
#1394 = EDGE_LOOP('',(#1395,#1403,#1404,#1405));
#1395 = ORIENTED_EDGE('',*,*,#1396,.F.);
#1396 = EDGE_CURVE('',#1366,#1397,#1399,.T.);
#1397 = VERTEX_POINT('',#1398);
#1398 = CARTESIAN_POINT('',(3.175,-2.25,-0.55));
#1399 = LINE('',#1400,#1401);
#1400 = CARTESIAN_POINT('',(3.25,-2.25,-0.475));
#1401 = VECTOR('',#1402,1.);
#1402 = DIRECTION('',(-0.707106781187,-0.,-0.707106781187));
#1403 = ORIENTED_EDGE('',*,*,#1373,.T.);
#1404 = ORIENTED_EDGE('',*,*,#1396,.T.);
#1405 = ORIENTED_EDGE('',*,*,#1406,.F.);
#1406 = EDGE_CURVE('',#1397,#1397,#1407,.T.);
#1407 = CIRCLE('',#1408,0.175);
#1408 = AXIS2_PLACEMENT_3D('',#1409,#1410,#1411);
#1409 = CARTESIAN_POINT('',(3.,-2.25,-0.55));
#1410 = DIRECTION('',(0.,0.,1.));
#1411 = DIRECTION('',(1.,0.,-0.));
#1412 = CONICAL_SURFACE('',#1413,0.25,0.785398163397);
#1413 = AXIS2_PLACEMENT_3D('',#1414,#1415,#1416);
#1414 = CARTESIAN_POINT('',(3.,-2.25,-0.475));
#1415 = DIRECTION('',(0.,0.,1.));
#1416 = DIRECTION('',(1.,0.,0.));
#1417 = ADVANCED_FACE('',(#1418,#1484,#1487),#1498,.F.);
#1418 = FACE_BOUND('',#1419,.F.);
#1419 = EDGE_LOOP('',(#1420,#1430,#1438,#1446,#1454,#1462,#1470,#1478));
#1420 = ORIENTED_EDGE('',*,*,#1421,.T.);
#1421 = EDGE_CURVE('',#1422,#1424,#1426,.T.);
#1422 = VERTEX_POINT('',#1423);
#1423 = CARTESIAN_POINT('',(0.,-3.5,0.));
#1424 = VERTEX_POINT('',#1425);
#1425 = CARTESIAN_POINT('',(16.,-3.5,0.));
#1426 = LINE('',#1427,#1428);
#1427 = CARTESIAN_POINT('',(0.,-3.5,0.));
#1428 = VECTOR('',#1429,1.);
#1429 = DIRECTION('',(1.,0.,0.));
#1430 = ORIENTED_EDGE('',*,*,#1431,.T.);
#1431 = EDGE_CURVE('',#1424,#1432,#1434,.T.);
#1432 = VERTEX_POINT('',#1433);
#1433 = CARTESIAN_POINT('',(16.,-1.,0.));
#1434 = LINE('',#1435,#1436);
#1435 = CARTESIAN_POINT('',(16.,-3.5,0.));
#1436 = VECTOR('',#1437,1.);
#1437 = DIRECTION('',(0.,1.,0.));
#1438 = ORIENTED_EDGE('',*,*,#1439,.T.);
#1439 = EDGE_CURVE('',#1432,#1440,#1442,.T.);
#1440 = VERTEX_POINT('',#1441);
#1441 = CARTESIAN_POINT('',(15.5,-1.,0.));
#1442 = LINE('',#1443,#1444);
#1443 = CARTESIAN_POINT('',(16.,-1.,0.));
#1444 = VECTOR('',#1445,1.);
#1445 = DIRECTION('',(-1.,0.,0.));
#1446 = ORIENTED_EDGE('',*,*,#1447,.T.);
#1447 = EDGE_CURVE('',#1440,#1448,#1450,.T.);
#1448 = VERTEX_POINT('',#1449);
#1449 = CARTESIAN_POINT('',(15.5,0.,0.));
#1450 = LINE('',#1451,#1452);
#1451 = CARTESIAN_POINT('',(15.5,-1.,0.));
#1452 = VECTOR('',#1453,1.);
#1453 = DIRECTION('',(0.,1.,0.));
#1454 = ORIENTED_EDGE('',*,*,#1455,.F.);
#1455 = EDGE_CURVE('',#1456,#1448,#1458,.T.);
#1456 = VERTEX_POINT('',#1457);
#1457 = CARTESIAN_POINT('',(0.5,0.,0.));
#1458 = LINE('',#1459,#1460);
#1459 = CARTESIAN_POINT('',(0.5,0.,0.));
#1460 = VECTOR('',#1461,1.);
#1461 = DIRECTION('',(1.,0.,0.));
#1462 = ORIENTED_EDGE('',*,*,#1463,.F.);
#1463 = EDGE_CURVE('',#1464,#1456,#1466,.T.);
#1464 = VERTEX_POINT('',#1465);
#1465 = CARTESIAN_POINT('',(0.5,-1.,0.));
#1466 = LINE('',#1467,#1468);
#1467 = CARTESIAN_POINT('',(0.5,-1.,0.));
#1468 = VECTOR('',#1469,1.);
#1469 = DIRECTION('',(0.,1.,0.));
#1470 = ORIENTED_EDGE('',*,*,#1471,.F.);
#1471 = EDGE_CURVE('',#1472,#1464,#1474,.T.);
#1472 = VERTEX_POINT('',#1473);
#1473 = CARTESIAN_POINT('',(0.,-1.,0.));
#1474 = LINE('',#1475,#1476);
#1475 = CARTESIAN_POINT('',(0.,-1.,0.));
#1476 = VECTOR('',#1477,1.);
#1477 = DIRECTION('',(1.,0.,0.));
#1478 = ORIENTED_EDGE('',*,*,#1479,.F.);
#1479 = EDGE_CURVE('',#1422,#1472,#1480,.T.);
#1480 = LINE('',#1481,#1482);
#1481 = CARTESIAN_POINT('',(0.,-3.5,0.));
#1482 = VECTOR('',#1483,1.);
#1483 = DIRECTION('',(0.,1.,0.));
#1484 = FACE_BOUND('',#1485,.F.);
#1485 = EDGE_LOOP('',(#1486));
#1486 = ORIENTED_EDGE('',*,*,#1381,.F.);
#1487 = FACE_BOUND('',#1488,.F.);
#1488 = EDGE_LOOP('',(#1489));
#1489 = ORIENTED_EDGE('',*,*,#1490,.F.);
#1490 = EDGE_CURVE('',#1491,#1491,#1493,.T.);
#1491 = VERTEX_POINT('',#1492);
#1492 = CARTESIAN_POINT('',(13.25,-2.25,0.));
#1493 = CIRCLE('',#1494,0.25);
#1494 = AXIS2_PLACEMENT_3D('',#1495,#1496,#1497);
#1495 = CARTESIAN_POINT('',(13.,-2.25,0.));
#1496 = DIRECTION('',(0.,0.,1.));
#1497 = DIRECTION('',(1.,0.,0.));
#1498 = PLANE('',#1499);
#1499 = AXIS2_PLACEMENT_3D('',#1500,#1501,#1502);
#1500 = CARTESIAN_POINT('',(8.,-1.775641025641,0.));
#1501 = DIRECTION('',(0.,0.,1.));
#1502 = DIRECTION('',(1.,0.,0.));
#1503 = ADVANCED_FACE('',(#1504),#1507,.F.);
#1504 = FACE_BOUND('',#1505,.F.);
#1505 = EDGE_LOOP('',(#1506));
#1506 = ORIENTED_EDGE('',*,*,#1406,.T.);
#1507 = PLANE('',#1508);
#1508 = AXIS2_PLACEMENT_3D('',#1509,#1510,#1511);
#1509 = CARTESIAN_POINT('',(8.,-2.25,-0.55));
#1510 = DIRECTION('',(0.,0.,1.));
#1511 = DIRECTION('',(1.,0.,0.));
#1512 = ADVANCED_FACE('',(#1513),#1538,.F.);
#1513 = FACE_BOUND('',#1514,.F.);
#1514 = EDGE_LOOP('',(#1515,#1523,#1531,#1537));
#1515 = ORIENTED_EDGE('',*,*,#1516,.T.);
#1516 = EDGE_CURVE('',#1422,#1517,#1519,.T.);
#1517 = VERTEX_POINT('',#1518);
#1518 = CARTESIAN_POINT('',(0.,-3.5,2.5));
#1519 = LINE('',#1520,#1521);
#1520 = CARTESIAN_POINT('',(0.,-3.5,0.));
#1521 = VECTOR('',#1522,1.);
#1522 = DIRECTION('',(0.,0.,1.));
#1523 = ORIENTED_EDGE('',*,*,#1524,.T.);
#1524 = EDGE_CURVE('',#1517,#1525,#1527,.T.);
#1525 = VERTEX_POINT('',#1526);
#1526 = CARTESIAN_POINT('',(16.,-3.5,2.5));
#1527 = LINE('',#1528,#1529);
#1528 = CARTESIAN_POINT('',(0.,-3.5,2.5));
#1529 = VECTOR('',#1530,1.);
#1530 = DIRECTION('',(1.,0.,0.));
#1531 = ORIENTED_EDGE('',*,*,#1532,.F.);
#1532 = EDGE_CURVE('',#1424,#1525,#1533,.T.);
#1533 = LINE('',#1534,#1535);
#1534 = CARTESIAN_POINT('',(16.,-3.5,0.));
#1535 = VECTOR('',#1536,1.);
#1536 = DIRECTION('',(0.,0.,1.));
#1537 = ORIENTED_EDGE('',*,*,#1421,.F.);
#1538 = PLANE('',#1539);
#1539 = AXIS2_PLACEMENT_3D('',#1540,#1541,#1542);
#1540 = CARTESIAN_POINT('',(0.,-3.5,0.));
#1541 = DIRECTION('',(0.,1.,0.));
#1542 = DIRECTION('',(1.,0.,0.));
#1543 = ADVANCED_FACE('',(#1544),#1562,.T.);
#1544 = FACE_BOUND('',#1545,.T.);
#1545 = EDGE_LOOP('',(#1546,#1547,#1555,#1561));
#1546 = ORIENTED_EDGE('',*,*,#1516,.T.);
#1547 = ORIENTED_EDGE('',*,*,#1548,.T.);
#1548 = EDGE_CURVE('',#1517,#1549,#1551,.T.);
#1549 = VERTEX_POINT('',#1550);
#1550 = CARTESIAN_POINT('',(0.,-1.,2.5));
#1551 = LINE('',#1552,#1553);
#1552 = CARTESIAN_POINT('',(0.,-3.5,2.5));
#1553 = VECTOR('',#1554,1.);
#1554 = DIRECTION('',(0.,1.,0.));
#1555 = ORIENTED_EDGE('',*,*,#1556,.F.);
#1556 = EDGE_CURVE('',#1472,#1549,#1557,.T.);
#1557 = LINE('',#1558,#1559);
#1558 = CARTESIAN_POINT('',(0.,-1.,0.));
#1559 = VECTOR('',#1560,1.);
#1560 = DIRECTION('',(0.,0.,1.));
#1561 = ORIENTED_EDGE('',*,*,#1479,.F.);
#1562 = PLANE('',#1563);
#1563 = AXIS2_PLACEMENT_3D('',#1564,#1565,#1566);
#1564 = CARTESIAN_POINT('',(0.,-3.5,0.));
#1565 = DIRECTION('',(-1.,0.,0.));
#1566 = DIRECTION('',(0.,1.,0.));
#1567 = ADVANCED_FACE('',(#1568),#1586,.F.);
#1568 = FACE_BOUND('',#1569,.F.);
#1569 = EDGE_LOOP('',(#1570,#1571,#1579,#1585));
#1570 = ORIENTED_EDGE('',*,*,#1532,.T.);
#1571 = ORIENTED_EDGE('',*,*,#1572,.T.);
#1572 = EDGE_CURVE('',#1525,#1573,#1575,.T.);
#1573 = VERTEX_POINT('',#1574);
#1574 = CARTESIAN_POINT('',(16.,-1.,2.5));
#1575 = LINE('',#1576,#1577);
#1576 = CARTESIAN_POINT('',(16.,-3.5,2.5));
#1577 = VECTOR('',#1578,1.);
#1578 = DIRECTION('',(0.,1.,0.));
#1579 = ORIENTED_EDGE('',*,*,#1580,.F.);
#1580 = EDGE_CURVE('',#1432,#1573,#1581,.T.);
#1581 = LINE('',#1582,#1583);
#1582 = CARTESIAN_POINT('',(16.,-1.,0.));
#1583 = VECTOR('',#1584,1.);
#1584 = DIRECTION('',(0.,0.,1.));
#1585 = ORIENTED_EDGE('',*,*,#1431,.F.);
#1586 = PLANE('',#1587);
#1587 = AXIS2_PLACEMENT_3D('',#1588,#1589,#1590);
#1588 = CARTESIAN_POINT('',(16.,-3.5,0.));
#1589 = DIRECTION('',(-1.,0.,0.));
#1590 = DIRECTION('',(0.,1.,0.));
#1591 = ADVANCED_FACE('',(#1592),#1610,.T.);
#1592 = FACE_BOUND('',#1593,.T.);
#1593 = EDGE_LOOP('',(#1594,#1595,#1603,#1609));
#1594 = ORIENTED_EDGE('',*,*,#1556,.T.);
#1595 = ORIENTED_EDGE('',*,*,#1596,.T.);
#1596 = EDGE_CURVE('',#1549,#1597,#1599,.T.);
#1597 = VERTEX_POINT('',#1598);
#1598 = CARTESIAN_POINT('',(0.5,-1.,2.5));
#1599 = LINE('',#1600,#1601);
#1600 = CARTESIAN_POINT('',(0.,-1.,2.5));
#1601 = VECTOR('',#1602,1.);
#1602 = DIRECTION('',(1.,0.,0.));
#1603 = ORIENTED_EDGE('',*,*,#1604,.F.);
#1604 = EDGE_CURVE('',#1464,#1597,#1605,.T.);
#1605 = LINE('',#1606,#1607);
#1606 = CARTESIAN_POINT('',(0.5,-1.,0.));
#1607 = VECTOR('',#1608,1.);
#1608 = DIRECTION('',(0.,0.,1.));
#1609 = ORIENTED_EDGE('',*,*,#1471,.F.);
#1610 = PLANE('',#1611);
#1611 = AXIS2_PLACEMENT_3D('',#1612,#1613,#1614);
#1612 = CARTESIAN_POINT('',(0.,-1.,0.));
#1613 = DIRECTION('',(0.,1.,0.));
#1614 = DIRECTION('',(1.,0.,0.));
#1615 = ADVANCED_FACE('',(#1616),#1634,.F.);
#1616 = FACE_BOUND('',#1617,.F.);
#1617 = EDGE_LOOP('',(#1618,#1619,#1627,#1633));
#1618 = ORIENTED_EDGE('',*,*,#1580,.T.);
#1619 = ORIENTED_EDGE('',*,*,#1620,.T.);
#1620 = EDGE_CURVE('',#1573,#1621,#1623,.T.);
#1621 = VERTEX_POINT('',#1622);
#1622 = CARTESIAN_POINT('',(15.5,-1.,2.5));
#1623 = LINE('',#1624,#1625);
#1624 = CARTESIAN_POINT('',(16.,-1.,2.5));
#1625 = VECTOR('',#1626,1.);
#1626 = DIRECTION('',(-1.,0.,0.));
#1627 = ORIENTED_EDGE('',*,*,#1628,.F.);
#1628 = EDGE_CURVE('',#1440,#1621,#1629,.T.);
#1629 = LINE('',#1630,#1631);
#1630 = CARTESIAN_POINT('',(15.5,-1.,0.));
#1631 = VECTOR('',#1632,1.);
#1632 = DIRECTION('',(0.,0.,1.));
#1633 = ORIENTED_EDGE('',*,*,#1439,.F.);
#1634 = PLANE('',#1635);
#1635 = AXIS2_PLACEMENT_3D('',#1636,#1637,#1638);
#1636 = CARTESIAN_POINT('',(16.,-1.,0.));
#1637 = DIRECTION('',(0.,-1.,0.));
#1638 = DIRECTION('',(-1.,0.,0.));
#1639 = ADVANCED_FACE('',(#1640),#1658,.T.);
#1640 = FACE_BOUND('',#1641,.T.);
#1641 = EDGE_LOOP('',(#1642,#1643,#1651,#1657));
#1642 = ORIENTED_EDGE('',*,*,#1604,.T.);
#1643 = ORIENTED_EDGE('',*,*,#1644,.T.);
#1644 = EDGE_CURVE('',#1597,#1645,#1647,.T.);
#1645 = VERTEX_POINT('',#1646);
#1646 = CARTESIAN_POINT('',(0.5,0.,2.5));
#1647 = LINE('',#1648,#1649);
#1648 = CARTESIAN_POINT('',(0.5,-1.,2.5));
#1649 = VECTOR('',#1650,1.);
#1650 = DIRECTION('',(0.,1.,0.));
#1651 = ORIENTED_EDGE('',*,*,#1652,.F.);
#1652 = EDGE_CURVE('',#1456,#1645,#1653,.T.);
#1653 = LINE('',#1654,#1655);
#1654 = CARTESIAN_POINT('',(0.5,0.,0.));
#1655 = VECTOR('',#1656,1.);
#1656 = DIRECTION('',(0.,0.,1.));
#1657 = ORIENTED_EDGE('',*,*,#1463,.F.);
#1658 = PLANE('',#1659);
#1659 = AXIS2_PLACEMENT_3D('',#1660,#1661,#1662);
#1660 = CARTESIAN_POINT('',(0.5,-1.,0.));
#1661 = DIRECTION('',(-1.,0.,0.));
#1662 = DIRECTION('',(0.,1.,0.));
#1663 = ADVANCED_FACE('',(#1664),#1682,.F.);
#1664 = FACE_BOUND('',#1665,.F.);
#1665 = EDGE_LOOP('',(#1666,#1667,#1675,#1681));
#1666 = ORIENTED_EDGE('',*,*,#1628,.T.);
#1667 = ORIENTED_EDGE('',*,*,#1668,.T.);
#1668 = EDGE_CURVE('',#1621,#1669,#1671,.T.);
#1669 = VERTEX_POINT('',#1670);
#1670 = CARTESIAN_POINT('',(15.5,0.,2.5));
#1671 = LINE('',#1672,#1673);
#1672 = CARTESIAN_POINT('',(15.5,-1.,2.5));
#1673 = VECTOR('',#1674,1.);
#1674 = DIRECTION('',(0.,1.,0.));
#1675 = ORIENTED_EDGE('',*,*,#1676,.F.);
#1676 = EDGE_CURVE('',#1448,#1669,#1677,.T.);
#1677 = LINE('',#1678,#1679);
#1678 = CARTESIAN_POINT('',(15.5,0.,0.));
#1679 = VECTOR('',#1680,1.);
#1680 = DIRECTION('',(0.,0.,1.));
#1681 = ORIENTED_EDGE('',*,*,#1447,.F.);
#1682 = PLANE('',#1683);
#1683 = AXIS2_PLACEMENT_3D('',#1684,#1685,#1686);
#1684 = CARTESIAN_POINT('',(15.5,-1.,0.));
#1685 = DIRECTION('',(-1.,0.,0.));
#1686 = DIRECTION('',(0.,1.,0.));
#1687 = ADVANCED_FACE('',(#1688),#1699,.T.);
#1688 = FACE_BOUND('',#1689,.T.);
#1689 = EDGE_LOOP('',(#1690,#1691,#1697,#1698));
#1690 = ORIENTED_EDGE('',*,*,#1652,.T.);
#1691 = ORIENTED_EDGE('',*,*,#1692,.T.);
#1692 = EDGE_CURVE('',#1645,#1669,#1693,.T.);
#1693 = LINE('',#1694,#1695);
#1694 = CARTESIAN_POINT('',(0.5,0.,2.5));
#1695 = VECTOR('',#1696,1.);
#1696 = DIRECTION('',(1.,0.,0.));
#1697 = ORIENTED_EDGE('',*,*,#1676,.F.);
#1698 = ORIENTED_EDGE('',*,*,#1455,.F.);
#1699 = PLANE('',#1700);
#1700 = AXIS2_PLACEMENT_3D('',#1701,#1702,#1703);
#1701 = CARTESIAN_POINT('',(0.5,0.,0.));
#1702 = DIRECTION('',(0.,1.,0.));
#1703 = DIRECTION('',(1.,0.,0.));
#1704 = ADVANCED_FACE('',(#1705),#1724,.T.);
#1705 = FACE_BOUND('',#1706,.T.);
#1706 = EDGE_LOOP('',(#1707,#1715,#1722,#1723));
#1707 = ORIENTED_EDGE('',*,*,#1708,.T.);
#1708 = EDGE_CURVE('',#1491,#1709,#1711,.T.);
#1709 = VERTEX_POINT('',#1710);
#1710 = CARTESIAN_POINT('',(13.25,-2.25,-0.475));
#1711 = LINE('',#1712,#1713);
#1712 = CARTESIAN_POINT('',(13.25,-2.25,0.));
#1713 = VECTOR('',#1714,1.);
#1714 = DIRECTION('',(-0.,-0.,-1.));
#1715 = ORIENTED_EDGE('',*,*,#1716,.T.);
#1716 = EDGE_CURVE('',#1709,#1709,#1717,.T.);
#1717 = CIRCLE('',#1718,0.25);
#1718 = AXIS2_PLACEMENT_3D('',#1719,#1720,#1721);
#1719 = CARTESIAN_POINT('',(13.,-2.25,-0.475));
#1720 = DIRECTION('',(0.,0.,1.));
#1721 = DIRECTION('',(1.,0.,0.));
#1722 = ORIENTED_EDGE('',*,*,#1708,.F.);
#1723 = ORIENTED_EDGE('',*,*,#1490,.F.);
#1724 = CYLINDRICAL_SURFACE('',#1725,0.25);
#1725 = AXIS2_PLACEMENT_3D('',#1726,#1727,#1728);
#1726 = CARTESIAN_POINT('',(13.,-2.25,0.));
#1727 = DIRECTION('',(0.,0.,1.));
#1728 = DIRECTION('',(1.,0.,0.));
#1729 = ADVANCED_FACE('',(#1730),#1740,.T.);
#1730 = FACE_BOUND('',#1731,.T.);
#1731 = EDGE_LOOP('',(#1732,#1733,#1734,#1735,#1736,#1737,#1738,#1739));
#1732 = ORIENTED_EDGE('',*,*,#1524,.T.);
#1733 = ORIENTED_EDGE('',*,*,#1572,.T.);
#1734 = ORIENTED_EDGE('',*,*,#1620,.T.);
#1735 = ORIENTED_EDGE('',*,*,#1668,.T.);
#1736 = ORIENTED_EDGE('',*,*,#1692,.F.);
#1737 = ORIENTED_EDGE('',*,*,#1644,.F.);
#1738 = ORIENTED_EDGE('',*,*,#1596,.F.);
#1739 = ORIENTED_EDGE('',*,*,#1548,.F.);
#1740 = PLANE('',#1741);
#1741 = AXIS2_PLACEMENT_3D('',#1742,#1743,#1744);
#1742 = CARTESIAN_POINT('',(8.,-1.775641025641,2.5));
#1743 = DIRECTION('',(0.,0.,1.));
#1744 = DIRECTION('',(1.,0.,0.));
#1745 = ADVANCED_FACE('',(#1746),#1765,.T.);
#1746 = FACE_BOUND('',#1747,.F.);
#1747 = EDGE_LOOP('',(#1748,#1756,#1757,#1758));
#1748 = ORIENTED_EDGE('',*,*,#1749,.F.);
#1749 = EDGE_CURVE('',#1709,#1750,#1752,.T.);
#1750 = VERTEX_POINT('',#1751);
#1751 = CARTESIAN_POINT('',(13.175,-2.25,-0.55));
#1752 = LINE('',#1753,#1754);
#1753 = CARTESIAN_POINT('',(13.25,-2.25,-0.475));
#1754 = VECTOR('',#1755,1.);
#1755 = DIRECTION('',(-0.707106781187,-0.,-0.707106781187));
#1756 = ORIENTED_EDGE('',*,*,#1716,.T.);
#1757 = ORIENTED_EDGE('',*,*,#1749,.T.);
#1758 = ORIENTED_EDGE('',*,*,#1759,.F.);
#1759 = EDGE_CURVE('',#1750,#1750,#1760,.T.);
#1760 = CIRCLE('',#1761,0.175);
#1761 = AXIS2_PLACEMENT_3D('',#1762,#1763,#1764);
#1762 = CARTESIAN_POINT('',(13.,-2.25,-0.55));
#1763 = DIRECTION('',(0.,0.,1.));
#1764 = DIRECTION('',(1.,0.,0.));
#1765 = CONICAL_SURFACE('',#1766,0.25,0.785398163397);
#1766 = AXIS2_PLACEMENT_3D('',#1767,#1768,#1769);
#1767 = CARTESIAN_POINT('',(13.,-2.25,-0.475));
#1768 = DIRECTION('',(0.,0.,1.));
#1769 = DIRECTION('',(1.,0.,0.));
#1770 = ADVANCED_FACE('',(#1771),#1774,.F.);
#1771 = FACE_BOUND('',#1772,.F.);
#1772 = EDGE_LOOP('',(#1773));
#1773 = ORIENTED_EDGE('',*,*,#1759,.T.);
#1774 = PLANE('',#1775);
#1775 = AXIS2_PLACEMENT_3D('',#1776,#1777,#1778);
#1776 = CARTESIAN_POINT('',(8.,-2.25,-0.55));
#1777 = DIRECTION('',(0.,0.,1.));
#1778 = DIRECTION('',(1.,0.,0.));
#1779 = ( GEOMETRIC_REPRESENTATION_CONTEXT(3) 
GLOBAL_UNCERTAINTY_ASSIGNED_CONTEXT((#1783)) 
GLOBAL_UNIT_ASSIGNED_CONTEXT((#1780,#1781,#1782)) REPRESENTATION_CONTEXT
('Context #1','3D Context with UNIT and UNCERTAINTY') );
#1780 = ( LENGTH_UNIT() NAMED_UNIT(*) SI_UNIT(.MILLI.,.METRE.) );
#1781 = ( NAMED_UNIT(*) PLANE_ANGLE_UNIT() SI_UNIT($,.RADIAN.) );
#1782 = ( NAMED_UNIT(*) SI_UNIT($,.STERADIAN.) SOLID_ANGLE_UNIT() );
#1783 = UNCERTAINTY_MEASURE_WITH_UNIT(LENGTH_MEASURE(1.E-07),#1780,
  'distance_accuracy_value','confusion accuracy');
#1784 = CONTEXT_DEPENDENT_SHAPE_REPRESENTATION(#1785,#1787);
#1785 = ( REPRESENTATION_RELATIONSHIP('','',#1356,#10) 
REPRESENTATION_RELATIONSHIP_WITH_TRANSFORMATION(#1786) 
SHAPE_REPRESENTATION_RELATIONSHIP() );
#1786 = ITEM_DEFINED_TRANSFORMATION('','',#11,#23);
#1787 = PRODUCT_DEFINITION_SHAPE('Placement','Placement of an item',
  #1788);
#1788 = NEXT_ASSEMBLY_USAGE_OCCURRENCE('6','Body','',#5,#1351,$);
#1789 = PRODUCT_RELATED_PRODUCT_CATEGORY('part',$,(#1353));
#1790 = MECHANICAL_DESIGN_GEOMETRIC_PRESENTATION_REPRESENTATION('',(
    #1791,#1802,#1811,#1820,#1829,#1838),#1338);
#1791 = STYLED_ITEM('color',(#1792),#960);
#1792 = PRESENTATION_STYLE_ASSIGNMENT((#1793,#1799));
#1793 = SURFACE_STYLE_USAGE(.BOTH.,#1794);
#1794 = SURFACE_SIDE_STYLE('',(#1795));
#1795 = SURFACE_STYLE_FILL_AREA(#1796);
#1796 = FILL_AREA_STYLE('',(#1797));
#1797 = FILL_AREA_STYLE_COLOUR('',#1798);
#1798 = COLOUR_RGB('',0.949019609525,0.796078452645,3.921568724327E-02);
#1799 = CURVE_STYLE('',#1800,POSITIVE_LENGTH_MEASURE(0.1),#1801);
#1800 = DRAUGHTING_PRE_DEFINED_CURVE_FONT('continuous');
#1801 = COLOUR_RGB('',9.803921802644E-02,9.803921802644E-02,
  9.803921802644E-02);
#1802 = STYLED_ITEM('color',(#1803),#1023);
#1803 = PRESENTATION_STYLE_ASSIGNMENT((#1804,#1809));
#1804 = SURFACE_STYLE_USAGE(.BOTH.,#1805);
#1805 = SURFACE_SIDE_STYLE('',(#1806));
#1806 = SURFACE_STYLE_FILL_AREA(#1807);
#1807 = FILL_AREA_STYLE('',(#1808));
#1808 = FILL_AREA_STYLE_COLOUR('',#1798);
#1809 = CURVE_STYLE('',#1810,POSITIVE_LENGTH_MEASURE(0.1),#1801);
#1810 = DRAUGHTING_PRE_DEFINED_CURVE_FONT('continuous');
#1811 = STYLED_ITEM('color',(#1812),#1086);
#1812 = PRESENTATION_STYLE_ASSIGNMENT((#1813,#1818));
#1813 = SURFACE_STYLE_USAGE(.BOTH.,#1814);
#1814 = SURFACE_SIDE_STYLE('',(#1815));
#1815 = SURFACE_STYLE_FILL_AREA(#1816);
#1816 = FILL_AREA_STYLE('',(#1817));
#1817 = FILL_AREA_STYLE_COLOUR('',#1798);
#1818 = CURVE_STYLE('',#1819,POSITIVE_LENGTH_MEASURE(0.1),#1801);
#1819 = DRAUGHTING_PRE_DEFINED_CURVE_FONT('continuous');
#1820 = STYLED_ITEM('color',(#1821),#1149);
#1821 = PRESENTATION_STYLE_ASSIGNMENT((#1822,#1827));
#1822 = SURFACE_STYLE_USAGE(.BOTH.,#1823);
#1823 = SURFACE_SIDE_STYLE('',(#1824));
#1824 = SURFACE_STYLE_FILL_AREA(#1825);
#1825 = FILL_AREA_STYLE('',(#1826));
#1826 = FILL_AREA_STYLE_COLOUR('',#1798);
#1827 = CURVE_STYLE('',#1828,POSITIVE_LENGTH_MEASURE(0.1),#1801);
#1828 = DRAUGHTING_PRE_DEFINED_CURVE_FONT('continuous');
#1829 = STYLED_ITEM('color',(#1830),#1212);
#1830 = PRESENTATION_STYLE_ASSIGNMENT((#1831,#1836));
#1831 = SURFACE_STYLE_USAGE(.BOTH.,#1832);
#1832 = SURFACE_SIDE_STYLE('',(#1833));
#1833 = SURFACE_STYLE_FILL_AREA(#1834);
#1834 = FILL_AREA_STYLE('',(#1835));
#1835 = FILL_AREA_STYLE_COLOUR('',#1798);
#1836 = CURVE_STYLE('',#1837,POSITIVE_LENGTH_MEASURE(0.1),#1801);
#1837 = DRAUGHTING_PRE_DEFINED_CURVE_FONT('continuous');
#1838 = STYLED_ITEM('color',(#1839),#1275);
#1839 = PRESENTATION_STYLE_ASSIGNMENT((#1840,#1845));
#1840 = SURFACE_STYLE_USAGE(.BOTH.,#1841);
#1841 = SURFACE_SIDE_STYLE('',(#1842));
#1842 = SURFACE_STYLE_FILL_AREA(#1843);
#1843 = FILL_AREA_STYLE('',(#1844));
#1844 = FILL_AREA_STYLE_COLOUR('',#1798);
#1845 = CURVE_STYLE('',#1846,POSITIVE_LENGTH_MEASURE(0.1),#1801);
#1846 = DRAUGHTING_PRE_DEFINED_CURVE_FONT('continuous');
#1847 = MECHANICAL_DESIGN_GEOMETRIC_PRESENTATION_REPRESENTATION('',(
    #1848),#1779);
#1848 = STYLED_ITEM('color',(#1849),#1357);
#1849 = PRESENTATION_STYLE_ASSIGNMENT((#1850,#1856));
#1850 = SURFACE_STYLE_USAGE(.BOTH.,#1851);
#1851 = SURFACE_SIDE_STYLE('',(#1852));
#1852 = SURFACE_STYLE_FILL_AREA(#1853);
#1853 = FILL_AREA_STYLE('',(#1854));
#1854 = FILL_AREA_STYLE_COLOUR('',#1855);
#1855 = COLOUR_RGB('',8.235294228292E-02,8.235294228292E-02,
  8.235294228292E-02);
#1856 = CURVE_STYLE('',#1857,POSITIVE_LENGTH_MEASURE(0.1),#1801);
#1857 = DRAUGHTING_PRE_DEFINED_CURVE_FONT('continuous');
#1858 = MECHANICAL_DESIGN_GEOMETRIC_PRESENTATION_REPRESENTATION('',(
    #1859,#1869,#1878,#1887,#1896,#1905),#941);
#1859 = STYLED_ITEM('color',(#1860),#41);
#1860 = PRESENTATION_STYLE_ASSIGNMENT((#1861,#1867));
#1861 = SURFACE_STYLE_USAGE(.BOTH.,#1862);
#1862 = SURFACE_SIDE_STYLE('',(#1863));
#1863 = SURFACE_STYLE_FILL_AREA(#1864);
#1864 = FILL_AREA_STYLE('',(#1865));
#1865 = FILL_AREA_STYLE_COLOUR('',#1866);
#1866 = COLOUR_RGB('',0.949019609525,0.729411790161,0.);
#1867 = CURVE_STYLE('',#1868,POSITIVE_LENGTH_MEASURE(0.1),#1801);
#1868 = DRAUGHTING_PRE_DEFINED_CURVE_FONT('continuous');
#1869 = STYLED_ITEM('color',(#1870),#191);
#1870 = PRESENTATION_STYLE_ASSIGNMENT((#1871,#1876));
#1871 = SURFACE_STYLE_USAGE(.BOTH.,#1872);
#1872 = SURFACE_SIDE_STYLE('',(#1873));
#1873 = SURFACE_STYLE_FILL_AREA(#1874);
#1874 = FILL_AREA_STYLE('',(#1875));
#1875 = FILL_AREA_STYLE_COLOUR('',#1866);
#1876 = CURVE_STYLE('',#1877,POSITIVE_LENGTH_MEASURE(0.1),#1801);
#1877 = DRAUGHTING_PRE_DEFINED_CURVE_FONT('continuous');
#1878 = STYLED_ITEM('color',(#1879),#341);
#1879 = PRESENTATION_STYLE_ASSIGNMENT((#1880,#1885));
#1880 = SURFACE_STYLE_USAGE(.BOTH.,#1881);
#1881 = SURFACE_SIDE_STYLE('',(#1882));
#1882 = SURFACE_STYLE_FILL_AREA(#1883);
#1883 = FILL_AREA_STYLE('',(#1884));
#1884 = FILL_AREA_STYLE_COLOUR('',#1866);
#1885 = CURVE_STYLE('',#1886,POSITIVE_LENGTH_MEASURE(0.1),#1801);
#1886 = DRAUGHTING_PRE_DEFINED_CURVE_FONT('continuous');
#1887 = STYLED_ITEM('color',(#1888),#491);
#1888 = PRESENTATION_STYLE_ASSIGNMENT((#1889,#1894));
#1889 = SURFACE_STYLE_USAGE(.BOTH.,#1890);
#1890 = SURFACE_SIDE_STYLE('',(#1891));
#1891 = SURFACE_STYLE_FILL_AREA(#1892);
#1892 = FILL_AREA_STYLE('',(#1893));
#1893 = FILL_AREA_STYLE_COLOUR('',#1866);
#1894 = CURVE_STYLE('',#1895,POSITIVE_LENGTH_MEASURE(0.1),#1801);
#1895 = DRAUGHTING_PRE_DEFINED_CURVE_FONT('continuous');
#1896 = STYLED_ITEM('color',(#1897),#641);
#1897 = PRESENTATION_STYLE_ASSIGNMENT((#1898,#1903));
#1898 = SURFACE_STYLE_USAGE(.BOTH.,#1899);
#1899 = SURFACE_SIDE_STYLE('',(#1900));
#1900 = SURFACE_STYLE_FILL_AREA(#1901);
#1901 = FILL_AREA_STYLE('',(#1902));
#1902 = FILL_AREA_STYLE_COLOUR('',#1866);
#1903 = CURVE_STYLE('',#1904,POSITIVE_LENGTH_MEASURE(0.1),#1801);
#1904 = DRAUGHTING_PRE_DEFINED_CURVE_FONT('continuous');
#1905 = STYLED_ITEM('color',(#1906),#791);
#1906 = PRESENTATION_STYLE_ASSIGNMENT((#1907,#1912));
#1907 = SURFACE_STYLE_USAGE(.BOTH.,#1908);
#1908 = SURFACE_SIDE_STYLE('',(#1909));
#1909 = SURFACE_STYLE_FILL_AREA(#1910);
#1910 = FILL_AREA_STYLE('',(#1911));
#1911 = FILL_AREA_STYLE_COLOUR('',#1866);
#1912 = CURVE_STYLE('',#1913,POSITIVE_LENGTH_MEASURE(0.1),#1801);
#1913 = DRAUGHTING_PRE_DEFINED_CURVE_FONT('continuous');
ENDSEC;
END-ISO-10303-21;
