ISO-10303-21;
HEADER;
FILE_DESCRIPTION (( 'STEP AP203' ),
    '1' );
FILE_NAME ('Same_Sky_CPG-27-SMT-TR.step',
    '2025-02-12T16:17:47',
    ( '' ),
    ( '' ),
    'SwSTEP 2.0',
    'SolidWorks 2024',
    '' );
FILE_SCHEMA (( 'CONFIG_CONTROL_DESIGN' ));
ENDSEC;

DATA;
#1 = VERTEX_POINT ( 'NONE', #396 ) ;
#2 = EDGE_CURVE ( 'NONE', #283, #499, #544, .T. ) ;
#3 = CONICAL_SURFACE ( 'NONE', #348, 0.03031496062975269981, 0.03997868712272251851 ) ;
#4 = ORIENTED_EDGE ( 'NONE', *, *, #237, .T. ) ;
#5 = CARTESIAN_POINT ( 'NONE',  ( 0.003937007875265408074, -0.03937007873922650225, 4.821444091017301093E-18 ) ) ;
#6 = EDGE_LOOP ( 'NONE', ( #258, #91, #58, #73 ) ) ;
#7 = LINE ( 'NONE', #345, #247 ) ;
#8 = ORIENTED_EDGE ( 'NONE', *, *, #246, .F. ) ;
#9 = COORDINATED_UNIVERSAL_TIME_OFFSET ( 0, 0, .AHEAD. ) ;
#10 = CARTESIAN_POINT ( 'NONE',  ( 0.05118110236726065854, 0.000000000000000000, 0.000000000000000000 ) ) ;
#11 = ORIENTED_EDGE ( 'NONE', *, *, #133, .T. ) ;
#12 = AXIS2_PLACEMENT_3D ( 'NONE', #503, #459, #208 ) ;
#13 = PRODUCT_RELATED_PRODUCT_CATEGORY ( 'detail', '', ( #212 ) ) ;
#14 = DIRECTION ( 'NONE',  ( 0.000000000000000000, 0.000000000000000000, 1.000000000000000000 ) ) ;
#15 = VERTEX_POINT ( 'NONE', #408 ) ;
#16 = PERSON_AND_ORGANIZATION ( #602, #428 ) ;
#17 =( CONVERSION_BASED_UNIT ( 'INCH', #198 ) LENGTH_UNIT ( ) NAMED_UNIT ( #564 ) );
#18 = LINE ( 'NONE', #387, #24 ) ;
#19 = VERTEX_POINT ( 'NONE', #598 ) ;
#20 = CARTESIAN_POINT ( 'NONE',  ( 0.01968503937007875723, 0.000000000000000000, 0.000000000000000000 ) ) ;
#21 = EDGE_CURVE ( 'NONE', #307, #77, #555, .T. ) ;
#22 = ORIENTED_EDGE ( 'NONE', *, *, #200, .F. ) ;
#23 = CIRCLE ( 'NONE', #364, 0.02952755905511811330 ) ;
#24 = VECTOR ( 'NONE', #193, 39.37007874015748143 ) ;
#25 = DIRECTION ( 'NONE',  ( 0.000000000000000000, 0.000000000000000000, 1.000000000000000000 ) ) ;
#26 = CC_DESIGN_APPROVAL ( #257, ( #367 ) ) ;
#27 = ORIENTED_EDGE ( 'NONE', *, *, #325, .F. ) ;
#28 = DIRECTION ( 'NONE',  ( 0.000000000000000000, 0.000000000000000000, 1.000000000000000000 ) ) ;
#29 = DIRECTION ( 'NONE',  ( 6.776263578579827614E-18, 1.000000000000000000, 0.000000000000000000 ) ) ;
#30 = DIRECTION ( 'NONE',  ( -1.000000000000000000, 0.000000000000000000, 0.000000000000000000 ) ) ;
#31 = EDGE_CURVE ( 'NONE', #1, #192, #161, .T. ) ;
#32 = ORIENTED_EDGE ( 'NONE', *, *, #167, .F. ) ;
#33 = DIRECTION ( 'NONE',  ( 0.000000000000000000, 0.000000000000000000, 1.000000000000000000 ) ) ;
#34 = AXIS2_PLACEMENT_3D ( 'NONE', #164, #346, #542 ) ;
#35 = AXIS2_PLACEMENT_3D ( 'NONE', #473, #379, #334 ) ;
#36 = CC_DESIGN_APPROVAL ( #100, ( #489 ) ) ;
#37 = FACE_OUTER_BOUND ( 'NONE', #60, .T. ) ;
#38 = CARTESIAN_POINT ( 'NONE',  ( 0.07086614173239805248, 0.000000000000000000, 0.000000000000000000 ) ) ;
#39 = DIRECTION ( 'NONE',  ( 0.000000000000000000, 0.000000000000000000, 1.000000000000000000 ) ) ;
#40 = ORIENTED_EDGE ( 'NONE', *, *, #21, .F. ) ;
#41 = DIRECTION ( 'NONE',  ( 1.355252715715965369E-17, 1.000000000000000000, 0.000000000000000000 ) ) ;
#42 = CC_DESIGN_PERSON_AND_ORGANIZATION_ASSIGNMENT ( #49, #281, ( #367 ) ) ;
#43 = COORDINATED_UNIVERSAL_TIME_OFFSET ( 0, 0, .AHEAD. ) ;
#44 = DIRECTION ( 'NONE',  ( 0.000000000000000000, 0.000000000000000000, 1.000000000000000000 ) ) ;
#45 = CIRCLE ( 'NONE', #277, 0.03031496062993173368 ) ;
#46 = CIRCLE ( 'NONE', #495, 0.03937007873922650225 ) ;
#47 = CARTESIAN_POINT ( 'NONE',  ( 0.1181102362204724532, -8.678599364036360974E-19, 0.000000000000000000 ) ) ;
#48 = ORIENTED_EDGE ( 'NONE', *, *, #522, .F. ) ;
#49 = PERSON_AND_ORGANIZATION ( #602, #428 ) ;
#50 = FACE_OUTER_BOUND ( 'NONE', #260, .T. ) ;
#51 = EDGE_CURVE ( 'NONE', #209, #15, #45, .T. ) ;
#52 = EDGE_LOOP ( 'NONE', ( #327, #158 ) ) ;
#53 = CARTESIAN_POINT ( 'NONE',  ( 0.1181102362204724532, -8.678599364036360974E-19, 0.000000000000000000 ) ) ;
#54 = ORIENTED_EDGE ( 'NONE', *, *, #325, .T. ) ;
#55 = DATE_AND_TIME ( #521, #389 ) ;
#56 = APPROVAL_PERSON_ORGANIZATION ( #272, #257, #328 ) ;
#57 = DIRECTION ( 'NONE',  ( 1.000000000000000000, -6.776263578579826843E-18, 0.000000000000000000 ) ) ;
#58 = ORIENTED_EDGE ( 'NONE', *, *, #343, .T. ) ;
#59 = DIRECTION ( 'NONE',  ( 0.7071067813875193675, 0.7071067809855756670, 0.000000000000000000 ) ) ;
#60 = EDGE_LOOP ( 'NONE', ( #497, #492, #443, #294, #40 ) ) ;
#61 = ADVANCED_FACE ( 'NONE', ( #603 ), #74, .T. ) ;
#62 = DIRECTION ( 'NONE',  ( -1.000000000000000000, 2.891205793294680298E-16, 8.359070939180718709E-32 ) ) ;
#63 = EDGE_LOOP ( 'NONE', ( #336, #474, #351, #302 ) ) ;
#64 = CALENDAR_DATE ( 2025, 12, 2 ) ;
#65 = CIRCLE ( 'NONE', #407, 0.03031496062993173368 ) ;
#66 = VECTOR ( 'NONE', #59, 39.37007874015748143 ) ;
#67 = DIRECTION ( 'NONE',  ( -1.000000000000000000, 6.776263578579826843E-18, 0.000000000000000000 ) ) ;
#68 = DATE_AND_TIME ( #64, #179 ) ;
#69 = CARTESIAN_POINT ( 'NONE',  ( 0.01968503937007875723, 0.000000000000000000, 0.000000000000000000 ) ) ;
#70 = EDGE_CURVE ( 'NONE', #431, #558, #206, .T. ) ;
#71 = ORIENTED_EDGE ( 'NONE', *, *, #143, .T. ) ;
#72 = CARTESIAN_POINT ( 'NONE',  ( 0.003937007873027477747, -0.03937007873698857019, 4.821444090743232788E-18 ) ) ;
#73 = ORIENTED_EDGE ( 'NONE', *, *, #395, .T. ) ;
#74 = CONICAL_SURFACE ( 'NONE', #354, 0.03937007873698857019, 0.7853981631132311847 ) ;
#75 = AXIS2_PLACEMENT_3D ( 'NONE', #78, #30, #595 ) ;
#76 = CARTESIAN_POINT ( 'NONE',  ( 0.1777559055118110298, 0.000000000000000000, 0.000000000000000000 ) ) ;
#77 = VERTEX_POINT ( 'NONE', #82 ) ;
#78 = CARTESIAN_POINT ( 'NONE',  ( 0.1122047244094488277, 0.000000000000000000, 0.000000000000000000 ) ) ;
#79 = EDGE_CURVE ( 'NONE', #528, #523, #235, .T. ) ;
#80 = EDGE_LOOP ( 'NONE', ( #484, #11, #269, #32, #584 ) ) ;
#81 = PLANE ( 'NONE',  #170 ) ;
#82 = CARTESIAN_POINT ( 'NONE',  ( 0.07086614173239805248, 0.000000000000000000, 0.02952755905511923046 ) ) ;
#83 = EDGE_LOOP ( 'NONE', ( #344, #532, #506, #539 ) ) ;
#84 = CYLINDRICAL_SURFACE ( 'NONE', #399, 0.02952755905511811330 ) ;
#85 = CIRCLE ( 'NONE', #288, 0.02362204724409448786 ) ;
#86 = CARTESIAN_POINT ( 'NONE',  ( 0.003937007875265408074, 0.000000000000000000, 0.000000000000000000 ) ) ;
#87 = DATE_AND_TIME ( #553, #366 ) ;
#88 = DIRECTION ( 'NONE',  ( -1.000000000000000000, -1.311186758133704847E-48, 3.011672701348622743E-17 ) ) ;
#89 = ADVANCED_FACE ( 'NONE', ( #37 ), #271, .T. ) ;
#90 = DIRECTION ( 'NONE',  ( -0.9992009587218121380, 0.000000000000000000, 0.03996803834830450763 ) ) ;
#91 = ORIENTED_EDGE ( 'NONE', *, *, #563, .T. ) ;
#92 = CARTESIAN_POINT ( 'NONE',  ( 0.000000000000000000, 0.000000000000000000, 0.000000000000000000 ) ) ;
#93 = DIRECTION ( 'NONE',  ( 0.000000000000000000, 0.000000000000000000, 1.000000000000000000 ) ) ;
#94 = MANIFOLD_SOLID_BREP ( 'Imported1', #494 ) ;
#95 = DIRECTION ( 'NONE',  ( -1.000000000000000000, 2.891205793294680298E-16, 8.359070939180718709E-32 ) ) ;
#96 = AXIS2_PLACEMENT_3D ( 'NONE', #287, #380, #138 ) ;
#97 = AXIS2_PLACEMENT_3D ( 'NONE', #76, #261, #359 ) ;
#98 = EDGE_LOOP ( 'NONE', ( #458, #145 ) ) ;
#99 = PERSON_AND_ORGANIZATION_ROLE ( 'design_owner' ) ;
#100 = APPROVAL ( #159, 'UNSPECIFIED' ) ;
#101 = DIRECTION ( 'NONE',  ( -1.000000000000000000, 0.000000000000000000, 0.000000000000000000 ) ) ;
#102 = EDGE_LOOP ( 'NONE', ( #378, #393 ) ) ;
#103 = CALENDAR_DATE ( 2025, 12, 2 ) ;
#104 = LINE ( 'NONE', #559, #536 ) ;
#105 = ORIENTED_EDGE ( 'NONE', *, *, #343, .F. ) ;
#106 = AXIS2_PLACEMENT_3D ( 'NONE', #199, #538, #392 ) ;
#107 = AXIS2_PLACEMENT_3D ( 'NONE', #599, #259, #28 ) ;
#108 = ORIENTED_EDGE ( 'NONE', *, *, #70, .T. ) ;
#109 = VECTOR ( 'NONE', #144, 39.37007874015748143 ) ;
#110 = APPROVAL_PERSON_ORGANIZATION ( #16, #100, #439 ) ;
#111 = CARTESIAN_POINT ( 'NONE',  ( 0.05118110236278479441, 3.712511950172393251E-18, -0.03031496062993173368 ) ) ;
#112 = CC_DESIGN_DATE_AND_TIME_ASSIGNMENT ( #55, #573, ( #489 ) ) ;
#113 = DIRECTION ( 'NONE',  ( -1.000000000000000000, 0.000000000000000000, 0.000000000000000000 ) ) ;
#114 = EDGE_LOOP ( 'NONE', ( #155, #355, #54, #229, #552 ) ) ;
#115 = DIRECTION ( 'NONE',  ( -1.000000000000000000, 0.000000000000000000, 0.000000000000000000 ) ) ;
#116 = AXIS2_PLACEMENT_3D ( 'NONE', #350, #67, #304 ) ;
#117 = TOROIDAL_SURFACE ( 'NONE', #185, 0.02362204724409443235, 0.005905511811023656660 ) ;
#118 = ADVANCED_FACE ( 'NONE', ( #556 ), #240, .T. ) ;
#119 = LOCAL_TIME ( 16, 17, 47.00000000000000000, #197 ) ;
#120 = DIRECTION ( 'NONE',  ( -2.891205793294680298E-16, -1.000000000000000000, 2.416779432592049542E-47 ) ) ;
#121 = DIRECTION ( 'NONE',  ( 1.000000000000000000, 0.000000000000000000, 0.000000000000000000 ) ) ;
#122 = VERTEX_POINT ( 'NONE', #467 ) ;
#123 = DIRECTION ( 'NONE',  ( 0.000000000000000000, 0.000000000000000000, 1.000000000000000000 ) ) ;
#124 = AXIS2_PLACEMENT_3D ( 'NONE', #440, #525, #347 ) ;
#125 = CIRCLE ( 'NONE', #545, 0.01771653543307086937 ) ;
#126 = DIRECTION ( 'NONE',  ( 1.000000000000000000, 0.000000000000000000, 0.000000000000000000 ) ) ;
#127 = CC_DESIGN_SECURITY_CLASSIFICATION ( #489, ( #447 ) ) ;
#128 = CC_DESIGN_PERSON_AND_ORGANIZATION_ASSIGNMENT ( #242, #477, ( #447 ) ) ;
#129 = DIRECTION ( 'NONE',  ( -1.000000000000000000, 0.000000000000000000, 0.000000000000000000 ) ) ;
#130 = CARTESIAN_POINT ( 'NONE',  ( 0.1122047244094488277, 0.000000000000000000, 0.000000000000000000 ) ) ;
#131 = FACE_OUTER_BOUND ( 'NONE', #381, .T. ) ;
#132 = ORIENTED_EDGE ( 'NONE', *, *, #306, .F. ) ;
#133 = EDGE_CURVE ( 'NONE', #431, #528, #147, .T. ) ;
#134 = CARTESIAN_POINT ( 'NONE',  ( 0.05118110236220472370, 3.616083068348484413E-18, -0.02952755905511811330 ) ) ;
#135 = LOCAL_TIME ( 16, 17, 47.00000000000000000, #43 ) ;
#136 = DIRECTION ( 'NONE',  ( -1.000000000000000000, 0.000000000000000000, 0.000000000000000000 ) ) ;
#137 = DIRECTION ( 'NONE',  ( -1.000000000000000000, 0.000000000000000000, 0.000000000000000000 ) ) ;
#138 = DIRECTION ( 'NONE',  ( 0.000000000000000000, 0.000000000000000000, 1.000000000000000000 ) ) ;
#139 = FACE_OUTER_BOUND ( 'NONE', #453, .T. ) ;
#140 = APPROVAL_STATUS ( 'not_yet_approved' ) ;
#141 = CARTESIAN_POINT ( 'NONE',  ( 0.05118110236726065854, 0.000000000000000000, 0.000000000000000000 ) ) ;
#142 = AXIS2_PLACEMENT_3D ( 'NONE', #527, #394, #191 ) ;
#143 = EDGE_CURVE ( 'NONE', #309, #307, #335, .T. ) ;
#144 = DIRECTION ( 'NONE',  ( -1.000000000000000000, 0.000000000000000000, 0.000000000000000000 ) ) ;
#145 = ORIENTED_EDGE ( 'NONE', *, *, #581, .F. ) ;
#146 = DIRECTION ( 'NONE',  ( -1.000000000000000000, 0.000000000000000000, 0.000000000000000000 ) ) ;
#147 = LINE ( 'NONE', #508, #151 ) ;
#148 = ORIENTED_EDGE ( 'NONE', *, *, #79, .T. ) ;
#149 = ADVANCED_FACE ( 'NONE', ( #419, #501 ), #274, .F. ) ;
#150 = LINE ( 'NONE', #382, #66 ) ;
#151 = VECTOR ( 'NONE', #414, 39.37007874015748143 ) ;
#152 = AXIS2_PLACEMENT_3D ( 'NONE', #498, #550, #123 ) ;
#153 = ORIENTED_EDGE ( 'NONE', *, *, #51, .F. ) ;
#154 = DIRECTION ( 'NONE',  ( 0.000000000000000000, 0.000000000000000000, 1.000000000000000000 ) ) ;
#155 = ORIENTED_EDGE ( 'NONE', *, *, #587, .F. ) ;
#156 = CARTESIAN_POINT ( 'NONE',  ( 0.1122047244094488277, 0.000000000000000000, 0.02952755905511811330 ) ) ;
#157 = EDGE_CURVE ( 'NONE', #77, #15, #478, .T. ) ;
#158 = ORIENTED_EDGE ( 'NONE', *, *, #246, .T. ) ;
#159 = APPROVAL_STATUS ( 'not_yet_approved' ) ;
#160 = CARTESIAN_POINT ( 'NONE',  ( 0.1515748031496063075, 0.000000000000000000, 0.01771653543307086937 ) ) ;
#161 = CIRCLE ( 'NONE', #417, 0.03543307086619902624 ) ;
#162 = CARTESIAN_POINT ( 'NONE',  ( 0.1122047244094488277, 3.616083068348484413E-18, -0.02952755905511811330 ) ) ;
#163 = EDGE_CURVE ( 'NONE', #280, #221, #85, .T. ) ;
#164 = CARTESIAN_POINT ( 'NONE',  ( 0.07086614173239805248, 0.000000000000000000, 0.000000000000000000 ) ) ;
#165 =( NAMED_UNIT ( * ) PLANE_ANGLE_UNIT ( ) SI_UNIT ( $, .RADIAN. ) );
#166 = CARTESIAN_POINT ( 'NONE',  ( 0.1181102362204724532, 2.169649841009090725E-18, -0.01771653543307086937 ) ) ;
#167 = EDGE_CURVE ( 'NONE', #19, #122, #435, .T. ) ;
#168 = DIRECTION ( 'NONE',  ( 0.000000000000000000, 0.000000000000000000, 1.000000000000000000 ) ) ;
#169 = AXIS2_PLACEMENT_3D ( 'NONE', #490, #62, #120 ) ;
#170 = AXIS2_PLACEMENT_3D ( 'NONE', #171, #449, #493 ) ;
#171 = CARTESIAN_POINT ( 'NONE',  ( 0.1181102362204724532, 0.000000000000000000, 0.000000000000000000 ) ) ;
#172 = CARTESIAN_POINT ( 'NONE',  ( 0.1777559055118110298, 0.000000000000000000, 0.000000000000000000 ) ) ;
#173 = DIRECTION ( 'NONE',  ( 0.000000000000000000, 0.000000000000000000, 1.000000000000000000 ) ) ;
#174 = ADVANCED_FACE ( 'NONE', ( #131 ), #337, .T. ) ;
#175 = ORIENTED_EDGE ( 'NONE', *, *, #496, .T. ) ;
#176 = CARTESIAN_POINT ( 'NONE',  ( 0.1777559055118110298, 3.616083068348484413E-18, -0.02952755905511811330 ) ) ;
#177 = CIRCLE ( 'NONE', #524, 0.02952755905511811330 ) ;
#178 = CARTESIAN_POINT ( 'NONE',  ( 0.05118110236220473064, 0.000000000000000000, 0.000000000000000000 ) ) ;
#179 = LOCAL_TIME ( 16, 17, 47.00000000000000000, #303 ) ;
#180 = DIRECTION ( 'NONE',  ( -1.000000000000000000, 0.000000000000000000, 0.000000000000000000 ) ) ;
#181 = DIRECTION ( 'NONE',  ( -1.000000000000000000, 0.000000000000000000, 0.000000000000000000 ) ) ;
#182 = PERSON_AND_ORGANIZATION ( #602, #428 ) ;
#183 = FACE_OUTER_BOUND ( 'NONE', #333, .T. ) ;
#184 = ADVANCED_FACE ( 'NONE', ( #228 ), #504, .T. ) ;
#185 = AXIS2_PLACEMENT_3D ( 'NONE', #511, #95, #423 ) ;
#186 = SECURITY_CLASSIFICATION_LEVEL ( 'unclassified' ) ;
#187 = DIRECTION ( 'NONE',  ( 1.000000000000000000, 0.000000000000000000, 0.000000000000000000 ) ) ;
#188 = DIRECTION ( 'NONE',  ( 1.000000000000000000, -6.776263578579826843E-18, 0.000000000000000000 ) ) ;
#189 = VERTEX_POINT ( 'NONE', #156 ) ;
#190 = CC_DESIGN_PERSON_AND_ORGANIZATION_ASSIGNMENT ( #182, #99, ( #212 ) ) ;
#191 = DIRECTION ( 'NONE',  ( 0.000000000000000000, 0.000000000000000000, 1.000000000000000000 ) ) ;
#192 = VERTEX_POINT ( 'NONE', #531 ) ;
#193 = DIRECTION ( 'NONE',  ( -0.9992009587218121380, 4.894673023144977824E-18, -0.03996803834830450763 ) ) ;
#194 = VECTOR ( 'NONE', #256, 39.37007874015748143 ) ;
#195 = AXIS2_PLACEMENT_3D ( 'NONE', #224, #368, #567 ) ;
#196 = VERTEX_POINT ( 'NONE', #243 ) ;
#197 = COORDINATED_UNIVERSAL_TIME_OFFSET ( 0, 0, .AHEAD. ) ;
#198 = LENGTH_MEASURE_WITH_UNIT ( LENGTH_MEASURE( 0.02539999999999999897 ), #376 );
#199 = CARTESIAN_POINT ( 'NONE',  ( 0.1122047244094488139, -0.02362204724409443235, 0.000000000000000000 ) ) ;
#200 = EDGE_CURVE ( 'NONE', #558, #431, #468, .T. ) ;
#201 = ORIENTED_EDGE ( 'NONE', *, *, #530, .F. ) ;
#202 = CARTESIAN_POINT ( 'NONE',  ( 0.1777559055118110298, 0.000000000000000000, 0.02952755905511811330 ) ) ;
#203 = ORIENTED_EDGE ( 'NONE', *, *, #31, .F. ) ;
#204 = CYLINDRICAL_SURFACE ( 'NONE', #124, 0.03937007874015747977 ) ;
#205 = CARTESIAN_POINT ( 'NONE',  ( 0.000000000000000000, 2.667820305857812975E-20, 0.000000000000000000 ) ) ;
#206 = CIRCLE ( 'NONE', #96, 0.03937007874015747977 ) ;
#207 = AXIS2_PLACEMENT_3D ( 'NONE', #540, #357, #402 ) ;
#208 = DIRECTION ( 'NONE',  ( 0.000000000000000000, 0.000000000000000000, 1.000000000000000000 ) ) ;
#209 = VERTEX_POINT ( 'NONE', #111 ) ;
#210 = EDGE_CURVE ( 'NONE', #307, #209, #18, .T. ) ;
#211 = DIRECTION ( 'NONE',  ( -1.000000000000000000, 0.000000000000000000, 0.000000000000000000 ) ) ;
#212 = PRODUCT ( 'Same_Sky_CPG-27-SMT-TR', 'Same_Sky_CPG-27-SMT-TR', '', ( #465 ) ) ;
#213 = CARTESIAN_POINT ( 'NONE',  ( 0.05118110236278479441, 0.000000000000000000, 0.000000000000000000 ) ) ;
#214 = DIRECTION ( 'NONE',  ( -1.000000000000000000, 0.000000000000000000, 0.000000000000000000 ) ) ;
#215 = ORIENTED_EDGE ( 'NONE', *, *, #210, .T. ) ;
#216 = VECTOR ( 'NONE', #535, 39.37007874015748143 ) ;
#217 = AXIS2_PLACEMENT_3D ( 'NONE', #562, #187, #282 ) ;
#218 = DIRECTION ( 'NONE',  ( -1.000000000000000000, -0.000000000000000000, -0.000000000000000000 ) ) ;
#219 = EDGE_CURVE ( 'NONE', #558, #19, #7, .T. ) ;
#220 = DIRECTION ( 'NONE',  ( -1.000000000000000000, 0.000000000000000000, 0.000000000000000000 ) ) ;
#221 = VERTEX_POINT ( 'NONE', #342 ) ;
#222 = DIRECTION ( 'NONE',  ( -1.000000000000000000, 0.000000000000000000, 0.000000000000000000 ) ) ;
#223 = CARTESIAN_POINT ( 'NONE',  ( 0.1777559055118110298, 0.000000000000000000, 0.000000000000000000 ) ) ;
#224 = CARTESIAN_POINT ( 'NONE',  ( 0.1777559055118110298, 0.000000000000000000, 0.000000000000000000 ) ) ;
#225 = DIRECTION ( 'NONE',  ( -1.000000000000000000, 0.000000000000000000, 0.000000000000000000 ) ) ;
#226 = ORIENTED_EDGE ( 'NONE', *, *, #210, .F. ) ;
#227 = CARTESIAN_POINT ( 'NONE',  ( 0.003937007875265408074, 4.821444091074305538E-18, -0.03937007873922650225 ) ) ;
#228 = FACE_OUTER_BOUND ( 'NONE', #491, .T. ) ;
#229 = ORIENTED_EDGE ( 'NONE', *, *, #373, .F. ) ;
#230 = EDGE_CURVE ( 'NONE', #523, #19, #596, .T. ) ;
#231 = CARTESIAN_POINT ( 'NONE',  ( 0.1777559055118110298, 2.169649841009090725E-18, -0.01771653543307086937 ) ) ;
#232 = CARTESIAN_POINT ( 'NONE',  ( 0.1122047244094488277, -0.02952755905511809942, -1.983601215426856946E-48 ) ) ;
#233 = ORIENTED_EDGE ( 'NONE', *, *, #460, .T. ) ;
#234 = FACE_OUTER_BOUND ( 'NONE', #572, .T. ) ;
#235 = CIRCLE ( 'NONE', #319, 0.03937007873922650225 ) ;
#236 = CIRCLE ( 'NONE', #152, 0.02952755905511811330 ) ;
#237 = EDGE_CURVE ( 'NONE', #15, #209, #65, .T. ) ;
#238 = ADVANCED_BREP_SHAPE_REPRESENTATION ( 'Same_Sky_CPG-27-SMT-TR', ( #94, #505 ), #289 ) ;
#239 = ORIENTED_EDGE ( 'NONE', *, *, #2, .T. ) ;
#240 = CYLINDRICAL_SURFACE ( 'NONE', #513, 0.02952755905511811330 ) ;
#241 = ORIENTED_EDGE ( 'NONE', *, *, #51, .T. ) ;
#242 = PERSON_AND_ORGANIZATION ( #602, #428 ) ;
#243 = CARTESIAN_POINT ( 'NONE',  ( 0.01968503937007875723, 3.616083068348484413E-18, -0.02952755905511811330 ) ) ;
#244 = ORIENTED_EDGE ( 'NONE', *, *, #331, .F. ) ;
#245 = CARTESIAN_POINT ( 'NONE',  ( 0.07086614173239805248, 3.664297509260475425E-18, -0.02952755905511923046 ) ) ;
#246 = EDGE_CURVE ( 'NONE', #192, #1, #568, .T. ) ;
#247 = VECTOR ( 'NONE', #578, 39.37007874015748143 ) ;
#248 = CIRCLE ( 'NONE', #339, 0.01771653543307086937 ) ;
#249 = ORIENTED_EDGE ( 'NONE', *, *, #133, .F. ) ;
#250 = PERSON_AND_ORGANIZATION_ROLE ( 'creator' ) ;
#251 = APPROVAL ( #605, 'UNSPECIFIED' ) ;
#252 = FACE_OUTER_BOUND ( 'NONE', #80, .T. ) ;
#253 = PERSON_AND_ORGANIZATION ( #602, #428 ) ;
#254 = CARTESIAN_POINT ( 'NONE',  ( 0.05118110236220472370, 0.000000000000000000, 0.000000000000000000 ) ) ;
#255 = ORIENTED_EDGE ( 'NONE', *, *, #21, .T. ) ;
#256 = DIRECTION ( 'NONE',  ( -1.000000000000000000, 0.000000000000000000, 0.000000000000000000 ) ) ;
#257 = APPROVAL ( #140, 'UNSPECIFIED' ) ;
#258 = ORIENTED_EDGE ( 'NONE', *, *, #541, .F. ) ;
#259 = DIRECTION ( 'NONE',  ( -1.000000000000000000, 0.000000000000000000, 0.000000000000000000 ) ) ;
#260 = EDGE_LOOP ( 'NONE', ( #249, #108, #297, #434, #470 ) ) ;
#261 = DIRECTION ( 'NONE',  ( -1.000000000000000000, 0.000000000000000000, 0.000000000000000000 ) ) ;
#262 = ORIENTED_EDGE ( 'NONE', *, *, #530, .T. ) ;
#263 = ADVANCED_FACE ( 'NONE', ( #252 ), #204, .T. ) ;
#264 = CARTESIAN_POINT ( 'NONE',  ( 0.003937007875265408074, 0.000000000000000000, 0.000000000000000000 ) ) ;
#265 = DIRECTION ( 'NONE',  ( -1.000000000000000000, 0.000000000000000000, 0.000000000000000000 ) ) ;
#266 = EDGE_LOOP ( 'NONE', ( #175, #215, #286, #448 ) ) ;
#267 = AXIS2_PLACEMENT_3D ( 'NONE', #223, #548, #39 ) ;
#268 = CYLINDRICAL_SURFACE ( 'NONE', #97, 0.01771653543307086937 ) ;
#269 = ORIENTED_EDGE ( 'NONE', *, *, #479, .F. ) ;
#270 = DATE_TIME_ROLE ( 'creation_date' ) ;
#271 = CYLINDRICAL_SURFACE ( 'NONE', #267, 0.02952755905511811330 ) ;
#272 = PERSON_AND_ORGANIZATION ( #602, #428 ) ;
#273 = DIRECTION ( 'NONE',  ( 0.000000000000000000, 0.000000000000000000, 1.000000000000000000 ) ) ;
#274 = PLANE ( 'NONE',  #455 ) ;
#275 = EDGE_CURVE ( 'NONE', #323, #429, #433, .T. ) ;
#276 = ORIENTED_EDGE ( 'NONE', *, *, #167, .T. ) ;
#277 = AXIS2_PLACEMENT_3D ( 'NONE', #213, #129, #312 ) ;
#278 = DIRECTION ( 'NONE',  ( 0.000000000000000000, 0.000000000000000000, 1.000000000000000000 ) ) ;
#279 = CIRCLE ( 'NONE', #107, 0.02952755905511811330 ) ;
#280 = VERTEX_POINT ( 'NONE', #583 ) ;
#281 = PERSON_AND_ORGANIZATION_ROLE ( 'creator' ) ;
#282 = DIRECTION ( 'NONE',  ( 0.000000000000000000, 0.000000000000000000, 1.000000000000000000 ) ) ;
#283 = VERTEX_POINT ( 'NONE', #160 ) ;
#284 = FACE_OUTER_BOUND ( 'NONE', #52, .T. ) ;
#285 = ADVANCED_FACE ( 'NONE', ( #296 ), #3, .T. ) ;
#286 = ORIENTED_EDGE ( 'NONE', *, *, #237, .F. ) ;
#287 = CARTESIAN_POINT ( 'NONE',  ( 0.01968503937007875723, 0.000000000000000000, 0.000000000000000000 ) ) ;
#288 = AXIS2_PLACEMENT_3D ( 'NONE', #47, #220, #412 ) ;
#289 =( GEOMETRIC_REPRESENTATION_CONTEXT ( 3 ) GLOBAL_UNCERTAINTY_ASSIGNED_CONTEXT ( ( #317 ) ) GLOBAL_UNIT_ASSIGNED_CONTEXT ( ( #17, #165, #422 ) ) REPRESENTATION_CONTEXT ( 'NONE', 'WORKASPACE' ) );
#290 = EDGE_LOOP ( 'NONE', ( #341, #244 ) ) ;
#291 = APPROVAL_ROLE ( '' ) ;
#292 = APPLICATION_CONTEXT ( 'configuration controlled 3d designs of mechanical parts and assemblies' ) ;
#293 = DIRECTION ( 'NONE',  ( 0.7071067813875193675, -0.7071067809855756670, 8.659560559893737370E-17 ) ) ;
#294 = ORIENTED_EDGE ( 'NONE', *, *, #522, .T. ) ;
#295 = SHAPE_DEFINITION_REPRESENTATION ( #377, #238 ) ;
#296 = FACE_OUTER_BOUND ( 'NONE', #266, .T. ) ;
#297 = ORIENTED_EDGE ( 'NONE', *, *, #219, .T. ) ;
#298 = APPROVAL_DATE_TIME ( #68, #251 ) ;
#299 = ADVANCED_FACE ( 'NONE', ( #574 ), #365, .T. ) ;
#300 = DIRECTION ( 'NONE',  ( 0.000000000000000000, 0.000000000000000000, 1.000000000000000000 ) ) ;
#301 = CIRCLE ( 'NONE', #35, 0.005905511811023656660 ) ;
#302 = ORIENTED_EDGE ( 'NONE', *, *, #385, .T. ) ;
#303 = COORDINATED_UNIVERSAL_TIME_OFFSET ( 0, 0, .AHEAD. ) ;
#304 = DIRECTION ( 'NONE',  ( 6.776263578579827614E-18, 1.000000000000000000, 0.000000000000000000 ) ) ;
#305 = LINE ( 'NONE', #72, #607 ) ;
#306 = EDGE_CURVE ( 'NONE', #323, #352, #23, .T. ) ;
#307 = VERTEX_POINT ( 'NONE', #245 ) ;
#308 = FACE_OUTER_BOUND ( 'NONE', #546, .T. ) ;
#309 = VERTEX_POINT ( 'NONE', #162 ) ;
#310 = AXIS2_PLACEMENT_3D ( 'NONE', #500, #88, #444 ) ;
#311 = SPHERICAL_SURFACE ( 'NONE', #310, 0.01771653543307086937 ) ;
#312 = DIRECTION ( 'NONE',  ( 0.000000000000000000, 0.000000000000000000, 1.000000000000000000 ) ) ;
#313 = CC_DESIGN_PERSON_AND_ORGANIZATION_ASSIGNMENT ( #529, #250, ( #447 ) ) ;
#314 = CARTESIAN_POINT ( 'NONE',  ( 0.1777559055118110298, 3.616083068348484413E-18, -0.02952755905511811330 ) ) ;
#315 = DIRECTION ( 'NONE',  ( 0.000000000000000000, 0.000000000000000000, 1.000000000000000000 ) ) ;
#316 = CARTESIAN_POINT ( 'NONE',  ( 0.003937007873027478615, 0.000000000000000000, 0.000000000000000000 ) ) ;
#317 = UNCERTAINTY_MEASURE_WITH_UNIT (LENGTH_MEASURE( 1.000000000000000082E-05 ), #17, 'distance_accuracy_value', 'NONE');
#318 = EDGE_LOOP ( 'NONE', ( #22, #579 ) ) ;
#319 = AXIS2_PLACEMENT_3D ( 'NONE', #86, #363, #369 ) ;
#320 = FACE_OUTER_BOUND ( 'NONE', #83, .T. ) ;
#321 = CC_DESIGN_APPROVAL ( #251, ( #447 ) ) ;
#322 = DIRECTION ( 'NONE',  ( 0.000000000000000000, 0.000000000000000000, 1.000000000000000000 ) ) ;
#323 = VERTEX_POINT ( 'NONE', #436 ) ;
#324 = DIRECTION ( 'NONE',  ( 0.000000000000000000, -3.673940397442058882E-17, 1.000000000000000000 ) ) ;
#325 = EDGE_CURVE ( 'NONE', #221, #604, #386, .T. ) ;
#326 = DIRECTION ( 'NONE',  ( 0.000000000000000000, 0.000000000000000000, 1.000000000000000000 ) ) ;
#327 = ORIENTED_EDGE ( 'NONE', *, *, #31, .T. ) ;
#328 = APPROVAL_ROLE ( '' ) ;
#329 = PLANE ( 'NONE',  #488 ) ;
#330 = CIRCLE ( 'NONE', #217, 0.01771653543307086937 ) ;
#331 = EDGE_CURVE ( 'NONE', #196, #429, #177, .T. ) ;
#332 = PLANE ( 'NONE',  #356 ) ;
#333 = EDGE_LOOP ( 'NONE', ( #4, #241 ) ) ;
#334 = DIRECTION ( 'NONE',  ( 0.000000000000000000, -1.000000000000000000, -1.224646799147353207E-16 ) ) ;
#335 = LINE ( 'NONE', #314, #398 ) ;
#336 = ORIENTED_EDGE ( 'NONE', *, *, #441, .F. ) ;
#337 = CONICAL_SURFACE ( 'NONE', #534, 0.03937007873698857019, 0.7853981631132311847 ) ;
#338 = DIRECTION ( 'NONE',  ( -1.000000000000000000, 0.000000000000000000, 0.000000000000000000 ) ) ;
#339 = AXIS2_PLACEMENT_3D ( 'NONE', #543, #126, #547 ) ;
#340 = EDGE_CURVE ( 'NONE', #192, #523, #305, .T. ) ;
#341 = ORIENTED_EDGE ( 'NONE', *, *, #385, .F. ) ;
#342 = CARTESIAN_POINT ( 'NONE',  ( 0.1181102362204724532, -0.02362204724409448786, -2.468229608025825201E-34 ) ) ;
#343 = EDGE_CURVE ( 'NONE', #283, #520, #481, .T. ) ;
#344 = ORIENTED_EDGE ( 'NONE', *, *, #306, .T. ) ;
#345 = CARTESIAN_POINT ( 'NONE',  ( 0.1777559055118110298, 0.000000000000000000, 0.03937007874015747977 ) ) ;
#346 = DIRECTION ( 'NONE',  ( -1.000000000000000000, 0.000000000000000000, 0.000000000000000000 ) ) ;
#347 = DIRECTION ( 'NONE',  ( 0.000000000000000000, 0.000000000000000000, 1.000000000000000000 ) ) ;
#348 = AXIS2_PLACEMENT_3D ( 'NONE', #10, #338, #397 ) ;
#349 = EDGE_CURVE ( 'NONE', #1, #122, #150, .T. ) ;
#350 = CARTESIAN_POINT ( 'NONE',  ( 0.000000000000000000, 2.667820305857812975E-20, 0.000000000000000000 ) ) ;
#351 = ORIENTED_EDGE ( 'NONE', *, *, #275, .T. ) ;
#352 = VERTEX_POINT ( 'NONE', #134 ) ;
#353 = CARTESIAN_POINT ( 'NONE',  ( 0.1777559055118110298, 0.000000000000000000, 0.000000000000000000 ) ) ;
#354 = AXIS2_PLACEMENT_3D ( 'NONE', #430, #188, #461 ) ;
#355 = ORIENTED_EDGE ( 'NONE', *, *, #163, .T. ) ;
#356 = AXIS2_PLACEMENT_3D ( 'NONE', #178, #606, #44 ) ;
#357 = DIRECTION ( 'NONE',  ( 1.000000000000000000, 0.000000000000000000, 0.000000000000000000 ) ) ;
#358 = ADVANCED_FACE ( 'NONE', ( #362 ), #268, .T. ) ;
#359 = DIRECTION ( 'NONE',  ( 0.000000000000000000, 0.000000000000000000, 1.000000000000000000 ) ) ;
#360 = CARTESIAN_POINT ( 'NONE',  ( 0.1777559055118110298, 0.000000000000000000, 0.000000000000000000 ) ) ;
#361 = DIRECTION ( 'NONE',  ( 1.000000000000000000, 0.000000000000000000, 0.000000000000000000 ) ) ;
#362 = FACE_OUTER_BOUND ( 'NONE', #469, .T. ) ;
#363 = DIRECTION ( 'NONE',  ( -1.000000000000000000, -0.000000000000000000, -0.000000000000000000 ) ) ;
#364 = AXIS2_PLACEMENT_3D ( 'NONE', #254, #483, #442 ) ;
#365 = TOROIDAL_SURFACE ( 'NONE', #169, 0.02362204724409443235, 0.005905511811023656660 ) ;
#366 = LOCAL_TIME ( 16, 17, 47.00000000000000000, #471 ) ;
#367 = PRODUCT_DEFINITION ( 'UNKNOWN', '', #447, #593 ) ;
#368 = DIRECTION ( 'NONE',  ( -1.000000000000000000, 0.000000000000000000, 0.000000000000000000 ) ) ;
#369 = DIRECTION ( 'NONE',  ( 0.000000000000000000, 0.000000000000000000, 1.000000000000000000 ) ) ;
#370 = VERTEX_POINT ( 'NONE', #411 ) ;
#371 = LINE ( 'NONE', #231, #109 ) ;
#372 = CARTESIAN_POINT ( 'NONE',  ( 0.1181102362204724532, 0.000000000000000000, 0.01771653543307086937 ) ) ;
#373 = EDGE_CURVE ( 'NONE', #309, #604, #236, .T. ) ;
#374 = DIRECTION ( 'NONE',  ( 0.000000000000000000, 0.000000000000000000, 1.000000000000000000 ) ) ;
#375 = VECTOR ( 'NONE', #90, 39.37007874015748143 ) ;
#376 =( LENGTH_UNIT ( ) NAMED_UNIT ( * ) SI_UNIT ( $, .METRE. ) );
#377 = PRODUCT_DEFINITION_SHAPE ( 'NONE', 'NONE',  #367 ) ;
#378 = ORIENTED_EDGE ( 'NONE', *, *, #2, .F. ) ;
#379 = DIRECTION ( 'NONE',  ( 4.818365018746104459E-32, -1.224646799147353207E-16, 1.000000000000000000 ) ) ;
#380 = DIRECTION ( 'NONE',  ( -1.000000000000000000, 0.000000000000000000, 0.000000000000000000 ) ) ;
#381 = EDGE_LOOP ( 'NONE', ( #438, #203, #517, #462, #148 ) ) ;
#382 = CARTESIAN_POINT ( 'NONE',  ( 0.003937007873027478615, 0.03937007873698857019, 0.000000000000000000 ) ) ;
#383 = ADVANCED_FACE ( 'NONE', ( #320 ), #84, .T. ) ;
#384 = EDGE_LOOP ( 'NONE', ( #8, #582, #600, #276, #403 ) ) ;
#385 = EDGE_CURVE ( 'NONE', #429, #196, #608, .T. ) ;
#386 = CIRCLE ( 'NONE', #106, 0.005905511811023654925 ) ;
#387 = CARTESIAN_POINT ( 'NONE',  ( 0.05118110236726065854, 3.712511950150467695E-18, -0.03031496062975269981 ) ) ;
#388 = CIRCLE ( 'NONE', #588, 0.02362204724409448786 ) ;
#389 = LOCAL_TIME ( 16, 17, 47.00000000000000000, #9 ) ;
#390 = ORIENTED_EDGE ( 'NONE', *, *, #472, .F. ) ;
#391 = CALENDAR_DATE ( 2025, 12, 2 ) ;
#392 = DIRECTION ( 'NONE',  ( -1.000000000000000000, 0.000000000000000000, 8.359070939180720899E-32 ) ) ;
#393 = ORIENTED_EDGE ( 'NONE', *, *, #563, .F. ) ;
#394 = DIRECTION ( 'NONE',  ( -1.000000000000000000, -0.000000000000000000, -0.000000000000000000 ) ) ;
#395 = EDGE_CURVE ( 'NONE', #520, #420, #248, .T. ) ;
#396 = CARTESIAN_POINT ( 'NONE',  ( 2.401038275878624348E-19, 0.03543307086619902624, 0.000000000000000000 ) ) ;
#397 = DIRECTION ( 'NONE',  ( 0.000000000000000000, 0.000000000000000000, 1.000000000000000000 ) ) ;
#398 = VECTOR ( 'NONE', #180, 39.37007874015748143 ) ;
#399 = AXIS2_PLACEMENT_3D ( 'NONE', #353, #452, #33 ) ;
#400 = FACE_OUTER_BOUND ( 'NONE', #6, .T. ) ;
#401 = CARTESIAN_POINT ( 'NONE',  ( 0.1515748031496063075, 0.000000000000000000, 0.000000000000000000 ) ) ;
#402 = DIRECTION ( 'NONE',  ( 0.000000000000000000, 0.000000000000000000, 1.000000000000000000 ) ) ;
#403 = ORIENTED_EDGE ( 'NONE', *, *, #349, .F. ) ;
#404 = FACE_OUTER_BOUND ( 'NONE', #102, .T. ) ;
#405 = APPLICATION_CONTEXT ( 'configuration controlled 3d designs of mechanical parts and assemblies' ) ;
#406 = EDGE_CURVE ( 'NONE', #189, #370, #557, .T. ) ;
#407 = AXIS2_PLACEMENT_3D ( 'NONE', #487, #113, #14 ) ;
#408 = CARTESIAN_POINT ( 'NONE',  ( 0.05118110236278479441, 0.000000000000000000, 0.03031496062993173368 ) ) ;
#409 = CONICAL_SURFACE ( 'NONE', #457, 0.03031496062975269981, 0.03997868712272251851 ) ;
#410 = APPROVAL_PERSON_ORGANIZATION ( #463, #251, #291 ) ;
#411 = CARTESIAN_POINT ( 'NONE',  ( 0.1122047244094488277, 0.02952755905511809942, 3.616083068348482873E-18 ) ) ;
#412 = DIRECTION ( 'NONE',  ( 0.000000000000000000, -3.673940397442058882E-17, 1.000000000000000000 ) ) ;
#413 = DIRECTION ( 'NONE',  ( 0.000000000000000000, 0.000000000000000000, -1.000000000000000000 ) ) ;
#414 = DIRECTION ( 'NONE',  ( -1.000000000000000000, 0.000000000000000000, 0.000000000000000000 ) ) ;
#415 = ADVANCED_FACE ( 'NONE', ( #594, #308 ), #81, .F. ) ;
#416 = ORIENTED_EDGE ( 'NONE', *, *, #406, .F. ) ;
#417 = AXIS2_PLACEMENT_3D ( 'NONE', #205, #450, #29 ) ;
#418 = AXIS2_PLACEMENT_3D ( 'NONE', #130, #211, #25 ) ;
#419 = FACE_BOUND ( 'NONE', #290, .T. ) ;
#420 = VERTEX_POINT ( 'NONE', #166 ) ;
#421 = FACE_BOUND ( 'NONE', #565, .T. ) ;
#422 =( NAMED_UNIT ( * ) SI_UNIT ( $, .STERADIAN. ) SOLID_ANGLE_UNIT ( ) );
#423 = DIRECTION ( 'NONE',  ( -2.891205793294680298E-16, -1.000000000000000000, 2.416779432592049542E-47 ) ) ;
#424 = ORIENTED_EDGE ( 'NONE', *, *, #485, .F. ) ;
#425 = DATE_AND_TIME ( #103, #135 ) ;
#426 = AXIS2_PLACEMENT_3D ( 'NONE', #69, #115, #300 ) ;
#427 = CARTESIAN_POINT ( 'NONE',  ( 0.1515748031496063075, 0.000000000000000000, 0.000000000000000000 ) ) ;
#428 = ORGANIZATION ( 'UNSPECIFIED', 'UNSPECIFIED', '' ) ;
#429 = VERTEX_POINT ( 'NONE', #554 ) ;
#430 = CARTESIAN_POINT ( 'NONE',  ( 0.003937007873027478615, 0.000000000000000000, 0.000000000000000000 ) ) ;
#431 = VERTEX_POINT ( 'NONE', #507 ) ;
#432 = CC_DESIGN_PERSON_AND_ORGANIZATION_ASSIGNMENT ( #253, #576, ( #489 ) ) ;
#433 = LINE ( 'NONE', #202, #216 ) ;
#434 = ORIENTED_EDGE ( 'NONE', *, *, #230, .F. ) ;
#435 = CIRCLE ( 'NONE', #585, 0.03937007873922650225 ) ;
#436 = CARTESIAN_POINT ( 'NONE',  ( 0.05118110236220472370, 0.000000000000000000, 0.02952755905511811330 ) ) ;
#437 = CIRCLE ( 'NONE', #418, 0.02952755905511811330 ) ;
#438 = ORIENTED_EDGE ( 'NONE', *, *, #340, .F. ) ;
#439 = APPROVAL_ROLE ( '' ) ;
#440 = CARTESIAN_POINT ( 'NONE',  ( 0.1777559055118110298, 0.000000000000000000, 0.000000000000000000 ) ) ;
#441 = EDGE_CURVE ( 'NONE', #352, #196, #454, .T. ) ;
#442 = DIRECTION ( 'NONE',  ( 0.000000000000000000, 0.000000000000000000, 1.000000000000000000 ) ) ;
#443 = ORIENTED_EDGE ( 'NONE', *, *, #472, .T. ) ;
#444 = DIRECTION ( 'NONE',  ( 0.000000000000000000, -1.000000000000000000, -4.353682780823285566E-32 ) ) ;
#445 = AXIS2_PLACEMENT_3D ( 'NONE', #172, #225, #154 ) ;
#446 = CIRCLE ( 'NONE', #12, 0.02952755905511811330 ) ;
#447 = PRODUCT_DEFINITION_FORMATION_WITH_SPECIFIED_SOURCE ( 'ANY', '', #212, .NOT_KNOWN. ) ;
#448 = ORIENTED_EDGE ( 'NONE', *, *, #157, .F. ) ;
#449 = DIRECTION ( 'NONE',  ( -1.000000000000000000, 0.000000000000000000, 0.000000000000000000 ) ) ;
#450 = DIRECTION ( 'NONE',  ( -1.000000000000000000, 6.776263578579826843E-18, 0.000000000000000000 ) ) ;
#451 = ADVANCED_FACE ( 'NONE', ( #404 ), #311, .T. ) ;
#452 = DIRECTION ( 'NONE',  ( -1.000000000000000000, 0.000000000000000000, 0.000000000000000000 ) ) ;
#453 = EDGE_LOOP ( 'NONE', ( #262, #476, #416, #390, #27 ) ) ;
#454 = LINE ( 'NONE', #176, #569 ) ;
#455 = AXIS2_PLACEMENT_3D ( 'NONE', #560, #265, #551 ) ;
#456 = CARTESIAN_POINT ( 'NONE',  ( 0.05118110236726065854, 0.000000000000000000, 0.03031496062975269981 ) ) ;
#457 = AXIS2_PLACEMENT_3D ( 'NONE', #141, #509, #93 ) ;
#458 = ORIENTED_EDGE ( 'NONE', *, *, #395, .F. ) ;
#459 = DIRECTION ( 'NONE',  ( -1.000000000000000000, 0.000000000000000000, 0.000000000000000000 ) ) ;
#460 = EDGE_CURVE ( 'NONE', #370, #309, #279, .T. ) ;
#461 = DIRECTION ( 'NONE',  ( 1.355252715715965369E-17, 1.000000000000000000, 0.000000000000000000 ) ) ;
#462 = ORIENTED_EDGE ( 'NONE', *, *, #479, .T. ) ;
#463 = PERSON_AND_ORGANIZATION ( #602, #428 ) ;
#464 = CARTESIAN_POINT ( 'NONE',  ( 0.003937007875265408074, 0.000000000000000000, 0.000000000000000000 ) ) ;
#465 = MECHANICAL_CONTEXT ( 'NONE', #405, 'mechanical' ) ;
#466 = CARTESIAN_POINT ( 'NONE',  ( 0.1777559055118110298, 0.000000000000000000, 0.000000000000000000 ) ) ;
#467 = CARTESIAN_POINT ( 'NONE',  ( 0.003937007875265408074, 0.03937007873922650225, 0.000000000000000000 ) ) ;
#468 = CIRCLE ( 'NONE', #426, 0.03937007874015747977 ) ;
#469 = EDGE_LOOP ( 'NONE', ( #239, #575, #537, #105 ) ) ;
#470 = ORIENTED_EDGE ( 'NONE', *, *, #79, .F. ) ;
#471 = COORDINATED_UNIVERSAL_TIME_OFFSET ( 0, 0, .AHEAD. ) ;
#472 = EDGE_CURVE ( 'NONE', #604, #189, #437, .T. ) ;
#473 = CARTESIAN_POINT ( 'NONE',  ( 0.1122047244094488139, 0.02362204724409443235, 2.892866454678780058E-18 ) ) ;
#474 = ORIENTED_EDGE ( 'NONE', *, *, #485, .T. ) ;
#475 = DIRECTION ( 'NONE',  ( -1.000000000000000000, 0.000000000000000000, 0.000000000000000000 ) ) ;
#476 = ORIENTED_EDGE ( 'NONE', *, *, #587, .T. ) ;
#477 = PERSON_AND_ORGANIZATION_ROLE ( 'design_supplier' ) ;
#478 = LINE ( 'NONE', #456, #375 ) ;
#479 = EDGE_CURVE ( 'NONE', #122, #528, #46, .T. ) ;
#480 = APPROVAL_DATE_TIME ( #533, #100 ) ;
#481 = LINE ( 'NONE', #580, #194 ) ;
#482 = ORIENTED_EDGE ( 'NONE', *, *, #406, .T. ) ;
#483 = DIRECTION ( 'NONE',  ( -1.000000000000000000, 0.000000000000000000, 0.000000000000000000 ) ) ;
#484 = ORIENTED_EDGE ( 'NONE', *, *, #200, .T. ) ;
#485 = EDGE_CURVE ( 'NONE', #352, #323, #446, .T. ) ;
#486 = AXIS2_PLACEMENT_3D ( 'NONE', #401, #592, #168 ) ;
#487 = CARTESIAN_POINT ( 'NONE',  ( 0.05118110236278479441, 0.000000000000000000, 0.000000000000000000 ) ) ;
#488 = AXIS2_PLACEMENT_3D ( 'NONE', #516, #475, #273 ) ;
#489 = SECURITY_CLASSIFICATION ( '', '', #186 ) ;
#490 = CARTESIAN_POINT ( 'NONE',  ( 0.1122047244094488139, 1.808041534174246444E-18, 0.000000000000000000 ) ) ;
#491 = EDGE_LOOP ( 'NONE', ( #233, #71, #589, #48, #482 ) ) ;
#492 = ORIENTED_EDGE ( 'NONE', *, *, #373, .T. ) ;
#493 = DIRECTION ( 'NONE',  ( 0.000000000000000000, 0.000000000000000000, 1.000000000000000000 ) ) ;
#494 = CLOSED_SHELL ( 'NONE', ( #358, #184, #285, #383, #263, #61, #590, #299, #174, #571, #118, #549, #89, #502, #561, #149, #512, #415, #451 ) ) ;
#495 = AXIS2_PLACEMENT_3D ( 'NONE', #264, #218, #315 ) ;
#496 = EDGE_CURVE ( 'NONE', #77, #307, #515, .T. ) ;
#497 = ORIENTED_EDGE ( 'NONE', *, *, #143, .F. ) ;
#498 = CARTESIAN_POINT ( 'NONE',  ( 0.1122047244094488277, 0.000000000000000000, 0.000000000000000000 ) ) ;
#499 = VERTEX_POINT ( 'NONE', #601 ) ;
#500 = CARTESIAN_POINT ( 'NONE',  ( 0.1515748031496063075, 1.084824920504545362E-18, 0.000000000000000000 ) ) ;
#501 = FACE_OUTER_BOUND ( 'NONE', #318, .T. ) ;
#502 = ADVANCED_FACE ( 'NONE', ( #400 ), #591, .T. ) ;
#503 = CARTESIAN_POINT ( 'NONE',  ( 0.05118110236220472370, 0.000000000000000000, 0.000000000000000000 ) ) ;
#504 = CYLINDRICAL_SURFACE ( 'NONE', #445, 0.02952755905511811330 ) ;
#505 = AXIS2_PLACEMENT_3D ( 'NONE', #92, #374, #361 ) ;
#506 = ORIENTED_EDGE ( 'NONE', *, *, #331, .T. ) ;
#507 = CARTESIAN_POINT ( 'NONE',  ( 0.01968503937007875723, 4.821444091131311524E-18, -0.03937007874015747977 ) ) ;
#508 = CARTESIAN_POINT ( 'NONE',  ( 0.1777559055118110298, 4.821444091131311524E-18, -0.03937007874015747977 ) ) ;
#509 = DIRECTION ( 'NONE',  ( -1.000000000000000000, 0.000000000000000000, 0.000000000000000000 ) ) ;
#510 = DIRECTION ( 'NONE',  ( -1.000000000000000000, -0.000000000000000000, -0.000000000000000000 ) ) ;
#511 = CARTESIAN_POINT ( 'NONE',  ( 0.1122047244094488139, 1.808041534174246444E-18, 0.000000000000000000 ) ) ;
#512 = ADVANCED_FACE ( 'NONE', ( #421, #183 ), #332, .T. ) ;
#513 = AXIS2_PLACEMENT_3D ( 'NONE', #360, #136, #322 ) ;
#514 = APPROVAL_DATE_TIME ( #425, #257 ) ;
#515 = CIRCLE ( 'NONE', #577, 0.02952755905511923046 ) ;
#516 = CARTESIAN_POINT ( 'NONE',  ( 0.000000000000000000, 0.000000000000000000, 0.000000000000000000 ) ) ;
#517 = ORIENTED_EDGE ( 'NONE', *, *, #349, .T. ) ;
#518 = APPLICATION_PROTOCOL_DEFINITION ( 'international standard', 'config_control_design', 1994, #405 ) ;
#519 = CARTESIAN_POINT ( 'NONE',  ( 0.01968503937007875723, 0.000000000000000000, 0.03937007874015747977 ) ) ;
#520 = VERTEX_POINT ( 'NONE', #372 ) ;
#521 = CALENDAR_DATE ( 2025, 12, 2 ) ;
#522 = EDGE_CURVE ( 'NONE', #189, #77, #104, .T. ) ;
#523 = VERTEX_POINT ( 'NONE', #5 ) ;
#524 = AXIS2_PLACEMENT_3D ( 'NONE', #20, #121, #586 ) ;
#525 = DIRECTION ( 'NONE',  ( -1.000000000000000000, 0.000000000000000000, 0.000000000000000000 ) ) ;
#526 = ORIENTED_EDGE ( 'NONE', *, *, #157, .T. ) ;
#527 = CARTESIAN_POINT ( 'NONE',  ( 0.003937007875265408074, 0.000000000000000000, 0.000000000000000000 ) ) ;
#528 = VERTEX_POINT ( 'NONE', #227 ) ;
#529 = PERSON_AND_ORGANIZATION ( #602, #428 ) ;
#530 = EDGE_CURVE ( 'NONE', #221, #280, #388, .T. ) ;
#531 = CARTESIAN_POINT ( 'NONE',  ( -2.401038275878624348E-19, -0.03543307086619902624, 4.580371886521249160E-18 ) ) ;
#532 = ORIENTED_EDGE ( 'NONE', *, *, #441, .T. ) ;
#533 = DATE_AND_TIME ( #391, #119 ) ;
#534 = AXIS2_PLACEMENT_3D ( 'NONE', #316, #57, #41 ) ;
#535 = DIRECTION ( 'NONE',  ( -1.000000000000000000, 0.000000000000000000, 0.000000000000000000 ) ) ;
#536 = VECTOR ( 'NONE', #137, 39.37007874015748143 ) ;
#537 = ORIENTED_EDGE ( 'NONE', *, *, #581, .T. ) ;
#538 = DIRECTION ( 'NONE',  ( -8.359070939180718709E-32, 2.416779432592050028E-47, -1.000000000000000000 ) ) ;
#539 = ORIENTED_EDGE ( 'NONE', *, *, #275, .F. ) ;
#540 = CARTESIAN_POINT ( 'NONE',  ( 0.01968503937007875723, 0.000000000000000000, 0.000000000000000000 ) ) ;
#541 = EDGE_CURVE ( 'NONE', #499, #420, #371, .T. ) ;
#542 = DIRECTION ( 'NONE',  ( 0.000000000000000000, 0.000000000000000000, -1.000000000000000000 ) ) ;
#543 = CARTESIAN_POINT ( 'NONE',  ( 0.1181102362204724532, 0.000000000000000000, 0.000000000000000000 ) ) ;
#544 = CIRCLE ( 'NONE', #486, 0.01771653543307086937 ) ;
#545 = AXIS2_PLACEMENT_3D ( 'NONE', #427, #181, #278 ) ;
#546 = EDGE_LOOP ( 'NONE', ( #201, #570 ) ) ;
#547 = DIRECTION ( 'NONE',  ( 0.000000000000000000, 0.000000000000000000, 1.000000000000000000 ) ) ;
#548 = DIRECTION ( 'NONE',  ( -1.000000000000000000, 0.000000000000000000, 0.000000000000000000 ) ) ;
#549 = ADVANCED_FACE ( 'NONE', ( #234 ), #409, .T. ) ;
#550 = DIRECTION ( 'NONE',  ( -1.000000000000000000, 0.000000000000000000, 0.000000000000000000 ) ) ;
#551 = DIRECTION ( 'NONE',  ( 0.000000000000000000, 0.000000000000000000, 1.000000000000000000 ) ) ;
#552 = ORIENTED_EDGE ( 'NONE', *, *, #460, .F. ) ;
#553 = CALENDAR_DATE ( 2025, 12, 2 ) ;
#554 = CARTESIAN_POINT ( 'NONE',  ( 0.01968503937007875723, 0.000000000000000000, 0.02952755905511811330 ) ) ;
#555 = CIRCLE ( 'NONE', #34, 0.02952755905511923046 ) ;
#556 = FACE_OUTER_BOUND ( 'NONE', #63, .T. ) ;
#557 = CIRCLE ( 'NONE', #75, 0.02952755905511811330 ) ;
#558 = VERTEX_POINT ( 'NONE', #519 ) ;
#559 = CARTESIAN_POINT ( 'NONE',  ( 0.1777559055118110298, 0.000000000000000000, 0.02952755905511811330 ) ) ;
#560 = CARTESIAN_POINT ( 'NONE',  ( 0.01968503937007873988, 0.000000000000000000, 0.000000000000000000 ) ) ;
#561 = ADVANCED_FACE ( 'NONE', ( #284 ), #329, .T. ) ;
#562 = CARTESIAN_POINT ( 'NONE',  ( 0.1181102362204724532, 0.000000000000000000, 0.000000000000000000 ) ) ;
#563 = EDGE_CURVE ( 'NONE', #499, #283, #125, .T. ) ;
#564 = DIMENSIONAL_EXPONENTS ( 1.000000000000000000, 0.000000000000000000, 0.000000000000000000, 0.000000000000000000, 0.000000000000000000, 0.000000000000000000, 0.000000000000000000 ) ;
#565 = EDGE_LOOP ( 'NONE', ( #132, #424 ) ) ;
#566 = APPLICATION_PROTOCOL_DEFINITION ( 'international standard', 'config_control_design', 1994, #292 ) ;
#567 = DIRECTION ( 'NONE',  ( 0.000000000000000000, 0.000000000000000000, 1.000000000000000000 ) ) ;
#568 = CIRCLE ( 'NONE', #116, 0.03543307086619902624 ) ;
#569 = VECTOR ( 'NONE', #214, 39.37007874015748143 ) ;
#570 = ORIENTED_EDGE ( 'NONE', *, *, #163, .F. ) ;
#571 = ADVANCED_FACE ( 'NONE', ( #50 ), #610, .T. ) ;
#572 = EDGE_LOOP ( 'NONE', ( #226, #255, #526, #153 ) ) ;
#573 = DATE_TIME_ROLE ( 'classification_date' ) ;
#574 = FACE_OUTER_BOUND ( 'NONE', #114, .T. ) ;
#575 = ORIENTED_EDGE ( 'NONE', *, *, #541, .T. ) ;
#576 = PERSON_AND_ORGANIZATION_ROLE ( 'classification_officer' ) ;
#577 = AXIS2_PLACEMENT_3D ( 'NONE', #38, #222, #413 ) ;
#578 = DIRECTION ( 'NONE',  ( -1.000000000000000000, 0.000000000000000000, 0.000000000000000000 ) ) ;
#579 = ORIENTED_EDGE ( 'NONE', *, *, #70, .F. ) ;
#580 = CARTESIAN_POINT ( 'NONE',  ( 0.1777559055118110298, 0.000000000000000000, 0.01771653543307086937 ) ) ;
#581 = EDGE_CURVE ( 'NONE', #420, #520, #330, .T. ) ;
#582 = ORIENTED_EDGE ( 'NONE', *, *, #340, .T. ) ;
#583 = CARTESIAN_POINT ( 'NONE',  ( 0.1181102362204724532, 0.02362204724409448786, 3.254474761513634354E-18 ) ) ;
#584 = ORIENTED_EDGE ( 'NONE', *, *, #219, .F. ) ;
#585 = AXIS2_PLACEMENT_3D ( 'NONE', #464, #510, #173 ) ;
#586 = DIRECTION ( 'NONE',  ( 0.000000000000000000, 0.000000000000000000, 1.000000000000000000 ) ) ;
#587 = EDGE_CURVE ( 'NONE', #280, #370, #301, .T. ) ;
#588 = AXIS2_PLACEMENT_3D ( 'NONE', #53, #146, #324 ) ;
#589 = ORIENTED_EDGE ( 'NONE', *, *, #496, .F. ) ;
#590 = ADVANCED_FACE ( 'NONE', ( #139 ), #117, .T. ) ;
#591 = CYLINDRICAL_SURFACE ( 'NONE', #195, 0.01771653543307086937 ) ;
#592 = DIRECTION ( 'NONE',  ( -1.000000000000000000, 0.000000000000000000, 0.000000000000000000 ) ) ;
#593 = DESIGN_CONTEXT ( 'detailed design', #292, 'design' ) ;
#594 = FACE_BOUND ( 'NONE', #98, .T. ) ;
#595 = DIRECTION ( 'NONE',  ( 0.000000000000000000, 0.000000000000000000, 1.000000000000000000 ) ) ;
#596 = CIRCLE ( 'NONE', #142, 0.03937007873922650225 ) ;
#597 = AXIS2_PLACEMENT_3D ( 'NONE', #466, #101, #326 ) ;
#598 = CARTESIAN_POINT ( 'NONE',  ( 0.003937007875265408074, 0.000000000000000000, 0.03937007873922650225 ) ) ;
#599 = CARTESIAN_POINT ( 'NONE',  ( 0.1122047244094488277, 0.000000000000000000, 0.000000000000000000 ) ) ;
#600 = ORIENTED_EDGE ( 'NONE', *, *, #230, .T. ) ;
#601 = CARTESIAN_POINT ( 'NONE',  ( 0.1515748031496063075, 2.169649841009090725E-18, -0.01771653543307086937 ) ) ;
#602 = PERSON ( 'UNSPECIFIED', 'UNSPECIFIED', 'UNSPECIFIED', ('UNSPECIFIED'), ('UNSPECIFIED'), ('UNSPECIFIED') ) ;
#603 = FACE_OUTER_BOUND ( 'NONE', #384, .T. ) ;
#604 = VERTEX_POINT ( 'NONE', #232 ) ;
#605 = APPROVAL_STATUS ( 'not_yet_approved' ) ;
#606 = DIRECTION ( 'NONE',  ( -1.000000000000000000, 0.000000000000000000, 0.000000000000000000 ) ) ;
#607 = VECTOR ( 'NONE', #293, 39.37007874015748143 ) ;
#608 = CIRCLE ( 'NONE', #207, 0.02952755905511811330 ) ;
#609 = CC_DESIGN_DATE_AND_TIME_ASSIGNMENT ( #87, #270, ( #367 ) ) ;
#610 = CYLINDRICAL_SURFACE ( 'NONE', #597, 0.03937007874015747977 ) ;
ENDSEC;
END-ISO-10303-21;
